0
SECTION
2
ENTITIES
0
LINE
8
FCrtYd
62
7
10
172.11
20
-102.75
11
168.41
21
-102.75
0
LINE
8
FCrtYd
62
7
10
168.41
20
-100.85
11
172.11
21
-100.85
0
LINE
8
FCrtYd
62
7
10
172.11
20
-100.85
11
172.11
21
-102.75
0
LINE
8
FCrtYd
62
7
10
168.41
20
-102.75
11
168.41
21
-100.85
0
LINE
8
FFab
62
5
10
169.26
20
-102.425
11
169.26
21
-101.175
0
LINE
8
FFab
62
5
10
171.26
20
-102.425
11
169.26
21
-102.425
0
LINE
8
FFab
62
5
10
171.26
20
-101.175
11
171.26
21
-102.425
0
LINE
8
FFab
62
5
10
169.26
20
-101.175
11
171.26
21
-101.175
0
LINE
8
FCrtYd
62
7
10
178.065
20
-81.495
11
181.765
21
-81.495
0
LINE
8
FCrtYd
62
7
10
178.065
20
-83.395
11
178.065
21
-81.495
0
LINE
8
FCrtYd
62
7
10
181.765
20
-81.495
11
181.765
21
-83.395
0
LINE
8
FCrtYd
62
7
10
181.765
20
-83.395
11
178.065
21
-83.395
0
LINE
8
FFab
62
5
10
178.915
20
-82.145
11
178.915
21
-83.045
0
LINE
8
FFab
62
5
10
178.915
20
-83.045
11
180.915
21
-83.045
0
LINE
8
FFab
62
5
10
180.915
20
-83.045
11
180.915
21
-81.845
0
LINE
8
FFab
62
5
10
180.915
20
-81.845
11
179.215
21
-81.845
0
LINE
8
FFab
62
5
10
179.215
20
-81.845
11
178.915
21
-82.145
0
LINE
8
FCrtYd
62
7
10
173.23
20
-90.57
11
176.93
21
-90.57
0
LINE
8
FCrtYd
62
7
10
176.93
20
-90.57
11
176.93
21
-92.47
0
LINE
8
FCrtYd
62
7
10
173.23
20
-92.47
11
173.23
21
-90.57
0
LINE
8
FCrtYd
62
7
10
176.93
20
-92.47
11
173.23
21
-92.47
0
LINE
8
FFab
62
5
10
174.08
20
-90.895
11
176.08
21
-90.895
0
LINE
8
FFab
62
5
10
176.08
20
-92.145
11
174.08
21
-92.145
0
LINE
8
FFab
62
5
10
176.08
20
-90.895
11
176.08
21
-92.145
0
LINE
8
FFab
62
5
10
174.08
20
-92.145
11
174.08
21
-90.895
0
LINE
8
FCrtYd
62
7
10
163.66
20
-102.75
11
163.66
21
-100.85
0
LINE
8
FCrtYd
62
7
10
167.36
20
-100.85
11
167.36
21
-102.75
0
LINE
8
FCrtYd
62
7
10
163.66
20
-100.85
11
167.36
21
-100.85
0
LINE
8
FCrtYd
62
7
10
167.36
20
-102.75
11
163.66
21
-102.75
0
LINE
8
FFab
62
5
10
164.51
20
-101.175
11
166.51
21
-101.175
0
LINE
8
FFab
62
5
10
166.51
20
-102.425
11
164.51
21
-102.425
0
LINE
8
FFab
62
5
10
166.51
20
-101.175
11
166.51
21
-102.425
0
LINE
8
FFab
62
5
10
164.51
20
-102.425
11
164.51
21
-101.175
0
LINE
8
FCrtYd
62
7
10
134.31
20
-81.18
11
134.31
21
-79.22
0
LINE
8
FCrtYd
62
7
10
138.07
20
-79.22
11
138.07
21
-81.18
0
LINE
8
FCrtYd
62
7
10
138.07
20
-81.18
11
134.31
21
-81.18
0
LINE
8
FCrtYd
62
7
10
134.31
20
-79.22
11
138.07
21
-79.22
0
LINE
8
FFab
62
5
10
137.19
20
-80.825
11
135.19
21
-80.825
0
LINE
8
FFab
62
5
10
137.19
20
-79.575
11
137.19
21
-80.825
0
LINE
8
FFab
62
5
10
135.19
20
-79.575
11
137.19
21
-79.575
0
LINE
8
FFab
62
5
10
135.19
20
-80.825
11
135.19
21
-79.575
0
LINE
8
FCrtYd
62
7
10
176.93
20
-95.42
11
173.23
21
-95.42
0
LINE
8
FCrtYd
62
7
10
176.93
20
-93.52
11
176.93
21
-95.42
0
LINE
8
FCrtYd
62
7
10
173.23
20
-95.42
11
173.23
21
-93.52
0
LINE
8
FCrtYd
62
7
10
173.23
20
-93.52
11
176.93
21
-93.52
0
LINE
8
FFab
62
5
10
174.08
20
-95.095
11
174.08
21
-93.845
0
LINE
8
FFab
62
5
10
176.08
20
-93.845
11
176.08
21
-95.095
0
LINE
8
FFab
62
5
10
174.08
20
-93.845
11
176.08
21
-93.845
0
LINE
8
FFab
62
5
10
176.08
20
-95.095
11
174.08
21
-95.095
0
LINE
8
FCrtYd
62
7
10
181.72
20
-89.34
11
178.02
21
-89.34
0
LINE
8
FCrtYd
62
7
10
178.02
20
-87.44
11
181.72
21
-87.44
0
LINE
8
FCrtYd
62
7
10
178.02
20
-89.34
11
178.02
21
-87.44
0
LINE
8
FCrtYd
62
7
10
181.72
20
-87.44
11
181.72
21
-89.34
0
LINE
8
FFab
62
5
10
180.87
20
-87.765
11
180.87
21
-89.015
0
LINE
8
FFab
62
5
10
178.87
20
-87.765
11
180.87
21
-87.765
0
LINE
8
FFab
62
5
10
180.87
20
-89.015
11
178.87
21
-89.015
0
LINE
8
FFab
62
5
10
178.87
20
-89.015
11
178.87
21
-87.765
0
LINE
8
FCrtYd
62
7
10
157.825
20
-102.795
11
154.125
21
-102.795
0
LINE
8
FCrtYd
62
7
10
154.125
20
-100.895
11
157.825
21
-100.895
0
LINE
8
FCrtYd
62
7
10
154.125
20
-102.795
11
154.125
21
-100.895
0
LINE
8
FCrtYd
62
7
10
157.825
20
-100.895
11
157.825
21
-102.795
0
LINE
8
FFab
62
5
10
155.275
20
-101.245
11
154.975
21
-101.545
0
LINE
8
FFab
62
5
10
156.975
20
-102.445
11
156.975
21
-101.245
0
LINE
8
FFab
62
5
10
154.975
20
-102.445
11
156.975
21
-102.445
0
LINE
8
FFab
62
5
10
156.975
20
-101.245
11
155.275
21
-101.245
0
LINE
8
FFab
62
5
10
154.975
20
-101.545
11
154.975
21
-102.445
0
LINE
8
FCrtYd
62
7
10
181.72
20
-84.49
11
181.72
21
-86.39
0
LINE
8
FCrtYd
62
7
10
178.02
20
-84.49
11
181.72
21
-84.49
0
LINE
8
FCrtYd
62
7
10
181.72
20
-86.39
11
178.02
21
-86.39
0
LINE
8
FCrtYd
62
7
10
178.02
20
-86.39
11
178.02
21
-84.49
0
LINE
8
FFab
62
5
10
178.87
20
-86.065
11
178.87
21
-84.815
0
LINE
8
FFab
62
5
10
178.87
20
-84.815
11
180.87
21
-84.815
0
LINE
8
FFab
62
5
10
180.87
20
-86.065
11
178.87
21
-86.065
0
LINE
8
FFab
62
5
10
180.87
20
-84.815
11
180.87
21
-86.065
0
LINE
8
FCrtYd
62
7
10
163.66
20
-105.7
11
163.66
21
-103.8
0
LINE
8
FCrtYd
62
7
10
163.66
20
-103.8
11
167.36
21
-103.8
0
LINE
8
FCrtYd
62
7
10
167.36
20
-105.7
11
163.66
21
-105.7
0
LINE
8
FCrtYd
62
7
10
167.36
20
-103.8
11
167.36
21
-105.7
0
LINE
8
FFab
62
5
10
166.51
20
-104.125
11
166.51
21
-105.375
0
LINE
8
FFab
62
5
10
166.51
20
-105.375
11
164.51
21
-105.375
0
LINE
8
FFab
62
5
10
164.51
20
-105.375
11
164.51
21
-104.125
0
LINE
8
FFab
62
5
10
164.51
20
-104.125
11
166.51
21
-104.125
0
LINE
8
FCrtYd
62
7
10
172.18
20
-99.8
11
172.18
21
-81.45
0
LINE
8
FCrtYd
62
7
10
162.38
20
-99.8
11
172.18
21
-99.8
0
LINE
8
FCrtYd
62
7
10
172.18
20
-81.45
11
162.38
21
-81.45
0
LINE
8
FCrtYd
62
7
10
162.38
20
-81.45
11
162.38
21
-99.8
0
LINE
8
FFab
62
5
10
164.115
20
-99.51
11
164.115
21
-82.73
0
LINE
8
FFab
62
5
10
165.115
20
-81.73
11
170.465
21
-81.73
0
LINE
8
FFab
62
5
10
164.115
20
-82.73
11
165.115
21
-81.73
0
LINE
8
FFab
62
5
10
170.465
20
-99.51
11
164.115
21
-99.51
0
LINE
8
FFab
62
5
10
170.465
20
-81.73
11
170.465
21
-99.51
0
LINE
8
FCrtYd
62
7
10
152.235
20
-101.135
11
152.235
21
-103.035
0
LINE
8
FCrtYd
62
7
10
148.535
20
-101.135
11
152.235
21
-101.135
0
LINE
8
FCrtYd
62
7
10
148.535
20
-103.035
11
148.535
21
-101.135
0
LINE
8
FCrtYd
62
7
10
152.235
20
-103.035
11
148.535
21
-103.035
0
LINE
8
FFab
62
5
10
151.385
20
-101.485
11
149.685
21
-101.485
0
LINE
8
FFab
62
5
10
149.385
20
-101.785
11
149.385
21
-102.685
0
LINE
8
FFab
62
5
10
149.385
20
-102.685
11
151.385
21
-102.685
0
LINE
8
FFab
62
5
10
151.385
20
-102.685
11
151.385
21
-101.485
0
LINE
8
FFab
62
5
10
149.685
20
-101.485
11
149.385
21
-101.785
0
LINE
8
FCrtYd
62
7
10
173.275
20
-83.395
11
173.275
21
-81.495
0
LINE
8
FCrtYd
62
7
10
176.975
20
-81.495
11
176.975
21
-83.395
0
LINE
8
FCrtYd
62
7
10
176.975
20
-83.395
11
173.275
21
-83.395
0
LINE
8
FCrtYd
62
7
10
173.275
20
-81.495
11
176.975
21
-81.495
0
LINE
8
FFab
62
5
10
174.425
20
-81.845
11
174.125
21
-82.145
0
LINE
8
FFab
62
5
10
176.125
20
-83.045
11
176.125
21
-81.845
0
LINE
8
FFab
62
5
10
174.125
20
-83.045
11
176.125
21
-83.045
0
LINE
8
FFab
62
5
10
174.125
20
-82.145
11
174.125
21
-83.045
0
LINE
8
FFab
62
5
10
176.125
20
-81.845
11
174.425
21
-81.845
0
LINE
8
FCrtYd
62
7
10
147.44
20
-98.05
11
135.09
21
-98.05
0
LINE
8
FCrtYd
62
7
10
135.09
20
-104.2
11
147.44
21
-104.2
0
LINE
8
FCrtYd
62
7
10
135.09
20
-98.05
11
135.09
21
-104.2
0
LINE
8
FCrtYd
62
7
10
147.44
20
-104.2
11
147.44
21
-98.05
0
LINE
8
FFab
62
5
10
136.57
20
-102.07
11
138.39
21
-102.07
0
LINE
8
FFab
62
5
10
136.57
20
-102.07
11
136.57
21
-102.71
0
LINE
8
FFab
62
5
10
138.39
20
-99.215
11
139.025
21
-98.58
0
LINE
8
FFab
62
5
10
138.39
20
-103.66
11
138.39
21
-99.215
0
LINE
8
FFab
62
5
10
140.93
20
-98.58
11
140.93
21
-103.66
0
LINE
8
FFab
62
5
10
139.025
20
-98.58
11
140.93
21
-98.58
0
LINE
8
FFab
62
5
10
146.93
20
-99.53
11
146.93
21
-100.17
0
LINE
8
FFab
62
5
10
136.57
20
-99.53
11
136.57
21
-100.17
0
LINE
8
FFab
62
5
10
136.57
20
-99.53
11
138.39
21
-99.53
0
LINE
8
FFab
62
5
10
136.57
20
-100.17
11
138.39
21
-100.17
0
LINE
8
FFab
62
5
10
140.93
20
-102.07
11
146.93
21
-102.07
0
LINE
8
FFab
62
5
10
146.93
20
-102.07
11
146.93
21
-102.71
0
LINE
8
FFab
62
5
10
140.93
20
-103.66
11
138.39
21
-103.66
0
LINE
8
FFab
62
5
10
136.57
20
-102.71
11
138.39
21
-102.71
0
LINE
8
FFab
62
5
10
140.93
20
-99.53
11
146.93
21
-99.53
0
LINE
8
FFab
62
5
10
140.93
20
-100.17
11
146.93
21
-100.17
0
LINE
8
FFab
62
5
10
140.93
20
-102.71
11
146.93
21
-102.71
0
LINE
8
FCrtYd
62
7
10
176.975
20
-89.475
11
173.275
21
-89.475
0
LINE
8
FCrtYd
62
7
10
173.275
20
-89.475
11
173.275
21
-87.575
0
LINE
8
FCrtYd
62
7
10
173.275
20
-87.575
11
176.975
21
-87.575
0
LINE
8
FCrtYd
62
7
10
176.975
20
-87.575
11
176.975
21
-89.475
0
LINE
8
FFab
62
5
10
176.125
20
-89.125
11
176.125
21
-87.925
0
LINE
8
FFab
62
5
10
174.125
20
-88.225
11
174.125
21
-89.125
0
LINE
8
FFab
62
5
10
176.125
20
-87.925
11
174.425
21
-87.925
0
LINE
8
FFab
62
5
10
174.125
20
-89.125
11
176.125
21
-89.125
0
LINE
8
FFab
62
5
10
174.425
20
-87.925
11
174.125
21
-88.225
0
LINE
8
FCrtYd
62
7
10
157.025
20
-101.135
11
157.025
21
-103.035
0
LINE
8
FCrtYd
62
7
10
157.025
20
-103.035
11
153.325
21
-103.035
0
LINE
8
FCrtYd
62
7
10
153.325
20
-103.035
11
153.325
21
-101.135
0
LINE
8
FCrtYd
62
7
10
153.325
20
-101.135
11
157.025
21
-101.135
0
LINE
8
FFab
62
5
10
154.475
20
-101.485
11
154.175
21
-101.785
0
LINE
8
FFab
62
5
10
154.175
20
-102.685
11
156.175
21
-102.685
0
LINE
8
FFab
62
5
10
156.175
20
-102.685
11
156.175
21
-101.485
0
LINE
8
FFab
62
5
10
154.175
20
-101.785
11
154.175
21
-102.685
0
LINE
8
FFab
62
5
10
156.175
20
-101.485
11
154.475
21
-101.485
0
LINE
8
FCrtYd
62
7
10
176.975
20
-86.435
11
173.275
21
-86.435
0
LINE
8
FCrtYd
62
7
10
173.275
20
-86.435
11
173.275
21
-84.535
0
LINE
8
FCrtYd
62
7
10
176.975
20
-84.535
11
176.975
21
-86.435
0
LINE
8
FCrtYd
62
7
10
173.275
20
-84.535
11
176.975
21
-84.535
0
LINE
8
FFab
62
5
10
174.125
20
-86.085
11
176.125
21
-86.085
0
LINE
8
FFab
62
5
10
176.125
20
-86.085
11
176.125
21
-84.885
0
LINE
8
FFab
62
5
10
174.125
20
-85.185
11
174.125
21
-86.085
0
LINE
8
FFab
62
5
10
174.425
20
-84.885
11
174.125
21
-85.185
0
LINE
8
FFab
62
5
10
176.125
20
-84.885
11
174.425
21
-84.885
0
LINE
8
FCrtYd
62
7
10
151.53
20
-81.45
11
151.53
21
-99.8
0
LINE
8
FCrtYd
62
7
10
151.53
20
-99.8
11
161.33
21
-99.8
0
LINE
8
FCrtYd
62
7
10
161.33
20
-81.45
11
151.53
21
-81.45
0
LINE
8
FCrtYd
62
7
10
161.33
20
-99.8
11
161.33
21
-81.45
0
LINE
8
FFab
62
5
10
153.265
20
-82.73
11
154.265
21
-81.73
0
LINE
8
FFab
62
5
10
154.265
20
-81.73
11
159.615
21
-81.73
0
LINE
8
FFab
62
5
10
159.615
20
-99.51
11
153.265
21
-99.51
0
LINE
8
FFab
62
5
10
159.615
20
-81.73
11
159.615
21
-99.51
0
LINE
8
FFab
62
5
10
153.265
20
-99.51
11
153.265
21
-82.73
0
LINE
8
FCrtYd
62
7
10
182.81
20
-86.3
11
182.81
21
-84.4
0
LINE
8
FCrtYd
62
7
10
186.51
20
-84.4
11
186.51
21
-86.3
0
LINE
8
FCrtYd
62
7
10
186.51
20
-86.3
11
182.81
21
-86.3
0
LINE
8
FCrtYd
62
7
10
182.81
20
-84.4
11
186.51
21
-84.4
0
LINE
8
FFab
62
5
10
183.66
20
-85.975
11
183.66
21
-84.725
0
LINE
8
FFab
62
5
10
183.66
20
-84.725
11
185.66
21
-84.725
0
LINE
8
FFab
62
5
10
185.66
20
-84.725
11
185.66
21
-85.975
0
LINE
8
FFab
62
5
10
185.66
20
-85.975
11
183.66
21
-85.975
0
LINE
8
FCrtYd
62
7
10
158.915
20
-102.795
11
158.915
21
-100.895
0
LINE
8
FCrtYd
62
7
10
162.615
20
-102.795
11
158.915
21
-102.795
0
LINE
8
FCrtYd
62
7
10
162.615
20
-100.895
11
162.615
21
-102.795
0
LINE
8
FCrtYd
62
7
10
158.915
20
-100.895
11
162.615
21
-100.895
0
LINE
8
FFab
62
5
10
160.065
20
-101.245
11
159.765
21
-101.545
0
LINE
8
FFab
62
5
10
159.765
20
-102.445
11
161.765
21
-102.445
0
LINE
8
FFab
62
5
10
159.765
20
-101.545
11
159.765
21
-102.445
0
LINE
8
FFab
62
5
10
161.765
20
-102.445
11
161.765
21
-101.245
0
LINE
8
FFab
62
5
10
161.765
20
-101.245
11
160.065
21
-101.245
0
LINE
8
FCrtYd
62
7
10
182.81
20
-81.45
11
186.51
21
-81.45
0
LINE
8
FCrtYd
62
7
10
186.51
20
-83.35
11
182.81
21
-83.35
0
LINE
8
FCrtYd
62
7
10
186.51
20
-81.45
11
186.51
21
-83.35
0
LINE
8
FCrtYd
62
7
10
182.81
20
-83.35
11
182.81
21
-81.45
0
LINE
8
FFab
62
5
10
183.66
20
-81.775
11
185.66
21
-81.775
0
LINE
8
FFab
62
5
10
185.66
20
-81.775
11
185.66
21
-83.025
0
LINE
8
FFab
62
5
10
185.66
20
-83.025
11
183.66
21
-83.025
0
LINE
8
FFab
62
5
10
183.66
20
-83.025
11
183.66
21
-81.775
0
ENDSEC
0
EOF
