%TF.GenerationSoftware,KiCad,Pcbnew,6.0.11-2627ca5db0~126~ubuntu22.04.1*%
%TF.CreationDate,2023-12-06T09:32:17+02:00*%
%TF.ProjectId,ZX-Spectrum-Pentagon,5a582d53-7065-4637-9472-756d2d50656e,pcb_v0.4*%
%TF.SameCoordinates,Original*%
%TF.FileFunction,Paste,Bot*%
%TF.FilePolarity,Positive*%
%FSLAX46Y46*%
G04 Gerber Fmt 4.6, Leading zero omitted, Abs format (unit mm)*
G04 Created by KiCad (PCBNEW 6.0.11-2627ca5db0~126~ubuntu22.04.1) date 2023-12-06 09:32:17*
%MOMM*%
%LPD*%
G01*
G04 APERTURE LIST*
G04 Aperture macros list*
%AMRoundRect*
0 Rectangle with rounded corners*
0 $1 Rounding radius*
0 $2 $3 $4 $5 $6 $7 $8 $9 X,Y pos of 4 corners*
0 Add a 4 corners polygon primitive as box body*
4,1,4,$2,$3,$4,$5,$6,$7,$8,$9,$2,$3,0*
0 Add four circle primitives for the rounded corners*
1,1,$1+$1,$2,$3*
1,1,$1+$1,$4,$5*
1,1,$1+$1,$6,$7*
1,1,$1+$1,$8,$9*
0 Add four rect primitives between the rounded corners*
20,1,$1+$1,$2,$3,$4,$5,0*
20,1,$1+$1,$4,$5,$6,$7,0*
20,1,$1+$1,$6,$7,$8,$9,0*
20,1,$1+$1,$8,$9,$2,$3,0*%
G04 Aperture macros list end*
%TA.AperFunction,Profile*%
%ADD10C,0.200000*%
%TD*%
%ADD11RoundRect,0.360000X-0.540000X-2.890000X0.540000X-2.890000X0.540000X2.890000X-0.540000X2.890000X0*%
%ADD12RoundRect,0.180000X-0.720000X-3.070000X0.720000X-3.070000X0.720000X3.070000X-0.720000X3.070000X0*%
G04 APERTURE END LIST*
D10*
X20320000Y-149320000D02*
X20320000Y-20320000D01*
X233420000Y-149320000D02*
X20320000Y-149320000D01*
X211630000Y-20320000D02*
X233420000Y-20320000D01*
X20320000Y-20320000D02*
X133250000Y-20320000D01*
X233420000Y-20320000D02*
X233420000Y-149320000D01*
%TO.C,XMCPU1*%
X211630000Y-28720000D02*
X211630000Y-20320000D01*
X133250000Y-20320000D02*
X133250000Y-28720000D01*
X209330000Y-28720000D02*
X211630000Y-28720000D01*
X149310000Y-20320000D02*
X209330000Y-20320000D01*
X147310000Y-20320000D02*
X147310000Y-28720000D01*
X135550000Y-20320000D02*
X147310000Y-20320000D01*
X135550000Y-28720000D02*
X135550000Y-20320000D01*
X147310000Y-28720000D02*
X149310000Y-28720000D01*
X209330000Y-20320000D02*
X209330000Y-28720000D01*
X149310000Y-28720000D02*
X149310000Y-20320000D01*
X133250000Y-28720000D02*
X135550000Y-28720000D01*
%TD*%
D11*
%TO.C,XMCPU1*%
X138150000Y-24130000D03*
D12*
X140690000Y-24130000D03*
X143230000Y-24130000D03*
X145770000Y-24130000D03*
X150850000Y-24130000D03*
X153390000Y-24130000D03*
X155930000Y-24130000D03*
X158470000Y-24130000D03*
X161010000Y-24130000D03*
X163550000Y-24130000D03*
X166090000Y-24130000D03*
X168630000Y-24130000D03*
X171170000Y-24130000D03*
X173710000Y-24130000D03*
X176250000Y-24130000D03*
X178790000Y-24130000D03*
X181330000Y-24130000D03*
X183870000Y-24130000D03*
X186410000Y-24130000D03*
X188950000Y-24130000D03*
X191490000Y-24130000D03*
X194030000Y-24130000D03*
X196570000Y-24130000D03*
X199110000Y-24130000D03*
X201650000Y-24130000D03*
X204190000Y-24130000D03*
X206730000Y-24130000D03*
%TD*%
M02*
