%TF.GenerationSoftware,KiCad,Pcbnew,6.0.11-2627ca5db0~126~ubuntu22.04.1*%
%TF.CreationDate,2023-12-06T09:32:01+02:00*%
%TF.ProjectId,ZX-Spectrum-Pentagon,5a582d53-7065-4637-9472-756d2d50656e,pcb_v0.4*%
%TF.SameCoordinates,Original*%
%TF.FileFunction,Drillmap*%
%TF.FilePolarity,Positive*%
%FSLAX45Y45*%
G04 Gerber Fmt 4.5, Leading zero omitted, Abs format (unit mm)*
G04 Created by KiCad (PCBNEW 6.0.11-2627ca5db0~126~ubuntu22.04.1) date 2023-12-06 09:32:01*
%MOMM*%
%LPD*%
G01*
G04 APERTURE LIST*
%ADD10C,0.200000*%
G04 APERTURE END LIST*
D10*
X2032000Y-14932000D02*
X2032000Y-2032000D01*
X23342000Y-14932000D02*
X2032000Y-14932000D01*
X21163000Y-2032000D02*
X23342000Y-2032000D01*
X2032000Y-2032000D02*
X13325000Y-2032000D01*
X23342000Y-2032000D02*
X23342000Y-14932000D01*
X2279619Y-15252476D02*
X2279619Y-15052476D01*
X2327238Y-15052476D01*
X2355810Y-15062000D01*
X2374857Y-15081048D01*
X2384381Y-15100095D01*
X2393905Y-15138190D01*
X2393905Y-15166762D01*
X2384381Y-15204857D01*
X2374857Y-15223905D01*
X2355810Y-15242952D01*
X2327238Y-15252476D01*
X2279619Y-15252476D01*
X2479619Y-15252476D02*
X2479619Y-15119143D01*
X2479619Y-15157238D02*
X2489143Y-15138190D01*
X2498667Y-15128667D01*
X2517714Y-15119143D01*
X2536762Y-15119143D01*
X2603429Y-15252476D02*
X2603429Y-15119143D01*
X2603429Y-15052476D02*
X2593905Y-15062000D01*
X2603429Y-15071524D01*
X2612952Y-15062000D01*
X2603429Y-15052476D01*
X2603429Y-15071524D01*
X2727238Y-15252476D02*
X2708190Y-15242952D01*
X2698667Y-15223905D01*
X2698667Y-15052476D01*
X2832000Y-15252476D02*
X2812952Y-15242952D01*
X2803428Y-15223905D01*
X2803428Y-15052476D01*
X3060571Y-15252476D02*
X3060571Y-15052476D01*
X3127238Y-15195333D01*
X3193905Y-15052476D01*
X3193905Y-15252476D01*
X3374857Y-15252476D02*
X3374857Y-15147714D01*
X3365333Y-15128667D01*
X3346286Y-15119143D01*
X3308190Y-15119143D01*
X3289143Y-15128667D01*
X3374857Y-15242952D02*
X3355809Y-15252476D01*
X3308190Y-15252476D01*
X3289143Y-15242952D01*
X3279619Y-15223905D01*
X3279619Y-15204857D01*
X3289143Y-15185809D01*
X3308190Y-15176286D01*
X3355809Y-15176286D01*
X3374857Y-15166762D01*
X3470095Y-15119143D02*
X3470095Y-15319143D01*
X3470095Y-15128667D02*
X3489143Y-15119143D01*
X3527238Y-15119143D01*
X3546286Y-15128667D01*
X3555809Y-15138190D01*
X3565333Y-15157238D01*
X3565333Y-15214381D01*
X3555809Y-15233428D01*
X3546286Y-15242952D01*
X3527238Y-15252476D01*
X3489143Y-15252476D01*
X3470095Y-15242952D01*
X3651048Y-15233428D02*
X3660571Y-15242952D01*
X3651048Y-15252476D01*
X3641524Y-15242952D01*
X3651048Y-15233428D01*
X3651048Y-15252476D01*
X3651048Y-15128667D02*
X3660571Y-15138190D01*
X3651048Y-15147714D01*
X3641524Y-15138190D01*
X3651048Y-15128667D01*
X3651048Y-15147714D01*
M02*
