M48
; DRILL file {KiCad 6.0.11-2627ca5db0~126~ubuntu22.04.1} date Ср 06 дек 2023 09:32:00
; FORMAT={-:-/ absolute / metric / decimal}
; #@! TF.CreationDate,2023-12-06T09:32:00+02:00
; #@! TF.GenerationSoftware,Kicad,Pcbnew,6.0.11-2627ca5db0~126~ubuntu22.04.1
; #@! TF.FileFunction,Plated,1,2,PTH
FMAT,2
METRIC
; #@! TA.AperFunction,Plated,PTH,ViaDrill
T1C0.400
; #@! TA.AperFunction,Plated,PTH,ComponentDrill
T2C0.500
; #@! TA.AperFunction,Plated,PTH,ComponentDrill
T3C0.700
; #@! TA.AperFunction,Plated,PTH,ComponentDrill
T4C0.800
; #@! TA.AperFunction,Plated,PTH,ComponentDrill
T5C0.900
; #@! TA.AperFunction,Plated,PTH,ComponentDrill
T6C0.990
; #@! TA.AperFunction,Plated,PTH,ComponentDrill
T7C1.000
; #@! TA.AperFunction,Plated,PTH,ComponentDrill
T8C1.300
; #@! TA.AperFunction,Plated,PTH,ComponentDrill
T9C3.200
%
G90
G05
T1
X22.86Y-46.99
X22.86Y-50.8
X22.86Y-53.975
X22.86Y-58.42
X23.495Y-44.45
X23.495Y-55.88
X23.495Y-70.485
X23.495Y-74.295
X23.945Y-52.159
X24.13Y-48.26
X24.13Y-74.93
X24.765Y-74.295
X24.765Y-117.475
X25.04Y-116.205
X25.07Y-81.719
X25.31Y-97.155
X25.371Y-99.694
X25.4Y-50.8
X25.4Y-54.61
X25.4Y-58.42
X25.4Y-74.93
X26.035Y-47.58
X26.035Y-74.295
X26.316Y-87.63
X27.215Y-68.85
X27.215Y-69.85
X27.215Y-81.896
X27.215Y-82.896
X27.94Y-97.155
X27.97Y-100.33
X28.649Y-57.636
X29.21Y-52.705
X30.48Y-95.25
X30.48Y-112.484
X31.364Y-72.81
X31.364Y-83.022
X31.364Y-84.021
X31.75Y-106.68
X31.814Y-82.129
X32.289Y-43.815
X32.58Y-108.145
X32.627Y-90.652
X32.925Y-62.36
X32.99Y-100.076
X33.655Y-52.07
X34.066Y-43.64
X34.925Y-64.135
X35.014Y-68.721
X35.53Y-100.33
X36.195Y-72.39
X36.195Y-119.38
X38.1Y-64.77
X38.1Y-95.25
X38.735Y-33.02
X38.735Y-53.34
X38.735Y-80.137
X38.735Y-107.315
X38.735Y-139.7
X38.735Y-142.24
X40.389Y-66.759
X40.459Y-65.495
X40.64Y-97.245
X40.64Y-99.06
X40.64Y-100.876
X41.275Y-76.2
X42.456Y-89.535
X42.545Y-70.485
X42.545Y-80.01
X43.18Y-91.44
X43.18Y-99.06
X43.18Y-100.965
X43.688Y-118.575
X43.815Y-26.035
X43.815Y-52.705
X43.815Y-80.01
X44.45Y-59.69
X44.45Y-67.31
X45.085Y-71.12
X45.085Y-80.01
X45.72Y-118.11
X46.249Y-86.36
X46.355Y-95.25
X46.98Y-121.93
X47.026Y-85.179
X47.802Y-85.904
X48.26Y-95.25
X48.26Y-126.047
X48.895Y-116.205
X48.895Y-138.975
X50.165Y-95.25
X50.165Y-131.445
X51.435Y-76.835
X51.435Y-125.184
X52.07Y-82.38
X52.282Y-73.481
X52.615Y-120.65
X52.705Y-141.605
X52.832Y-38.608
X53.322Y-73.923
X53.755Y-40.029
X53.975Y-139.7
X54.61Y-78.74
X54.681Y-143.78
X54.974Y-138.975
X55.173Y-142.785
X55.245Y-43.72
X55.246Y-116.405
X55.334Y-82.55
X55.88Y-74.93
X56.281Y-116.339
X56.425Y-85.635
X57.15Y-43.999
X57.15Y-53.975
X57.15Y-74.93
X57.785Y-36.83
X58.42Y-85.635
X58.989Y-56.296
X59.055Y-138.43
X59.055Y-139.7
X59.055Y-140.97
X59.3Y-44.45
X59.5Y-46.8
X59.69Y-40.64
X59.69Y-74.93
X60.253Y-142.803
X60.96Y-85.185
X60.96Y-143.51
X61.684Y-74.93
X62.23Y-44.45
X63.5Y-71.031
X63.5Y-84.736
X64.77Y-35.56
X64.77Y-74.93
X64.775Y-40.705
X65.092Y-129.472
X65.405Y-141.886
X65.427Y-31.75
X66.675Y-40.64
X67.31Y-74.93
X67.321Y-139.625
X67.945Y-26.124
X69.215Y-123.262
X69.85Y-31.75
X69.85Y-74.93
X71.12Y-116.84
X71.12Y-120.105
X71.12Y-130.175
X71.12Y-145.415
X71.755Y-123.735
X72.39Y-44.852
X72.39Y-74.93
X72.543Y-49.767
X72.569Y-116.84
X72.569Y-120.105
X73.025Y-130.81
X73.66Y-116.294
X73.66Y-120.105
X74.223Y-43.108
X74.295Y-24.13
X74.93Y-24.765
X74.93Y-44.45
X74.93Y-143.38
X75.523Y-43.0
X75.565Y-24.13
X75.565Y-123.825
X75.79Y-116.965
X76.2Y-24.765
X76.62Y-43.0
X76.835Y-24.13
X76.835Y-31.75
X77.47Y-109.22
X77.47Y-134.339
X78.105Y-127.635
X78.114Y-143.407
X78.293Y-134.906
X78.489Y-139.585
X78.555Y-109.49
X78.676Y-112.395
X78.74Y-99.06
X78.777Y-141.995
X79.111Y-143.329
X79.285Y-101.6
X79.375Y-80.645
X79.375Y-116.84
X79.375Y-146.05
X79.981Y-39.976
X79.999Y-140.96
X80.06Y-137.52
X80.645Y-30.48
X80.645Y-68.34
X80.862Y-139.56
X81.111Y-92.71
X81.111Y-93.732
X81.111Y-94.732
X81.111Y-95.731
X81.118Y-72.552
X81.28Y-125.095
X81.476Y-113.079
X81.476Y-114.104
X81.592Y-70.2
X81.719Y-120.211
X81.825Y-71.844
X82.016Y-112.238
X82.127Y-121.124
X82.233Y-134.938
X82.259Y-70.944
X82.327Y-114.629
X82.339Y-38.111
X82.454Y-111.24
X82.55Y-59.69
X82.55Y-117.816
X82.775Y-141.605
X82.904Y-110.248
X83.185Y-137.52
X83.411Y-125.034
X83.434Y-97.79
X83.82Y-69.215
X83.82Y-81.28
X83.82Y-144.145
X83.885Y-101.6
X84.094Y-139.583
X84.174Y-123.19
X84.285Y-67.31
X84.339Y-36.057
X84.455Y-129.54
X84.455Y-133.985
X84.455Y-138.537
X84.468Y-134.997
X84.58Y-105.41
X84.709Y-146.304
X84.732Y-44.315
X84.906Y-143.326
X84.956Y-141.876
X85.179Y-128.27
X85.36Y-95.049
X85.635Y-118.31
X85.725Y-43.904
X85.725Y-51.345
X85.725Y-105.41
X85.725Y-139.987
X86.36Y-60.96
X86.36Y-92.879
X86.36Y-93.879
X86.36Y-94.879
X86.36Y-103.505
X86.36Y-117.348
X86.36Y-142.786
X86.57Y-140.886
X87.073Y-50.387
X87.084Y-89.63
X87.538Y-97.882
X87.585Y-127.59
X87.63Y-60.96
X87.63Y-105.447
X87.63Y-120.024
X87.78Y-49.68
X88.265Y-117.475
X88.46Y-131.427
X89.194Y-128.981
X89.535Y-69.215
X89.658Y-91.808
X90.17Y-55.494
X90.217Y-107.998
X90.424Y-51.345
X90.439Y-66.954
X90.53Y-117.385
X90.797Y-82.087
X90.805Y-130.456
X90.908Y-58.896
X91.154Y-66.04
X91.44Y-47.625
X91.856Y-71.841
X92.003Y-112.934
X92.066Y-90.424
X92.075Y-106.584
X92.117Y-59.737
X92.456Y-51.345
X92.799Y-76.835
X93.064Y-85.247
X93.255Y-92.895
X93.345Y-55.494
X93.748Y-86.943
X93.785Y-84.455
X93.798Y-67.945
X93.98Y-34.29
X93.98Y-47.576
X93.98Y-104.14
X93.98Y-142.24
X93.981Y-85.971
X94.234Y-51.345
X94.297Y-39.688
X94.488Y-90.424
X95.37Y-60.055
X95.371Y-105.435
X95.868Y-131.356
X96.52Y-47.364
X96.52Y-60.055
X96.52Y-91.545
X97.155Y-118.575
X97.728Y-129.106
X98.335Y-48.54
X98.632Y-119.025
X98.682Y-139.568
X98.839Y-55.97
X99.06Y-91.44
X99.605Y-59.707
X99.695Y-105.314
X100.33Y-79.285
X100.33Y-130.456
X100.584Y-117.348
X101.092Y-48.54
X101.234Y-59.33
X101.379Y-55.97
X101.6Y-103.865
X101.6Y-117.072
X101.602Y-128.49
X101.625Y-130.175
X101.914Y-80.734
X102.106Y-142.616
X102.235Y-108.045
X102.235Y-120.92
X102.325Y-123.1
X102.44Y-135.22
X102.552Y-143.51
X102.792Y-131.356
X102.792Y-129.477
X102.87Y-83.82
X102.87Y-106.045
X102.87Y-112.484
X102.87Y-114.3
X102.87Y-116.205
X102.903Y-127.57
X102.914Y-80.734
X102.959Y-55.494
X103.0Y-137.707
X103.353Y-138.642
X103.415Y-71.353
X103.433Y-135.018
X103.45Y-141.176
X103.505Y-132.068
X103.577Y-142.168
X103.579Y-130.094
X104.14Y-55.494
X104.14Y-59.69
X104.14Y-93.345
X104.14Y-126.01
X104.463Y-108.232
X104.648Y-83.82
X105.447Y-116.43
X105.544Y-50.445
X105.793Y-115.492
X105.85Y-94.81
X106.004Y-121.106
X106.045Y-59.52
X106.269Y-114.613
X106.299Y-117.797
X106.654Y-119.631
X106.68Y-101.02
X106.68Y-106.68
X106.68Y-135.8
X106.752Y-121.831
X106.877Y-139.755
X106.955Y-140.851
X107.022Y-136.868
X107.225Y-127.725
X107.277Y-117.592
X107.291Y-126.248
X107.301Y-134.789
X107.302Y-131.703
X107.315Y-123.825
X107.315Y-125.095
X107.315Y-132.715
X107.388Y-128.711
X107.68Y-106.045
X107.88Y-143.049
X107.944Y-138.772
X107.95Y-108.039
X107.95Y-127.0
X107.95Y-144.78
X107.983Y-51.308
X108.061Y-139.764
X108.088Y-116.096
X108.108Y-136.669
X108.147Y-137.793
X108.231Y-130.905
X108.333Y-129.037
X108.47Y-143.871
X109.22Y-85.545
X109.855Y-49.7
X109.855Y-108.039
X109.944Y-70.67
X110.057Y-117.117
X110.343Y-111.559
X110.49Y-71.755
X111.463Y-50.206
X111.76Y-29.299
X111.76Y-35.56
X111.76Y-41.275
X112.147Y-86.995
X112.305Y-119.464
X112.395Y-59.055
X112.395Y-88.9
X112.776Y-49.249
X113.665Y-55.704
X113.832Y-123.268
X114.3Y-108.204
X114.3Y-111.252
X114.3Y-138.43
X114.485Y-91.526
X114.497Y-86.641
X114.935Y-48.888
X114.977Y-35.159
X115.375Y-90.365
X115.563Y-91.822
X115.57Y-104.14
X115.57Y-130.456
X116.274Y-30.479
X117.445Y-36.83
X117.707Y-143.347
X117.907Y-61.78
X117.908Y-128.198
X118.049Y-54.27
X118.11Y-100.33
X118.338Y-99.357
X118.364Y-43.839
X118.745Y-120.65
X118.745Y-127.635
X118.968Y-53.139
X118.972Y-91.44
X119.38Y-27.94
X119.865Y-90.789
X120.015Y-36.099
X120.015Y-52.07
X120.015Y-113.03
X120.65Y-44.739
X120.65Y-130.005
X120.65Y-139.536
X120.941Y-106.389
X121.059Y-146.208
X121.285Y-61.505
X121.513Y-51.419
X121.603Y-101.779
X121.92Y-58.42
X121.92Y-142.336
X122.555Y-33.02
X122.555Y-77.47
X122.719Y-62.23
X122.736Y-50.492
X122.778Y-103.629
X122.813Y-142.785
X123.19Y-119.63
X123.285Y-104.775
X123.444Y-45.639
X123.735Y-103.341
X123.8Y-50.515
X123.825Y-35.649
X123.825Y-76.2
X123.974Y-49.044
X124.033Y-112.858
X124.46Y-58.42
X124.46Y-118.655
X124.46Y-139.228
X124.968Y-50.292
X125.658Y-48.26
X125.719Y-107.119
X125.73Y-35.649
X125.73Y-108.119
X125.73Y-109.118
X125.73Y-119.38
X125.733Y-106.12
X126.009Y-142.335
X126.36Y-139.607
X126.365Y-47.535
X126.365Y-48.984
X127.0Y-142.781
X127.0Y-143.78
X127.36Y-139.583
X127.587Y-138.609
X127.635Y-33.02
X127.635Y-35.56
X127.635Y-77.47
X127.635Y-130.456
X127.635Y-137.16
X127.635Y-145.779
X127.661Y-46.636
X127.962Y-129.451
X128.101Y-135.692
X128.115Y-120.805
X128.185Y-116.377
X128.312Y-134.714
X128.555Y-146.774
X128.578Y-127.216
X128.581Y-128.666
X128.627Y-115.48
X128.904Y-111.217
X128.904Y-130.696
X128.905Y-109.218
X128.905Y-107.144
X128.905Y-90.789
X128.905Y-106.134
X128.905Y-113.03
X128.905Y-120.015
X128.905Y-122.929
X128.905Y-132.715
X128.905Y-108.143
X128.91Y-131.695
X128.912Y-110.217
X128.921Y-139.326
X129.036Y-124.379
X129.112Y-136.732
X129.54Y-127.895
X129.674Y-116.654
X129.688Y-125.374
X129.759Y-138.781
X129.926Y-123.924
X130.1Y-136.88
X130.175Y-60.96
X130.175Y-64.77
X130.175Y-111.755
X130.54Y-35.56
X131.14Y-145.098
X131.198Y-111.759
X131.445Y-71.12
X131.445Y-80.01
X131.445Y-146.05
X131.861Y-126.274
X131.969Y-90.451
X132.08Y-127.895
X132.138Y-143.812
X132.152Y-146.774
X132.234Y-134.427
X132.36Y-137.795
X132.385Y-111.76
X132.467Y-119.182
X132.488Y-144.875
X132.613Y-138.762
X132.625Y-114.935
X132.635Y-106.125
X132.637Y-116.84
X132.643Y-133.423
X132.715Y-69.215
X132.715Y-86.36
X132.715Y-87.54
X132.715Y-108.314
X132.715Y-122.461
X132.715Y-132.377
X132.724Y-131.36
X132.74Y-124.152
X133.058Y-142.288
X133.18Y-115.791
X133.26Y-139.777
X133.261Y-123.299
X133.261Y-125.095
X133.35Y-110.214
X133.35Y-119.65
X133.35Y-120.65
X133.35Y-127.862
X133.35Y-137.07
X133.643Y-135.088
X133.783Y-136.092
X134.013Y-134.094
X134.108Y-129.312
X134.333Y-141.391
X134.513Y-130.226
X134.62Y-65.405
X134.62Y-69.215
X134.896Y-140.566
X134.911Y-104.775
X135.636Y-39.624
X135.763Y-105.918
X135.89Y-36.83
X135.89Y-85.09
X135.89Y-108.674
X135.943Y-140.588
X136.525Y-99.06
X136.525Y-100.06
X136.525Y-116.205
X137.145Y-108.674
X137.16Y-37.465
X137.16Y-71.12
X137.16Y-123.936
X137.927Y-116.885
X137.963Y-112.834
X138.145Y-108.674
X138.43Y-28.575
X138.43Y-71.12
X138.43Y-99.784
X138.553Y-118.322
X138.932Y-107.135
X139.065Y-88.265
X139.065Y-105.41
X139.598Y-75.12
X139.613Y-71.061
X139.64Y-106.35
X139.679Y-107.86
X139.7Y-36.195
X139.7Y-85.852
X139.7Y-90.805
X139.7Y-118.745
X139.79Y-110.025
X139.944Y-104.531
X140.335Y-78.74
X140.335Y-139.7
X140.611Y-71.12
X140.832Y-131.439
X140.927Y-111.168
X140.97Y-28.575
X141.189Y-139.181
X141.254Y-107.422
X141.605Y-71.755
X142.24Y-108.585
X142.24Y-136.109
X142.321Y-115.945
X142.416Y-140.641
X142.564Y-138.198
X142.711Y-71.721
X142.947Y-107.861
X143.51Y-28.575
X143.51Y-38.735
X143.51Y-71.12
X143.75Y-104.325
X144.325Y-71.755
X144.378Y-107.241
X144.629Y-131.33
X144.78Y-28.537
X144.78Y-136.109
X144.91Y-115.7
X145.236Y-71.169
X145.415Y-138.43
X145.61Y-119.026
X146.013Y-71.798
X146.05Y-37.465
X146.05Y-77.47
X146.05Y-142.415
X146.172Y-128.914
X146.184Y-86.494
X146.477Y-118.498
X146.685Y-78.74
X146.685Y-80.734
X147.119Y-115.646
X147.249Y-138.622
X147.32Y-37.465
X147.475Y-118.54
X148.589Y-127.139
X148.59Y-119.475
X148.59Y-105.32
X148.759Y-141.052
X149.046Y-85.725
X149.225Y-83.82
X149.225Y-90.805
X149.589Y-105.291
X149.77Y-93.98
X149.77Y-95.885
X149.86Y-72.39
X149.86Y-111.125
X149.86Y-141.593
X149.86Y-143.942
X150.051Y-146.05
X150.495Y-128.63
X150.618Y-105.287
X150.628Y-138.702
X151.13Y-28.575
X151.13Y-118.576
X151.137Y-61.582
X151.219Y-84.544
X151.765Y-95.885
X151.765Y-128.905
X151.765Y-139.154
X152.31Y-54.659
X152.31Y-55.88
X152.31Y-56.97
X152.4Y-72.39
X152.4Y-100.33
X152.4Y-110.49
X152.593Y-134.62
X152.839Y-118.549
X152.84Y-130.116
X152.908Y-143.784
X153.025Y-146.774
X153.035Y-138.121
X153.035Y-139.571
X153.035Y-141.593
X153.179Y-124.816
X153.416Y-131.348
X153.658Y-136.672
X153.67Y-28.575
X153.67Y-68.58
X153.67Y-81.28
X153.67Y-104.14
X153.67Y-132.361
X153.67Y-135.659
X153.988Y-124.229
X154.305Y-40.64
X154.579Y-117.39
X154.94Y-42.545
X154.94Y-72.39
X154.94Y-110.49
X154.94Y-128.27
X154.985Y-123.869
X155.192Y-98.859
X155.496Y-123.01
X155.575Y-55.39
X155.575Y-62.23
X155.575Y-80.734
X155.575Y-100.419
X155.575Y-117.475
X155.575Y-120.93
X155.575Y-54.39
X155.588Y-118.487
X155.622Y-116.252
X155.825Y-64.77
X155.913Y-42.773
X155.965Y-119.412
X156.013Y-91.882
X156.16Y-114.502
X156.21Y-28.575
X156.21Y-35.56
X156.21Y-53.34
X156.21Y-60.595
X156.275Y-115.495
X156.348Y-144.276
X156.528Y-82.281
X156.748Y-50.255
X156.845Y-133.35
X156.845Y-135.659
X156.845Y-139.41
X156.884Y-42.535
X156.934Y-137.885
X157.014Y-132.365
X157.147Y-62.23
X157.198Y-52.07
X157.213Y-144.777
X157.216Y-143.739
X157.229Y-77.472
X157.404Y-140.387
X157.408Y-125.023
X157.48Y-45.72
X157.48Y-72.39
X157.48Y-103.505
X157.48Y-146.227
X157.504Y-136.411
X157.52Y-126.016
X157.665Y-48.802
X157.852Y-137.489
X157.87Y-42.699
X157.887Y-64.608
X157.887Y-124.036
X158.115Y-100.33
X158.115Y-107.315
X158.115Y-144.189
X158.133Y-44.187
X158.147Y-138.445
X158.181Y-134.935
X158.242Y-130.81
X158.251Y-127.37
X158.374Y-129.281
X158.481Y-70.53
X158.594Y-46.09
X158.638Y-146.162
X158.75Y-28.575
X158.75Y-35.56
X158.75Y-76.835
X158.767Y-128.359
X158.899Y-42.73
X158.933Y-122.863
X159.029Y-106.715
X159.214Y-69.85
X159.296Y-121.92
X159.385Y-44.191
X159.385Y-55.88
X159.385Y-81.915
X159.385Y-91.986
X159.385Y-100.33
X159.385Y-120.015
X159.385Y-130.72
X159.9Y-115.84
X159.938Y-71.12
X159.948Y-116.912
X160.02Y-46.99
X160.02Y-106.584
X160.035Y-114.721
X160.29Y-75.565
X160.371Y-77.712
X160.388Y-76.713
X160.46Y-117.915
X160.565Y-43.18
X160.655Y-94.615
X160.663Y-69.85
X161.29Y-28.575
X161.29Y-50.71
X161.29Y-75.565
X161.388Y-71.12
X161.485Y-115.375
X161.493Y-89.087
X161.925Y-58.42
X161.925Y-81.951
X162.112Y-69.596
X162.365Y-59.885
X162.474Y-88.9
X162.56Y-45.085
X162.652Y-82.637
X162.792Y-102.909
X162.837Y-71.047
X163.195Y-58.42
X163.195Y-62.865
X163.195Y-84.455
X163.195Y-92.71
X163.322Y-104.648
X163.561Y-69.85
X163.791Y-102.909
X163.83Y-28.575
X163.83Y-35.56
X163.831Y-118.575
X163.991Y-142.396
X164.286Y-71.148
X164.465Y-105.41
X164.871Y-101.939
X164.93Y-47.548
X165.1Y-60.96
X165.1Y-69.85
X165.1Y-100.966
X165.1Y-108.737
X165.11Y-102.909
X165.304Y-106.045
X165.645Y-131.165
X165.735Y-50.165
X165.735Y-59.055
X165.735Y-71.12
X166.298Y-69.806
X166.342Y-80.617
X166.37Y-28.575
X166.37Y-35.56
X166.37Y-99.695
X166.37Y-100.965
X166.37Y-108.495
X166.37Y-111.76
X166.371Y-57.784
X166.385Y-103.779
X166.915Y-116.295
X167.094Y-130.81
X167.233Y-53.748
X167.64Y-36.83
X167.64Y-52.705
X167.64Y-70.485
X167.64Y-78.74
X167.64Y-108.495
X167.64Y-111.76
X167.64Y-142.397
X167.72Y-77.161
X168.016Y-56.515
X168.035Y-82.065
X168.275Y-66.04
X168.275Y-85.635
X168.275Y-128.28
X168.74Y-55.71
X168.91Y-28.575
X168.91Y-35.56
X168.91Y-37.465
X168.91Y-70.485
X168.91Y-74.295
X168.91Y-80.645
X168.91Y-83.185
X168.91Y-106.045
X168.999Y-88.9
X168.999Y-92.087
X169.053Y-93.098
X169.164Y-104.204
X169.545Y-63.5
X169.55Y-111.119
X169.995Y-75.98
X170.18Y-64.77
X170.18Y-67.31
X170.18Y-70.485
X170.18Y-74.295
X170.386Y-111.76
X170.815Y-50.165
X170.815Y-57.15
X170.815Y-58.42
X170.815Y-59.69
X170.815Y-60.96
X170.815Y-94.525
X170.827Y-93.098
X171.196Y-139.78
X171.45Y-28.575
X171.45Y-35.56
X171.45Y-37.465
X171.45Y-70.485
X171.45Y-74.295
X171.709Y-77.47
X172.085Y-43.18
X172.374Y-129.095
X173.373Y-129.095
X173.956Y-110.034
X173.99Y-28.575
X173.99Y-74.93
X173.99Y-95.25
X173.99Y-108.585
X174.478Y-127.393
X174.625Y-55.88
X174.625Y-99.06
X174.625Y-100.965
X174.625Y-131.445
X175.033Y-111.533
X175.253Y-104.148
X175.802Y-146.639
X176.53Y-28.575
X176.53Y-101.6
X176.53Y-109.855
X176.53Y-118.471
X176.665Y-145.915
X177.165Y-36.195
X177.165Y-104.775
X177.165Y-128.905
X177.623Y-134.359
X177.755Y-138.475
X177.8Y-69.85
X178.226Y-110.064
X178.24Y-105.85
X178.363Y-104.731
X178.416Y-123.862
X178.435Y-80.01
X178.435Y-82.55
X178.435Y-85.09
X178.442Y-124.861
X178.875Y-62.67
X179.07Y-28.575
X179.07Y-52.615
X179.07Y-67.31
X179.07Y-74.295
X179.084Y-119.639
X179.122Y-123.138
X179.304Y-107.595
X179.442Y-105.701
X179.578Y-125.205
X179.67Y-120.739
X179.705Y-48.984
X179.705Y-65.405
X179.705Y-106.68
X179.705Y-109.045
X179.794Y-113.754
X179.794Y-115.166
X179.794Y-116.744
X179.832Y-111.533
X179.957Y-119.153
X180.34Y-58.42
X180.34Y-88.9
X180.749Y-113.246
X180.941Y-126.64
X180.966Y-115.146
X180.975Y-69.85
X180.975Y-73.025
X181.365Y-107.219
X181.365Y-45.72
X181.52Y-66.585
X181.561Y-40.46
X181.586Y-43.063
X181.61Y-28.575
X181.61Y-41.91
X181.61Y-94.525
X181.664Y-129.508
X182.155Y-78.097
X182.245Y-43.815
X182.245Y-59.69
X182.245Y-68.58
X182.245Y-73.025
X182.245Y-76.2
X182.245Y-92.71
X182.245Y-127.635
X182.245Y-132.08
X182.27Y-52.103
X182.38Y-145.915
X182.541Y-63.03
X182.878Y-124.48
X182.88Y-35.74
X182.88Y-41.185
X182.98Y-109.019
X183.129Y-125.519
X183.181Y-123.527
X183.181Y-122.527
X183.243Y-126.512
X183.275Y-111.969
X183.354Y-146.639
X183.435Y-116.92
X183.455Y-120.471
X183.507Y-119.395
X183.507Y-121.469
X183.515Y-129.451
X184.138Y-115.231
X184.15Y-27.979
X184.15Y-30.763
X184.2Y-114.233
X184.21Y-118.684
X184.239Y-112.23
X184.24Y-113.234
X184.241Y-126.456
X184.785Y-39.37
X184.785Y-110.49
X185.08Y-141.13
X185.42Y-117.475
X185.615Y-132.275
X186.436Y-141.959
X186.69Y-27.979
X186.69Y-100.33
X187.096Y-60.959
X187.325Y-106.769
X187.96Y-37.465
X187.96Y-116.84
X187.96Y-118.111
X187.96Y-146.639
X188.684Y-127.273
X188.684Y-131.699
X188.912Y-36.512
X189.23Y-28.575
X189.23Y-30.48
X189.23Y-35.56
X189.23Y-142.481
X189.409Y-130.705
X189.675Y-120.46
X189.775Y-135.255
X189.865Y-109.855
X190.5Y-40.84
X190.5Y-135.98
X190.628Y-120.144
X191.05Y-124.364
X191.135Y-130.81
X191.135Y-141.605
X191.77Y-35.56
X191.77Y-68.58
X192.041Y-41.291
X192.405Y-110.49
X192.783Y-48.805
X193.04Y-41.74
X193.04Y-119.53
X193.04Y-131.534
X193.04Y-140.609
X193.675Y-44.09
X193.675Y-48.355
X194.235Y-140.159
X194.31Y-35.586
X194.31Y-110.49
X194.337Y-130.789
X194.589Y-42.191
X194.945Y-47.235
X195.234Y-140.159
X195.267Y-124.46
X195.58Y-62.23
X195.58Y-132.169
X196.215Y-102.87
X196.459Y-40.396
X196.85Y-28.575
X196.85Y-30.48
X196.85Y-110.579
X197.555Y-118.04
X198.12Y-38.359
X198.62Y-126.895
X198.755Y-43.18
X198.755Y-57.874
X198.755Y-123.825
X199.351Y-135.436
X199.39Y-28.575
X199.39Y-30.48
X199.39Y-35.56
X199.39Y-118.04
X199.745Y-127.355
X200.025Y-43.18
X200.66Y-46.355
X200.66Y-105.41
X200.777Y-42.521
X200.977Y-35.877
X201.295Y-143.51
X201.403Y-43.3
X201.93Y-28.575
X201.93Y-30.48
X201.93Y-60.325
X201.93Y-110.93
X201.93Y-116.75
X202.298Y-99.571
X203.396Y-102.431
X203.458Y-99.047
X204.47Y-28.575
X204.47Y-78.74
X204.47Y-81.28
X204.47Y-84.455
X204.47Y-86.36
X204.47Y-92.075
X204.47Y-99.06
X204.47Y-102.492
X204.75Y-94.615
X205.105Y-43.18
X205.105Y-137.795
X205.2Y-93.54
X205.74Y-69.215
X205.74Y-74.295
X205.919Y-113.309
X206.363Y-90.171
X206.369Y-98.983
X206.81Y-102.676
X206.871Y-57.15
X207.29Y-53.835
X207.321Y-59.372
X207.321Y-91.44
X207.357Y-90.067
X207.645Y-92.71
X207.715Y-98.965
X207.87Y-85.09
X208.28Y-83.185
X208.28Y-113.03
X208.77Y-60.96
X208.77Y-91.44
X208.915Y-95.34
X208.915Y-96.52
X209.22Y-80.645
X209.671Y-92.71
X209.99Y-78.935
X210.18Y-99.944
X210.318Y-47.496
X210.38Y-94.175
X210.82Y-123.19
X211.455Y-142.24
X211.921Y-58.42
X212.185Y-56.515
X212.725Y-54.61
X213.27Y-52.07
X213.36Y-43.18
X213.36Y-49.53
X213.36Y-131.445
X213.753Y-34.925
X213.995Y-44.45
X213.995Y-118.745
X214.063Y-102.802
X214.63Y-129.54
X215.582Y-122.872
X216.215Y-120.97
X216.662Y-107.95
X220.345Y-53.97
X220.345Y-55.245
X220.345Y-56.515
X220.98Y-38.1
X220.98Y-39.37
X220.98Y-53.34
X220.98Y-54.61
X220.98Y-55.88
X220.98Y-57.15
X221.615Y-38.735
X221.615Y-40.005
X222.25Y-38.1
X222.25Y-39.37
X222.25Y-78.105
X222.636Y-111.374
X222.885Y-77.47
X222.885Y-78.74
X223.53Y-78.105
X224.152Y-77.464
X224.155Y-78.74
X224.78Y-78.102
X225.418Y-77.464
X225.425Y-78.74
X226.056Y-78.102
X226.694Y-78.73
X226.695Y-77.47
X227.323Y-78.102
X227.965Y-58.42
X227.965Y-59.69
X227.965Y-86.36
T2
X21.73Y-64.77
X21.73Y-144.78
X22.433Y-63.073
X22.433Y-66.467
X22.433Y-143.083
X22.433Y-146.477
X24.13Y-62.37
X24.13Y-67.17
X24.13Y-142.38
X24.13Y-147.18
X25.827Y-63.073
X25.827Y-66.467
X25.827Y-143.083
X25.827Y-146.477
X26.53Y-64.77
X26.53Y-144.78
X124.6Y-24.13
X125.303Y-22.433
X125.303Y-25.827
X127.0Y-21.73
X127.0Y-26.53
X128.697Y-22.433
X128.697Y-25.827
X129.4Y-24.13
X213.5Y-39.37
X214.203Y-37.673
X214.203Y-41.067
X215.9Y-36.97
X215.9Y-41.77
X217.597Y-37.673
X217.597Y-41.067
X218.3Y-39.37
X226.2Y-64.77
X226.214Y-144.78
X226.903Y-63.073
X226.903Y-66.467
X226.917Y-143.083
X226.917Y-146.477
X228.6Y-62.37
X228.6Y-67.17
X228.614Y-142.38
X228.614Y-147.18
X230.297Y-63.073
X230.297Y-66.467
X230.311Y-143.083
X230.311Y-146.477
X231.0Y-64.77
X231.014Y-144.78
T4
X26.655Y-114.3
X26.655Y-121.92
X26.67Y-102.87
X26.67Y-110.49
X26.675Y-125.73
X26.675Y-133.35
X29.195Y-114.3
X29.195Y-121.92
X29.21Y-102.87
X29.21Y-110.49
X29.215Y-125.73
X29.215Y-133.35
X30.48Y-137.16
X30.48Y-144.78
X31.735Y-114.3
X31.735Y-121.92
X31.75Y-102.87
X31.75Y-110.49
X31.755Y-125.73
X31.755Y-133.35
X33.02Y-45.71
X33.02Y-60.95
X33.02Y-137.16
X33.02Y-144.78
X34.275Y-114.3
X34.275Y-121.92
X34.29Y-84.545
X34.29Y-89.425
X34.29Y-102.87
X34.29Y-110.49
X34.295Y-125.73
X34.295Y-133.35
X35.56Y-45.71
X35.56Y-60.95
X35.56Y-137.16
X35.56Y-144.78
X36.815Y-114.3
X36.815Y-121.92
X36.83Y-102.87
X36.83Y-110.49
X36.835Y-125.73
X36.835Y-133.35
X38.1Y-45.71
X38.1Y-60.95
X38.1Y-137.16
X38.1Y-144.78
X39.355Y-114.3
X39.355Y-121.92
X39.37Y-102.87
X39.37Y-110.49
X39.375Y-125.73
X39.375Y-133.35
X40.005Y-84.545
X40.005Y-89.425
X40.635Y-48.25
X40.635Y-63.49
X40.64Y-45.71
X40.64Y-60.95
X40.64Y-137.16
X40.64Y-144.78
X41.895Y-114.3
X41.895Y-121.92
X41.91Y-102.87
X41.91Y-110.49
X41.915Y-125.73
X41.915Y-133.35
X43.175Y-48.25
X43.175Y-63.49
X43.18Y-45.71
X43.18Y-60.95
X43.18Y-137.16
X43.18Y-144.78
X44.435Y-114.3
X44.435Y-121.92
X44.45Y-102.87
X44.45Y-110.49
X44.455Y-125.73
X44.455Y-133.35
X45.715Y-48.25
X45.715Y-63.49
X45.72Y-45.71
X45.72Y-60.95
X45.72Y-137.16
X45.72Y-144.78
X48.255Y-48.25
X48.255Y-63.49
X48.26Y-45.71
X48.26Y-50.8
X48.26Y-60.95
X48.26Y-66.04
X48.26Y-137.16
X48.26Y-144.78
X50.795Y-48.25
X50.795Y-63.49
X50.8Y-45.71
X50.8Y-50.8
X50.8Y-60.95
X50.8Y-66.04
X50.8Y-137.16
X50.8Y-144.78
X53.335Y-48.25
X53.335Y-63.49
X53.34Y-45.71
X53.34Y-50.8
X53.34Y-60.95
X53.34Y-66.04
X53.34Y-69.215
X53.34Y-76.835
X53.34Y-80.01
X53.34Y-87.63
X53.34Y-92.71
X53.34Y-102.87
X53.34Y-110.49
X53.34Y-114.3
X53.34Y-121.92
X53.34Y-137.16
X53.34Y-144.78
X53.345Y-125.73
X53.345Y-133.35
X55.875Y-48.25
X55.875Y-63.49
X55.88Y-45.71
X55.88Y-50.8
X55.88Y-60.95
X55.88Y-66.04
X55.88Y-69.215
X55.88Y-76.835
X55.88Y-80.01
X55.88Y-87.63
X55.88Y-92.71
X55.88Y-102.87
X55.88Y-110.49
X55.88Y-114.3
X55.88Y-121.92
X55.885Y-125.73
X55.885Y-133.35
X58.415Y-48.25
X58.415Y-63.49
X58.42Y-45.71
X58.42Y-50.8
X58.42Y-60.95
X58.42Y-66.04
X58.42Y-69.215
X58.42Y-76.835
X58.42Y-80.01
X58.42Y-87.63
X58.42Y-92.71
X58.42Y-102.87
X58.42Y-110.49
X58.42Y-114.3
X58.42Y-121.92
X58.425Y-125.73
X58.425Y-133.35
X60.955Y-48.25
X60.955Y-63.49
X60.96Y-45.71
X60.96Y-50.8
X60.96Y-60.95
X60.96Y-66.04
X60.96Y-69.215
X60.96Y-76.835
X60.96Y-80.01
X60.96Y-87.63
X60.96Y-92.71
X60.96Y-102.87
X60.96Y-110.49
X60.96Y-114.3
X60.96Y-121.92
X60.965Y-125.73
X60.965Y-133.35
X62.23Y-137.16
X62.23Y-144.78
X63.495Y-48.25
X63.495Y-63.49
X63.5Y-45.71
X63.5Y-50.8
X63.5Y-60.95
X63.5Y-66.04
X63.5Y-69.215
X63.5Y-76.835
X63.5Y-80.01
X63.5Y-87.63
X63.5Y-92.71
X63.5Y-102.87
X63.5Y-110.49
X63.5Y-114.3
X63.5Y-121.92
X63.505Y-125.73
X63.505Y-133.35
X64.77Y-137.16
X64.77Y-144.78
X66.035Y-48.25
X66.035Y-63.49
X66.04Y-45.71
X66.04Y-50.8
X66.04Y-60.95
X66.04Y-66.04
X66.04Y-69.215
X66.04Y-76.835
X66.04Y-80.01
X66.04Y-87.63
X66.04Y-92.71
X66.04Y-102.87
X66.04Y-110.49
X66.04Y-114.3
X66.04Y-121.92
X66.045Y-125.73
X66.045Y-133.35
X67.31Y-137.16
X67.31Y-144.78
X68.575Y-48.25
X68.575Y-63.49
X68.58Y-45.71
X68.58Y-50.8
X68.58Y-60.95
X68.58Y-66.04
X68.58Y-69.215
X68.58Y-76.835
X68.58Y-80.01
X68.58Y-87.63
X68.58Y-92.71
X68.58Y-102.87
X68.58Y-110.49
X68.58Y-114.3
X68.58Y-121.92
X68.585Y-125.73
X68.585Y-133.35
X69.85Y-137.16
X69.85Y-144.78
X71.115Y-48.25
X71.115Y-63.49
X71.12Y-45.71
X71.12Y-50.8
X71.12Y-60.95
X71.12Y-66.04
X71.12Y-69.215
X71.12Y-76.835
X71.12Y-80.01
X71.12Y-87.63
X71.12Y-92.71
X71.12Y-102.87
X71.12Y-110.49
X71.12Y-114.3
X71.12Y-121.92
X71.125Y-125.73
X71.125Y-133.35
X72.39Y-137.16
X72.39Y-144.78
X73.655Y-48.25
X73.655Y-63.49
X73.66Y-45.71
X73.66Y-50.8
X73.66Y-60.95
X73.66Y-66.04
X73.66Y-69.215
X73.66Y-76.835
X73.66Y-80.01
X73.66Y-87.63
X73.66Y-92.71
X73.66Y-102.87
X73.66Y-110.49
X73.66Y-114.3
X73.66Y-121.92
X73.665Y-125.73
X73.665Y-133.35
X74.93Y-137.16
X74.93Y-144.78
X76.2Y-45.71
X76.2Y-50.8
X76.2Y-60.95
X76.2Y-66.04
X76.2Y-69.215
X76.2Y-76.835
X76.2Y-80.01
X76.2Y-87.63
X76.2Y-102.87
X76.2Y-110.49
X76.2Y-114.3
X76.2Y-121.92
X76.205Y-125.73
X76.205Y-133.35
X77.47Y-137.16
X77.47Y-144.78
X78.74Y-45.71
X78.74Y-60.95
X81.28Y-45.71
X81.28Y-60.95
X85.09Y-102.87
X85.09Y-110.49
X85.095Y-114.3
X85.095Y-121.92
X86.36Y-137.16
X86.36Y-144.78
X86.365Y-125.73
X86.365Y-133.35
X87.615Y-41.915
X87.615Y-57.155
X87.63Y-63.5
X87.63Y-66.04
X87.63Y-68.58
X87.63Y-71.12
X87.63Y-73.66
X87.63Y-76.2
X87.63Y-78.74
X87.63Y-81.28
X87.63Y-102.87
X87.63Y-110.49
X87.635Y-114.3
X87.635Y-121.92
X88.9Y-137.16
X88.9Y-144.78
X88.905Y-125.73
X88.905Y-133.35
X90.155Y-41.915
X90.155Y-57.155
X90.155Y-88.9
X90.155Y-96.52
X90.17Y-102.87
X90.17Y-110.49
X90.175Y-114.3
X90.175Y-121.92
X91.44Y-137.16
X91.44Y-144.78
X91.445Y-125.73
X91.445Y-133.35
X92.695Y-41.915
X92.695Y-57.155
X92.695Y-88.9
X92.695Y-96.52
X92.71Y-102.87
X92.71Y-110.49
X92.715Y-114.3
X92.715Y-121.92
X93.98Y-137.16
X93.98Y-144.78
X93.985Y-125.73
X93.985Y-133.35
X95.235Y-41.915
X95.235Y-57.155
X95.235Y-88.9
X95.235Y-96.52
X95.25Y-63.5
X95.25Y-66.04
X95.25Y-68.58
X95.25Y-71.12
X95.25Y-73.66
X95.25Y-76.2
X95.25Y-78.74
X95.25Y-81.28
X95.25Y-102.87
X95.25Y-110.49
X95.255Y-114.3
X95.255Y-121.92
X96.52Y-137.16
X96.52Y-144.78
X96.525Y-125.73
X96.525Y-133.35
X97.775Y-41.915
X97.775Y-57.155
X97.775Y-88.9
X97.775Y-96.52
X97.79Y-63.5
X97.79Y-66.04
X97.79Y-68.58
X97.79Y-71.12
X97.79Y-73.66
X97.79Y-76.2
X97.79Y-78.74
X97.79Y-81.28
X97.79Y-102.87
X97.79Y-110.49
X97.795Y-114.3
X97.795Y-121.92
X99.06Y-137.16
X99.06Y-144.78
X99.065Y-125.73
X99.065Y-133.35
X100.315Y-41.915
X100.315Y-57.155
X100.315Y-88.9
X100.315Y-96.52
X100.33Y-102.87
X100.33Y-110.49
X100.335Y-114.3
X100.335Y-121.92
X101.6Y-137.16
X101.6Y-144.78
X101.605Y-125.73
X101.605Y-133.35
X102.855Y-41.915
X102.855Y-57.155
X102.855Y-88.9
X102.855Y-96.52
X102.87Y-102.87
X102.87Y-110.49
X105.395Y-41.915
X105.395Y-57.155
X105.395Y-88.9
X105.395Y-96.52
X105.41Y-63.5
X105.41Y-66.04
X105.41Y-68.58
X105.41Y-71.12
X105.41Y-73.66
X105.41Y-76.2
X105.41Y-78.74
X105.41Y-81.28
X105.41Y-102.87
X105.41Y-110.49
X107.935Y-41.915
X107.935Y-57.155
X107.935Y-88.9
X107.935Y-96.52
X107.95Y-63.5
X107.95Y-66.04
X107.95Y-68.58
X107.95Y-71.12
X107.95Y-73.66
X107.95Y-76.2
X107.95Y-78.74
X107.95Y-81.28
X107.95Y-102.87
X107.95Y-110.49
X109.22Y-114.3
X109.22Y-121.92
X109.22Y-125.73
X109.22Y-133.35
X110.475Y-41.915
X110.475Y-57.155
X110.495Y-137.16
X110.495Y-144.78
X111.76Y-114.3
X111.76Y-121.92
X111.76Y-125.73
X111.76Y-133.35
X113.015Y-41.915
X113.015Y-57.155
X113.035Y-137.16
X113.035Y-144.78
X114.3Y-114.3
X114.3Y-121.92
X114.3Y-125.73
X114.3Y-133.35
X115.555Y-41.915
X115.555Y-57.155
X115.57Y-63.5
X115.57Y-66.04
X115.57Y-68.58
X115.57Y-71.12
X115.57Y-73.66
X115.57Y-76.2
X115.57Y-78.74
X115.57Y-81.28
X115.575Y-137.16
X115.575Y-144.78
X116.84Y-114.3
X116.84Y-121.92
X116.84Y-125.73
X116.84Y-133.35
X118.095Y-41.915
X118.095Y-57.155
X118.11Y-63.5
X118.11Y-66.04
X118.11Y-68.58
X118.11Y-71.12
X118.11Y-73.66
X118.11Y-76.2
X118.11Y-78.74
X118.11Y-81.28
X118.115Y-137.16
X118.115Y-144.78
X119.38Y-114.3
X119.38Y-121.92
X119.38Y-125.73
X119.38Y-133.35
X120.635Y-41.915
X120.635Y-57.155
X120.655Y-137.16
X120.655Y-144.78
X121.92Y-114.3
X121.92Y-121.92
X121.92Y-125.73
X121.92Y-133.35
X123.175Y-41.915
X123.175Y-57.155
X123.195Y-137.16
X123.195Y-144.78
X124.46Y-114.3
X124.46Y-121.92
X124.46Y-125.73
X124.46Y-133.35
X125.715Y-41.915
X125.715Y-57.155
X125.73Y-63.5
X125.73Y-66.04
X125.73Y-68.58
X125.73Y-71.12
X125.73Y-73.66
X125.73Y-76.2
X125.73Y-78.74
X125.73Y-81.28
X125.735Y-137.16
X125.735Y-144.78
X127.0Y-114.3
X127.0Y-121.92
X127.0Y-125.73
X127.0Y-133.35
X132.07Y-40.635
X132.07Y-43.175
X132.07Y-45.715
X132.07Y-48.255
X132.07Y-50.795
X132.07Y-53.335
X132.07Y-55.875
X132.07Y-58.415
X132.07Y-60.955
X132.07Y-63.495
X134.62Y-76.2
X134.62Y-78.74
X134.62Y-81.28
X134.62Y-83.82
X134.62Y-86.36
X134.62Y-88.9
X134.62Y-91.44
X134.62Y-93.98
X134.62Y-96.52
X134.62Y-99.06
X135.875Y-114.3
X135.875Y-121.92
X135.895Y-125.73
X135.895Y-133.35
X135.895Y-137.17
X135.895Y-144.79
X138.415Y-114.3
X138.415Y-121.92
X138.435Y-125.73
X138.435Y-133.35
X138.435Y-137.17
X138.435Y-144.79
X139.69Y-40.635
X139.69Y-43.175
X139.69Y-45.715
X139.69Y-48.255
X139.69Y-50.795
X139.69Y-53.335
X139.69Y-55.875
X139.69Y-58.415
X139.69Y-60.955
X139.69Y-63.495
X140.955Y-114.3
X140.955Y-121.92
X140.975Y-125.73
X140.975Y-133.35
X140.975Y-137.17
X140.975Y-144.79
X142.24Y-76.2
X142.24Y-78.74
X142.24Y-81.28
X142.24Y-83.82
X142.24Y-86.36
X142.24Y-88.9
X142.24Y-91.44
X142.24Y-93.98
X142.24Y-96.52
X142.24Y-99.06
X142.245Y-40.645
X142.245Y-43.185
X142.245Y-45.725
X142.245Y-48.265
X142.245Y-50.805
X142.245Y-53.345
X142.245Y-55.885
X142.245Y-58.425
X142.245Y-60.965
X142.245Y-63.505
X143.495Y-114.3
X143.495Y-121.92
X143.515Y-102.248
X143.515Y-109.867
X143.515Y-125.73
X143.515Y-133.35
X143.515Y-137.17
X143.515Y-144.79
X146.035Y-114.3
X146.035Y-121.92
X146.055Y-102.248
X146.055Y-109.867
X146.055Y-125.73
X146.055Y-133.35
X146.055Y-137.17
X146.055Y-144.79
X148.575Y-114.3
X148.575Y-121.92
X148.595Y-102.248
X148.595Y-109.867
X148.595Y-125.73
X148.595Y-133.35
X148.595Y-137.17
X148.595Y-144.79
X149.865Y-40.645
X149.865Y-43.185
X149.865Y-45.725
X149.865Y-48.265
X149.865Y-50.805
X149.865Y-53.345
X149.865Y-55.885
X149.865Y-58.425
X149.865Y-60.965
X149.865Y-63.505
X151.115Y-114.3
X151.115Y-121.92
X151.13Y-71.12
X151.13Y-78.74
X151.135Y-102.248
X151.135Y-109.867
X151.135Y-125.73
X151.135Y-133.35
X151.135Y-137.17
X151.135Y-144.79
X151.765Y-86.36
X151.765Y-88.9
X151.765Y-91.44
X151.765Y-93.98
X153.655Y-114.3
X153.655Y-121.92
X153.67Y-71.12
X153.67Y-78.74
X153.675Y-102.248
X153.675Y-109.867
X154.305Y-83.82
X154.305Y-86.36
X154.305Y-88.9
X154.305Y-91.44
X154.305Y-93.98
X154.305Y-96.52
X156.21Y-71.12
X156.21Y-78.74
X156.215Y-102.248
X156.215Y-109.867
X156.845Y-83.82
X156.845Y-86.36
X156.845Y-93.98
X156.845Y-96.52
X158.755Y-102.248
X158.755Y-109.867
X159.385Y-83.82
X159.385Y-86.36
X159.385Y-93.98
X159.385Y-96.52
X160.02Y-137.16
X160.02Y-144.78
X160.025Y-125.73
X160.025Y-133.35
X161.925Y-83.82
X161.925Y-86.36
X161.925Y-93.98
X161.925Y-96.52
X162.56Y-114.3
X162.56Y-121.92
X162.56Y-137.16
X162.56Y-144.78
X162.565Y-125.73
X162.565Y-133.35
X164.465Y-83.82
X164.465Y-86.36
X164.465Y-88.9
X164.465Y-91.44
X164.465Y-93.98
X164.465Y-96.52
X165.1Y-114.3
X165.1Y-121.92
X165.1Y-137.16
X165.1Y-144.78
X165.105Y-125.73
X165.105Y-133.35
X167.005Y-86.36
X167.005Y-88.9
X167.005Y-91.44
X167.005Y-93.98
X167.64Y-114.3
X167.64Y-121.92
X167.64Y-137.16
X167.64Y-144.78
X167.645Y-125.73
X167.645Y-133.35
X170.18Y-114.3
X170.18Y-121.92
X170.18Y-137.16
X170.18Y-144.78
X170.185Y-125.73
X170.185Y-133.35
X172.72Y-76.2
X172.72Y-78.74
X172.72Y-81.28
X172.72Y-83.82
X172.72Y-86.36
X172.72Y-88.9
X172.72Y-91.44
X172.72Y-93.98
X172.72Y-96.52
X172.72Y-114.3
X172.72Y-121.92
X172.72Y-137.16
X172.72Y-144.78
X172.725Y-125.73
X172.725Y-133.35
X172.73Y-45.74
X172.73Y-48.28
X172.73Y-50.82
X172.73Y-53.36
X172.73Y-55.9
X172.73Y-58.44
X172.73Y-60.98
X172.73Y-63.52
X172.73Y-66.06
X175.26Y-114.3
X175.26Y-121.92
X175.26Y-137.16
X175.26Y-144.78
X175.265Y-125.73
X175.265Y-133.35
X176.53Y-45.72
X176.53Y-48.26
X176.53Y-50.8
X176.53Y-53.34
X176.53Y-55.88
X176.53Y-58.42
X176.53Y-60.96
X176.53Y-63.5
X176.53Y-66.04
X176.53Y-68.58
X176.53Y-76.2
X176.53Y-78.74
X176.53Y-81.28
X176.53Y-83.82
X176.53Y-86.36
X176.53Y-88.9
X176.53Y-91.44
X176.53Y-93.98
X176.53Y-96.52
X176.53Y-99.06
X177.8Y-114.3
X177.8Y-121.92
X184.15Y-45.72
X184.15Y-48.26
X184.15Y-50.8
X184.15Y-53.34
X184.15Y-55.88
X184.15Y-58.42
X184.15Y-60.96
X184.15Y-63.5
X184.15Y-66.04
X184.15Y-68.58
X184.15Y-76.2
X184.15Y-78.74
X184.15Y-81.28
X184.15Y-83.82
X184.15Y-86.36
X184.15Y-88.9
X184.15Y-91.44
X184.15Y-93.98
X184.15Y-96.52
X184.15Y-99.06
X184.155Y-137.17
X184.155Y-144.79
X186.69Y-114.3
X186.69Y-121.92
X186.695Y-125.73
X186.695Y-133.35
X186.695Y-137.17
X186.695Y-144.79
X189.22Y-45.715
X189.22Y-48.255
X189.22Y-50.795
X189.22Y-53.335
X189.22Y-55.875
X189.22Y-58.415
X189.22Y-60.955
X189.22Y-63.495
X189.22Y-66.035
X189.22Y-68.575
X189.22Y-76.195
X189.22Y-78.735
X189.22Y-81.275
X189.22Y-83.815
X189.22Y-86.355
X189.22Y-88.895
X189.22Y-91.435
X189.22Y-93.975
X189.22Y-96.515
X189.22Y-99.055
X189.23Y-114.3
X189.23Y-121.92
X189.235Y-125.73
X189.235Y-133.35
X189.235Y-137.17
X189.235Y-144.79
X191.77Y-114.3
X191.77Y-121.92
X191.775Y-125.73
X191.775Y-133.35
X191.775Y-137.17
X191.775Y-144.79
X194.31Y-114.3
X194.31Y-121.92
X194.315Y-125.73
X194.315Y-133.35
X194.315Y-137.17
X194.315Y-144.79
X196.84Y-45.715
X196.84Y-48.255
X196.84Y-50.795
X196.84Y-53.335
X196.84Y-55.875
X196.84Y-58.415
X196.84Y-60.955
X196.84Y-63.495
X196.84Y-66.035
X196.84Y-68.575
X196.84Y-76.195
X196.84Y-78.735
X196.84Y-81.275
X196.84Y-83.815
X196.84Y-86.355
X196.84Y-88.895
X196.84Y-91.435
X196.84Y-93.975
X196.84Y-96.515
X196.84Y-99.055
X196.85Y-114.3
X196.85Y-121.92
X196.855Y-125.73
X196.855Y-133.35
X196.855Y-137.17
X196.855Y-144.79
X199.39Y-114.3
X199.39Y-121.92
X199.395Y-125.73
X199.395Y-133.35
X199.395Y-137.17
X199.395Y-144.79
X200.665Y-48.255
X200.665Y-50.795
X200.665Y-53.335
X200.665Y-55.875
X200.665Y-58.415
X200.665Y-60.955
X200.665Y-63.495
X200.665Y-66.035
X200.665Y-68.575
X200.665Y-71.115
X200.665Y-73.655
X200.665Y-76.195
X200.665Y-78.735
X200.665Y-81.275
X200.665Y-83.815
X200.665Y-86.355
X200.665Y-88.895
X200.665Y-91.435
X200.665Y-93.975
X200.665Y-96.515
X201.93Y-114.3
X201.93Y-121.92
X201.935Y-125.73
X201.935Y-133.35
X208.285Y-137.17
X208.285Y-144.79
X210.825Y-125.73
X210.825Y-133.35
X210.825Y-137.17
X210.825Y-144.79
X212.09Y-114.39
X212.09Y-119.27
X213.365Y-125.73
X213.365Y-133.35
X213.365Y-137.17
X213.365Y-144.79
X215.905Y-48.255
X215.905Y-50.795
X215.905Y-53.335
X215.905Y-55.875
X215.905Y-58.415
X215.905Y-60.955
X215.905Y-63.495
X215.905Y-66.035
X215.905Y-68.575
X215.905Y-71.115
X215.905Y-73.655
X215.905Y-76.195
X215.905Y-78.735
X215.905Y-81.275
X215.905Y-83.815
X215.905Y-86.355
X215.905Y-88.895
X215.905Y-91.435
X215.905Y-93.975
X215.905Y-96.515
X215.905Y-125.73
X215.905Y-133.35
X215.905Y-137.17
X215.905Y-144.79
X218.445Y-125.73
X218.445Y-133.35
X218.445Y-137.17
X218.445Y-144.79
X220.985Y-125.73
X220.985Y-133.35
X220.985Y-137.17
X220.985Y-144.79
X223.525Y-125.73
X223.525Y-133.35
X223.525Y-137.17
X223.525Y-144.79
X226.065Y-125.73
X226.065Y-133.35
T5
X24.57Y-29.21
X24.57Y-31.71
X26.67Y-29.21
X26.67Y-31.71
X28.87Y-31.71
X29.27Y-29.21
X31.37Y-29.21
X31.37Y-31.71
T6
X115.2Y-23.207
X119.7Y-23.207
T7
X22.835Y-36.815
X22.835Y-39.355
X22.835Y-41.895
X22.86Y-138.43
X23.52Y-82.296
X23.52Y-84.836
X23.52Y-87.376
X25.4Y-138.43
X33.02Y-39.37
X33.02Y-41.91
X35.56Y-39.37
X35.56Y-41.91
X38.1Y-39.37
X38.1Y-41.91
X40.64Y-39.37
X40.64Y-41.91
X41.91Y-31.75
X41.91Y-34.29
X43.18Y-39.37
X43.18Y-41.91
X44.45Y-31.75
X44.45Y-34.29
X45.72Y-39.37
X45.72Y-41.91
X46.99Y-31.75
X46.99Y-34.29
X48.26Y-39.37
X48.26Y-41.91
X49.53Y-31.75
X49.53Y-34.29
X49.53Y-73.66
X49.53Y-76.2
X49.53Y-78.74
X49.53Y-87.625
X49.53Y-90.165
X50.8Y-39.37
X50.8Y-41.91
X52.07Y-31.75
X52.07Y-34.29
X58.42Y-98.425
X60.96Y-98.425
X63.5Y-98.425
X66.04Y-98.425
X68.58Y-98.425
X71.12Y-98.425
X73.66Y-98.425
X76.2Y-98.425
X137.16Y-31.75
X137.16Y-34.29
X139.7Y-31.75
X139.7Y-34.29
X142.24Y-31.75
X142.24Y-34.29
X144.78Y-31.75
X144.78Y-34.29
X149.86Y-31.75
X149.86Y-34.29
X152.4Y-31.75
X152.4Y-34.29
X154.94Y-31.75
X154.94Y-34.29
X157.48Y-31.75
X157.48Y-34.29
X160.02Y-31.75
X160.02Y-34.29
X162.56Y-31.75
X162.56Y-34.29
X165.1Y-31.75
X165.1Y-34.29
X167.64Y-31.75
X167.64Y-34.29
X170.18Y-31.75
X170.18Y-34.29
X172.72Y-31.75
X172.72Y-34.29
X175.26Y-31.75
X175.26Y-34.29
X177.8Y-31.75
X177.8Y-34.29
X180.34Y-31.75
X180.34Y-34.29
X182.88Y-31.75
X182.88Y-34.29
X185.42Y-31.75
X185.42Y-34.29
X187.96Y-31.75
X187.96Y-34.29
X188.77Y-108.2
X190.5Y-31.75
X190.5Y-34.29
X191.31Y-108.2
X193.04Y-31.75
X193.04Y-34.29
X193.85Y-108.2
X195.58Y-31.75
X195.58Y-34.29
X196.39Y-108.2
X198.12Y-31.75
X198.12Y-34.29
X198.93Y-108.2
X200.66Y-31.75
X200.66Y-34.29
X201.47Y-108.2
X203.2Y-31.75
X203.2Y-34.29
X204.01Y-108.2
X205.74Y-31.75
X205.74Y-34.29
X206.55Y-108.2
X208.28Y-31.75
X208.28Y-34.29
X210.82Y-31.75
X210.82Y-34.29
X228.6Y-95.25
X231.14Y-95.25
T8
X113.95Y-25.697
X120.96Y-25.697
T9
X24.13Y-64.77
X24.13Y-144.78
X127.0Y-24.13
X215.9Y-39.37
X228.6Y-64.77
X228.614Y-144.78
T3
G00X21.22Y-25.46
M15
G01X21.22Y-26.96
M16
G05
G00X27.22Y-25.41
M15
G01X28.72Y-25.41
M16
G05
G00X34.72Y-25.46
M15
G01X34.72Y-26.96
M16
G05
G00X90.28Y-22.04
M15
G01X90.88Y-22.04
M16
G05
G00X92.48Y-24.44
M15
G01X92.48Y-25.04
M16
G05
G00X92.48Y-27.64
M15
G01X92.48Y-28.24
M16
G05
G00X92.48Y-30.84
M15
G01X92.48Y-31.44
M16
G05
G00X95.48Y-24.44
M15
G01X95.48Y-25.04
M16
G05
G00X95.48Y-27.64
M15
G01X95.48Y-28.24
M16
G05
G00X95.48Y-30.84
M15
G01X95.48Y-31.44
M16
G05
G00X97.08Y-33.84
M15
G01X97.68Y-33.84
M16
G05
T4
G00X223.13Y-30.19
M15
G01X223.13Y-32.39
M16
G05
G00X229.03Y-28.49
M15
G01X226.83Y-28.49
M16
G05
G00X229.23Y-34.29
M15
G01X226.63Y-34.29
M16
G05
T7
G00X83.855Y-22.235
M15
G01X84.855Y-22.235
M16
G05
G00X83.855Y-28.335
M15
G01X84.855Y-28.335
M16
G05
G00X83.855Y-33.835
M15
G01X84.855Y-33.835
M16
G05
G00X85.855Y-24.635
M15
G01X86.855Y-24.635
M16
G05
G00X85.855Y-30.135
M15
G01X86.855Y-30.135
M16
G05
G00X103.64Y-22.235
M15
G01X104.64Y-22.235
M16
G05
G00X103.64Y-28.335
M15
G01X104.64Y-28.335
M16
G05
G00X103.64Y-33.835
M15
G01X104.64Y-33.835
M16
G05
G00X105.64Y-24.635
M15
G01X106.64Y-24.635
M16
G05
G00X105.64Y-30.135
M15
G01X106.64Y-30.135
M16
G05
T0
M30
