%TF.GenerationSoftware,KiCad,Pcbnew,6.0.11-2627ca5db0~126~ubuntu22.04.1*%
%TF.CreationDate,2023-12-06T09:32:18+02:00*%
%TF.ProjectId,ZX-Spectrum-Pentagon,5a582d53-7065-4637-9472-756d2d50656e,pcb_v0.4*%
%TF.SameCoordinates,Original*%
%TF.FileFunction,AssemblyDrawing,Top*%
%FSLAX46Y46*%
G04 Gerber Fmt 4.6, Leading zero omitted, Abs format (unit mm)*
G04 Created by KiCad (PCBNEW 6.0.11-2627ca5db0~126~ubuntu22.04.1) date 2023-12-06 09:32:18*
%MOMM*%
%LPD*%
G01*
G04 APERTURE LIST*
%TA.AperFunction,Profile*%
%ADD10C,0.200000*%
%TD*%
%ADD11C,0.100000*%
%ADD12C,0.150000*%
%ADD13C,0.080000*%
%ADD14C,0.050000*%
%ADD15C,0.127000*%
%ADD16C,0.120000*%
G04 APERTURE END LIST*
D10*
X20320000Y-149320000D02*
X20320000Y-20320000D01*
X233420000Y-149320000D02*
X20320000Y-149320000D01*
X211630000Y-20320000D02*
X233420000Y-20320000D01*
X20320000Y-20320000D02*
X133250000Y-20320000D01*
X233420000Y-20320000D02*
X233420000Y-149320000D01*
D11*
X231439806Y-144780000D02*
G75*
G03*
X231439806Y-144780000I-2839806J0D01*
G01*
X218739806Y-39370000D02*
G75*
G03*
X218739806Y-39370000I-2839806J0D01*
G01*
X129839806Y-24130000D02*
G75*
G03*
X129839806Y-24130000I-2839806J0D01*
G01*
X231439806Y-64770000D02*
G75*
G03*
X231439806Y-64770000I-2839806J0D01*
G01*
X26969806Y-144780000D02*
G75*
G03*
X26969806Y-144780000I-2839806J0D01*
G01*
X26969806Y-64770000D02*
G75*
G03*
X26969806Y-64770000I-2839806J0D01*
G01*
D12*
X111587192Y-152309114D02*
X111730054Y-152166262D01*
X112015773Y-152023413D01*
X112730058Y-152023435D01*
X113015768Y-152166301D01*
X113158621Y-152309163D01*
X113301469Y-152594882D01*
X113301460Y-152880596D01*
X113158590Y-153309163D01*
X111444251Y-155023396D01*
X113301394Y-155023453D01*
X116158537Y-155023542D02*
X114444251Y-155023488D01*
X115301394Y-155023515D02*
X115301487Y-152023515D01*
X115015759Y-152452078D01*
X114730036Y-152737783D01*
X114444317Y-152880631D01*
X117158630Y-152023573D02*
X119015773Y-152023630D01*
X118015737Y-153166456D01*
X118444309Y-153166469D01*
X118730018Y-153309335D01*
X118872871Y-153452197D01*
X119015719Y-153737916D01*
X119015697Y-154452201D01*
X118872831Y-154737911D01*
X118729970Y-154880764D01*
X118444251Y-155023612D01*
X117587108Y-155023586D01*
X117301398Y-154880720D01*
X117158546Y-154737858D01*
X120444255Y-154880817D02*
X120444251Y-155023674D01*
X120301385Y-155309384D01*
X120158523Y-155452237D01*
X123301394Y-155023763D02*
X121587108Y-155023710D01*
X122444251Y-155023736D02*
X122444344Y-152023736D01*
X122158616Y-152452299D01*
X121872893Y-152738004D01*
X121587175Y-152880853D01*
X125158630Y-152023820D02*
X125444344Y-152023829D01*
X125730054Y-152166695D01*
X125872907Y-152309557D01*
X126015755Y-152595275D01*
X126158594Y-153166708D01*
X126158572Y-153880994D01*
X126015697Y-154452418D01*
X125872831Y-154738128D01*
X125729970Y-154880981D01*
X125444251Y-155023829D01*
X125158537Y-155023820D01*
X124872827Y-154880954D01*
X124729974Y-154738093D01*
X124587126Y-154452374D01*
X124444286Y-153880941D01*
X124444309Y-153166655D01*
X124587183Y-152595231D01*
X124730049Y-152309521D01*
X124872911Y-152166669D01*
X125158630Y-152023820D01*
X128730058Y-152023931D02*
X128158630Y-152023913D01*
X127872911Y-152166761D01*
X127730049Y-152309614D01*
X127444322Y-152738177D01*
X127301447Y-153309601D01*
X127301412Y-154452458D01*
X127444260Y-154738177D01*
X127587113Y-154881038D01*
X127872822Y-155023904D01*
X128444251Y-155023922D01*
X128729970Y-154881074D01*
X128872831Y-154738221D01*
X129015697Y-154452511D01*
X129015719Y-153738225D01*
X128872871Y-153452507D01*
X128730018Y-153309645D01*
X128444309Y-153166779D01*
X127872880Y-153166761D01*
X127587161Y-153309610D01*
X127444300Y-153452462D01*
X127301434Y-153738172D01*
X130872915Y-152023997D02*
X131158630Y-152024006D01*
X131444340Y-152166872D01*
X131587192Y-152309734D01*
X131730041Y-152595452D01*
X131872880Y-153166885D01*
X131872858Y-153881171D01*
X131729983Y-154452595D01*
X131587117Y-154738305D01*
X131444255Y-154881158D01*
X131158537Y-155024006D01*
X130872822Y-155023997D01*
X130587113Y-154881131D01*
X130444260Y-154738270D01*
X130301412Y-154452551D01*
X130158572Y-153881118D01*
X130158594Y-153166832D01*
X130301469Y-152595408D01*
X130444335Y-152309698D01*
X130587197Y-152166846D01*
X130872915Y-152023997D01*
X135444251Y-155024139D02*
X135444313Y-153024139D01*
X135444304Y-153309853D02*
X135587166Y-153167000D01*
X135872884Y-153024152D01*
X136301456Y-153024165D01*
X136587166Y-153167031D01*
X136730014Y-153452750D01*
X136729965Y-155024179D01*
X136730014Y-153452750D02*
X136872880Y-153167040D01*
X137158599Y-153024192D01*
X137587170Y-153024205D01*
X137872880Y-153167071D01*
X138015728Y-153452790D01*
X138015680Y-155024218D01*
X139444251Y-155024263D02*
X139444313Y-153024263D01*
X139444304Y-153309977D02*
X139587166Y-153167124D01*
X139872884Y-153024276D01*
X140301456Y-153024289D01*
X140587166Y-153167155D01*
X140730014Y-153452874D01*
X140729965Y-155024303D01*
X140730014Y-153452874D02*
X140872880Y-153167164D01*
X141158599Y-153024316D01*
X141587170Y-153024329D01*
X141872880Y-153167195D01*
X142015728Y-153452914D01*
X142015680Y-155024342D01*
D11*
X20319985Y-149820000D02*
X20319848Y-154249851D01*
X233425985Y-149826600D02*
X233425848Y-154256451D01*
X20319865Y-153663431D02*
X109440722Y-153666191D01*
X144305008Y-153667271D02*
X233425865Y-153670031D01*
X20319865Y-153663431D02*
X21446351Y-154249887D01*
X20319865Y-153663431D02*
X21446387Y-153077045D01*
X233425865Y-153670031D02*
X232299379Y-153083575D01*
X233425865Y-153670031D02*
X232299343Y-154256417D01*
D13*
%TO.C,RPS1*%
X68008571Y-37056190D02*
X67841904Y-36818095D01*
X67722857Y-37056190D02*
X67722857Y-36556190D01*
X67913333Y-36556190D01*
X67960952Y-36580000D01*
X67984761Y-36603809D01*
X68008571Y-36651428D01*
X68008571Y-36722857D01*
X67984761Y-36770476D01*
X67960952Y-36794285D01*
X67913333Y-36818095D01*
X67722857Y-36818095D01*
X68222857Y-37056190D02*
X68222857Y-36556190D01*
X68413333Y-36556190D01*
X68460952Y-36580000D01*
X68484761Y-36603809D01*
X68508571Y-36651428D01*
X68508571Y-36722857D01*
X68484761Y-36770476D01*
X68460952Y-36794285D01*
X68413333Y-36818095D01*
X68222857Y-36818095D01*
X68699047Y-37032380D02*
X68770476Y-37056190D01*
X68889523Y-37056190D01*
X68937142Y-37032380D01*
X68960952Y-37008571D01*
X68984761Y-36960952D01*
X68984761Y-36913333D01*
X68960952Y-36865714D01*
X68937142Y-36841904D01*
X68889523Y-36818095D01*
X68794285Y-36794285D01*
X68746666Y-36770476D01*
X68722857Y-36746666D01*
X68699047Y-36699047D01*
X68699047Y-36651428D01*
X68722857Y-36603809D01*
X68746666Y-36580000D01*
X68794285Y-36556190D01*
X68913333Y-36556190D01*
X68984761Y-36580000D01*
X69460952Y-37056190D02*
X69175238Y-37056190D01*
X69318095Y-37056190D02*
X69318095Y-36556190D01*
X69270476Y-36627619D01*
X69222857Y-36675238D01*
X69175238Y-36699047D01*
D12*
%TO.C,U30*%
X158377142Y-93884285D02*
X160805714Y-93884285D01*
X161091428Y-93741428D01*
X161234285Y-93598571D01*
X161377142Y-93312857D01*
X161377142Y-92741428D01*
X161234285Y-92455714D01*
X161091428Y-92312857D01*
X160805714Y-92170000D01*
X158377142Y-92170000D01*
X158377142Y-91027142D02*
X158377142Y-89170000D01*
X159520000Y-90170000D01*
X159520000Y-89741428D01*
X159662857Y-89455714D01*
X159805714Y-89312857D01*
X160091428Y-89170000D01*
X160805714Y-89170000D01*
X161091428Y-89312857D01*
X161234285Y-89455714D01*
X161377142Y-89741428D01*
X161377142Y-90598571D01*
X161234285Y-90884285D01*
X161091428Y-91027142D01*
X158377142Y-87312857D02*
X158377142Y-87027142D01*
X158520000Y-86741428D01*
X158662857Y-86598571D01*
X158948571Y-86455714D01*
X159520000Y-86312857D01*
X160234285Y-86312857D01*
X160805714Y-86455714D01*
X161091428Y-86598571D01*
X161234285Y-86741428D01*
X161377142Y-87027142D01*
X161377142Y-87312857D01*
X161234285Y-87598571D01*
X161091428Y-87741428D01*
X160805714Y-87884285D01*
X160234285Y-88027142D01*
X159520000Y-88027142D01*
X158948571Y-87884285D01*
X158662857Y-87741428D01*
X158520000Y-87598571D01*
X158377142Y-87312857D01*
D14*
%TO.C,QVF3*%
X25095238Y-53515238D02*
X25064761Y-53500000D01*
X25034285Y-53469523D01*
X24988571Y-53423809D01*
X24958095Y-53408571D01*
X24927619Y-53408571D01*
X24942857Y-53484761D02*
X24912380Y-53469523D01*
X24881904Y-53439047D01*
X24866666Y-53378095D01*
X24866666Y-53271428D01*
X24881904Y-53210476D01*
X24912380Y-53180000D01*
X24942857Y-53164761D01*
X25003809Y-53164761D01*
X25034285Y-53180000D01*
X25064761Y-53210476D01*
X25080000Y-53271428D01*
X25080000Y-53378095D01*
X25064761Y-53439047D01*
X25034285Y-53469523D01*
X25003809Y-53484761D01*
X24942857Y-53484761D01*
X25171428Y-53164761D02*
X25278095Y-53484761D01*
X25384761Y-53164761D01*
X25598095Y-53317142D02*
X25491428Y-53317142D01*
X25491428Y-53484761D02*
X25491428Y-53164761D01*
X25643809Y-53164761D01*
X25735238Y-53164761D02*
X25933333Y-53164761D01*
X25826666Y-53286666D01*
X25872380Y-53286666D01*
X25902857Y-53301904D01*
X25918095Y-53317142D01*
X25933333Y-53347619D01*
X25933333Y-53423809D01*
X25918095Y-53454285D01*
X25902857Y-53469523D01*
X25872380Y-53484761D01*
X25780952Y-53484761D01*
X25750476Y-53469523D01*
X25735238Y-53454285D01*
D12*
%TO.C,YG1*%
X212066190Y-117806190D02*
X212542380Y-117806190D01*
X211542380Y-118139523D02*
X212066190Y-117806190D01*
X211542380Y-117472857D01*
X211590000Y-116615714D02*
X211542380Y-116710952D01*
X211542380Y-116853809D01*
X211590000Y-116996666D01*
X211685238Y-117091904D01*
X211780476Y-117139523D01*
X211970952Y-117187142D01*
X212113809Y-117187142D01*
X212304285Y-117139523D01*
X212399523Y-117091904D01*
X212494761Y-116996666D01*
X212542380Y-116853809D01*
X212542380Y-116758571D01*
X212494761Y-116615714D01*
X212447142Y-116568095D01*
X212113809Y-116568095D01*
X212113809Y-116758571D01*
X212542380Y-115615714D02*
X212542380Y-116187142D01*
X212542380Y-115901428D02*
X211542380Y-115901428D01*
X211685238Y-115996666D01*
X211780476Y-116091904D01*
X211828095Y-116187142D01*
%TO.C,U15*%
X139800714Y-127897142D02*
X139800714Y-130325714D01*
X139943571Y-130611428D01*
X140086428Y-130754285D01*
X140372142Y-130897142D01*
X140943571Y-130897142D01*
X141229285Y-130754285D01*
X141372142Y-130611428D01*
X141515000Y-130325714D01*
X141515000Y-127897142D01*
X144515000Y-130897142D02*
X142800714Y-130897142D01*
X143657857Y-130897142D02*
X143657857Y-127897142D01*
X143372142Y-128325714D01*
X143086428Y-128611428D01*
X142800714Y-128754285D01*
X147229285Y-127897142D02*
X145800714Y-127897142D01*
X145657857Y-129325714D01*
X145800714Y-129182857D01*
X146086428Y-129040000D01*
X146800714Y-129040000D01*
X147086428Y-129182857D01*
X147229285Y-129325714D01*
X147372142Y-129611428D01*
X147372142Y-130325714D01*
X147229285Y-130611428D01*
X147086428Y-130754285D01*
X146800714Y-130897142D01*
X146086428Y-130897142D01*
X145800714Y-130754285D01*
X145657857Y-130611428D01*
%TO.C,U48*%
X89797142Y-76104285D02*
X92225714Y-76104285D01*
X92511428Y-75961428D01*
X92654285Y-75818571D01*
X92797142Y-75532857D01*
X92797142Y-74961428D01*
X92654285Y-74675714D01*
X92511428Y-74532857D01*
X92225714Y-74390000D01*
X89797142Y-74390000D01*
X90797142Y-71675714D02*
X92797142Y-71675714D01*
X89654285Y-72390000D02*
X91797142Y-73104285D01*
X91797142Y-71247142D01*
X91082857Y-69675714D02*
X90940000Y-69961428D01*
X90797142Y-70104285D01*
X90511428Y-70247142D01*
X90368571Y-70247142D01*
X90082857Y-70104285D01*
X89940000Y-69961428D01*
X89797142Y-69675714D01*
X89797142Y-69104285D01*
X89940000Y-68818571D01*
X90082857Y-68675714D01*
X90368571Y-68532857D01*
X90511428Y-68532857D01*
X90797142Y-68675714D01*
X90940000Y-68818571D01*
X91082857Y-69104285D01*
X91082857Y-69675714D01*
X91225714Y-69961428D01*
X91368571Y-70104285D01*
X91654285Y-70247142D01*
X92225714Y-70247142D01*
X92511428Y-70104285D01*
X92654285Y-69961428D01*
X92797142Y-69675714D01*
X92797142Y-69104285D01*
X92654285Y-68818571D01*
X92511428Y-68675714D01*
X92225714Y-68532857D01*
X91654285Y-68532857D01*
X91368571Y-68675714D01*
X91225714Y-68818571D01*
X91082857Y-69104285D01*
%TO.C,U18*%
X61055714Y-71382142D02*
X61055714Y-73810714D01*
X61198571Y-74096428D01*
X61341428Y-74239285D01*
X61627142Y-74382142D01*
X62198571Y-74382142D01*
X62484285Y-74239285D01*
X62627142Y-74096428D01*
X62770000Y-73810714D01*
X62770000Y-71382142D01*
X65770000Y-74382142D02*
X64055714Y-74382142D01*
X64912857Y-74382142D02*
X64912857Y-71382142D01*
X64627142Y-71810714D01*
X64341428Y-72096428D01*
X64055714Y-72239285D01*
X67484285Y-72667857D02*
X67198571Y-72525000D01*
X67055714Y-72382142D01*
X66912857Y-72096428D01*
X66912857Y-71953571D01*
X67055714Y-71667857D01*
X67198571Y-71525000D01*
X67484285Y-71382142D01*
X68055714Y-71382142D01*
X68341428Y-71525000D01*
X68484285Y-71667857D01*
X68627142Y-71953571D01*
X68627142Y-72096428D01*
X68484285Y-72382142D01*
X68341428Y-72525000D01*
X68055714Y-72667857D01*
X67484285Y-72667857D01*
X67198571Y-72810714D01*
X67055714Y-72953571D01*
X66912857Y-73239285D01*
X66912857Y-73810714D01*
X67055714Y-74096428D01*
X67198571Y-74239285D01*
X67484285Y-74382142D01*
X68055714Y-74382142D01*
X68341428Y-74239285D01*
X68484285Y-74096428D01*
X68627142Y-73810714D01*
X68627142Y-73239285D01*
X68484285Y-72953571D01*
X68341428Y-72810714D01*
X68055714Y-72667857D01*
%TO.C,U49*%
X36925714Y-72017142D02*
X36925714Y-74445714D01*
X37068571Y-74731428D01*
X37211428Y-74874285D01*
X37497142Y-75017142D01*
X38068571Y-75017142D01*
X38354285Y-74874285D01*
X38497142Y-74731428D01*
X38640000Y-74445714D01*
X38640000Y-72017142D01*
X41354285Y-73017142D02*
X41354285Y-75017142D01*
X40640000Y-71874285D02*
X39925714Y-74017142D01*
X41782857Y-74017142D01*
X43068571Y-75017142D02*
X43640000Y-75017142D01*
X43925714Y-74874285D01*
X44068571Y-74731428D01*
X44354285Y-74302857D01*
X44497142Y-73731428D01*
X44497142Y-72588571D01*
X44354285Y-72302857D01*
X44211428Y-72160000D01*
X43925714Y-72017142D01*
X43354285Y-72017142D01*
X43068571Y-72160000D01*
X42925714Y-72302857D01*
X42782857Y-72588571D01*
X42782857Y-73302857D01*
X42925714Y-73588571D01*
X43068571Y-73731428D01*
X43354285Y-73874285D01*
X43925714Y-73874285D01*
X44211428Y-73731428D01*
X44354285Y-73588571D01*
X44497142Y-73302857D01*
%TO.C,U19*%
X52165714Y-49147142D02*
X52165714Y-51575714D01*
X52308571Y-51861428D01*
X52451428Y-52004285D01*
X52737142Y-52147142D01*
X53308571Y-52147142D01*
X53594285Y-52004285D01*
X53737142Y-51861428D01*
X53880000Y-51575714D01*
X53880000Y-49147142D01*
X56880000Y-52147142D02*
X55165714Y-52147142D01*
X56022857Y-52147142D02*
X56022857Y-49147142D01*
X55737142Y-49575714D01*
X55451428Y-49861428D01*
X55165714Y-50004285D01*
X58308571Y-52147142D02*
X58880000Y-52147142D01*
X59165714Y-52004285D01*
X59308571Y-51861428D01*
X59594285Y-51432857D01*
X59737142Y-50861428D01*
X59737142Y-49718571D01*
X59594285Y-49432857D01*
X59451428Y-49290000D01*
X59165714Y-49147142D01*
X58594285Y-49147142D01*
X58308571Y-49290000D01*
X58165714Y-49432857D01*
X58022857Y-49718571D01*
X58022857Y-50432857D01*
X58165714Y-50718571D01*
X58308571Y-50861428D01*
X58594285Y-51004285D01*
X59165714Y-51004285D01*
X59451428Y-50861428D01*
X59594285Y-50718571D01*
X59737142Y-50432857D01*
%TO.C,TP1*%
X232970000Y-96011904D02*
X232922380Y-96107142D01*
X232922380Y-96250000D01*
X232970000Y-96392857D01*
X233065238Y-96488095D01*
X233160476Y-96535714D01*
X233350952Y-96583333D01*
X233493809Y-96583333D01*
X233684285Y-96535714D01*
X233779523Y-96488095D01*
X233874761Y-96392857D01*
X233922380Y-96250000D01*
X233922380Y-96154761D01*
X233874761Y-96011904D01*
X233827142Y-95964285D01*
X233493809Y-95964285D01*
X233493809Y-96154761D01*
X233922380Y-95535714D02*
X232922380Y-95535714D01*
X233922380Y-94964285D01*
X232922380Y-94964285D01*
X233922380Y-94488095D02*
X232922380Y-94488095D01*
X232922380Y-94250000D01*
X232970000Y-94107142D01*
X233065238Y-94011904D01*
X233160476Y-93964285D01*
X233350952Y-93916666D01*
X233493809Y-93916666D01*
X233684285Y-93964285D01*
X233779523Y-94011904D01*
X233874761Y-94107142D01*
X233922380Y-94250000D01*
X233922380Y-94488095D01*
X228608095Y-94702380D02*
X229179523Y-94702380D01*
X228893809Y-95702380D02*
X228893809Y-94702380D01*
X229512857Y-95702380D02*
X229512857Y-94702380D01*
X229893809Y-94702380D01*
X229989047Y-94750000D01*
X230036666Y-94797619D01*
X230084285Y-94892857D01*
X230084285Y-95035714D01*
X230036666Y-95130952D01*
X229989047Y-95178571D01*
X229893809Y-95226190D01*
X229512857Y-95226190D01*
X231036666Y-95702380D02*
X230465238Y-95702380D01*
X230750952Y-95702380D02*
X230750952Y-94702380D01*
X230655714Y-94845238D01*
X230560476Y-94940476D01*
X230465238Y-94988095D01*
D14*
%TO.C,QVF2*%
X25095238Y-57325238D02*
X25064761Y-57310000D01*
X25034285Y-57279523D01*
X24988571Y-57233809D01*
X24958095Y-57218571D01*
X24927619Y-57218571D01*
X24942857Y-57294761D02*
X24912380Y-57279523D01*
X24881904Y-57249047D01*
X24866666Y-57188095D01*
X24866666Y-57081428D01*
X24881904Y-57020476D01*
X24912380Y-56990000D01*
X24942857Y-56974761D01*
X25003809Y-56974761D01*
X25034285Y-56990000D01*
X25064761Y-57020476D01*
X25080000Y-57081428D01*
X25080000Y-57188095D01*
X25064761Y-57249047D01*
X25034285Y-57279523D01*
X25003809Y-57294761D01*
X24942857Y-57294761D01*
X25171428Y-56974761D02*
X25278095Y-57294761D01*
X25384761Y-56974761D01*
X25598095Y-57127142D02*
X25491428Y-57127142D01*
X25491428Y-57294761D02*
X25491428Y-56974761D01*
X25643809Y-56974761D01*
X25750476Y-57005238D02*
X25765714Y-56990000D01*
X25796190Y-56974761D01*
X25872380Y-56974761D01*
X25902857Y-56990000D01*
X25918095Y-57005238D01*
X25933333Y-57035714D01*
X25933333Y-57066190D01*
X25918095Y-57111904D01*
X25735238Y-57294761D01*
X25933333Y-57294761D01*
D13*
%TO.C,CIO9*%
X64813714Y-31674571D02*
X64789904Y-31698380D01*
X64718476Y-31722190D01*
X64670857Y-31722190D01*
X64599428Y-31698380D01*
X64551809Y-31650761D01*
X64528000Y-31603142D01*
X64504190Y-31507904D01*
X64504190Y-31436476D01*
X64528000Y-31341238D01*
X64551809Y-31293619D01*
X64599428Y-31246000D01*
X64670857Y-31222190D01*
X64718476Y-31222190D01*
X64789904Y-31246000D01*
X64813714Y-31269809D01*
X65028000Y-31722190D02*
X65028000Y-31222190D01*
X65361333Y-31222190D02*
X65456571Y-31222190D01*
X65504190Y-31246000D01*
X65551809Y-31293619D01*
X65575619Y-31388857D01*
X65575619Y-31555523D01*
X65551809Y-31650761D01*
X65504190Y-31698380D01*
X65456571Y-31722190D01*
X65361333Y-31722190D01*
X65313714Y-31698380D01*
X65266095Y-31650761D01*
X65242285Y-31555523D01*
X65242285Y-31388857D01*
X65266095Y-31293619D01*
X65313714Y-31246000D01*
X65361333Y-31222190D01*
X65813714Y-31722190D02*
X65908952Y-31722190D01*
X65956571Y-31698380D01*
X65980380Y-31674571D01*
X66028000Y-31603142D01*
X66051809Y-31507904D01*
X66051809Y-31317428D01*
X66028000Y-31269809D01*
X66004190Y-31246000D01*
X65956571Y-31222190D01*
X65861333Y-31222190D01*
X65813714Y-31246000D01*
X65789904Y-31269809D01*
X65766095Y-31317428D01*
X65766095Y-31436476D01*
X65789904Y-31484095D01*
X65813714Y-31507904D01*
X65861333Y-31531714D01*
X65956571Y-31531714D01*
X66004190Y-31507904D01*
X66028000Y-31484095D01*
X66051809Y-31436476D01*
%TO.C,RIO2*%
X70076190Y-28404285D02*
X69838095Y-28570952D01*
X70076190Y-28690000D02*
X69576190Y-28690000D01*
X69576190Y-28499523D01*
X69600000Y-28451904D01*
X69623809Y-28428095D01*
X69671428Y-28404285D01*
X69742857Y-28404285D01*
X69790476Y-28428095D01*
X69814285Y-28451904D01*
X69838095Y-28499523D01*
X69838095Y-28690000D01*
X70076190Y-28190000D02*
X69576190Y-28190000D01*
X69576190Y-27856666D02*
X69576190Y-27761428D01*
X69600000Y-27713809D01*
X69647619Y-27666190D01*
X69742857Y-27642380D01*
X69909523Y-27642380D01*
X70004761Y-27666190D01*
X70052380Y-27713809D01*
X70076190Y-27761428D01*
X70076190Y-27856666D01*
X70052380Y-27904285D01*
X70004761Y-27951904D01*
X69909523Y-27975714D01*
X69742857Y-27975714D01*
X69647619Y-27951904D01*
X69600000Y-27904285D01*
X69576190Y-27856666D01*
X69623809Y-27451904D02*
X69600000Y-27428095D01*
X69576190Y-27380476D01*
X69576190Y-27261428D01*
X69600000Y-27213809D01*
X69623809Y-27190000D01*
X69671428Y-27166190D01*
X69719047Y-27166190D01*
X69790476Y-27190000D01*
X70076190Y-27475714D01*
X70076190Y-27166190D01*
D12*
%TO.C,U25*%
X191387142Y-60859285D02*
X193815714Y-60859285D01*
X194101428Y-60716428D01*
X194244285Y-60573571D01*
X194387142Y-60287857D01*
X194387142Y-59716428D01*
X194244285Y-59430714D01*
X194101428Y-59287857D01*
X193815714Y-59145000D01*
X191387142Y-59145000D01*
X191672857Y-57859285D02*
X191530000Y-57716428D01*
X191387142Y-57430714D01*
X191387142Y-56716428D01*
X191530000Y-56430714D01*
X191672857Y-56287857D01*
X191958571Y-56145000D01*
X192244285Y-56145000D01*
X192672857Y-56287857D01*
X194387142Y-58002142D01*
X194387142Y-56145000D01*
X191387142Y-53430714D02*
X191387142Y-54859285D01*
X192815714Y-55002142D01*
X192672857Y-54859285D01*
X192530000Y-54573571D01*
X192530000Y-53859285D01*
X192672857Y-53573571D01*
X192815714Y-53430714D01*
X193101428Y-53287857D01*
X193815714Y-53287857D01*
X194101428Y-53430714D01*
X194244285Y-53573571D01*
X194387142Y-53859285D01*
X194387142Y-54573571D01*
X194244285Y-54859285D01*
X194101428Y-55002142D01*
%TO.C,JIO5*%
X47006190Y-91947380D02*
X47196666Y-91947380D01*
X47291904Y-91995000D01*
X47387142Y-92090238D01*
X47434761Y-92280714D01*
X47434761Y-92614047D01*
X47387142Y-92804523D01*
X47291904Y-92899761D01*
X47196666Y-92947380D01*
X47006190Y-92947380D01*
X46910952Y-92899761D01*
X46815714Y-92804523D01*
X46768095Y-92614047D01*
X46768095Y-92280714D01*
X46815714Y-92090238D01*
X46910952Y-91995000D01*
X47006190Y-91947380D01*
X47768095Y-92947380D02*
X48291904Y-92280714D01*
X47768095Y-92280714D02*
X48291904Y-92947380D01*
X49006190Y-92423571D02*
X48672857Y-92423571D01*
X48672857Y-92947380D02*
X48672857Y-91947380D01*
X49149047Y-91947380D01*
X49530000Y-92423571D02*
X49863333Y-92423571D01*
X50006190Y-92947380D02*
X49530000Y-92947380D01*
X49530000Y-91947380D01*
X50006190Y-91947380D01*
X51196666Y-92947380D02*
X51196666Y-91947380D01*
X51672857Y-92947380D02*
X51672857Y-91947380D01*
X52244285Y-92947380D01*
X52244285Y-91947380D01*
X48982380Y-89990238D02*
X49696666Y-89990238D01*
X49839523Y-90037857D01*
X49934761Y-90133095D01*
X49982380Y-90275952D01*
X49982380Y-90371190D01*
X49982380Y-89514047D02*
X48982380Y-89514047D01*
X48982380Y-88847380D02*
X48982380Y-88656904D01*
X49030000Y-88561666D01*
X49125238Y-88466428D01*
X49315714Y-88418809D01*
X49649047Y-88418809D01*
X49839523Y-88466428D01*
X49934761Y-88561666D01*
X49982380Y-88656904D01*
X49982380Y-88847380D01*
X49934761Y-88942619D01*
X49839523Y-89037857D01*
X49649047Y-89085476D01*
X49315714Y-89085476D01*
X49125238Y-89037857D01*
X49030000Y-88942619D01*
X48982380Y-88847380D01*
X48982380Y-87514047D02*
X48982380Y-87990238D01*
X49458571Y-88037857D01*
X49410952Y-87990238D01*
X49363333Y-87895000D01*
X49363333Y-87656904D01*
X49410952Y-87561666D01*
X49458571Y-87514047D01*
X49553809Y-87466428D01*
X49791904Y-87466428D01*
X49887142Y-87514047D01*
X49934761Y-87561666D01*
X49982380Y-87656904D01*
X49982380Y-87895000D01*
X49934761Y-87990238D01*
X49887142Y-88037857D01*
%TO.C,U47*%
X120277142Y-76104285D02*
X122705714Y-76104285D01*
X122991428Y-75961428D01*
X123134285Y-75818571D01*
X123277142Y-75532857D01*
X123277142Y-74961428D01*
X123134285Y-74675714D01*
X122991428Y-74532857D01*
X122705714Y-74390000D01*
X120277142Y-74390000D01*
X121277142Y-71675714D02*
X123277142Y-71675714D01*
X120134285Y-72390000D02*
X122277142Y-73104285D01*
X122277142Y-71247142D01*
X120277142Y-70390000D02*
X120277142Y-68390000D01*
X123277142Y-69675714D01*
%TO.C,U20*%
X53430714Y-54227142D02*
X53430714Y-56655714D01*
X53573571Y-56941428D01*
X53716428Y-57084285D01*
X54002142Y-57227142D01*
X54573571Y-57227142D01*
X54859285Y-57084285D01*
X55002142Y-56941428D01*
X55145000Y-56655714D01*
X55145000Y-54227142D01*
X56430714Y-54512857D02*
X56573571Y-54370000D01*
X56859285Y-54227142D01*
X57573571Y-54227142D01*
X57859285Y-54370000D01*
X58002142Y-54512857D01*
X58145000Y-54798571D01*
X58145000Y-55084285D01*
X58002142Y-55512857D01*
X56287857Y-57227142D01*
X58145000Y-57227142D01*
X60002142Y-54227142D02*
X60287857Y-54227142D01*
X60573571Y-54370000D01*
X60716428Y-54512857D01*
X60859285Y-54798571D01*
X61002142Y-55370000D01*
X61002142Y-56084285D01*
X60859285Y-56655714D01*
X60716428Y-56941428D01*
X60573571Y-57084285D01*
X60287857Y-57227142D01*
X60002142Y-57227142D01*
X59716428Y-57084285D01*
X59573571Y-56941428D01*
X59430714Y-56655714D01*
X59287857Y-56084285D01*
X59287857Y-55370000D01*
X59430714Y-54798571D01*
X59573571Y-54512857D01*
X59716428Y-54370000D01*
X60002142Y-54227142D01*
%TO.C,DVE1*%
X44902380Y-88614047D02*
X43902380Y-88614047D01*
X43902380Y-88375952D01*
X43950000Y-88233095D01*
X44045238Y-88137857D01*
X44140476Y-88090238D01*
X44330952Y-88042619D01*
X44473809Y-88042619D01*
X44664285Y-88090238D01*
X44759523Y-88137857D01*
X44854761Y-88233095D01*
X44902380Y-88375952D01*
X44902380Y-88614047D01*
X43902380Y-87756904D02*
X44902380Y-87423571D01*
X43902380Y-87090238D01*
X44378571Y-86756904D02*
X44378571Y-86423571D01*
X44902380Y-86280714D02*
X44902380Y-86756904D01*
X43902380Y-86756904D01*
X43902380Y-86280714D01*
X44902380Y-85328333D02*
X44902380Y-85899761D01*
X44902380Y-85614047D02*
X43902380Y-85614047D01*
X44045238Y-85709285D01*
X44140476Y-85804523D01*
X44188095Y-85899761D01*
%TO.C,JIOKB2*%
X78982380Y-100425000D02*
X77982380Y-100425000D01*
X78982380Y-99853571D02*
X78410952Y-100282142D01*
X77982380Y-99853571D02*
X78553809Y-100425000D01*
X78982380Y-99425000D02*
X77982380Y-99425000D01*
X77982380Y-99186904D01*
X78030000Y-99044047D01*
X78125238Y-98948809D01*
X78220476Y-98901190D01*
X78410952Y-98853571D01*
X78553809Y-98853571D01*
X78744285Y-98901190D01*
X78839523Y-98948809D01*
X78934761Y-99044047D01*
X78982380Y-99186904D01*
X78982380Y-99425000D01*
X78696666Y-98472619D02*
X78696666Y-97996428D01*
X78982380Y-98567857D02*
X77982380Y-98234523D01*
X78982380Y-97901190D01*
X77982380Y-97710714D02*
X77982380Y-97139285D01*
X78982380Y-97425000D02*
X77982380Y-97425000D01*
X78696666Y-96853571D02*
X78696666Y-96377380D01*
X78982380Y-96948809D02*
X77982380Y-96615476D01*
X78982380Y-96282142D01*
X65214761Y-97877380D02*
X65214761Y-98591666D01*
X65167142Y-98734523D01*
X65071904Y-98829761D01*
X64929047Y-98877380D01*
X64833809Y-98877380D01*
X65690952Y-98877380D02*
X65690952Y-97877380D01*
X66357619Y-97877380D02*
X66548095Y-97877380D01*
X66643333Y-97925000D01*
X66738571Y-98020238D01*
X66786190Y-98210714D01*
X66786190Y-98544047D01*
X66738571Y-98734523D01*
X66643333Y-98829761D01*
X66548095Y-98877380D01*
X66357619Y-98877380D01*
X66262380Y-98829761D01*
X66167142Y-98734523D01*
X66119523Y-98544047D01*
X66119523Y-98210714D01*
X66167142Y-98020238D01*
X66262380Y-97925000D01*
X66357619Y-97877380D01*
X67214761Y-98877380D02*
X67214761Y-97877380D01*
X67786190Y-98877380D02*
X67357619Y-98305952D01*
X67786190Y-97877380D02*
X67214761Y-98448809D01*
X68548095Y-98353571D02*
X68690952Y-98401190D01*
X68738571Y-98448809D01*
X68786190Y-98544047D01*
X68786190Y-98686904D01*
X68738571Y-98782142D01*
X68690952Y-98829761D01*
X68595714Y-98877380D01*
X68214761Y-98877380D01*
X68214761Y-97877380D01*
X68548095Y-97877380D01*
X68643333Y-97925000D01*
X68690952Y-97972619D01*
X68738571Y-98067857D01*
X68738571Y-98163095D01*
X68690952Y-98258333D01*
X68643333Y-98305952D01*
X68548095Y-98353571D01*
X68214761Y-98353571D01*
X69167142Y-97972619D02*
X69214761Y-97925000D01*
X69310000Y-97877380D01*
X69548095Y-97877380D01*
X69643333Y-97925000D01*
X69690952Y-97972619D01*
X69738571Y-98067857D01*
X69738571Y-98163095D01*
X69690952Y-98305952D01*
X69119523Y-98877380D01*
X69738571Y-98877380D01*
%TO.C,U7*%
X165354285Y-139327142D02*
X165354285Y-141755714D01*
X165497142Y-142041428D01*
X165640000Y-142184285D01*
X165925714Y-142327142D01*
X166497142Y-142327142D01*
X166782857Y-142184285D01*
X166925714Y-142041428D01*
X167068571Y-141755714D01*
X167068571Y-139327142D01*
X168211428Y-139327142D02*
X170211428Y-139327142D01*
X168925714Y-142327142D01*
%TO.C,U23*%
X61055714Y-82177142D02*
X61055714Y-84605714D01*
X61198571Y-84891428D01*
X61341428Y-85034285D01*
X61627142Y-85177142D01*
X62198571Y-85177142D01*
X62484285Y-85034285D01*
X62627142Y-84891428D01*
X62770000Y-84605714D01*
X62770000Y-82177142D01*
X64055714Y-82462857D02*
X64198571Y-82320000D01*
X64484285Y-82177142D01*
X65198571Y-82177142D01*
X65484285Y-82320000D01*
X65627142Y-82462857D01*
X65770000Y-82748571D01*
X65770000Y-83034285D01*
X65627142Y-83462857D01*
X63912857Y-85177142D01*
X65770000Y-85177142D01*
X66770000Y-82177142D02*
X68627142Y-82177142D01*
X67627142Y-83320000D01*
X68055714Y-83320000D01*
X68341428Y-83462857D01*
X68484285Y-83605714D01*
X68627142Y-83891428D01*
X68627142Y-84605714D01*
X68484285Y-84891428D01*
X68341428Y-85034285D01*
X68055714Y-85177142D01*
X67198571Y-85177142D01*
X66912857Y-85034285D01*
X66770000Y-84891428D01*
%TO.C,U42*%
X110117142Y-76104285D02*
X112545714Y-76104285D01*
X112831428Y-75961428D01*
X112974285Y-75818571D01*
X113117142Y-75532857D01*
X113117142Y-74961428D01*
X112974285Y-74675714D01*
X112831428Y-74532857D01*
X112545714Y-74390000D01*
X110117142Y-74390000D01*
X111117142Y-71675714D02*
X113117142Y-71675714D01*
X109974285Y-72390000D02*
X112117142Y-73104285D01*
X112117142Y-71247142D01*
X110402857Y-70247142D02*
X110260000Y-70104285D01*
X110117142Y-69818571D01*
X110117142Y-69104285D01*
X110260000Y-68818571D01*
X110402857Y-68675714D01*
X110688571Y-68532857D01*
X110974285Y-68532857D01*
X111402857Y-68675714D01*
X113117142Y-70390000D01*
X113117142Y-68532857D01*
%TO.C,U38*%
X31845714Y-105037142D02*
X31845714Y-107465714D01*
X31988571Y-107751428D01*
X32131428Y-107894285D01*
X32417142Y-108037142D01*
X32988571Y-108037142D01*
X33274285Y-107894285D01*
X33417142Y-107751428D01*
X33560000Y-107465714D01*
X33560000Y-105037142D01*
X34702857Y-105037142D02*
X36560000Y-105037142D01*
X35560000Y-106180000D01*
X35988571Y-106180000D01*
X36274285Y-106322857D01*
X36417142Y-106465714D01*
X36560000Y-106751428D01*
X36560000Y-107465714D01*
X36417142Y-107751428D01*
X36274285Y-107894285D01*
X35988571Y-108037142D01*
X35131428Y-108037142D01*
X34845714Y-107894285D01*
X34702857Y-107751428D01*
X38274285Y-106322857D02*
X37988571Y-106180000D01*
X37845714Y-106037142D01*
X37702857Y-105751428D01*
X37702857Y-105608571D01*
X37845714Y-105322857D01*
X37988571Y-105180000D01*
X38274285Y-105037142D01*
X38845714Y-105037142D01*
X39131428Y-105180000D01*
X39274285Y-105322857D01*
X39417142Y-105608571D01*
X39417142Y-105751428D01*
X39274285Y-106037142D01*
X39131428Y-106180000D01*
X38845714Y-106322857D01*
X38274285Y-106322857D01*
X37988571Y-106465714D01*
X37845714Y-106608571D01*
X37702857Y-106894285D01*
X37702857Y-107465714D01*
X37845714Y-107751428D01*
X37988571Y-107894285D01*
X38274285Y-108037142D01*
X38845714Y-108037142D01*
X39131428Y-107894285D01*
X39274285Y-107751428D01*
X39417142Y-107465714D01*
X39417142Y-106894285D01*
X39274285Y-106608571D01*
X39131428Y-106465714D01*
X38845714Y-106322857D01*
%TO.C,U44*%
X102950714Y-47892142D02*
X102950714Y-50320714D01*
X103093571Y-50606428D01*
X103236428Y-50749285D01*
X103522142Y-50892142D01*
X104093571Y-50892142D01*
X104379285Y-50749285D01*
X104522142Y-50606428D01*
X104665000Y-50320714D01*
X104665000Y-47892142D01*
X107379285Y-48892142D02*
X107379285Y-50892142D01*
X106665000Y-47749285D02*
X105950714Y-49892142D01*
X107807857Y-49892142D01*
X110236428Y-48892142D02*
X110236428Y-50892142D01*
X109522142Y-47749285D02*
X108807857Y-49892142D01*
X110665000Y-49892142D01*
%TO.C,DVE2*%
X30297380Y-88614047D02*
X29297380Y-88614047D01*
X29297380Y-88375952D01*
X29345000Y-88233095D01*
X29440238Y-88137857D01*
X29535476Y-88090238D01*
X29725952Y-88042619D01*
X29868809Y-88042619D01*
X30059285Y-88090238D01*
X30154523Y-88137857D01*
X30249761Y-88233095D01*
X30297380Y-88375952D01*
X30297380Y-88614047D01*
X29297380Y-87756904D02*
X30297380Y-87423571D01*
X29297380Y-87090238D01*
X29773571Y-86756904D02*
X29773571Y-86423571D01*
X30297380Y-86280714D02*
X30297380Y-86756904D01*
X29297380Y-86756904D01*
X29297380Y-86280714D01*
X29392619Y-85899761D02*
X29345000Y-85852142D01*
X29297380Y-85756904D01*
X29297380Y-85518809D01*
X29345000Y-85423571D01*
X29392619Y-85375952D01*
X29487857Y-85328333D01*
X29583095Y-85328333D01*
X29725952Y-85375952D01*
X30297380Y-85947380D01*
X30297380Y-85328333D01*
%TO.C,U1*%
X192024285Y-116467142D02*
X192024285Y-118895714D01*
X192167142Y-119181428D01*
X192310000Y-119324285D01*
X192595714Y-119467142D01*
X193167142Y-119467142D01*
X193452857Y-119324285D01*
X193595714Y-119181428D01*
X193738571Y-118895714D01*
X193738571Y-116467142D01*
X196738571Y-119467142D02*
X195024285Y-119467142D01*
X195881428Y-119467142D02*
X195881428Y-116467142D01*
X195595714Y-116895714D01*
X195310000Y-117181428D01*
X195024285Y-117324285D01*
%TO.C,U11*%
X188055714Y-139337142D02*
X188055714Y-141765714D01*
X188198571Y-142051428D01*
X188341428Y-142194285D01*
X188627142Y-142337142D01*
X189198571Y-142337142D01*
X189484285Y-142194285D01*
X189627142Y-142051428D01*
X189770000Y-141765714D01*
X189770000Y-139337142D01*
X192770000Y-142337142D02*
X191055714Y-142337142D01*
X191912857Y-142337142D02*
X191912857Y-139337142D01*
X191627142Y-139765714D01*
X191341428Y-140051428D01*
X191055714Y-140194285D01*
X195627142Y-142337142D02*
X193912857Y-142337142D01*
X194770000Y-142337142D02*
X194770000Y-139337142D01*
X194484285Y-139765714D01*
X194198571Y-140051428D01*
X193912857Y-140194285D01*
D14*
%TO.C,QVF1*%
X25095238Y-45895238D02*
X25064761Y-45880000D01*
X25034285Y-45849523D01*
X24988571Y-45803809D01*
X24958095Y-45788571D01*
X24927619Y-45788571D01*
X24942857Y-45864761D02*
X24912380Y-45849523D01*
X24881904Y-45819047D01*
X24866666Y-45758095D01*
X24866666Y-45651428D01*
X24881904Y-45590476D01*
X24912380Y-45560000D01*
X24942857Y-45544761D01*
X25003809Y-45544761D01*
X25034285Y-45560000D01*
X25064761Y-45590476D01*
X25080000Y-45651428D01*
X25080000Y-45758095D01*
X25064761Y-45819047D01*
X25034285Y-45849523D01*
X25003809Y-45864761D01*
X24942857Y-45864761D01*
X25171428Y-45544761D02*
X25278095Y-45864761D01*
X25384761Y-45544761D01*
X25598095Y-45697142D02*
X25491428Y-45697142D01*
X25491428Y-45864761D02*
X25491428Y-45544761D01*
X25643809Y-45544761D01*
X25933333Y-45864761D02*
X25750476Y-45864761D01*
X25841904Y-45864761D02*
X25841904Y-45544761D01*
X25811428Y-45590476D01*
X25780952Y-45620952D01*
X25750476Y-45636190D01*
D12*
%TO.C,U5*%
X115824285Y-127897142D02*
X115824285Y-130325714D01*
X115967142Y-130611428D01*
X116110000Y-130754285D01*
X116395714Y-130897142D01*
X116967142Y-130897142D01*
X117252857Y-130754285D01*
X117395714Y-130611428D01*
X117538571Y-130325714D01*
X117538571Y-127897142D01*
X120395714Y-127897142D02*
X118967142Y-127897142D01*
X118824285Y-129325714D01*
X118967142Y-129182857D01*
X119252857Y-129040000D01*
X119967142Y-129040000D01*
X120252857Y-129182857D01*
X120395714Y-129325714D01*
X120538571Y-129611428D01*
X120538571Y-130325714D01*
X120395714Y-130611428D01*
X120252857Y-130754285D01*
X119967142Y-130897142D01*
X119252857Y-130897142D01*
X118967142Y-130754285D01*
X118824285Y-130611428D01*
%TO.C,U21*%
X58515714Y-58047142D02*
X58515714Y-60475714D01*
X58658571Y-60761428D01*
X58801428Y-60904285D01*
X59087142Y-61047142D01*
X59658571Y-61047142D01*
X59944285Y-60904285D01*
X60087142Y-60761428D01*
X60230000Y-60475714D01*
X60230000Y-58047142D01*
X61515714Y-58332857D02*
X61658571Y-58190000D01*
X61944285Y-58047142D01*
X62658571Y-58047142D01*
X62944285Y-58190000D01*
X63087142Y-58332857D01*
X63230000Y-58618571D01*
X63230000Y-58904285D01*
X63087142Y-59332857D01*
X61372857Y-61047142D01*
X63230000Y-61047142D01*
X66087142Y-61047142D02*
X64372857Y-61047142D01*
X65230000Y-61047142D02*
X65230000Y-58047142D01*
X64944285Y-58475714D01*
X64658571Y-58761428D01*
X64372857Y-58904285D01*
D14*
%TO.C,QVF4*%
X25095238Y-49705238D02*
X25064761Y-49690000D01*
X25034285Y-49659523D01*
X24988571Y-49613809D01*
X24958095Y-49598571D01*
X24927619Y-49598571D01*
X24942857Y-49674761D02*
X24912380Y-49659523D01*
X24881904Y-49629047D01*
X24866666Y-49568095D01*
X24866666Y-49461428D01*
X24881904Y-49400476D01*
X24912380Y-49370000D01*
X24942857Y-49354761D01*
X25003809Y-49354761D01*
X25034285Y-49370000D01*
X25064761Y-49400476D01*
X25080000Y-49461428D01*
X25080000Y-49568095D01*
X25064761Y-49629047D01*
X25034285Y-49659523D01*
X25003809Y-49674761D01*
X24942857Y-49674761D01*
X25171428Y-49354761D02*
X25278095Y-49674761D01*
X25384761Y-49354761D01*
X25598095Y-49507142D02*
X25491428Y-49507142D01*
X25491428Y-49674761D02*
X25491428Y-49354761D01*
X25643809Y-49354761D01*
X25902857Y-49461428D02*
X25902857Y-49674761D01*
X25826666Y-49339523D02*
X25750476Y-49568095D01*
X25948571Y-49568095D01*
D13*
%TO.C,RPI2*%
X124642619Y-29436190D02*
X124475952Y-29198095D01*
X124356904Y-29436190D02*
X124356904Y-28936190D01*
X124547380Y-28936190D01*
X124595000Y-28960000D01*
X124618809Y-28983809D01*
X124642619Y-29031428D01*
X124642619Y-29102857D01*
X124618809Y-29150476D01*
X124595000Y-29174285D01*
X124547380Y-29198095D01*
X124356904Y-29198095D01*
X124856904Y-29436190D02*
X124856904Y-28936190D01*
X125047380Y-28936190D01*
X125095000Y-28960000D01*
X125118809Y-28983809D01*
X125142619Y-29031428D01*
X125142619Y-29102857D01*
X125118809Y-29150476D01*
X125095000Y-29174285D01*
X125047380Y-29198095D01*
X124856904Y-29198095D01*
X125356904Y-29436190D02*
X125356904Y-28936190D01*
X125571190Y-28983809D02*
X125595000Y-28960000D01*
X125642619Y-28936190D01*
X125761666Y-28936190D01*
X125809285Y-28960000D01*
X125833095Y-28983809D01*
X125856904Y-29031428D01*
X125856904Y-29079047D01*
X125833095Y-29150476D01*
X125547380Y-29436190D01*
X125856904Y-29436190D01*
D12*
%TO.C,U13*%
X214725714Y-127897142D02*
X214725714Y-130325714D01*
X214868571Y-130611428D01*
X215011428Y-130754285D01*
X215297142Y-130897142D01*
X215868571Y-130897142D01*
X216154285Y-130754285D01*
X216297142Y-130611428D01*
X216440000Y-130325714D01*
X216440000Y-127897142D01*
X219440000Y-130897142D02*
X217725714Y-130897142D01*
X218582857Y-130897142D02*
X218582857Y-127897142D01*
X218297142Y-128325714D01*
X218011428Y-128611428D01*
X217725714Y-128754285D01*
X220440000Y-127897142D02*
X222297142Y-127897142D01*
X221297142Y-129040000D01*
X221725714Y-129040000D01*
X222011428Y-129182857D01*
X222154285Y-129325714D01*
X222297142Y-129611428D01*
X222297142Y-130325714D01*
X222154285Y-130611428D01*
X222011428Y-130754285D01*
X221725714Y-130897142D01*
X220868571Y-130897142D01*
X220582857Y-130754285D01*
X220440000Y-130611428D01*
%TO.C,U46*%
X99957142Y-76104285D02*
X102385714Y-76104285D01*
X102671428Y-75961428D01*
X102814285Y-75818571D01*
X102957142Y-75532857D01*
X102957142Y-74961428D01*
X102814285Y-74675714D01*
X102671428Y-74532857D01*
X102385714Y-74390000D01*
X99957142Y-74390000D01*
X100957142Y-71675714D02*
X102957142Y-71675714D01*
X99814285Y-72390000D02*
X101957142Y-73104285D01*
X101957142Y-71247142D01*
X99957142Y-68818571D02*
X99957142Y-69390000D01*
X100100000Y-69675714D01*
X100242857Y-69818571D01*
X100671428Y-70104285D01*
X101242857Y-70247142D01*
X102385714Y-70247142D01*
X102671428Y-70104285D01*
X102814285Y-69961428D01*
X102957142Y-69675714D01*
X102957142Y-69104285D01*
X102814285Y-68818571D01*
X102671428Y-68675714D01*
X102385714Y-68532857D01*
X101671428Y-68532857D01*
X101385714Y-68675714D01*
X101242857Y-68818571D01*
X101100000Y-69104285D01*
X101100000Y-69675714D01*
X101242857Y-69961428D01*
X101385714Y-70104285D01*
X101671428Y-70247142D01*
%TO.C,DIO1*%
X78561904Y-38792000D02*
X77761904Y-38792000D01*
X77761904Y-38601523D01*
X77800000Y-38487238D01*
X77876190Y-38411047D01*
X77952380Y-38372952D01*
X78104761Y-38334857D01*
X78219047Y-38334857D01*
X78371428Y-38372952D01*
X78447619Y-38411047D01*
X78523809Y-38487238D01*
X78561904Y-38601523D01*
X78561904Y-38792000D01*
X78561904Y-37992000D02*
X77761904Y-37992000D01*
X77761904Y-37458666D02*
X77761904Y-37306285D01*
X77800000Y-37230095D01*
X77876190Y-37153904D01*
X78028571Y-37115809D01*
X78295238Y-37115809D01*
X78447619Y-37153904D01*
X78523809Y-37230095D01*
X78561904Y-37306285D01*
X78561904Y-37458666D01*
X78523809Y-37534857D01*
X78447619Y-37611047D01*
X78295238Y-37649142D01*
X78028571Y-37649142D01*
X77876190Y-37611047D01*
X77800000Y-37534857D01*
X77761904Y-37458666D01*
X78561904Y-36353904D02*
X78561904Y-36811047D01*
X78561904Y-36582476D02*
X77761904Y-36582476D01*
X77876190Y-36658666D01*
X77952380Y-36734857D01*
X77990476Y-36811047D01*
%TO.C,U35*%
X61055714Y-105037142D02*
X61055714Y-107465714D01*
X61198571Y-107751428D01*
X61341428Y-107894285D01*
X61627142Y-108037142D01*
X62198571Y-108037142D01*
X62484285Y-107894285D01*
X62627142Y-107751428D01*
X62770000Y-107465714D01*
X62770000Y-105037142D01*
X63912857Y-105037142D02*
X65770000Y-105037142D01*
X64770000Y-106180000D01*
X65198571Y-106180000D01*
X65484285Y-106322857D01*
X65627142Y-106465714D01*
X65770000Y-106751428D01*
X65770000Y-107465714D01*
X65627142Y-107751428D01*
X65484285Y-107894285D01*
X65198571Y-108037142D01*
X64341428Y-108037142D01*
X64055714Y-107894285D01*
X63912857Y-107751428D01*
X68484285Y-105037142D02*
X67055714Y-105037142D01*
X66912857Y-106465714D01*
X67055714Y-106322857D01*
X67341428Y-106180000D01*
X68055714Y-106180000D01*
X68341428Y-106322857D01*
X68484285Y-106465714D01*
X68627142Y-106751428D01*
X68627142Y-107465714D01*
X68484285Y-107751428D01*
X68341428Y-107894285D01*
X68055714Y-108037142D01*
X67341428Y-108037142D01*
X67055714Y-107894285D01*
X66912857Y-107751428D01*
%TO.C,TP2*%
X27230000Y-139191904D02*
X27182380Y-139287142D01*
X27182380Y-139430000D01*
X27230000Y-139572857D01*
X27325238Y-139668095D01*
X27420476Y-139715714D01*
X27610952Y-139763333D01*
X27753809Y-139763333D01*
X27944285Y-139715714D01*
X28039523Y-139668095D01*
X28134761Y-139572857D01*
X28182380Y-139430000D01*
X28182380Y-139334761D01*
X28134761Y-139191904D01*
X28087142Y-139144285D01*
X27753809Y-139144285D01*
X27753809Y-139334761D01*
X28182380Y-138715714D02*
X27182380Y-138715714D01*
X28182380Y-138144285D01*
X27182380Y-138144285D01*
X28182380Y-137668095D02*
X27182380Y-137668095D01*
X27182380Y-137430000D01*
X27230000Y-137287142D01*
X27325238Y-137191904D01*
X27420476Y-137144285D01*
X27610952Y-137096666D01*
X27753809Y-137096666D01*
X27944285Y-137144285D01*
X28039523Y-137191904D01*
X28134761Y-137287142D01*
X28182380Y-137430000D01*
X28182380Y-137668095D01*
X22868095Y-137882380D02*
X23439523Y-137882380D01*
X23153809Y-138882380D02*
X23153809Y-137882380D01*
X23772857Y-138882380D02*
X23772857Y-137882380D01*
X24153809Y-137882380D01*
X24249047Y-137930000D01*
X24296666Y-137977619D01*
X24344285Y-138072857D01*
X24344285Y-138215714D01*
X24296666Y-138310952D01*
X24249047Y-138358571D01*
X24153809Y-138406190D01*
X23772857Y-138406190D01*
X24725238Y-137977619D02*
X24772857Y-137930000D01*
X24868095Y-137882380D01*
X25106190Y-137882380D01*
X25201428Y-137930000D01*
X25249047Y-137977619D01*
X25296666Y-138072857D01*
X25296666Y-138168095D01*
X25249047Y-138310952D01*
X24677619Y-138882380D01*
X25296666Y-138882380D01*
%TO.C,JCPU1*%
X213151904Y-36086666D02*
X213151904Y-35629523D01*
X213951904Y-35858095D02*
X213151904Y-35858095D01*
X213151904Y-35210476D02*
X213151904Y-35058095D01*
X213190000Y-34981904D01*
X213266190Y-34905714D01*
X213418571Y-34867619D01*
X213685238Y-34867619D01*
X213837619Y-34905714D01*
X213913809Y-34981904D01*
X213951904Y-35058095D01*
X213951904Y-35210476D01*
X213913809Y-35286666D01*
X213837619Y-35362857D01*
X213685238Y-35400952D01*
X213418571Y-35400952D01*
X213266190Y-35362857D01*
X213190000Y-35286666D01*
X213151904Y-35210476D01*
X213951904Y-34524761D02*
X213151904Y-34524761D01*
X213151904Y-34220000D01*
X213190000Y-34143809D01*
X213228095Y-34105714D01*
X213304285Y-34067619D01*
X213418571Y-34067619D01*
X213494761Y-34105714D01*
X213532857Y-34143809D01*
X213570952Y-34220000D01*
X213570952Y-34524761D01*
X213951904Y-32734285D02*
X213951904Y-33115238D01*
X213151904Y-33115238D01*
X213532857Y-32467619D02*
X213532857Y-32200952D01*
X213951904Y-32086666D02*
X213951904Y-32467619D01*
X213151904Y-32467619D01*
X213151904Y-32086666D01*
X213151904Y-31858095D02*
X213951904Y-31591428D01*
X213151904Y-31324761D01*
X213532857Y-31058095D02*
X213532857Y-30791428D01*
X213951904Y-30677142D02*
X213951904Y-31058095D01*
X213151904Y-31058095D01*
X213151904Y-30677142D01*
X213951904Y-29953333D02*
X213951904Y-30334285D01*
X213151904Y-30334285D01*
X172504285Y-32581904D02*
X172504285Y-33153333D01*
X172466190Y-33267619D01*
X172390000Y-33343809D01*
X172275714Y-33381904D01*
X172199523Y-33381904D01*
X173342380Y-33305714D02*
X173304285Y-33343809D01*
X173190000Y-33381904D01*
X173113809Y-33381904D01*
X172999523Y-33343809D01*
X172923333Y-33267619D01*
X172885238Y-33191428D01*
X172847142Y-33039047D01*
X172847142Y-32924761D01*
X172885238Y-32772380D01*
X172923333Y-32696190D01*
X172999523Y-32620000D01*
X173113809Y-32581904D01*
X173190000Y-32581904D01*
X173304285Y-32620000D01*
X173342380Y-32658095D01*
X173685238Y-33381904D02*
X173685238Y-32581904D01*
X173990000Y-32581904D01*
X174066190Y-32620000D01*
X174104285Y-32658095D01*
X174142380Y-32734285D01*
X174142380Y-32848571D01*
X174104285Y-32924761D01*
X174066190Y-32962857D01*
X173990000Y-33000952D01*
X173685238Y-33000952D01*
X174485238Y-32581904D02*
X174485238Y-33229523D01*
X174523333Y-33305714D01*
X174561428Y-33343809D01*
X174637619Y-33381904D01*
X174790000Y-33381904D01*
X174866190Y-33343809D01*
X174904285Y-33305714D01*
X174942380Y-33229523D01*
X174942380Y-32581904D01*
X175742380Y-33381904D02*
X175285238Y-33381904D01*
X175513809Y-33381904D02*
X175513809Y-32581904D01*
X175437619Y-32696190D01*
X175361428Y-32772380D01*
X175285238Y-32810476D01*
%TO.C,U6*%
X142479285Y-116467142D02*
X142479285Y-118895714D01*
X142622142Y-119181428D01*
X142765000Y-119324285D01*
X143050714Y-119467142D01*
X143622142Y-119467142D01*
X143907857Y-119324285D01*
X144050714Y-119181428D01*
X144193571Y-118895714D01*
X144193571Y-116467142D01*
X146907857Y-116467142D02*
X146336428Y-116467142D01*
X146050714Y-116610000D01*
X145907857Y-116752857D01*
X145622142Y-117181428D01*
X145479285Y-117752857D01*
X145479285Y-118895714D01*
X145622142Y-119181428D01*
X145765000Y-119324285D01*
X146050714Y-119467142D01*
X146622142Y-119467142D01*
X146907857Y-119324285D01*
X147050714Y-119181428D01*
X147193571Y-118895714D01*
X147193571Y-118181428D01*
X147050714Y-117895714D01*
X146907857Y-117752857D01*
X146622142Y-117610000D01*
X146050714Y-117610000D01*
X145765000Y-117752857D01*
X145622142Y-117895714D01*
X145479285Y-118181428D01*
%TO.C,U33*%
X89030714Y-127990142D02*
X89030714Y-130418714D01*
X89173571Y-130704428D01*
X89316428Y-130847285D01*
X89602142Y-130990142D01*
X90173571Y-130990142D01*
X90459285Y-130847285D01*
X90602142Y-130704428D01*
X90745000Y-130418714D01*
X90745000Y-127990142D01*
X91887857Y-127990142D02*
X93745000Y-127990142D01*
X92745000Y-129133000D01*
X93173571Y-129133000D01*
X93459285Y-129275857D01*
X93602142Y-129418714D01*
X93745000Y-129704428D01*
X93745000Y-130418714D01*
X93602142Y-130704428D01*
X93459285Y-130847285D01*
X93173571Y-130990142D01*
X92316428Y-130990142D01*
X92030714Y-130847285D01*
X91887857Y-130704428D01*
X94745000Y-127990142D02*
X96602142Y-127990142D01*
X95602142Y-129133000D01*
X96030714Y-129133000D01*
X96316428Y-129275857D01*
X96459285Y-129418714D01*
X96602142Y-129704428D01*
X96602142Y-130418714D01*
X96459285Y-130704428D01*
X96316428Y-130847285D01*
X96030714Y-130990142D01*
X95173571Y-130990142D01*
X94887857Y-130847285D01*
X94745000Y-130704428D01*
%TO.C,U17*%
X95330714Y-91067142D02*
X95330714Y-93495714D01*
X95473571Y-93781428D01*
X95616428Y-93924285D01*
X95902142Y-94067142D01*
X96473571Y-94067142D01*
X96759285Y-93924285D01*
X96902142Y-93781428D01*
X97045000Y-93495714D01*
X97045000Y-91067142D01*
X100045000Y-94067142D02*
X98330714Y-94067142D01*
X99187857Y-94067142D02*
X99187857Y-91067142D01*
X98902142Y-91495714D01*
X98616428Y-91781428D01*
X98330714Y-91924285D01*
X101045000Y-91067142D02*
X103045000Y-91067142D01*
X101759285Y-94067142D01*
%TO.C,U28*%
X178697142Y-60864285D02*
X181125714Y-60864285D01*
X181411428Y-60721428D01*
X181554285Y-60578571D01*
X181697142Y-60292857D01*
X181697142Y-59721428D01*
X181554285Y-59435714D01*
X181411428Y-59292857D01*
X181125714Y-59150000D01*
X178697142Y-59150000D01*
X178982857Y-57864285D02*
X178840000Y-57721428D01*
X178697142Y-57435714D01*
X178697142Y-56721428D01*
X178840000Y-56435714D01*
X178982857Y-56292857D01*
X179268571Y-56150000D01*
X179554285Y-56150000D01*
X179982857Y-56292857D01*
X181697142Y-58007142D01*
X181697142Y-56150000D01*
X179982857Y-54435714D02*
X179840000Y-54721428D01*
X179697142Y-54864285D01*
X179411428Y-55007142D01*
X179268571Y-55007142D01*
X178982857Y-54864285D01*
X178840000Y-54721428D01*
X178697142Y-54435714D01*
X178697142Y-53864285D01*
X178840000Y-53578571D01*
X178982857Y-53435714D01*
X179268571Y-53292857D01*
X179411428Y-53292857D01*
X179697142Y-53435714D01*
X179840000Y-53578571D01*
X179982857Y-53864285D01*
X179982857Y-54435714D01*
X180125714Y-54721428D01*
X180268571Y-54864285D01*
X180554285Y-55007142D01*
X181125714Y-55007142D01*
X181411428Y-54864285D01*
X181554285Y-54721428D01*
X181697142Y-54435714D01*
X181697142Y-53864285D01*
X181554285Y-53578571D01*
X181411428Y-53435714D01*
X181125714Y-53292857D01*
X180554285Y-53292857D01*
X180268571Y-53435714D01*
X180125714Y-53578571D01*
X179982857Y-53864285D01*
%TO.C,U3*%
X167894285Y-116467142D02*
X167894285Y-118895714D01*
X168037142Y-119181428D01*
X168180000Y-119324285D01*
X168465714Y-119467142D01*
X169037142Y-119467142D01*
X169322857Y-119324285D01*
X169465714Y-119181428D01*
X169608571Y-118895714D01*
X169608571Y-116467142D01*
X170751428Y-116467142D02*
X172608571Y-116467142D01*
X171608571Y-117610000D01*
X172037142Y-117610000D01*
X172322857Y-117752857D01*
X172465714Y-117895714D01*
X172608571Y-118181428D01*
X172608571Y-118895714D01*
X172465714Y-119181428D01*
X172322857Y-119324285D01*
X172037142Y-119467142D01*
X171180000Y-119467142D01*
X170894285Y-119324285D01*
X170751428Y-119181428D01*
%TO.C,U8*%
X115829285Y-139327142D02*
X115829285Y-141755714D01*
X115972142Y-142041428D01*
X116115000Y-142184285D01*
X116400714Y-142327142D01*
X116972142Y-142327142D01*
X117257857Y-142184285D01*
X117400714Y-142041428D01*
X117543571Y-141755714D01*
X117543571Y-139327142D01*
X119400714Y-140612857D02*
X119115000Y-140470000D01*
X118972142Y-140327142D01*
X118829285Y-140041428D01*
X118829285Y-139898571D01*
X118972142Y-139612857D01*
X119115000Y-139470000D01*
X119400714Y-139327142D01*
X119972142Y-139327142D01*
X120257857Y-139470000D01*
X120400714Y-139612857D01*
X120543571Y-139898571D01*
X120543571Y-140041428D01*
X120400714Y-140327142D01*
X120257857Y-140470000D01*
X119972142Y-140612857D01*
X119400714Y-140612857D01*
X119115000Y-140755714D01*
X118972142Y-140898571D01*
X118829285Y-141184285D01*
X118829285Y-141755714D01*
X118972142Y-142041428D01*
X119115000Y-142184285D01*
X119400714Y-142327142D01*
X119972142Y-142327142D01*
X120257857Y-142184285D01*
X120400714Y-142041428D01*
X120543571Y-141755714D01*
X120543571Y-141184285D01*
X120400714Y-140898571D01*
X120257857Y-140755714D01*
X119972142Y-140612857D01*
%TO.C,U9*%
X165354285Y-127897142D02*
X165354285Y-130325714D01*
X165497142Y-130611428D01*
X165640000Y-130754285D01*
X165925714Y-130897142D01*
X166497142Y-130897142D01*
X166782857Y-130754285D01*
X166925714Y-130611428D01*
X167068571Y-130325714D01*
X167068571Y-127897142D01*
X168640000Y-130897142D02*
X169211428Y-130897142D01*
X169497142Y-130754285D01*
X169640000Y-130611428D01*
X169925714Y-130182857D01*
X170068571Y-129611428D01*
X170068571Y-128468571D01*
X169925714Y-128182857D01*
X169782857Y-128040000D01*
X169497142Y-127897142D01*
X168925714Y-127897142D01*
X168640000Y-128040000D01*
X168497142Y-128182857D01*
X168354285Y-128468571D01*
X168354285Y-129182857D01*
X168497142Y-129468571D01*
X168640000Y-129611428D01*
X168925714Y-129754285D01*
X169497142Y-129754285D01*
X169782857Y-129611428D01*
X169925714Y-129468571D01*
X170068571Y-129182857D01*
%TO.C,U10*%
X114395714Y-116467142D02*
X114395714Y-118895714D01*
X114538571Y-119181428D01*
X114681428Y-119324285D01*
X114967142Y-119467142D01*
X115538571Y-119467142D01*
X115824285Y-119324285D01*
X115967142Y-119181428D01*
X116110000Y-118895714D01*
X116110000Y-116467142D01*
X119110000Y-119467142D02*
X117395714Y-119467142D01*
X118252857Y-119467142D02*
X118252857Y-116467142D01*
X117967142Y-116895714D01*
X117681428Y-117181428D01*
X117395714Y-117324285D01*
X120967142Y-116467142D02*
X121252857Y-116467142D01*
X121538571Y-116610000D01*
X121681428Y-116752857D01*
X121824285Y-117038571D01*
X121967142Y-117610000D01*
X121967142Y-118324285D01*
X121824285Y-118895714D01*
X121681428Y-119181428D01*
X121538571Y-119324285D01*
X121252857Y-119467142D01*
X120967142Y-119467142D01*
X120681428Y-119324285D01*
X120538571Y-119181428D01*
X120395714Y-118895714D01*
X120252857Y-118324285D01*
X120252857Y-117610000D01*
X120395714Y-117038571D01*
X120538571Y-116752857D01*
X120681428Y-116610000D01*
X120967142Y-116467142D01*
%TO.C,JIO1*%
X46315714Y-80522380D02*
X46410952Y-80522380D01*
X46506190Y-80570000D01*
X46553809Y-80617619D01*
X46601428Y-80712857D01*
X46649047Y-80903333D01*
X46649047Y-81141428D01*
X46601428Y-81331904D01*
X46553809Y-81427142D01*
X46506190Y-81474761D01*
X46410952Y-81522380D01*
X46315714Y-81522380D01*
X46220476Y-81474761D01*
X46172857Y-81427142D01*
X46125238Y-81331904D01*
X46077619Y-81141428D01*
X46077619Y-80903333D01*
X46125238Y-80712857D01*
X46172857Y-80617619D01*
X46220476Y-80570000D01*
X46315714Y-80522380D01*
X46982380Y-80522380D02*
X47649047Y-81522380D01*
X47649047Y-80522380D02*
X46982380Y-81522380D01*
X48363333Y-80998571D02*
X48030000Y-80998571D01*
X48030000Y-81522380D02*
X48030000Y-80522380D01*
X48506190Y-80522380D01*
X48887142Y-80998571D02*
X49220476Y-80998571D01*
X49363333Y-81522380D02*
X48887142Y-81522380D01*
X48887142Y-80522380D01*
X49363333Y-80522380D01*
X50744285Y-80522380D02*
X50934761Y-80522380D01*
X51030000Y-80570000D01*
X51125238Y-80665238D01*
X51172857Y-80855714D01*
X51172857Y-81189047D01*
X51125238Y-81379523D01*
X51030000Y-81474761D01*
X50934761Y-81522380D01*
X50744285Y-81522380D01*
X50649047Y-81474761D01*
X50553809Y-81379523D01*
X50506190Y-81189047D01*
X50506190Y-80855714D01*
X50553809Y-80665238D01*
X50649047Y-80570000D01*
X50744285Y-80522380D01*
X51601428Y-80522380D02*
X51601428Y-81331904D01*
X51649047Y-81427142D01*
X51696666Y-81474761D01*
X51791904Y-81522380D01*
X51982380Y-81522380D01*
X52077619Y-81474761D01*
X52125238Y-81427142D01*
X52172857Y-81331904D01*
X52172857Y-80522380D01*
X52506190Y-80522380D02*
X53077619Y-80522380D01*
X52791904Y-81522380D02*
X52791904Y-80522380D01*
X48982380Y-77295238D02*
X49696666Y-77295238D01*
X49839523Y-77342857D01*
X49934761Y-77438095D01*
X49982380Y-77580952D01*
X49982380Y-77676190D01*
X49982380Y-76819047D02*
X48982380Y-76819047D01*
X48982380Y-76152380D02*
X48982380Y-75961904D01*
X49030000Y-75866666D01*
X49125238Y-75771428D01*
X49315714Y-75723809D01*
X49649047Y-75723809D01*
X49839523Y-75771428D01*
X49934761Y-75866666D01*
X49982380Y-75961904D01*
X49982380Y-76152380D01*
X49934761Y-76247619D01*
X49839523Y-76342857D01*
X49649047Y-76390476D01*
X49315714Y-76390476D01*
X49125238Y-76342857D01*
X49030000Y-76247619D01*
X48982380Y-76152380D01*
X49982380Y-74771428D02*
X49982380Y-75342857D01*
X49982380Y-75057142D02*
X48982380Y-75057142D01*
X49125238Y-75152380D01*
X49220476Y-75247619D01*
X49268095Y-75342857D01*
%TO.C,U29*%
X136787142Y-91344285D02*
X139215714Y-91344285D01*
X139501428Y-91201428D01*
X139644285Y-91058571D01*
X139787142Y-90772857D01*
X139787142Y-90201428D01*
X139644285Y-89915714D01*
X139501428Y-89772857D01*
X139215714Y-89630000D01*
X136787142Y-89630000D01*
X137072857Y-88344285D02*
X136930000Y-88201428D01*
X136787142Y-87915714D01*
X136787142Y-87201428D01*
X136930000Y-86915714D01*
X137072857Y-86772857D01*
X137358571Y-86630000D01*
X137644285Y-86630000D01*
X138072857Y-86772857D01*
X139787142Y-88487142D01*
X139787142Y-86630000D01*
X139787142Y-85201428D02*
X139787142Y-84630000D01*
X139644285Y-84344285D01*
X139501428Y-84201428D01*
X139072857Y-83915714D01*
X138501428Y-83772857D01*
X137358571Y-83772857D01*
X137072857Y-83915714D01*
X136930000Y-84058571D01*
X136787142Y-84344285D01*
X136787142Y-84915714D01*
X136930000Y-85201428D01*
X137072857Y-85344285D01*
X137358571Y-85487142D01*
X138072857Y-85487142D01*
X138358571Y-85344285D01*
X138501428Y-85201428D01*
X138644285Y-84915714D01*
X138644285Y-84344285D01*
X138501428Y-84058571D01*
X138358571Y-83915714D01*
X138072857Y-83772857D01*
%TO.C,U31*%
X147420714Y-104414642D02*
X147420714Y-106843214D01*
X147563571Y-107128928D01*
X147706428Y-107271785D01*
X147992142Y-107414642D01*
X148563571Y-107414642D01*
X148849285Y-107271785D01*
X148992142Y-107128928D01*
X149135000Y-106843214D01*
X149135000Y-104414642D01*
X150277857Y-104414642D02*
X152135000Y-104414642D01*
X151135000Y-105557500D01*
X151563571Y-105557500D01*
X151849285Y-105700357D01*
X151992142Y-105843214D01*
X152135000Y-106128928D01*
X152135000Y-106843214D01*
X151992142Y-107128928D01*
X151849285Y-107271785D01*
X151563571Y-107414642D01*
X150706428Y-107414642D01*
X150420714Y-107271785D01*
X150277857Y-107128928D01*
X154992142Y-107414642D02*
X153277857Y-107414642D01*
X154135000Y-107414642D02*
X154135000Y-104414642D01*
X153849285Y-104843214D01*
X153563571Y-105128928D01*
X153277857Y-105271785D01*
%TO.C,U32*%
X90265714Y-139327142D02*
X90265714Y-141755714D01*
X90408571Y-142041428D01*
X90551428Y-142184285D01*
X90837142Y-142327142D01*
X91408571Y-142327142D01*
X91694285Y-142184285D01*
X91837142Y-142041428D01*
X91980000Y-141755714D01*
X91980000Y-139327142D01*
X93122857Y-139327142D02*
X94980000Y-139327142D01*
X93980000Y-140470000D01*
X94408571Y-140470000D01*
X94694285Y-140612857D01*
X94837142Y-140755714D01*
X94980000Y-141041428D01*
X94980000Y-141755714D01*
X94837142Y-142041428D01*
X94694285Y-142184285D01*
X94408571Y-142327142D01*
X93551428Y-142327142D01*
X93265714Y-142184285D01*
X93122857Y-142041428D01*
X96122857Y-139612857D02*
X96265714Y-139470000D01*
X96551428Y-139327142D01*
X97265714Y-139327142D01*
X97551428Y-139470000D01*
X97694285Y-139612857D01*
X97837142Y-139898571D01*
X97837142Y-140184285D01*
X97694285Y-140612857D01*
X95980000Y-142327142D01*
X97837142Y-142327142D01*
%TO.C,U27*%
X206642142Y-76099285D02*
X209070714Y-76099285D01*
X209356428Y-75956428D01*
X209499285Y-75813571D01*
X209642142Y-75527857D01*
X209642142Y-74956428D01*
X209499285Y-74670714D01*
X209356428Y-74527857D01*
X209070714Y-74385000D01*
X206642142Y-74385000D01*
X206927857Y-73099285D02*
X206785000Y-72956428D01*
X206642142Y-72670714D01*
X206642142Y-71956428D01*
X206785000Y-71670714D01*
X206927857Y-71527857D01*
X207213571Y-71385000D01*
X207499285Y-71385000D01*
X207927857Y-71527857D01*
X209642142Y-73242142D01*
X209642142Y-71385000D01*
X206642142Y-70385000D02*
X206642142Y-68385000D01*
X209642142Y-69670714D01*
%TO.C,U4*%
X192024285Y-127897142D02*
X192024285Y-130325714D01*
X192167142Y-130611428D01*
X192310000Y-130754285D01*
X192595714Y-130897142D01*
X193167142Y-130897142D01*
X193452857Y-130754285D01*
X193595714Y-130611428D01*
X193738571Y-130325714D01*
X193738571Y-127897142D01*
X196452857Y-128897142D02*
X196452857Y-130897142D01*
X195738571Y-127754285D02*
X195024285Y-129897142D01*
X196881428Y-129897142D01*
%TO.C,RSCPU2*%
X173172380Y-58046666D02*
X172696190Y-58380000D01*
X173172380Y-58618095D02*
X172172380Y-58618095D01*
X172172380Y-58237142D01*
X172220000Y-58141904D01*
X172267619Y-58094285D01*
X172362857Y-58046666D01*
X172505714Y-58046666D01*
X172600952Y-58094285D01*
X172648571Y-58141904D01*
X172696190Y-58237142D01*
X172696190Y-58618095D01*
X173124761Y-57665714D02*
X173172380Y-57522857D01*
X173172380Y-57284761D01*
X173124761Y-57189523D01*
X173077142Y-57141904D01*
X172981904Y-57094285D01*
X172886666Y-57094285D01*
X172791428Y-57141904D01*
X172743809Y-57189523D01*
X172696190Y-57284761D01*
X172648571Y-57475238D01*
X172600952Y-57570476D01*
X172553333Y-57618095D01*
X172458095Y-57665714D01*
X172362857Y-57665714D01*
X172267619Y-57618095D01*
X172220000Y-57570476D01*
X172172380Y-57475238D01*
X172172380Y-57237142D01*
X172220000Y-57094285D01*
X173077142Y-56094285D02*
X173124761Y-56141904D01*
X173172380Y-56284761D01*
X173172380Y-56380000D01*
X173124761Y-56522857D01*
X173029523Y-56618095D01*
X172934285Y-56665714D01*
X172743809Y-56713333D01*
X172600952Y-56713333D01*
X172410476Y-56665714D01*
X172315238Y-56618095D01*
X172220000Y-56522857D01*
X172172380Y-56380000D01*
X172172380Y-56284761D01*
X172220000Y-56141904D01*
X172267619Y-56094285D01*
X173172380Y-55665714D02*
X172172380Y-55665714D01*
X172172380Y-55284761D01*
X172220000Y-55189523D01*
X172267619Y-55141904D01*
X172362857Y-55094285D01*
X172505714Y-55094285D01*
X172600952Y-55141904D01*
X172648571Y-55189523D01*
X172696190Y-55284761D01*
X172696190Y-55665714D01*
X172172380Y-54665714D02*
X172981904Y-54665714D01*
X173077142Y-54618095D01*
X173124761Y-54570476D01*
X173172380Y-54475238D01*
X173172380Y-54284761D01*
X173124761Y-54189523D01*
X173077142Y-54141904D01*
X172981904Y-54094285D01*
X172172380Y-54094285D01*
X172267619Y-53665714D02*
X172220000Y-53618095D01*
X172172380Y-53522857D01*
X172172380Y-53284761D01*
X172220000Y-53189523D01*
X172267619Y-53141904D01*
X172362857Y-53094285D01*
X172458095Y-53094285D01*
X172600952Y-53141904D01*
X173172380Y-53713333D01*
X173172380Y-53094285D01*
%TO.C,U37*%
X31845714Y-116457142D02*
X31845714Y-118885714D01*
X31988571Y-119171428D01*
X32131428Y-119314285D01*
X32417142Y-119457142D01*
X32988571Y-119457142D01*
X33274285Y-119314285D01*
X33417142Y-119171428D01*
X33560000Y-118885714D01*
X33560000Y-116457142D01*
X34702857Y-116457142D02*
X36560000Y-116457142D01*
X35560000Y-117600000D01*
X35988571Y-117600000D01*
X36274285Y-117742857D01*
X36417142Y-117885714D01*
X36560000Y-118171428D01*
X36560000Y-118885714D01*
X36417142Y-119171428D01*
X36274285Y-119314285D01*
X35988571Y-119457142D01*
X35131428Y-119457142D01*
X34845714Y-119314285D01*
X34702857Y-119171428D01*
X37560000Y-116457142D02*
X39560000Y-116457142D01*
X38274285Y-119457142D01*
%TO.C,U34*%
X66135714Y-139327142D02*
X66135714Y-141755714D01*
X66278571Y-142041428D01*
X66421428Y-142184285D01*
X66707142Y-142327142D01*
X67278571Y-142327142D01*
X67564285Y-142184285D01*
X67707142Y-142041428D01*
X67850000Y-141755714D01*
X67850000Y-139327142D01*
X68992857Y-139327142D02*
X70850000Y-139327142D01*
X69850000Y-140470000D01*
X70278571Y-140470000D01*
X70564285Y-140612857D01*
X70707142Y-140755714D01*
X70850000Y-141041428D01*
X70850000Y-141755714D01*
X70707142Y-142041428D01*
X70564285Y-142184285D01*
X70278571Y-142327142D01*
X69421428Y-142327142D01*
X69135714Y-142184285D01*
X68992857Y-142041428D01*
X73421428Y-140327142D02*
X73421428Y-142327142D01*
X72707142Y-139184285D02*
X71992857Y-141327142D01*
X73850000Y-141327142D01*
%TO.C,U39*%
X38195714Y-139327142D02*
X38195714Y-141755714D01*
X38338571Y-142041428D01*
X38481428Y-142184285D01*
X38767142Y-142327142D01*
X39338571Y-142327142D01*
X39624285Y-142184285D01*
X39767142Y-142041428D01*
X39910000Y-141755714D01*
X39910000Y-139327142D01*
X41052857Y-139327142D02*
X42910000Y-139327142D01*
X41910000Y-140470000D01*
X42338571Y-140470000D01*
X42624285Y-140612857D01*
X42767142Y-140755714D01*
X42910000Y-141041428D01*
X42910000Y-141755714D01*
X42767142Y-142041428D01*
X42624285Y-142184285D01*
X42338571Y-142327142D01*
X41481428Y-142327142D01*
X41195714Y-142184285D01*
X41052857Y-142041428D01*
X44338571Y-142327142D02*
X44910000Y-142327142D01*
X45195714Y-142184285D01*
X45338571Y-142041428D01*
X45624285Y-141612857D01*
X45767142Y-141041428D01*
X45767142Y-139898571D01*
X45624285Y-139612857D01*
X45481428Y-139470000D01*
X45195714Y-139327142D01*
X44624285Y-139327142D01*
X44338571Y-139470000D01*
X44195714Y-139612857D01*
X44052857Y-139898571D01*
X44052857Y-140612857D01*
X44195714Y-140898571D01*
X44338571Y-141041428D01*
X44624285Y-141184285D01*
X45195714Y-141184285D01*
X45481428Y-141041428D01*
X45624285Y-140898571D01*
X45767142Y-140612857D01*
%TO.C,U12*%
X139800714Y-139337142D02*
X139800714Y-141765714D01*
X139943571Y-142051428D01*
X140086428Y-142194285D01*
X140372142Y-142337142D01*
X140943571Y-142337142D01*
X141229285Y-142194285D01*
X141372142Y-142051428D01*
X141515000Y-141765714D01*
X141515000Y-139337142D01*
X144515000Y-142337142D02*
X142800714Y-142337142D01*
X143657857Y-142337142D02*
X143657857Y-139337142D01*
X143372142Y-139765714D01*
X143086428Y-140051428D01*
X142800714Y-140194285D01*
X145657857Y-139622857D02*
X145800714Y-139480000D01*
X146086428Y-139337142D01*
X146800714Y-139337142D01*
X147086428Y-139480000D01*
X147229285Y-139622857D01*
X147372142Y-139908571D01*
X147372142Y-140194285D01*
X147229285Y-140622857D01*
X145515000Y-142337142D01*
X147372142Y-142337142D01*
%TO.C,U45*%
X144412142Y-55789285D02*
X146840714Y-55789285D01*
X147126428Y-55646428D01*
X147269285Y-55503571D01*
X147412142Y-55217857D01*
X147412142Y-54646428D01*
X147269285Y-54360714D01*
X147126428Y-54217857D01*
X146840714Y-54075000D01*
X144412142Y-54075000D01*
X145412142Y-51360714D02*
X147412142Y-51360714D01*
X144269285Y-52075000D02*
X146412142Y-52789285D01*
X146412142Y-50932142D01*
X144412142Y-48360714D02*
X144412142Y-49789285D01*
X145840714Y-49932142D01*
X145697857Y-49789285D01*
X145555000Y-49503571D01*
X145555000Y-48789285D01*
X145697857Y-48503571D01*
X145840714Y-48360714D01*
X146126428Y-48217857D01*
X146840714Y-48217857D01*
X147126428Y-48360714D01*
X147269285Y-48503571D01*
X147412142Y-48789285D01*
X147412142Y-49503571D01*
X147269285Y-49789285D01*
X147126428Y-49932142D01*
%TO.C,LIO1*%
X76469761Y-27892142D02*
X76469761Y-28844523D01*
X74469761Y-28844523D01*
X76469761Y-27225476D02*
X74469761Y-27225476D01*
X74469761Y-25892142D02*
X74469761Y-25511190D01*
X74565000Y-25320714D01*
X74755476Y-25130238D01*
X75136428Y-25035000D01*
X75803095Y-25035000D01*
X76184047Y-25130238D01*
X76374523Y-25320714D01*
X76469761Y-25511190D01*
X76469761Y-25892142D01*
X76374523Y-26082619D01*
X76184047Y-26273095D01*
X75803095Y-26368333D01*
X75136428Y-26368333D01*
X74755476Y-26273095D01*
X74565000Y-26082619D01*
X74469761Y-25892142D01*
X76469761Y-23130238D02*
X76469761Y-24273095D01*
X76469761Y-23701666D02*
X74469761Y-23701666D01*
X74755476Y-23892142D01*
X74945952Y-24082619D01*
X75041190Y-24273095D01*
D13*
%TO.C,RPS3*%
X64198571Y-42136190D02*
X64031904Y-41898095D01*
X63912857Y-42136190D02*
X63912857Y-41636190D01*
X64103333Y-41636190D01*
X64150952Y-41660000D01*
X64174761Y-41683809D01*
X64198571Y-41731428D01*
X64198571Y-41802857D01*
X64174761Y-41850476D01*
X64150952Y-41874285D01*
X64103333Y-41898095D01*
X63912857Y-41898095D01*
X64412857Y-42136190D02*
X64412857Y-41636190D01*
X64603333Y-41636190D01*
X64650952Y-41660000D01*
X64674761Y-41683809D01*
X64698571Y-41731428D01*
X64698571Y-41802857D01*
X64674761Y-41850476D01*
X64650952Y-41874285D01*
X64603333Y-41898095D01*
X64412857Y-41898095D01*
X64889047Y-42112380D02*
X64960476Y-42136190D01*
X65079523Y-42136190D01*
X65127142Y-42112380D01*
X65150952Y-42088571D01*
X65174761Y-42040952D01*
X65174761Y-41993333D01*
X65150952Y-41945714D01*
X65127142Y-41921904D01*
X65079523Y-41898095D01*
X64984285Y-41874285D01*
X64936666Y-41850476D01*
X64912857Y-41826666D01*
X64889047Y-41779047D01*
X64889047Y-41731428D01*
X64912857Y-41683809D01*
X64936666Y-41660000D01*
X64984285Y-41636190D01*
X65103333Y-41636190D01*
X65174761Y-41660000D01*
X65341428Y-41636190D02*
X65650952Y-41636190D01*
X65484285Y-41826666D01*
X65555714Y-41826666D01*
X65603333Y-41850476D01*
X65627142Y-41874285D01*
X65650952Y-41921904D01*
X65650952Y-42040952D01*
X65627142Y-42088571D01*
X65603333Y-42112380D01*
X65555714Y-42136190D01*
X65412857Y-42136190D01*
X65365238Y-42112380D01*
X65341428Y-42088571D01*
D12*
%TO.C,JPVE2*%
X31719047Y-68263809D02*
X31833333Y-68301904D01*
X32023809Y-68301904D01*
X32100000Y-68263809D01*
X32138095Y-68225714D01*
X32176190Y-68149523D01*
X32176190Y-68073333D01*
X32138095Y-67997142D01*
X32100000Y-67959047D01*
X32023809Y-67920952D01*
X31871428Y-67882857D01*
X31795238Y-67844761D01*
X31757142Y-67806666D01*
X31719047Y-67730476D01*
X31719047Y-67654285D01*
X31757142Y-67578095D01*
X31795238Y-67540000D01*
X31871428Y-67501904D01*
X32061904Y-67501904D01*
X32176190Y-67540000D01*
X32633333Y-68301904D02*
X32557142Y-68263809D01*
X32519047Y-68225714D01*
X32480952Y-68149523D01*
X32480952Y-67920952D01*
X32519047Y-67844761D01*
X32557142Y-67806666D01*
X32633333Y-67768571D01*
X32747619Y-67768571D01*
X32823809Y-67806666D01*
X32861904Y-67844761D01*
X32900000Y-67920952D01*
X32900000Y-68149523D01*
X32861904Y-68225714D01*
X32823809Y-68263809D01*
X32747619Y-68301904D01*
X32633333Y-68301904D01*
X33357142Y-68301904D02*
X33280952Y-68263809D01*
X33242857Y-68187619D01*
X33242857Y-67501904D01*
X34004761Y-68301904D02*
X34004761Y-67501904D01*
X34004761Y-68263809D02*
X33928571Y-68301904D01*
X33776190Y-68301904D01*
X33700000Y-68263809D01*
X33661904Y-68225714D01*
X33623809Y-68149523D01*
X33623809Y-67920952D01*
X33661904Y-67844761D01*
X33700000Y-67806666D01*
X33776190Y-67768571D01*
X33928571Y-67768571D01*
X34004761Y-67806666D01*
X34690476Y-68263809D02*
X34614285Y-68301904D01*
X34461904Y-68301904D01*
X34385714Y-68263809D01*
X34347619Y-68187619D01*
X34347619Y-67882857D01*
X34385714Y-67806666D01*
X34461904Y-67768571D01*
X34614285Y-67768571D01*
X34690476Y-67806666D01*
X34728571Y-67882857D01*
X34728571Y-67959047D01*
X34347619Y-68035238D01*
X35071428Y-68301904D02*
X35071428Y-67768571D01*
X35071428Y-67920952D02*
X35109523Y-67844761D01*
X35147619Y-67806666D01*
X35223809Y-67768571D01*
X35300000Y-67768571D01*
X35795238Y-67501904D02*
X35795238Y-68073333D01*
X35757142Y-68187619D01*
X35680952Y-68263809D01*
X35566666Y-68301904D01*
X35490476Y-68301904D01*
X36519047Y-67768571D02*
X36519047Y-68301904D01*
X36176190Y-67768571D02*
X36176190Y-68187619D01*
X36214285Y-68263809D01*
X36290476Y-68301904D01*
X36404761Y-68301904D01*
X36480952Y-68263809D01*
X36519047Y-68225714D01*
X36900000Y-68301904D02*
X36900000Y-67768571D01*
X36900000Y-67844761D02*
X36938095Y-67806666D01*
X37014285Y-67768571D01*
X37128571Y-67768571D01*
X37204761Y-67806666D01*
X37242857Y-67882857D01*
X37242857Y-68301904D01*
X37242857Y-67882857D02*
X37280952Y-67806666D01*
X37357142Y-67768571D01*
X37471428Y-67768571D01*
X37547619Y-67806666D01*
X37585714Y-67882857D01*
X37585714Y-68301904D01*
X37966666Y-67768571D02*
X37966666Y-68568571D01*
X37966666Y-67806666D02*
X38042857Y-67768571D01*
X38195238Y-67768571D01*
X38271428Y-67806666D01*
X38309523Y-67844761D01*
X38347619Y-67920952D01*
X38347619Y-68149523D01*
X38309523Y-68225714D01*
X38271428Y-68263809D01*
X38195238Y-68301904D01*
X38042857Y-68301904D01*
X37966666Y-68263809D01*
X38995238Y-68263809D02*
X38919047Y-68301904D01*
X38766666Y-68301904D01*
X38690476Y-68263809D01*
X38652380Y-68187619D01*
X38652380Y-67882857D01*
X38690476Y-67806666D01*
X38766666Y-67768571D01*
X38919047Y-67768571D01*
X38995238Y-67806666D01*
X39033333Y-67882857D01*
X39033333Y-67959047D01*
X38652380Y-68035238D01*
X39376190Y-68301904D02*
X39376190Y-67768571D01*
X39376190Y-67920952D02*
X39414285Y-67844761D01*
X39452380Y-67806666D01*
X39528571Y-67768571D01*
X39604761Y-67768571D01*
X39680952Y-68378095D02*
X40290476Y-68378095D01*
X40404761Y-67501904D02*
X40900000Y-67501904D01*
X40633333Y-67806666D01*
X40747619Y-67806666D01*
X40823809Y-67844761D01*
X40861904Y-67882857D01*
X40900000Y-67959047D01*
X40900000Y-68149523D01*
X40861904Y-68225714D01*
X40823809Y-68263809D01*
X40747619Y-68301904D01*
X40519047Y-68301904D01*
X40442857Y-68263809D01*
X40404761Y-68225714D01*
X41052380Y-68378095D02*
X41661904Y-68378095D01*
X42004761Y-67501904D02*
X42157142Y-67501904D01*
X42233333Y-67540000D01*
X42309523Y-67616190D01*
X42347619Y-67768571D01*
X42347619Y-68035238D01*
X42309523Y-68187619D01*
X42233333Y-68263809D01*
X42157142Y-68301904D01*
X42004761Y-68301904D01*
X41928571Y-68263809D01*
X41852380Y-68187619D01*
X41814285Y-68035238D01*
X41814285Y-67768571D01*
X41852380Y-67616190D01*
X41928571Y-67540000D01*
X42004761Y-67501904D01*
X42690476Y-67768571D02*
X42690476Y-68568571D01*
X42690476Y-67806666D02*
X42766666Y-67768571D01*
X42919047Y-67768571D01*
X42995238Y-67806666D01*
X43033333Y-67844761D01*
X43071428Y-67920952D01*
X43071428Y-68149523D01*
X43033333Y-68225714D01*
X42995238Y-68263809D01*
X42919047Y-68301904D01*
X42766666Y-68301904D01*
X42690476Y-68263809D01*
X43719047Y-68263809D02*
X43642857Y-68301904D01*
X43490476Y-68301904D01*
X43414285Y-68263809D01*
X43376190Y-68187619D01*
X43376190Y-67882857D01*
X43414285Y-67806666D01*
X43490476Y-67768571D01*
X43642857Y-67768571D01*
X43719047Y-67806666D01*
X43757142Y-67882857D01*
X43757142Y-67959047D01*
X43376190Y-68035238D01*
X44100000Y-67768571D02*
X44100000Y-68301904D01*
X44100000Y-67844761D02*
X44138095Y-67806666D01*
X44214285Y-67768571D01*
X44328571Y-67768571D01*
X44404761Y-67806666D01*
X44442857Y-67882857D01*
X44442857Y-68301904D01*
%TO.C,U2*%
X213619285Y-139337142D02*
X213619285Y-141765714D01*
X213762142Y-142051428D01*
X213905000Y-142194285D01*
X214190714Y-142337142D01*
X214762142Y-142337142D01*
X215047857Y-142194285D01*
X215190714Y-142051428D01*
X215333571Y-141765714D01*
X215333571Y-139337142D01*
X216619285Y-139622857D02*
X216762142Y-139480000D01*
X217047857Y-139337142D01*
X217762142Y-139337142D01*
X218047857Y-139480000D01*
X218190714Y-139622857D01*
X218333571Y-139908571D01*
X218333571Y-140194285D01*
X218190714Y-140622857D01*
X216476428Y-142337142D01*
X218333571Y-142337142D01*
%TO.C,DIO3*%
X80847904Y-38792000D02*
X80047904Y-38792000D01*
X80047904Y-38601523D01*
X80086000Y-38487238D01*
X80162190Y-38411047D01*
X80238380Y-38372952D01*
X80390761Y-38334857D01*
X80505047Y-38334857D01*
X80657428Y-38372952D01*
X80733619Y-38411047D01*
X80809809Y-38487238D01*
X80847904Y-38601523D01*
X80847904Y-38792000D01*
X80847904Y-37992000D02*
X80047904Y-37992000D01*
X80047904Y-37458666D02*
X80047904Y-37306285D01*
X80086000Y-37230095D01*
X80162190Y-37153904D01*
X80314571Y-37115809D01*
X80581238Y-37115809D01*
X80733619Y-37153904D01*
X80809809Y-37230095D01*
X80847904Y-37306285D01*
X80847904Y-37458666D01*
X80809809Y-37534857D01*
X80733619Y-37611047D01*
X80581238Y-37649142D01*
X80314571Y-37649142D01*
X80162190Y-37611047D01*
X80086000Y-37534857D01*
X80047904Y-37458666D01*
X80047904Y-36849142D02*
X80047904Y-36353904D01*
X80352666Y-36620571D01*
X80352666Y-36506285D01*
X80390761Y-36430095D01*
X80428857Y-36392000D01*
X80505047Y-36353904D01*
X80695523Y-36353904D01*
X80771714Y-36392000D01*
X80809809Y-36430095D01*
X80847904Y-36506285D01*
X80847904Y-36734857D01*
X80809809Y-36811047D01*
X80771714Y-36849142D01*
%TO.C,U16*%
X92805714Y-105037142D02*
X92805714Y-107465714D01*
X92948571Y-107751428D01*
X93091428Y-107894285D01*
X93377142Y-108037142D01*
X93948571Y-108037142D01*
X94234285Y-107894285D01*
X94377142Y-107751428D01*
X94520000Y-107465714D01*
X94520000Y-105037142D01*
X97520000Y-108037142D02*
X95805714Y-108037142D01*
X96662857Y-108037142D02*
X96662857Y-105037142D01*
X96377142Y-105465714D01*
X96091428Y-105751428D01*
X95805714Y-105894285D01*
X100091428Y-105037142D02*
X99520000Y-105037142D01*
X99234285Y-105180000D01*
X99091428Y-105322857D01*
X98805714Y-105751428D01*
X98662857Y-106322857D01*
X98662857Y-107465714D01*
X98805714Y-107751428D01*
X98948571Y-107894285D01*
X99234285Y-108037142D01*
X99805714Y-108037142D01*
X100091428Y-107894285D01*
X100234285Y-107751428D01*
X100377142Y-107465714D01*
X100377142Y-106751428D01*
X100234285Y-106465714D01*
X100091428Y-106322857D01*
X99805714Y-106180000D01*
X99234285Y-106180000D01*
X98948571Y-106322857D01*
X98805714Y-106465714D01*
X98662857Y-106751428D01*
%TO.C,DIO2*%
X74275904Y-39158000D02*
X73475904Y-39158000D01*
X73475904Y-38967523D01*
X73514000Y-38853238D01*
X73590190Y-38777047D01*
X73666380Y-38738952D01*
X73818761Y-38700857D01*
X73933047Y-38700857D01*
X74085428Y-38738952D01*
X74161619Y-38777047D01*
X74237809Y-38853238D01*
X74275904Y-38967523D01*
X74275904Y-39158000D01*
X74275904Y-38358000D02*
X73475904Y-38358000D01*
X73475904Y-37824666D02*
X73475904Y-37672285D01*
X73514000Y-37596095D01*
X73590190Y-37519904D01*
X73742571Y-37481809D01*
X74009238Y-37481809D01*
X74161619Y-37519904D01*
X74237809Y-37596095D01*
X74275904Y-37672285D01*
X74275904Y-37824666D01*
X74237809Y-37900857D01*
X74161619Y-37977047D01*
X74009238Y-38015142D01*
X73742571Y-38015142D01*
X73590190Y-37977047D01*
X73514000Y-37900857D01*
X73475904Y-37824666D01*
X73552095Y-37177047D02*
X73514000Y-37138952D01*
X73475904Y-37062761D01*
X73475904Y-36872285D01*
X73514000Y-36796095D01*
X73552095Y-36758000D01*
X73628285Y-36719904D01*
X73704476Y-36719904D01*
X73818761Y-36758000D01*
X74275904Y-37215142D01*
X74275904Y-36719904D01*
%TO.C,U36*%
X61055714Y-116467142D02*
X61055714Y-118895714D01*
X61198571Y-119181428D01*
X61341428Y-119324285D01*
X61627142Y-119467142D01*
X62198571Y-119467142D01*
X62484285Y-119324285D01*
X62627142Y-119181428D01*
X62770000Y-118895714D01*
X62770000Y-116467142D01*
X63912857Y-116467142D02*
X65770000Y-116467142D01*
X64770000Y-117610000D01*
X65198571Y-117610000D01*
X65484285Y-117752857D01*
X65627142Y-117895714D01*
X65770000Y-118181428D01*
X65770000Y-118895714D01*
X65627142Y-119181428D01*
X65484285Y-119324285D01*
X65198571Y-119467142D01*
X64341428Y-119467142D01*
X64055714Y-119324285D01*
X63912857Y-119181428D01*
X68341428Y-116467142D02*
X67770000Y-116467142D01*
X67484285Y-116610000D01*
X67341428Y-116752857D01*
X67055714Y-117181428D01*
X66912857Y-117752857D01*
X66912857Y-118895714D01*
X67055714Y-119181428D01*
X67198571Y-119324285D01*
X67484285Y-119467142D01*
X68055714Y-119467142D01*
X68341428Y-119324285D01*
X68484285Y-119181428D01*
X68627142Y-118895714D01*
X68627142Y-118181428D01*
X68484285Y-117895714D01*
X68341428Y-117752857D01*
X68055714Y-117610000D01*
X67484285Y-117610000D01*
X67198571Y-117752857D01*
X67055714Y-117895714D01*
X66912857Y-118181428D01*
%TO.C,U26*%
X178697142Y-91344285D02*
X181125714Y-91344285D01*
X181411428Y-91201428D01*
X181554285Y-91058571D01*
X181697142Y-90772857D01*
X181697142Y-90201428D01*
X181554285Y-89915714D01*
X181411428Y-89772857D01*
X181125714Y-89630000D01*
X178697142Y-89630000D01*
X178982857Y-88344285D02*
X178840000Y-88201428D01*
X178697142Y-87915714D01*
X178697142Y-87201428D01*
X178840000Y-86915714D01*
X178982857Y-86772857D01*
X179268571Y-86630000D01*
X179554285Y-86630000D01*
X179982857Y-86772857D01*
X181697142Y-88487142D01*
X181697142Y-86630000D01*
X178697142Y-84058571D02*
X178697142Y-84630000D01*
X178840000Y-84915714D01*
X178982857Y-85058571D01*
X179411428Y-85344285D01*
X179982857Y-85487142D01*
X181125714Y-85487142D01*
X181411428Y-85344285D01*
X181554285Y-85201428D01*
X181697142Y-84915714D01*
X181697142Y-84344285D01*
X181554285Y-84058571D01*
X181411428Y-83915714D01*
X181125714Y-83772857D01*
X180411428Y-83772857D01*
X180125714Y-83915714D01*
X179982857Y-84058571D01*
X179840000Y-84344285D01*
X179840000Y-84915714D01*
X179982857Y-85201428D01*
X180125714Y-85344285D01*
X180411428Y-85487142D01*
%TO.C,U41*%
X31850714Y-127897142D02*
X31850714Y-130325714D01*
X31993571Y-130611428D01*
X32136428Y-130754285D01*
X32422142Y-130897142D01*
X32993571Y-130897142D01*
X33279285Y-130754285D01*
X33422142Y-130611428D01*
X33565000Y-130325714D01*
X33565000Y-127897142D01*
X36279285Y-128897142D02*
X36279285Y-130897142D01*
X35565000Y-127754285D02*
X34850714Y-129897142D01*
X36707857Y-129897142D01*
X39422142Y-130897142D02*
X37707857Y-130897142D01*
X38565000Y-130897142D02*
X38565000Y-127897142D01*
X38279285Y-128325714D01*
X37993571Y-128611428D01*
X37707857Y-128754285D01*
%TO.C,U14*%
X89000714Y-116467142D02*
X89000714Y-118895714D01*
X89143571Y-119181428D01*
X89286428Y-119324285D01*
X89572142Y-119467142D01*
X90143571Y-119467142D01*
X90429285Y-119324285D01*
X90572142Y-119181428D01*
X90715000Y-118895714D01*
X90715000Y-116467142D01*
X93715000Y-119467142D02*
X92000714Y-119467142D01*
X92857857Y-119467142D02*
X92857857Y-116467142D01*
X92572142Y-116895714D01*
X92286428Y-117181428D01*
X92000714Y-117324285D01*
X96286428Y-117467142D02*
X96286428Y-119467142D01*
X95572142Y-116324285D02*
X94857857Y-118467142D01*
X96715000Y-118467142D01*
%TO.C,U43*%
X134237142Y-55779285D02*
X136665714Y-55779285D01*
X136951428Y-55636428D01*
X137094285Y-55493571D01*
X137237142Y-55207857D01*
X137237142Y-54636428D01*
X137094285Y-54350714D01*
X136951428Y-54207857D01*
X136665714Y-54065000D01*
X134237142Y-54065000D01*
X135237142Y-51350714D02*
X137237142Y-51350714D01*
X134094285Y-52065000D02*
X136237142Y-52779285D01*
X136237142Y-50922142D01*
X134237142Y-50065000D02*
X134237142Y-48207857D01*
X135380000Y-49207857D01*
X135380000Y-48779285D01*
X135522857Y-48493571D01*
X135665714Y-48350714D01*
X135951428Y-48207857D01*
X136665714Y-48207857D01*
X136951428Y-48350714D01*
X137094285Y-48493571D01*
X137237142Y-48779285D01*
X137237142Y-49636428D01*
X137094285Y-49922142D01*
X136951428Y-50065000D01*
%TO.C,U24*%
X191387142Y-91339285D02*
X193815714Y-91339285D01*
X194101428Y-91196428D01*
X194244285Y-91053571D01*
X194387142Y-90767857D01*
X194387142Y-90196428D01*
X194244285Y-89910714D01*
X194101428Y-89767857D01*
X193815714Y-89625000D01*
X191387142Y-89625000D01*
X191672857Y-88339285D02*
X191530000Y-88196428D01*
X191387142Y-87910714D01*
X191387142Y-87196428D01*
X191530000Y-86910714D01*
X191672857Y-86767857D01*
X191958571Y-86625000D01*
X192244285Y-86625000D01*
X192672857Y-86767857D01*
X194387142Y-88482142D01*
X194387142Y-86625000D01*
X192387142Y-84053571D02*
X194387142Y-84053571D01*
X191244285Y-84767857D02*
X193387142Y-85482142D01*
X193387142Y-83625000D01*
%TO.C,U40*%
X61060714Y-127897142D02*
X61060714Y-130325714D01*
X61203571Y-130611428D01*
X61346428Y-130754285D01*
X61632142Y-130897142D01*
X62203571Y-130897142D01*
X62489285Y-130754285D01*
X62632142Y-130611428D01*
X62775000Y-130325714D01*
X62775000Y-127897142D01*
X65489285Y-128897142D02*
X65489285Y-130897142D01*
X64775000Y-127754285D02*
X64060714Y-129897142D01*
X65917857Y-129897142D01*
X67632142Y-127897142D02*
X67917857Y-127897142D01*
X68203571Y-128040000D01*
X68346428Y-128182857D01*
X68489285Y-128468571D01*
X68632142Y-129040000D01*
X68632142Y-129754285D01*
X68489285Y-130325714D01*
X68346428Y-130611428D01*
X68203571Y-130754285D01*
X67917857Y-130897142D01*
X67632142Y-130897142D01*
X67346428Y-130754285D01*
X67203571Y-130611428D01*
X67060714Y-130325714D01*
X66917857Y-129754285D01*
X66917857Y-129040000D01*
X67060714Y-128468571D01*
X67203571Y-128182857D01*
X67346428Y-128040000D01*
X67632142Y-127897142D01*
%TO.C,JIO2*%
X82812142Y-29320714D02*
X84955000Y-29320714D01*
X85383571Y-29463571D01*
X85669285Y-29749285D01*
X85812142Y-30177857D01*
X85812142Y-30463571D01*
X85812142Y-27892142D02*
X82812142Y-27892142D01*
X82812142Y-25892142D02*
X82812142Y-25320714D01*
X82955000Y-25035000D01*
X83240714Y-24749285D01*
X83812142Y-24606428D01*
X84812142Y-24606428D01*
X85383571Y-24749285D01*
X85669285Y-25035000D01*
X85812142Y-25320714D01*
X85812142Y-25892142D01*
X85669285Y-26177857D01*
X85383571Y-26463571D01*
X84812142Y-26606428D01*
X83812142Y-26606428D01*
X83240714Y-26463571D01*
X82955000Y-26177857D01*
X82812142Y-25892142D01*
X83097857Y-23463571D02*
X82955000Y-23320714D01*
X82812142Y-23035000D01*
X82812142Y-22320714D01*
X82955000Y-22035000D01*
X83097857Y-21892142D01*
X83383571Y-21749285D01*
X83669285Y-21749285D01*
X84097857Y-21892142D01*
X85812142Y-23606428D01*
X85812142Y-21749285D01*
D11*
%TO.C,DIO5*%
X199090000Y-111410000D02*
X199090000Y-112110000D01*
X199090000Y-111760000D02*
X198890000Y-111760000D01*
X200290000Y-112460000D02*
X198490000Y-112460000D01*
X199590000Y-111760000D02*
X199840000Y-111760000D01*
X200290000Y-111060000D02*
X200290000Y-112460000D01*
X198490000Y-112460000D02*
X198490000Y-111060000D01*
X198490000Y-111060000D02*
X200290000Y-111060000D01*
X199590000Y-112110000D02*
X199090000Y-111760000D01*
X199590000Y-111410000D02*
X199590000Y-112110000D01*
X199090000Y-111760000D02*
X199590000Y-111410000D01*
%TO.C,RPS1*%
X67580000Y-36205000D02*
X69580000Y-36205000D01*
X69580000Y-37455000D02*
X67580000Y-37455000D01*
X69580000Y-36205000D02*
X69580000Y-37455000D01*
X67580000Y-37455000D02*
X67580000Y-36205000D01*
%TO.C,RIO3*%
X118120000Y-36560000D02*
X118120000Y-34560000D01*
X119370000Y-34560000D02*
X119370000Y-36560000D01*
X118120000Y-34560000D02*
X119370000Y-34560000D01*
X119370000Y-36560000D02*
X118120000Y-36560000D01*
%TO.C,DG1*%
X114000000Y-31400000D02*
X114000000Y-32100000D01*
X114500000Y-31750000D02*
X114750000Y-31750000D01*
X115200000Y-32450000D02*
X113400000Y-32450000D01*
X114500000Y-31400000D02*
X114500000Y-32100000D01*
X114000000Y-31750000D02*
X114500000Y-31400000D01*
X114000000Y-31750000D02*
X113800000Y-31750000D01*
X115200000Y-31050000D02*
X115200000Y-32450000D01*
X114500000Y-32100000D02*
X114000000Y-31750000D01*
X113400000Y-31050000D02*
X115200000Y-31050000D01*
X113400000Y-32450000D02*
X113400000Y-31050000D01*
%TO.C,U30*%
X150085000Y-99195000D02*
X169685000Y-99195000D01*
X167145000Y-83685000D02*
X151625000Y-83685000D01*
X151625000Y-83685000D02*
X151625000Y-96655000D01*
X167145000Y-96655000D02*
X167145000Y-83685000D01*
X149085000Y-98195000D02*
X150085000Y-99195000D01*
X169685000Y-99195000D02*
X169685000Y-81145000D01*
X169685000Y-81145000D02*
X149085000Y-81145000D01*
X150085000Y-90170000D02*
X149085000Y-89670000D01*
X149085000Y-90670000D02*
X150085000Y-90170000D01*
X151625000Y-96655000D02*
X167145000Y-96655000D01*
X149085000Y-81145000D02*
X149085000Y-98195000D01*
D15*
%TO.C,JVE2*%
X20970000Y-20710000D02*
X34970000Y-20710000D01*
X20970000Y-33610000D02*
X20970000Y-20710000D01*
X34970000Y-20710000D02*
X34970000Y-33610000D01*
X34970000Y-33610000D02*
X20970000Y-33610000D01*
D11*
%TO.C,CPF36*%
X80815000Y-122240000D02*
X79215000Y-122240000D01*
X79215000Y-119040000D02*
X80815000Y-119040000D01*
X79215000Y-122240000D02*
X79215000Y-119040000D01*
X80815000Y-119040000D02*
X80815000Y-122240000D01*
%TO.C,DIO6*%
X198420000Y-105760000D02*
X198420000Y-105060000D01*
X197220000Y-106110000D02*
X197220000Y-104710000D01*
X197920000Y-105060000D02*
X198420000Y-105410000D01*
X198420000Y-105410000D02*
X198620000Y-105410000D01*
X197920000Y-105410000D02*
X197670000Y-105410000D01*
X199020000Y-104710000D02*
X199020000Y-106110000D01*
X199020000Y-106110000D02*
X197220000Y-106110000D01*
X197920000Y-105760000D02*
X197920000Y-105060000D01*
X197220000Y-104710000D02*
X199020000Y-104710000D01*
X198420000Y-105410000D02*
X197920000Y-105760000D01*
%TO.C,CPF13*%
X230670000Y-130480000D02*
X230670000Y-133680000D01*
X230670000Y-133680000D02*
X229070000Y-133680000D01*
X229070000Y-133680000D02*
X229070000Y-130480000D01*
X229070000Y-130480000D02*
X230670000Y-130480000D01*
%TO.C,QVF3*%
X25725000Y-54790000D02*
X24750000Y-54790000D01*
X26050000Y-51890000D02*
X26050000Y-54465000D01*
X24750000Y-54790000D02*
X24750000Y-51890000D01*
X24750000Y-51890000D02*
X26050000Y-51890000D01*
X26050000Y-54465000D02*
X25725000Y-54790000D01*
%TO.C,YG1*%
X209765000Y-113705000D02*
X209765000Y-119955000D01*
X214090000Y-113830000D02*
X214090000Y-119830000D01*
X210090000Y-113830000D02*
X210090000Y-119830000D01*
X214415000Y-113705000D02*
X214415000Y-119955000D01*
X209765000Y-119955000D02*
G75*
G03*
X214415000Y-119955000I2325000J0D01*
G01*
X210090000Y-119830000D02*
G75*
G03*
X214090000Y-119830000I2000000J0D01*
G01*
X214415000Y-113705000D02*
G75*
G03*
X209765000Y-113705000I-2325000J0D01*
G01*
X214090000Y-113830000D02*
G75*
G03*
X210090000Y-113830000I-2000000J0D01*
G01*
%TO.C,DIO8*%
X188330000Y-112460000D02*
X188330000Y-111060000D01*
X190130000Y-112460000D02*
X188330000Y-112460000D01*
X190130000Y-111060000D02*
X190130000Y-112460000D01*
X188330000Y-111060000D02*
X190130000Y-111060000D01*
X188930000Y-111760000D02*
X188730000Y-111760000D01*
X188930000Y-111760000D02*
X189430000Y-111410000D01*
X188930000Y-111410000D02*
X188930000Y-112110000D01*
X189430000Y-111760000D02*
X189680000Y-111760000D01*
X189430000Y-112110000D02*
X188930000Y-111760000D01*
X189430000Y-111410000D02*
X189430000Y-112110000D01*
%TO.C,RVE27*%
X24775000Y-90059000D02*
X26025000Y-90059000D01*
X24775000Y-92059000D02*
X24775000Y-90059000D01*
X26025000Y-90059000D02*
X26025000Y-92059000D01*
X26025000Y-92059000D02*
X24775000Y-92059000D01*
%TO.C,U15*%
X151405000Y-126365000D02*
X152405000Y-127365000D01*
X152405000Y-127365000D02*
X152405000Y-132715000D01*
X134625000Y-132715000D02*
X134625000Y-126365000D01*
X134625000Y-126365000D02*
X151405000Y-126365000D01*
X152405000Y-132715000D02*
X134625000Y-132715000D01*
%TO.C,CPF20*%
X98260000Y-39700000D02*
X98260000Y-36500000D01*
X99860000Y-36500000D02*
X99860000Y-39700000D01*
X98260000Y-36500000D02*
X99860000Y-36500000D01*
X99860000Y-39700000D02*
X98260000Y-39700000D01*
%TO.C,U48*%
X93615000Y-82550000D02*
X88265000Y-82550000D01*
X94615000Y-62230000D02*
X94615000Y-81550000D01*
X94615000Y-81550000D02*
X93615000Y-82550000D01*
X88265000Y-82550000D02*
X88265000Y-62230000D01*
X88265000Y-62230000D02*
X94615000Y-62230000D01*
%TO.C,U18*%
X52070000Y-69850000D02*
X76470000Y-69850000D01*
X76470000Y-69850000D02*
X77470000Y-70850000D01*
X52070000Y-76200000D02*
X52070000Y-69850000D01*
X77470000Y-70850000D02*
X77470000Y-76200000D01*
X77470000Y-76200000D02*
X52070000Y-76200000D01*
D10*
%TO.C,XMCPU1*%
X211630000Y-28720000D02*
X211630000Y-20320000D01*
X133250000Y-20320000D02*
X133250000Y-28720000D01*
X209330000Y-28720000D02*
X211630000Y-28720000D01*
X149310000Y-20320000D02*
X209330000Y-20320000D01*
X147310000Y-20320000D02*
X147310000Y-28720000D01*
X135550000Y-20320000D02*
X147310000Y-20320000D01*
X135550000Y-28720000D02*
X135550000Y-20320000D01*
X147310000Y-28720000D02*
X149310000Y-28720000D01*
X209330000Y-20320000D02*
X209330000Y-28720000D01*
X149310000Y-28720000D02*
X149310000Y-20320000D01*
X133250000Y-28720000D02*
X135550000Y-28720000D01*
D11*
%TO.C,U49*%
X45790000Y-77410000D02*
X36490000Y-77410000D01*
X45790000Y-69910000D02*
X45790000Y-77410000D01*
X35490000Y-69910000D02*
X45790000Y-69910000D01*
X35490000Y-76410000D02*
X35490000Y-69910000D01*
X36490000Y-77410000D02*
X35490000Y-76410000D01*
%TO.C,CVE5*%
X33500000Y-62735000D02*
X30000000Y-62735000D01*
X30000000Y-65535000D02*
X32800000Y-65535000D01*
X32800000Y-65535000D02*
X33500000Y-64835000D01*
X30000000Y-62735000D02*
X30000000Y-65535000D01*
X33500000Y-64835000D02*
X33500000Y-62735000D01*
%TO.C,U19*%
X31750000Y-45965000D02*
X81550000Y-45965000D01*
X81550000Y-45965000D02*
X82550000Y-46965000D01*
X31750000Y-60695000D02*
X31750000Y-45965000D01*
X82550000Y-60695000D02*
X31750000Y-60695000D01*
X82550000Y-46965000D02*
X82550000Y-60695000D01*
%TO.C,DPI2*%
X129905000Y-28610000D02*
X128205000Y-28610000D01*
X128205000Y-28610000D02*
X127905000Y-28910000D01*
X127905000Y-29810000D02*
X129905000Y-29810000D01*
X127905000Y-28910000D02*
X127905000Y-29810000D01*
X129905000Y-29810000D02*
X129905000Y-28610000D01*
%TO.C,TP1*%
X232410000Y-93980000D02*
X232410000Y-96520000D01*
X227965000Y-96520000D02*
X227330000Y-95885000D01*
X227330000Y-95885000D02*
X227330000Y-93980000D01*
X232410000Y-96520000D02*
X227965000Y-96520000D01*
X227330000Y-93980000D02*
X232410000Y-93980000D01*
%TO.C,QVF2*%
X26050000Y-58275000D02*
X25725000Y-58600000D01*
X25725000Y-58600000D02*
X24750000Y-58600000D01*
X24750000Y-55700000D02*
X26050000Y-55700000D01*
X24750000Y-58600000D02*
X24750000Y-55700000D01*
X26050000Y-55700000D02*
X26050000Y-58275000D01*
%TO.C,CVE6*%
X31125000Y-96250000D02*
X31125000Y-94250000D01*
X32375000Y-94250000D02*
X32375000Y-96250000D01*
X32375000Y-96250000D02*
X31125000Y-96250000D01*
X31125000Y-94250000D02*
X32375000Y-94250000D01*
%TO.C,DPI1*%
X109555000Y-30210000D02*
X110455000Y-30210000D01*
X109255000Y-28210000D02*
X109255000Y-29910000D01*
X110455000Y-28210000D02*
X109255000Y-28210000D01*
X109255000Y-29910000D02*
X109555000Y-30210000D01*
X110455000Y-30210000D02*
X110455000Y-28210000D01*
%TO.C,RVE12*%
X28585000Y-94250000D02*
X29835000Y-94250000D01*
X28585000Y-96250000D02*
X28585000Y-94250000D01*
X29835000Y-96250000D02*
X28585000Y-96250000D01*
X29835000Y-94250000D02*
X29835000Y-96250000D01*
%TO.C,DPI3*%
X59090000Y-28940000D02*
X60290000Y-28940000D01*
X59990000Y-26940000D02*
X59090000Y-26940000D01*
X60290000Y-28940000D02*
X60290000Y-27240000D01*
X60290000Y-27240000D02*
X59990000Y-26940000D01*
X59090000Y-26940000D02*
X59090000Y-28940000D01*
%TO.C,RIO10*%
X70475000Y-25130000D02*
X69225000Y-25130000D01*
X69225000Y-23130000D02*
X70475000Y-23130000D01*
X70475000Y-23130000D02*
X70475000Y-25130000D01*
X69225000Y-25130000D02*
X69225000Y-23130000D01*
%TO.C,RVE23*%
X29835000Y-59055000D02*
X29835000Y-61055000D01*
X28585000Y-61055000D02*
X28585000Y-59055000D01*
X28585000Y-59055000D02*
X29835000Y-59055000D01*
X29835000Y-61055000D02*
X28585000Y-61055000D01*
%TO.C,SWCPU1*%
X155975000Y-76740000D02*
X155975000Y-75533333D01*
X156675000Y-76740000D02*
X156675000Y-75533333D01*
X153535000Y-76740000D02*
X153535000Y-75533333D01*
X150895000Y-76740000D02*
X150895000Y-75533333D01*
X156275000Y-76740000D02*
X156275000Y-75533333D01*
X149080000Y-71580000D02*
X158260000Y-71580000D01*
X150080000Y-78280000D02*
X149080000Y-77280000D01*
X149080000Y-77280000D02*
X149080000Y-71580000D01*
X153335000Y-76740000D02*
X153335000Y-75533333D01*
X155675000Y-76740000D02*
X155675000Y-75533333D01*
X158260000Y-78280000D02*
X150080000Y-78280000D01*
X151765000Y-76740000D02*
X151765000Y-73120000D01*
X151495000Y-76740000D02*
X151495000Y-75533333D01*
X156375000Y-76740000D02*
X156375000Y-75533333D01*
X150995000Y-76740000D02*
X150995000Y-75533333D01*
X151095000Y-76740000D02*
X151095000Y-75533333D01*
X153835000Y-76740000D02*
X153835000Y-75533333D01*
X151295000Y-76740000D02*
X151295000Y-75533333D01*
X156175000Y-76740000D02*
X156175000Y-75533333D01*
X156575000Y-76740000D02*
X156575000Y-75533333D01*
X156845000Y-73120000D02*
X155575000Y-73120000D01*
X150595000Y-76740000D02*
X150595000Y-75533333D01*
X156075000Y-76740000D02*
X156075000Y-75533333D01*
X154305000Y-73120000D02*
X153035000Y-73120000D01*
X155575000Y-75533333D02*
X156845000Y-75533333D01*
X153735000Y-76740000D02*
X153735000Y-75533333D01*
X156845000Y-76740000D02*
X156845000Y-73120000D01*
X153135000Y-76740000D02*
X153135000Y-75533333D01*
X153235000Y-76740000D02*
X153235000Y-75533333D01*
X153935000Y-76740000D02*
X153935000Y-75533333D01*
X153035000Y-75533333D02*
X154305000Y-75533333D01*
X158260000Y-71580000D02*
X158260000Y-78280000D01*
X155775000Y-76740000D02*
X155775000Y-75533333D01*
X156775000Y-76740000D02*
X156775000Y-75533333D01*
X150495000Y-73120000D02*
X150495000Y-76740000D01*
X154305000Y-76740000D02*
X154305000Y-73120000D01*
X151765000Y-73120000D02*
X150495000Y-73120000D01*
X150695000Y-76740000D02*
X150695000Y-75533333D01*
X155875000Y-76740000D02*
X155875000Y-75533333D01*
X151395000Y-76740000D02*
X151395000Y-75533333D01*
X151695000Y-76740000D02*
X151695000Y-75533333D01*
X154035000Y-76740000D02*
X154035000Y-75533333D01*
X150795000Y-76740000D02*
X150795000Y-75533333D01*
X156475000Y-76740000D02*
X156475000Y-75533333D01*
X154235000Y-76740000D02*
X154235000Y-75533333D01*
X153635000Y-76740000D02*
X153635000Y-75533333D01*
X154135000Y-76740000D02*
X154135000Y-75533333D01*
X151595000Y-76740000D02*
X151595000Y-75533333D01*
X150495000Y-76740000D02*
X151765000Y-76740000D01*
X153035000Y-73120000D02*
X153035000Y-76740000D01*
X155575000Y-73120000D02*
X155575000Y-76740000D01*
X150495000Y-75533333D02*
X151765000Y-75533333D01*
X153435000Y-76740000D02*
X153435000Y-75533333D01*
X151195000Y-76740000D02*
X151195000Y-75533333D01*
X153035000Y-76740000D02*
X154305000Y-76740000D01*
X155575000Y-76740000D02*
X156845000Y-76740000D01*
%TO.C,CIO9*%
X64278000Y-32121000D02*
X64278000Y-30871000D01*
X66278000Y-32121000D02*
X64278000Y-32121000D01*
X64278000Y-30871000D02*
X66278000Y-30871000D01*
X66278000Y-30871000D02*
X66278000Y-32121000D01*
%TO.C,CG1*%
X218170000Y-113675000D02*
X218170000Y-114925000D01*
X218170000Y-114925000D02*
X216170000Y-114925000D01*
X216170000Y-113675000D02*
X218170000Y-113675000D01*
X216170000Y-114925000D02*
X216170000Y-113675000D01*
%TO.C,DG2*%
X179405000Y-139350000D02*
X179405000Y-140050000D01*
X179405000Y-139700000D02*
X179905000Y-139350000D01*
X179905000Y-140050000D02*
X179405000Y-139700000D01*
X179905000Y-139700000D02*
X180155000Y-139700000D01*
X178805000Y-139000000D02*
X180605000Y-139000000D01*
X178805000Y-140400000D02*
X178805000Y-139000000D01*
X180605000Y-140400000D02*
X178805000Y-140400000D01*
X179405000Y-139700000D02*
X179205000Y-139700000D01*
X179905000Y-139350000D02*
X179905000Y-140050000D01*
X180605000Y-139000000D02*
X180605000Y-140400000D01*
%TO.C,CIO10*%
X122085000Y-33960000D02*
X120485000Y-33960000D01*
X122085000Y-37160000D02*
X122085000Y-33960000D01*
X120485000Y-33960000D02*
X120485000Y-36760000D01*
X120485000Y-36760000D02*
X120885000Y-37160000D01*
X120885000Y-37160000D02*
X122085000Y-37160000D01*
%TO.C,CIO6*%
X117005000Y-33960000D02*
X115405000Y-33960000D01*
X115405000Y-33960000D02*
X115405000Y-36760000D01*
X115405000Y-36760000D02*
X115805000Y-37160000D01*
X115805000Y-37160000D02*
X117005000Y-37160000D01*
X117005000Y-37160000D02*
X117005000Y-33960000D01*
%TO.C,RIO2*%
X69225000Y-26940000D02*
X70475000Y-26940000D01*
X69225000Y-28940000D02*
X69225000Y-26940000D01*
X70475000Y-26940000D02*
X70475000Y-28940000D01*
X70475000Y-28940000D02*
X69225000Y-28940000D01*
%TO.C,JPVE1*%
X21565000Y-43165000D02*
X21565000Y-35545000D01*
X24105000Y-35545000D02*
X24105000Y-42530000D01*
X21565000Y-35545000D02*
X24105000Y-35545000D01*
X24105000Y-42530000D02*
X23470000Y-43165000D01*
X23470000Y-43165000D02*
X21565000Y-43165000D01*
%TO.C,RVE18*%
X38745000Y-98060000D02*
X39995000Y-98060000D01*
X39995000Y-100060000D02*
X38745000Y-100060000D01*
X39995000Y-98060000D02*
X39995000Y-100060000D01*
X38745000Y-100060000D02*
X38745000Y-98060000D01*
%TO.C,UPS2*%
X61050000Y-34880000D02*
X64975000Y-34880000D01*
X64975000Y-34880000D02*
X65950000Y-35855000D01*
X61050000Y-38780000D02*
X61050000Y-34880000D01*
X65950000Y-38780000D02*
X61050000Y-38780000D01*
X65950000Y-35855000D02*
X65950000Y-38780000D01*
%TO.C,CM1*%
X80635000Y-105775000D02*
X79385000Y-105775000D01*
X79385000Y-103775000D02*
X80635000Y-103775000D01*
X79385000Y-105775000D02*
X79385000Y-103775000D01*
X80635000Y-103775000D02*
X80635000Y-105775000D01*
%TO.C,CPF46*%
X97460000Y-85890000D02*
X97460000Y-84290000D01*
X100660000Y-84290000D02*
X100660000Y-85890000D01*
X97460000Y-84290000D02*
X100660000Y-84290000D01*
X100660000Y-85890000D02*
X97460000Y-85890000D01*
%TO.C,CVE4*%
X33500000Y-66545000D02*
X30000000Y-66545000D01*
X30000000Y-69345000D02*
X32800000Y-69345000D01*
X33500000Y-68645000D02*
X33500000Y-66545000D01*
X32800000Y-69345000D02*
X33500000Y-68645000D01*
X30000000Y-66545000D02*
X30000000Y-69345000D01*
%TO.C,U25*%
X189855000Y-44445000D02*
X196205000Y-44445000D01*
X195205000Y-69845000D02*
X189855000Y-69845000D01*
X189855000Y-69845000D02*
X189855000Y-44445000D01*
X196205000Y-68845000D02*
X195205000Y-69845000D01*
X196205000Y-44445000D02*
X196205000Y-68845000D01*
%TO.C,CVE2*%
X30000000Y-74165000D02*
X30000000Y-76965000D01*
X30000000Y-76965000D02*
X32800000Y-76965000D01*
X32800000Y-76965000D02*
X33500000Y-76265000D01*
X33500000Y-76265000D02*
X33500000Y-74165000D01*
X33500000Y-74165000D02*
X30000000Y-74165000D01*
%TO.C,CPF27*%
X218745000Y-68110000D02*
X218745000Y-66510000D01*
X221945000Y-66510000D02*
X221945000Y-68110000D01*
X218745000Y-66510000D02*
X221945000Y-66510000D01*
X221945000Y-68110000D02*
X218745000Y-68110000D01*
%TO.C,CVE7*%
X30000000Y-70355000D02*
X30000000Y-73155000D01*
X32800000Y-73155000D02*
X33500000Y-72455000D01*
X33500000Y-72455000D02*
X33500000Y-70355000D01*
X33500000Y-70355000D02*
X30000000Y-70355000D01*
X30000000Y-73155000D02*
X32800000Y-73155000D01*
%TO.C,JIO5*%
X48260000Y-86990000D02*
X48895000Y-86355000D01*
X48260000Y-91435000D02*
X48260000Y-86990000D01*
X50800000Y-91435000D02*
X48260000Y-91435000D01*
X48895000Y-86355000D02*
X50800000Y-86355000D01*
X50800000Y-86355000D02*
X50800000Y-91435000D01*
%TO.C,CPF50*%
X21895000Y-71285000D02*
X21895000Y-69685000D01*
X21895000Y-69685000D02*
X25095000Y-69685000D01*
X25095000Y-71285000D02*
X21895000Y-71285000D01*
X25095000Y-69685000D02*
X25095000Y-71285000D01*
%TO.C,RVE3*%
X47615000Y-98060000D02*
X47615000Y-100060000D01*
X46365000Y-98060000D02*
X47615000Y-98060000D01*
X46365000Y-100060000D02*
X46365000Y-98060000D01*
X47615000Y-100060000D02*
X46365000Y-100060000D01*
%TO.C,SWG1*%
X120900000Y-27407500D02*
X121200000Y-27407500D01*
X113700000Y-27407500D02*
X114000000Y-27407500D01*
X114000000Y-24067500D02*
X120900000Y-24067500D01*
X114000000Y-27407500D02*
X114000000Y-24067500D01*
X119200000Y-19357500D02*
X119200000Y-20617500D01*
X115700000Y-19357500D02*
X119200000Y-19357500D01*
X121200000Y-27407500D02*
X121200000Y-20617500D01*
X113700000Y-27407500D02*
X113700000Y-20617500D01*
X120900000Y-27407500D02*
X120900000Y-24067500D01*
X113700000Y-20617500D02*
X121200000Y-20617500D01*
X115700000Y-19357500D02*
X115700000Y-20617500D01*
%TO.C,CIO8*%
X72790000Y-31690000D02*
X71590000Y-31690000D01*
X71590000Y-31690000D02*
X71590000Y-34890000D01*
X71590000Y-34890000D02*
X73190000Y-34890000D01*
X73190000Y-34890000D02*
X73190000Y-32090000D01*
X73190000Y-32090000D02*
X72790000Y-31690000D01*
%TO.C,RIO8*%
X130540000Y-37455000D02*
X128540000Y-37455000D01*
X128540000Y-37455000D02*
X128540000Y-36205000D01*
X128540000Y-36205000D02*
X130540000Y-36205000D01*
X130540000Y-36205000D02*
X130540000Y-37455000D01*
%TO.C,CPF29*%
X134290000Y-103670000D02*
X134290000Y-102070000D01*
X137490000Y-102070000D02*
X137490000Y-103670000D01*
X137490000Y-103670000D02*
X134290000Y-103670000D01*
X134290000Y-102070000D02*
X137490000Y-102070000D01*
%TO.C,RPI1*%
X110480000Y-34020000D02*
X109230000Y-34020000D01*
X110480000Y-32020000D02*
X110480000Y-34020000D01*
X109230000Y-34020000D02*
X109230000Y-32020000D01*
X109230000Y-32020000D02*
X110480000Y-32020000D01*
%TO.C,CIO7*%
X62855000Y-26940000D02*
X62855000Y-28940000D01*
X62855000Y-28940000D02*
X61605000Y-28940000D01*
X61605000Y-28940000D02*
X61605000Y-26940000D01*
X61605000Y-26940000D02*
X62855000Y-26940000D01*
%TO.C,CPF11*%
X204000000Y-141910000D02*
X204000000Y-145110000D01*
X204000000Y-145110000D02*
X202400000Y-145110000D01*
X202400000Y-145110000D02*
X202400000Y-141910000D01*
X202400000Y-141910000D02*
X204000000Y-141910000D01*
%TO.C,CIO5*%
X79619000Y-41164000D02*
X79619000Y-43164000D01*
X79619000Y-43164000D02*
X78369000Y-43164000D01*
X78369000Y-43164000D02*
X78369000Y-41164000D01*
X78369000Y-41164000D02*
X79619000Y-41164000D01*
%TO.C,RVE13*%
X37455000Y-94250000D02*
X37455000Y-96250000D01*
X36205000Y-94250000D02*
X37455000Y-94250000D01*
X37455000Y-96250000D02*
X36205000Y-96250000D01*
X36205000Y-96250000D02*
X36205000Y-94250000D01*
%TO.C,CPS4*%
X224950000Y-84575000D02*
X224950000Y-87875000D01*
X232250000Y-87875000D02*
X232250000Y-83575000D01*
X225950000Y-83575000D02*
X224950000Y-84575000D01*
X232250000Y-83575000D02*
X225950000Y-83575000D01*
X224950000Y-87875000D02*
X232250000Y-87875000D01*
D16*
%TO.C,DPS2*%
X212970000Y-30240000D02*
X212970000Y-24740000D01*
X221370000Y-24740000D02*
X221370000Y-31140000D01*
X213870000Y-31140000D02*
X212970000Y-30240000D01*
X221370000Y-31140000D02*
X213870000Y-31140000D01*
X212970000Y-24740000D02*
X221370000Y-24740000D01*
D11*
%TO.C,CPF18*%
X79210000Y-77800000D02*
X79210000Y-74600000D01*
X79210000Y-74600000D02*
X80810000Y-74600000D01*
X80810000Y-77800000D02*
X79210000Y-77800000D01*
X80810000Y-74600000D02*
X80810000Y-77800000D01*
%TO.C,CVE8*%
X23505000Y-94250000D02*
X24755000Y-94250000D01*
X24755000Y-94250000D02*
X24755000Y-96250000D01*
X23505000Y-96250000D02*
X23505000Y-94250000D01*
X24755000Y-96250000D02*
X23505000Y-96250000D01*
%TO.C,RG8*%
X180705000Y-137170000D02*
X180705000Y-138420000D01*
X180705000Y-138420000D02*
X178705000Y-138420000D01*
X178705000Y-138420000D02*
X178705000Y-137170000D01*
X178705000Y-137170000D02*
X180705000Y-137170000D01*
%TO.C,U47*%
X118745000Y-82550000D02*
X118745000Y-62230000D01*
X118745000Y-62230000D02*
X125095000Y-62230000D01*
X124095000Y-82550000D02*
X118745000Y-82550000D01*
X125095000Y-81550000D02*
X124095000Y-82550000D01*
X125095000Y-62230000D02*
X125095000Y-81550000D01*
%TO.C,CVE3*%
X39995000Y-96250000D02*
X38745000Y-96250000D01*
X38745000Y-94250000D02*
X39995000Y-94250000D01*
X39995000Y-94250000D02*
X39995000Y-96250000D01*
X38745000Y-96250000D02*
X38745000Y-94250000D01*
%TO.C,CPS2*%
X231082000Y-36204000D02*
X224782000Y-36204000D01*
X223782000Y-40504000D02*
X231082000Y-40504000D01*
X231082000Y-40504000D02*
X231082000Y-36204000D01*
X223782000Y-37204000D02*
X223782000Y-40504000D01*
X224782000Y-36204000D02*
X223782000Y-37204000D01*
%TO.C,CPS1*%
X58890000Y-31420000D02*
X58890000Y-34220000D01*
X60490000Y-34620000D02*
X60490000Y-31420000D01*
X60490000Y-31420000D02*
X58890000Y-31420000D01*
X59290000Y-34620000D02*
X60490000Y-34620000D01*
X58890000Y-34220000D02*
X59290000Y-34620000D01*
%TO.C,CG2*%
X218170000Y-116215000D02*
X218170000Y-117465000D01*
X216170000Y-117465000D02*
X216170000Y-116215000D01*
X218170000Y-117465000D02*
X216170000Y-117465000D01*
X216170000Y-116215000D02*
X218170000Y-116215000D01*
%TO.C,RVE20*%
X27295000Y-96250000D02*
X26045000Y-96250000D01*
X27295000Y-94250000D02*
X27295000Y-96250000D01*
X26045000Y-96250000D02*
X26045000Y-94250000D01*
X26045000Y-94250000D02*
X27295000Y-94250000D01*
%TO.C,CPF45*%
X131115000Y-68115000D02*
X131115000Y-66515000D01*
X131115000Y-66515000D02*
X134315000Y-66515000D01*
X134315000Y-68115000D02*
X131115000Y-68115000D01*
X134315000Y-66515000D02*
X134315000Y-68115000D01*
%TO.C,RPS4*%
X69580000Y-38237000D02*
X69580000Y-39487000D01*
X67580000Y-38237000D02*
X69580000Y-38237000D01*
X67580000Y-39487000D02*
X67580000Y-38237000D01*
X69580000Y-39487000D02*
X67580000Y-39487000D01*
%TO.C,CPS5*%
X231505000Y-58430000D02*
X231505000Y-59680000D01*
X229505000Y-58430000D02*
X231505000Y-58430000D01*
X229505000Y-59680000D02*
X229505000Y-58430000D01*
X231505000Y-59680000D02*
X229505000Y-59680000D01*
%TO.C,CPF24*%
X176200000Y-102070000D02*
X179400000Y-102070000D01*
X176200000Y-103670000D02*
X176200000Y-102070000D01*
X179400000Y-103670000D02*
X176200000Y-103670000D01*
X179400000Y-102070000D02*
X179400000Y-103670000D01*
%TO.C,U20*%
X39365000Y-48505000D02*
X73925000Y-48505000D01*
X74925000Y-63235000D02*
X39365000Y-63235000D01*
X73925000Y-48505000D02*
X74925000Y-49505000D01*
X74925000Y-49505000D02*
X74925000Y-63235000D01*
X39365000Y-63235000D02*
X39365000Y-48505000D01*
%TO.C,DVE1*%
X44450000Y-87195000D02*
X44450000Y-87445000D01*
X44800000Y-87195000D02*
X44100000Y-87195000D01*
X44800000Y-86695000D02*
X44100000Y-86695000D01*
X44100000Y-87195000D02*
X44450000Y-86695000D01*
X44450000Y-86695000D02*
X44450000Y-86495000D01*
X45150000Y-87895000D02*
X43750000Y-87895000D01*
X43750000Y-87895000D02*
X43750000Y-86095000D01*
X43750000Y-86095000D02*
X45150000Y-86095000D01*
X45150000Y-86095000D02*
X45150000Y-87895000D01*
X44450000Y-86695000D02*
X44800000Y-87195000D01*
%TO.C,DIO9*%
X193975000Y-105410000D02*
X194175000Y-105410000D01*
X193475000Y-105410000D02*
X193225000Y-105410000D01*
X193975000Y-105760000D02*
X193975000Y-105060000D01*
X194575000Y-104710000D02*
X194575000Y-106110000D01*
X193475000Y-105060000D02*
X193975000Y-105410000D01*
X194575000Y-106110000D02*
X192775000Y-106110000D01*
X193975000Y-105410000D02*
X193475000Y-105760000D01*
X193475000Y-105760000D02*
X193475000Y-105060000D01*
X192775000Y-106110000D02*
X192775000Y-104710000D01*
X192775000Y-104710000D02*
X194575000Y-104710000D01*
%TO.C,CPF21*%
X95720000Y-36500000D02*
X97320000Y-36500000D01*
X97320000Y-39700000D02*
X95720000Y-39700000D01*
X95720000Y-39700000D02*
X95720000Y-36500000D01*
X97320000Y-36500000D02*
X97320000Y-39700000D01*
%TO.C,CPS7*%
X67580000Y-34915000D02*
X67580000Y-33665000D01*
X69580000Y-33665000D02*
X69580000Y-34915000D01*
X67580000Y-33665000D02*
X69580000Y-33665000D01*
X69580000Y-34915000D02*
X67580000Y-34915000D01*
%TO.C,RIO5*%
X62855000Y-23130000D02*
X62855000Y-25130000D01*
X62855000Y-25130000D02*
X61605000Y-25130000D01*
X61605000Y-25130000D02*
X61605000Y-23130000D01*
X61605000Y-23130000D02*
X62855000Y-23130000D01*
%TO.C,JIOKB2*%
X57785000Y-99695000D02*
X57150000Y-99060000D01*
X77470000Y-97155000D02*
X77470000Y-99695000D01*
X57150000Y-99060000D02*
X57150000Y-97155000D01*
X57150000Y-97155000D02*
X77470000Y-97155000D01*
X77470000Y-99695000D02*
X57785000Y-99695000D01*
%TO.C,RIO14*%
X130540000Y-32375000D02*
X128540000Y-32375000D01*
X130540000Y-31125000D02*
X130540000Y-32375000D01*
X128540000Y-31125000D02*
X130540000Y-31125000D01*
X128540000Y-32375000D02*
X128540000Y-31125000D01*
%TO.C,RG1*%
X205750000Y-116570000D02*
X205750000Y-114570000D01*
X205750000Y-114570000D02*
X207000000Y-114570000D01*
X207000000Y-114570000D02*
X207000000Y-116570000D01*
X207000000Y-116570000D02*
X205750000Y-116570000D01*
%TO.C,CPF2*%
X182405000Y-122240000D02*
X180805000Y-122240000D01*
X180805000Y-122240000D02*
X180805000Y-119040000D01*
X180805000Y-119040000D02*
X182405000Y-119040000D01*
X182405000Y-119040000D02*
X182405000Y-122240000D01*
%TO.C,RVE28*%
X23485000Y-92059000D02*
X22235000Y-92059000D01*
X22235000Y-92059000D02*
X22235000Y-90059000D01*
X22235000Y-90059000D02*
X23485000Y-90059000D01*
X23485000Y-90059000D02*
X23485000Y-92059000D01*
%TO.C,CPF14*%
X103340000Y-119040000D02*
X104940000Y-119040000D01*
X103340000Y-122240000D02*
X103340000Y-119040000D01*
X104940000Y-122240000D02*
X103340000Y-122240000D01*
X104940000Y-119040000D02*
X104940000Y-122240000D01*
%TO.C,RVE9*%
X27823000Y-37830000D02*
X27823000Y-35830000D01*
X29073000Y-37830000D02*
X27823000Y-37830000D01*
X29073000Y-35830000D02*
X29073000Y-37830000D01*
X27823000Y-35830000D02*
X29073000Y-35830000D01*
%TO.C,DIO10*%
X189030000Y-105060000D02*
X189530000Y-105410000D01*
X189030000Y-105410000D02*
X188780000Y-105410000D01*
X190130000Y-106110000D02*
X188330000Y-106110000D01*
X189530000Y-105410000D02*
X189030000Y-105760000D01*
X189530000Y-105410000D02*
X189730000Y-105410000D01*
X189530000Y-105760000D02*
X189530000Y-105060000D01*
X188330000Y-104710000D02*
X190130000Y-104710000D01*
X188330000Y-106110000D02*
X188330000Y-104710000D01*
X190130000Y-104710000D02*
X190130000Y-106110000D01*
X189030000Y-105760000D02*
X189030000Y-105060000D01*
%TO.C,CPF37*%
X49060000Y-119040000D02*
X49060000Y-122240000D01*
X47460000Y-119040000D02*
X49060000Y-119040000D01*
X49060000Y-122240000D02*
X47460000Y-122240000D01*
X47460000Y-122240000D02*
X47460000Y-119040000D01*
%TO.C,CPF6*%
X156665000Y-122260000D02*
X156665000Y-119060000D01*
X158265000Y-119060000D02*
X158265000Y-122260000D01*
X158265000Y-122260000D02*
X156665000Y-122260000D01*
X156665000Y-119060000D02*
X158265000Y-119060000D01*
%TO.C,U7*%
X175530000Y-137795000D02*
X176530000Y-138795000D01*
X176530000Y-144145000D02*
X158750000Y-144145000D01*
X158750000Y-144145000D02*
X158750000Y-137795000D01*
X158750000Y-137795000D02*
X175530000Y-137795000D01*
X176530000Y-138795000D02*
X176530000Y-144145000D01*
%TO.C,CPF3*%
X227000000Y-137960000D02*
X227000000Y-136360000D01*
X230200000Y-136360000D02*
X230200000Y-137960000D01*
X230200000Y-137960000D02*
X227000000Y-137960000D01*
X227000000Y-136360000D02*
X230200000Y-136360000D01*
%TO.C,RG4*%
X113300000Y-28585000D02*
X115300000Y-28585000D01*
X115300000Y-29835000D02*
X113300000Y-29835000D01*
X113300000Y-29835000D02*
X113300000Y-28585000D01*
X115300000Y-28585000D02*
X115300000Y-29835000D01*
%TO.C,CPF23*%
X79210000Y-85052500D02*
X80810000Y-85052500D01*
X79210000Y-88252500D02*
X79210000Y-85052500D01*
X80810000Y-88252500D02*
X79210000Y-88252500D01*
X80810000Y-85052500D02*
X80810000Y-88252500D01*
%TO.C,CPF48*%
X89865000Y-85890000D02*
X86665000Y-85890000D01*
X89865000Y-84290000D02*
X89865000Y-85890000D01*
X86665000Y-84290000D02*
X89865000Y-84290000D01*
X86665000Y-85890000D02*
X86665000Y-84290000D01*
%TO.C,LVE1*%
X28415000Y-72550000D02*
X26165000Y-72550000D01*
X28415000Y-79850000D02*
X26165000Y-79850000D01*
X21115000Y-79850000D02*
X21115000Y-72550000D01*
X28415000Y-72550000D02*
X28415000Y-79850000D01*
X21115000Y-72550000D02*
X23365000Y-72550000D01*
X21115000Y-79850000D02*
X23365000Y-79850000D01*
X22475000Y-73910000D02*
G75*
G03*
X22475000Y-78490000I2290000J-2290000D01*
G01*
X27055000Y-78490000D02*
G75*
G03*
X27055000Y-73910000I-2290000J2290000D01*
G01*
%TO.C,RVE17*%
X32375000Y-100060000D02*
X31125000Y-100060000D01*
X32375000Y-98060000D02*
X32375000Y-100060000D01*
X31125000Y-100060000D02*
X31125000Y-98060000D01*
X31125000Y-98060000D02*
X32375000Y-98060000D01*
%TO.C,RVF1*%
X92085000Y-39100000D02*
X92085000Y-37100000D01*
X92085000Y-37100000D02*
X93335000Y-37100000D01*
X93335000Y-37100000D02*
X93335000Y-39100000D01*
X93335000Y-39100000D02*
X92085000Y-39100000D01*
%TO.C,CG5*%
X178705000Y-136388000D02*
X178705000Y-135138000D01*
X180705000Y-135138000D02*
X180705000Y-136388000D01*
X178705000Y-135138000D02*
X180705000Y-135138000D01*
X180705000Y-136388000D02*
X178705000Y-136388000D01*
%TO.C,U23*%
X77470000Y-81645000D02*
X77470000Y-86995000D01*
X52070000Y-80645000D02*
X76470000Y-80645000D01*
X77470000Y-86995000D02*
X52070000Y-86995000D01*
X52070000Y-86995000D02*
X52070000Y-80645000D01*
X76470000Y-80645000D02*
X77470000Y-81645000D01*
%TO.C,RG5*%
X118380000Y-32375000D02*
X118380000Y-31125000D01*
X120380000Y-32375000D02*
X118380000Y-32375000D01*
X118380000Y-31125000D02*
X120380000Y-31125000D01*
X120380000Y-31125000D02*
X120380000Y-32375000D01*
%TO.C,RCPU3*%
X199400000Y-101330000D02*
X199400000Y-99330000D01*
X200650000Y-99330000D02*
X200650000Y-101330000D01*
X200650000Y-101330000D02*
X199400000Y-101330000D01*
X199400000Y-99330000D02*
X200650000Y-99330000D01*
%TO.C,CPF42*%
X107620000Y-85890000D02*
X107620000Y-84290000D01*
X110820000Y-84290000D02*
X110820000Y-85890000D01*
X110820000Y-85890000D02*
X107620000Y-85890000D01*
X107620000Y-84290000D02*
X110820000Y-84290000D01*
%TO.C,RIO6*%
X81651000Y-41164000D02*
X81651000Y-43164000D01*
X80401000Y-41164000D02*
X81651000Y-41164000D01*
X81651000Y-43164000D02*
X80401000Y-43164000D01*
X80401000Y-43164000D02*
X80401000Y-41164000D01*
%TO.C,CPF35*%
X79215000Y-107610000D02*
X80815000Y-107610000D01*
X79215000Y-110810000D02*
X79215000Y-107610000D01*
X80815000Y-110810000D02*
X79215000Y-110810000D01*
X80815000Y-107610000D02*
X80815000Y-110810000D01*
%TO.C,U42*%
X114935000Y-81550000D02*
X113935000Y-82550000D01*
X108585000Y-62230000D02*
X114935000Y-62230000D01*
X108585000Y-82550000D02*
X108585000Y-62230000D01*
X113935000Y-82550000D02*
X108585000Y-82550000D01*
X114935000Y-62230000D02*
X114935000Y-81550000D01*
%TO.C,YVE1*%
X37680000Y-83860000D02*
X37680000Y-90110000D01*
X42330000Y-83860000D02*
X42330000Y-90110000D01*
X38005000Y-83985000D02*
X38005000Y-89985000D01*
X42005000Y-83985000D02*
X42005000Y-89985000D01*
X42005000Y-83985000D02*
G75*
G03*
X38005000Y-83985000I-2000000J0D01*
G01*
X38005000Y-89985000D02*
G75*
G03*
X42005000Y-89985000I2000000J0D01*
G01*
X42330000Y-83860000D02*
G75*
G03*
X37680000Y-83860000I-2325000J0D01*
G01*
X37680000Y-90110000D02*
G75*
G03*
X42330000Y-90110000I2325000J0D01*
G01*
%TO.C,CPF17*%
X110945000Y-93650000D02*
X112545000Y-93650000D01*
X110945000Y-96850000D02*
X110945000Y-93650000D01*
X112545000Y-96850000D02*
X110945000Y-96850000D01*
X112545000Y-93650000D02*
X112545000Y-96850000D01*
%TO.C,RVE2*%
X25410000Y-40910000D02*
X26660000Y-40910000D01*
X26660000Y-40910000D02*
X26660000Y-42910000D01*
X26660000Y-42910000D02*
X25410000Y-42910000D01*
X25410000Y-42910000D02*
X25410000Y-40910000D01*
%TO.C,CPF34*%
X80475000Y-141910000D02*
X82075000Y-141910000D01*
X82075000Y-141910000D02*
X82075000Y-145110000D01*
X82075000Y-145110000D02*
X80475000Y-145110000D01*
X80475000Y-145110000D02*
X80475000Y-141910000D01*
%TO.C,U38*%
X45720000Y-104505000D02*
X45720000Y-109855000D01*
X44720000Y-103505000D02*
X45720000Y-104505000D01*
X25400000Y-109855000D02*
X25400000Y-103505000D01*
X25400000Y-103505000D02*
X44720000Y-103505000D01*
X45720000Y-109855000D02*
X25400000Y-109855000D01*
%TO.C,CPF39*%
X56350000Y-145110000D02*
X56350000Y-141910000D01*
X57950000Y-141910000D02*
X57950000Y-145110000D01*
X57950000Y-145110000D02*
X56350000Y-145110000D01*
X56350000Y-141910000D02*
X57950000Y-141910000D01*
%TO.C,DIO11*%
X203500000Y-105410000D02*
X203700000Y-105410000D01*
X204100000Y-106110000D02*
X202300000Y-106110000D01*
X203000000Y-105760000D02*
X203000000Y-105060000D01*
X203500000Y-105410000D02*
X203000000Y-105760000D01*
X202300000Y-106110000D02*
X202300000Y-104710000D01*
X203500000Y-105760000D02*
X203500000Y-105060000D01*
X203000000Y-105060000D02*
X203500000Y-105410000D01*
X204100000Y-104710000D02*
X204100000Y-106110000D01*
X202300000Y-104710000D02*
X204100000Y-104710000D01*
X203000000Y-105410000D02*
X202750000Y-105410000D01*
%TO.C,RCPU2*%
X139970000Y-74158000D02*
X139970000Y-72908000D01*
X139970000Y-72908000D02*
X141970000Y-72908000D01*
X141970000Y-72908000D02*
X141970000Y-74158000D01*
X141970000Y-74158000D02*
X139970000Y-74158000D01*
%TO.C,U44*%
X86345000Y-55900000D02*
X86345000Y-42170000D01*
X87345000Y-56900000D02*
X86345000Y-55900000D01*
X126985000Y-56900000D02*
X87345000Y-56900000D01*
X126985000Y-42170000D02*
X126985000Y-56900000D01*
X86345000Y-42170000D02*
X126985000Y-42170000D01*
%TO.C,DPS1*%
X60390000Y-39000000D02*
X58990000Y-39000000D01*
X60040000Y-37800000D02*
X59340000Y-37800000D01*
X60390000Y-37200000D02*
X60390000Y-39000000D01*
X58990000Y-39000000D02*
X58990000Y-37200000D01*
X59690000Y-37800000D02*
X60040000Y-38300000D01*
X59690000Y-37800000D02*
X59690000Y-37600000D01*
X59690000Y-38300000D02*
X59690000Y-38550000D01*
X60040000Y-38300000D02*
X59340000Y-38300000D01*
X58990000Y-37200000D02*
X60390000Y-37200000D01*
X59340000Y-38300000D02*
X59690000Y-37800000D01*
%TO.C,RVE22*%
X41285000Y-94250000D02*
X42535000Y-94250000D01*
X42535000Y-94250000D02*
X42535000Y-96250000D01*
X41285000Y-96250000D02*
X41285000Y-94250000D01*
X42535000Y-96250000D02*
X41285000Y-96250000D01*
%TO.C,U22*%
X68490000Y-25695000D02*
X68490000Y-28620000D01*
X67515000Y-24720000D02*
X68490000Y-25695000D01*
X63590000Y-24720000D02*
X67515000Y-24720000D01*
X63590000Y-28620000D02*
X63590000Y-24720000D01*
X68490000Y-28620000D02*
X63590000Y-28620000D01*
%TO.C,DVE2*%
X29495000Y-87195000D02*
X29845000Y-86695000D01*
X29145000Y-86095000D02*
X30545000Y-86095000D01*
X30195000Y-87195000D02*
X29495000Y-87195000D01*
X29845000Y-86695000D02*
X29845000Y-86495000D01*
X29145000Y-87895000D02*
X29145000Y-86095000D01*
X30545000Y-86095000D02*
X30545000Y-87895000D01*
X30545000Y-87895000D02*
X29145000Y-87895000D01*
X30195000Y-86695000D02*
X29495000Y-86695000D01*
X29845000Y-86695000D02*
X30195000Y-87195000D01*
X29845000Y-87195000D02*
X29845000Y-87445000D01*
%TO.C,RVE24*%
X29835000Y-49165000D02*
X29835000Y-51165000D01*
X28585000Y-51165000D02*
X28585000Y-49165000D01*
X29835000Y-51165000D02*
X28585000Y-51165000D01*
X28585000Y-49165000D02*
X29835000Y-49165000D01*
%TO.C,RIO1*%
X81905000Y-37100000D02*
X81905000Y-39100000D01*
X81905000Y-39100000D02*
X80655000Y-39100000D01*
X80655000Y-39100000D02*
X80655000Y-37100000D01*
X80655000Y-37100000D02*
X81905000Y-37100000D01*
%TO.C,U1*%
X185420000Y-114935000D02*
X202200000Y-114935000D01*
X203200000Y-115935000D02*
X203200000Y-121285000D01*
X202200000Y-114935000D02*
X203200000Y-115935000D01*
X185420000Y-121285000D02*
X185420000Y-114935000D01*
X203200000Y-121285000D02*
X185420000Y-121285000D01*
%TO.C,U11*%
X200665000Y-138805000D02*
X200665000Y-144155000D01*
X199665000Y-137805000D02*
X200665000Y-138805000D01*
X182885000Y-137805000D02*
X199665000Y-137805000D01*
X182885000Y-144155000D02*
X182885000Y-137805000D01*
X200665000Y-144155000D02*
X182885000Y-144155000D01*
%TO.C,QVF1*%
X25725000Y-47170000D02*
X24750000Y-47170000D01*
X26050000Y-46845000D02*
X25725000Y-47170000D01*
X26050000Y-44270000D02*
X26050000Y-46845000D01*
X24750000Y-44270000D02*
X26050000Y-44270000D01*
X24750000Y-47170000D02*
X24750000Y-44270000D01*
%TO.C,U5*%
X107950000Y-132715000D02*
X107950000Y-126365000D01*
X127270000Y-126365000D02*
X128270000Y-127365000D01*
X107950000Y-126365000D02*
X127270000Y-126365000D01*
X128270000Y-127365000D02*
X128270000Y-132715000D01*
X128270000Y-132715000D02*
X107950000Y-132715000D01*
%TO.C,CPF22*%
X231470000Y-90005000D02*
X231470000Y-91605000D01*
X228270000Y-91605000D02*
X228270000Y-90005000D01*
X228270000Y-90005000D02*
X231470000Y-90005000D01*
X231470000Y-91605000D02*
X228270000Y-91605000D01*
%TO.C,RSIO1*%
X52050000Y-91460000D02*
X52050000Y-93960000D01*
X72390000Y-93960000D02*
X72390000Y-91460000D01*
X52050000Y-93960000D02*
X74950000Y-93960000D01*
X74950000Y-91460000D02*
X52050000Y-91460000D01*
X74950000Y-93960000D02*
X74950000Y-91460000D01*
%TO.C,CPF40*%
X79215000Y-133670000D02*
X79215000Y-130470000D01*
X79215000Y-130470000D02*
X80815000Y-130470000D01*
X80815000Y-130470000D02*
X80815000Y-133670000D01*
X80815000Y-133670000D02*
X79215000Y-133670000D01*
%TO.C,U21*%
X46990000Y-51055000D02*
X77470000Y-51055000D01*
X47990000Y-65785000D02*
X46990000Y-64785000D01*
X77470000Y-51055000D02*
X77470000Y-65785000D01*
X77470000Y-65785000D02*
X47990000Y-65785000D01*
X46990000Y-64785000D02*
X46990000Y-51055000D01*
%TO.C,RVE15*%
X26660000Y-37830000D02*
X25410000Y-37830000D01*
X26660000Y-35830000D02*
X26660000Y-37830000D01*
X25410000Y-35830000D02*
X26660000Y-35830000D01*
X25410000Y-37830000D02*
X25410000Y-35830000D01*
%TO.C,RSCPU1*%
X171470000Y-74910000D02*
X171470000Y-97810000D01*
X171470000Y-95250000D02*
X173970000Y-95250000D01*
X173970000Y-97810000D02*
X173970000Y-74910000D01*
X173970000Y-74910000D02*
X171470000Y-74910000D01*
X171470000Y-97810000D02*
X173970000Y-97810000D01*
%TO.C,QVF4*%
X26050000Y-48080000D02*
X26050000Y-50655000D01*
X24750000Y-50980000D02*
X24750000Y-48080000D01*
X26050000Y-50655000D02*
X25725000Y-50980000D01*
X24750000Y-48080000D02*
X26050000Y-48080000D01*
X25725000Y-50980000D02*
X24750000Y-50980000D01*
%TO.C,RPI2*%
X126095000Y-29835000D02*
X124095000Y-29835000D01*
X126095000Y-28585000D02*
X126095000Y-29835000D01*
X124095000Y-29835000D02*
X124095000Y-28585000D01*
X124095000Y-28585000D02*
X126095000Y-28585000D01*
%TO.C,RVE19*%
X29835000Y-56245000D02*
X28585000Y-56245000D01*
X28585000Y-54245000D02*
X29835000Y-54245000D01*
X28585000Y-56245000D02*
X28585000Y-54245000D01*
X29835000Y-54245000D02*
X29835000Y-56245000D01*
%TO.C,RIO13*%
X124730000Y-33665000D02*
X126730000Y-33665000D01*
X126730000Y-33665000D02*
X126730000Y-34915000D01*
X126730000Y-34915000D02*
X124730000Y-34915000D01*
X124730000Y-34915000D02*
X124730000Y-33665000D01*
%TO.C,CPF1*%
X206540000Y-119060000D02*
X206540000Y-122260000D01*
X206540000Y-122260000D02*
X204940000Y-122260000D01*
X204940000Y-119060000D02*
X206540000Y-119060000D01*
X204940000Y-122260000D02*
X204940000Y-119060000D01*
%TO.C,U13*%
X209555000Y-126365000D02*
X226335000Y-126365000D01*
X209555000Y-132715000D02*
X209555000Y-126365000D01*
X226335000Y-126365000D02*
X227335000Y-127365000D01*
X227335000Y-127365000D02*
X227335000Y-132715000D01*
X227335000Y-132715000D02*
X209555000Y-132715000D01*
%TO.C,U46*%
X103775000Y-82550000D02*
X98425000Y-82550000D01*
X104775000Y-81550000D02*
X103775000Y-82550000D01*
X104775000Y-62230000D02*
X104775000Y-81550000D01*
X98425000Y-62230000D02*
X104775000Y-62230000D01*
X98425000Y-82550000D02*
X98425000Y-62230000D01*
%TO.C,DIO1*%
X76200000Y-37842000D02*
X76200000Y-38342000D01*
X76200000Y-37242000D02*
X76750000Y-37242000D01*
X77000000Y-35942000D02*
X77000000Y-39242000D01*
X76200000Y-36842000D02*
X76200000Y-37242000D01*
X76200000Y-37242000D02*
X75650000Y-37242000D01*
X75400000Y-39242000D02*
X75400000Y-35942000D01*
X75400000Y-35942000D02*
X77000000Y-35942000D01*
X77000000Y-39242000D02*
X75400000Y-39242000D01*
X75800000Y-37842000D02*
X76200000Y-37242000D01*
X76600000Y-37842000D02*
X75800000Y-37842000D01*
X76200000Y-37242000D02*
X76600000Y-37842000D01*
%TO.C,UPS1*%
X225660000Y-56980000D02*
X226460000Y-56980000D01*
X223960000Y-56980000D02*
X224760000Y-56980000D01*
X229060000Y-52280000D02*
X229060000Y-56980000D01*
X225660000Y-52280000D02*
X225660000Y-56980000D01*
X221060000Y-43030000D02*
X221060000Y-42030000D01*
X231060000Y-43030000D02*
X231060000Y-52280000D01*
X226460000Y-56980000D02*
X226460000Y-52280000D01*
X222260000Y-56980000D02*
X223060000Y-56980000D01*
X224760000Y-56980000D02*
X224760000Y-52280000D01*
X222260000Y-52280000D02*
X222260000Y-56980000D01*
X231060000Y-42030000D02*
X231060000Y-43030000D01*
X221060000Y-42030000D02*
X231060000Y-42030000D01*
X228160000Y-56980000D02*
X228160000Y-52280000D01*
X229860000Y-56980000D02*
X229860000Y-52280000D01*
X227360000Y-56980000D02*
X228160000Y-56980000D01*
X222060000Y-52280000D02*
X221060000Y-51280000D01*
X229060000Y-56980000D02*
X229860000Y-56980000D01*
X231060000Y-52280000D02*
X222060000Y-52280000D01*
X221060000Y-43030000D02*
X231060000Y-43030000D01*
X221060000Y-51280000D02*
X221060000Y-43030000D01*
X227360000Y-52280000D02*
X227360000Y-56980000D01*
X223960000Y-52280000D02*
X223960000Y-56980000D01*
X223060000Y-56980000D02*
X223060000Y-52280000D01*
%TO.C,RIO4*%
X113040000Y-36560000D02*
X113040000Y-34560000D01*
X114290000Y-36560000D02*
X113040000Y-36560000D01*
X113040000Y-34560000D02*
X114290000Y-34560000D01*
X114290000Y-34560000D02*
X114290000Y-36560000D01*
%TO.C,U35*%
X77470000Y-109855000D02*
X52070000Y-109855000D01*
X77470000Y-104505000D02*
X77470000Y-109855000D01*
X52070000Y-109855000D02*
X52070000Y-103505000D01*
X76470000Y-103505000D02*
X77470000Y-104505000D01*
X52070000Y-103505000D02*
X76470000Y-103505000D01*
%TO.C,RVE10*%
X43825000Y-98060000D02*
X45075000Y-98060000D01*
X43825000Y-100060000D02*
X43825000Y-98060000D01*
X45075000Y-98060000D02*
X45075000Y-100060000D01*
X45075000Y-100060000D02*
X43825000Y-100060000D01*
%TO.C,CPF5*%
X130025000Y-130470000D02*
X131625000Y-130470000D01*
X131625000Y-130470000D02*
X131625000Y-133670000D01*
X131625000Y-133670000D02*
X130025000Y-133670000D01*
X130025000Y-133670000D02*
X130025000Y-130470000D01*
%TO.C,JPS1*%
X223430000Y-20690000D02*
X232430000Y-20690000D01*
X232430000Y-34190000D02*
X231430000Y-35190000D01*
X223430000Y-35190000D02*
X223430000Y-20690000D01*
X223430000Y-35190000D02*
X231430000Y-35190000D01*
X232430000Y-20690000D02*
X232430000Y-34190000D01*
%TO.C,RG3*%
X208905000Y-120380000D02*
X207655000Y-120380000D01*
X208905000Y-118380000D02*
X208905000Y-120380000D01*
X207655000Y-118380000D02*
X208905000Y-118380000D01*
X207655000Y-120380000D02*
X207655000Y-118380000D01*
%TO.C,YVE2*%
X36615000Y-83860000D02*
X36615000Y-90110000D01*
X32290000Y-83985000D02*
X32290000Y-89985000D01*
X31965000Y-83860000D02*
X31965000Y-90110000D01*
X36290000Y-83985000D02*
X36290000Y-89985000D01*
X36615000Y-83860000D02*
G75*
G03*
X31965000Y-83860000I-2325000J0D01*
G01*
X31965000Y-90110000D02*
G75*
G03*
X36615000Y-90110000I2325000J0D01*
G01*
X36290000Y-83985000D02*
G75*
G03*
X32290000Y-83985000I-2000000J0D01*
G01*
X32290000Y-89985000D02*
G75*
G03*
X36290000Y-89985000I2000000J0D01*
G01*
%TO.C,LPS1*%
X228390000Y-81200000D02*
X228790000Y-81300000D01*
X229890000Y-80400000D02*
X229890000Y-80100000D01*
X220190000Y-71300000D02*
X220690000Y-71100000D01*
X228090000Y-81100000D02*
X228390000Y-81200000D01*
X229790000Y-79800000D02*
X229690000Y-79500000D01*
X229590000Y-71600000D02*
X229290000Y-71300000D01*
X219490000Y-74700000D02*
X219690000Y-74100000D01*
X230990000Y-82400000D02*
X228090000Y-82400000D01*
X230990000Y-70000000D02*
X228090000Y-70000000D01*
X229690000Y-72900000D02*
X229890000Y-72500000D01*
X220490000Y-81200000D02*
X220190000Y-81000000D01*
X230390000Y-76200000D02*
X230290000Y-75400000D01*
X229490000Y-73200000D02*
X229690000Y-72900000D01*
X229290000Y-71300000D02*
X228790000Y-71100000D01*
X220090000Y-79300000D02*
X220190000Y-79200000D01*
X220190000Y-81000000D02*
X219790000Y-80700000D01*
X230090000Y-74500000D02*
X229690000Y-73600000D01*
X219790000Y-79700000D02*
X220090000Y-79300000D01*
X219690000Y-72300000D02*
X219790000Y-71900000D01*
X219290000Y-75600000D02*
X219490000Y-74700000D01*
X229890000Y-78400000D02*
X230090000Y-77900000D01*
X228790000Y-81300000D02*
X229090000Y-81200000D01*
X219690000Y-80200000D02*
X219790000Y-79700000D01*
X221390000Y-81200000D02*
X220990000Y-81300000D01*
X229890000Y-72500000D02*
X229790000Y-72000000D01*
X229690000Y-78800000D02*
X229890000Y-78400000D01*
X230290000Y-75400000D02*
X230090000Y-74500000D01*
X220090000Y-73200000D02*
X219890000Y-72900000D01*
X221190000Y-71200000D02*
X221590000Y-71400000D01*
X219490000Y-77800000D02*
X219290000Y-76800000D01*
X219790000Y-80700000D02*
X219690000Y-80200000D01*
X229090000Y-81200000D02*
X229490000Y-81000000D01*
X219990000Y-71600000D02*
X220190000Y-71300000D01*
X230290000Y-77100000D02*
X230390000Y-76200000D01*
X219790000Y-71900000D02*
X219990000Y-71600000D01*
X230090000Y-77900000D02*
X230290000Y-77100000D01*
X219890000Y-73600000D02*
X220090000Y-73200000D01*
X229690000Y-80700000D02*
X229890000Y-80400000D01*
X229690000Y-73600000D02*
X229490000Y-73200000D01*
X219790000Y-78600000D02*
X219490000Y-77800000D01*
X218590000Y-82400000D02*
X221490000Y-82400000D01*
X229390000Y-79200000D02*
X229690000Y-78800000D01*
X229490000Y-81000000D02*
X229690000Y-80700000D01*
X218590000Y-70000000D02*
X218590000Y-82400000D01*
X220990000Y-81300000D02*
X220490000Y-81200000D01*
X219690000Y-74100000D02*
X219890000Y-73600000D01*
X219290000Y-76800000D02*
X219290000Y-75600000D01*
X229790000Y-72000000D02*
X229590000Y-71600000D01*
X228290000Y-71200000D02*
X227990000Y-71400000D01*
X220690000Y-71100000D02*
X221190000Y-71200000D01*
X221490000Y-81100000D02*
X221390000Y-81200000D01*
X220190000Y-79200000D02*
X219790000Y-78600000D01*
X221490000Y-70000000D02*
X218590000Y-70000000D01*
X229890000Y-80100000D02*
X229790000Y-79800000D01*
X229690000Y-79500000D02*
X229390000Y-79200000D01*
X230990000Y-82400000D02*
X230990000Y-70000000D01*
X228790000Y-71100000D02*
X228290000Y-71200000D01*
X219890000Y-72900000D02*
X219690000Y-72300000D01*
X222180512Y-74100000D02*
G75*
G03*
X222180512Y-74100000I-390512J0D01*
G01*
%TO.C,TP2*%
X21590000Y-139065000D02*
X21590000Y-137160000D01*
X21590000Y-137160000D02*
X26670000Y-137160000D01*
X26670000Y-137160000D02*
X26670000Y-139700000D01*
X26670000Y-139700000D02*
X22225000Y-139700000D01*
X22225000Y-139700000D02*
X21590000Y-139065000D01*
%TO.C,JIO3*%
X52070000Y-38100000D02*
X52070000Y-42180000D01*
X31750000Y-38100000D02*
X52070000Y-38100000D01*
X51070000Y-43180000D02*
X31750000Y-43180000D01*
X52070000Y-42180000D02*
X51070000Y-43180000D01*
X31750000Y-43180000D02*
X31750000Y-38100000D01*
%TO.C,JVE3*%
X46670000Y-29910000D02*
X46670000Y-34610000D01*
X49210000Y-34610000D02*
X49850000Y-34610000D01*
X42230000Y-34610000D02*
X42230000Y-29910000D01*
X41590000Y-34610000D02*
X42230000Y-34610000D01*
X49850000Y-34610000D02*
X49850000Y-29910000D01*
X44130000Y-34610000D02*
X44770000Y-34610000D01*
X49210000Y-29910000D02*
X49210000Y-34610000D01*
X51750000Y-29910000D02*
X51750000Y-34610000D01*
X47310000Y-34610000D02*
X47310000Y-29910000D01*
X37810000Y-29910000D02*
X36810000Y-28910000D01*
X57170000Y-29910000D02*
X37810000Y-29910000D01*
X57170000Y-21010000D02*
X57170000Y-29910000D01*
X41590000Y-29910000D02*
X41590000Y-34610000D01*
X44770000Y-34610000D02*
X44770000Y-29910000D01*
X46670000Y-34610000D02*
X47310000Y-34610000D01*
X36810000Y-28910000D02*
X36810000Y-21010000D01*
X44130000Y-29910000D02*
X44130000Y-34610000D01*
X51750000Y-34610000D02*
X52390000Y-34610000D01*
X44940000Y-29910000D02*
X44940000Y-21010000D01*
X52390000Y-34610000D02*
X52390000Y-29910000D01*
X36810000Y-21010000D02*
X57170000Y-21010000D01*
X49040000Y-29910000D02*
X49040000Y-21010000D01*
%TO.C,RVE14*%
X45075000Y-94250000D02*
X45075000Y-96250000D01*
X43825000Y-96250000D02*
X43825000Y-94250000D01*
X43825000Y-94250000D02*
X45075000Y-94250000D01*
X45075000Y-96250000D02*
X43825000Y-96250000D01*
%TO.C,JCPU1*%
X212090000Y-30480000D02*
X212090000Y-35560000D01*
X135890000Y-35560000D02*
X135890000Y-31480000D01*
X135890000Y-31480000D02*
X136890000Y-30480000D01*
X136890000Y-30480000D02*
X212090000Y-30480000D01*
X212090000Y-35560000D02*
X135890000Y-35560000D01*
%TO.C,CPF44*%
X90500000Y-38316000D02*
X90500000Y-39916000D01*
X87300000Y-38316000D02*
X90500000Y-38316000D01*
X90500000Y-39916000D02*
X87300000Y-39916000D01*
X87300000Y-39916000D02*
X87300000Y-38316000D01*
%TO.C,U6*%
X134605000Y-114935000D02*
X153925000Y-114935000D01*
X134605000Y-121285000D02*
X134605000Y-114935000D01*
X154925000Y-121285000D02*
X134605000Y-121285000D01*
X153925000Y-114935000D02*
X154925000Y-115935000D01*
X154925000Y-115935000D02*
X154925000Y-121285000D01*
%TO.C,CPF38*%
X47460000Y-110810000D02*
X47460000Y-107610000D01*
X47460000Y-107610000D02*
X49060000Y-107610000D01*
X49060000Y-110810000D02*
X47460000Y-110810000D01*
X49060000Y-107610000D02*
X49060000Y-110810000D01*
%TO.C,RIO7*%
X72380000Y-36862000D02*
X72380000Y-38862000D01*
X71130000Y-38862000D02*
X71130000Y-36862000D01*
X72380000Y-38862000D02*
X71130000Y-38862000D01*
X71130000Y-36862000D02*
X72380000Y-36862000D01*
%TO.C,CPF15*%
X155745000Y-133690000D02*
X154145000Y-133690000D01*
X154145000Y-130490000D02*
X155745000Y-130490000D01*
X155745000Y-130490000D02*
X155745000Y-133690000D01*
X154145000Y-133690000D02*
X154145000Y-130490000D01*
%TO.C,CPS6*%
X71450000Y-41110000D02*
X68650000Y-41110000D01*
X68250000Y-42710000D02*
X71450000Y-42710000D01*
X71450000Y-42710000D02*
X71450000Y-41110000D01*
X68650000Y-41110000D02*
X68250000Y-41510000D01*
X68250000Y-41510000D02*
X68250000Y-42710000D01*
%TO.C,CPF32*%
X106210000Y-145110000D02*
X104610000Y-145110000D01*
X106210000Y-141910000D02*
X106210000Y-145110000D01*
X104610000Y-145110000D02*
X104610000Y-141910000D01*
X104610000Y-141910000D02*
X106210000Y-141910000D01*
%TO.C,CPF41*%
X47465000Y-130470000D02*
X49065000Y-130470000D01*
X49065000Y-133670000D02*
X47465000Y-133670000D01*
X49065000Y-130470000D02*
X49065000Y-133670000D01*
X47465000Y-133670000D02*
X47465000Y-130470000D01*
%TO.C,CPF31*%
X163360000Y-106987500D02*
X163360000Y-110187500D01*
X161760000Y-106987500D02*
X163360000Y-106987500D01*
X163360000Y-110187500D02*
X161760000Y-110187500D01*
X161760000Y-110187500D02*
X161760000Y-106987500D01*
%TO.C,CPF12*%
X155740000Y-141910000D02*
X155740000Y-145110000D01*
X154140000Y-141910000D02*
X155740000Y-141910000D01*
X154140000Y-145110000D02*
X154140000Y-141910000D01*
X155740000Y-145110000D02*
X154140000Y-145110000D01*
%TO.C,RVE4*%
X29835000Y-100060000D02*
X28585000Y-100060000D01*
X29835000Y-98060000D02*
X29835000Y-100060000D01*
X28585000Y-98060000D02*
X29835000Y-98060000D01*
X28585000Y-100060000D02*
X28585000Y-98060000D01*
%TO.C,U33*%
X85095000Y-132715000D02*
X85095000Y-126365000D01*
X85095000Y-126365000D02*
X101875000Y-126365000D01*
X101875000Y-126365000D02*
X102875000Y-127365000D01*
X102875000Y-132715000D02*
X85095000Y-132715000D01*
X102875000Y-127365000D02*
X102875000Y-132715000D01*
%TO.C,U17*%
X108205000Y-89535000D02*
X109205000Y-90535000D01*
X109205000Y-95885000D02*
X88885000Y-95885000D01*
X88885000Y-89535000D02*
X108205000Y-89535000D01*
X88885000Y-95885000D02*
X88885000Y-89535000D01*
X109205000Y-90535000D02*
X109205000Y-95885000D01*
%TO.C,CPF49*%
X222580000Y-87795000D02*
X219380000Y-87795000D01*
X219380000Y-87795000D02*
X219380000Y-86195000D01*
X222580000Y-86195000D02*
X222580000Y-87795000D01*
X219380000Y-86195000D02*
X222580000Y-86195000D01*
%TO.C,U28*%
X183515000Y-44450000D02*
X183515000Y-68850000D01*
X182515000Y-69850000D02*
X177165000Y-69850000D01*
X177165000Y-69850000D02*
X177165000Y-44450000D01*
X177165000Y-44450000D02*
X183515000Y-44450000D01*
X183515000Y-68850000D02*
X182515000Y-69850000D01*
%TO.C,CPF25*%
X188900000Y-102070000D02*
X192100000Y-102070000D01*
X192100000Y-102070000D02*
X192100000Y-103670000D01*
X188900000Y-103670000D02*
X188900000Y-102070000D01*
X192100000Y-103670000D02*
X188900000Y-103670000D01*
%TO.C,RIO12*%
X126730000Y-37455000D02*
X124730000Y-37455000D01*
X126730000Y-36205000D02*
X126730000Y-37455000D01*
X124730000Y-36205000D02*
X126730000Y-36205000D01*
X124730000Y-37455000D02*
X124730000Y-36205000D01*
%TO.C,U3*%
X179070000Y-115935000D02*
X179070000Y-121285000D01*
X178070000Y-114935000D02*
X179070000Y-115935000D01*
X179070000Y-121285000D02*
X161290000Y-121285000D01*
X161290000Y-121285000D02*
X161290000Y-114935000D01*
X161290000Y-114935000D02*
X178070000Y-114935000D01*
%TO.C,CPF10*%
X130025000Y-122250000D02*
X130025000Y-119050000D01*
X131625000Y-122250000D02*
X130025000Y-122250000D01*
X130025000Y-119050000D02*
X131625000Y-119050000D01*
X131625000Y-119050000D02*
X131625000Y-122250000D01*
%TO.C,CVE1*%
X32115000Y-78115000D02*
X32115000Y-79365000D01*
X30115000Y-78115000D02*
X32115000Y-78115000D01*
X30115000Y-79365000D02*
X30115000Y-78115000D01*
X32115000Y-79365000D02*
X30115000Y-79365000D01*
%TO.C,CG6*%
X185150000Y-104785000D02*
X185150000Y-106035000D01*
X183150000Y-104785000D02*
X185150000Y-104785000D01*
X183150000Y-106035000D02*
X183150000Y-104785000D01*
X185150000Y-106035000D02*
X183150000Y-106035000D01*
%TO.C,U8*%
X109225000Y-144145000D02*
X109225000Y-137795000D01*
X127005000Y-144145000D02*
X109225000Y-144145000D01*
X126005000Y-137795000D02*
X127005000Y-138795000D01*
X109225000Y-137795000D02*
X126005000Y-137795000D01*
X127005000Y-138795000D02*
X127005000Y-144145000D01*
%TO.C,RVE11*%
X42535000Y-98060000D02*
X42535000Y-100060000D01*
X41285000Y-100060000D02*
X41285000Y-98060000D01*
X41285000Y-98060000D02*
X42535000Y-98060000D01*
X42535000Y-100060000D02*
X41285000Y-100060000D01*
%TO.C,RVE26*%
X26045000Y-84090000D02*
X27295000Y-84090000D01*
X27295000Y-86090000D02*
X26045000Y-86090000D01*
X26045000Y-86090000D02*
X26045000Y-84090000D01*
X27295000Y-84090000D02*
X27295000Y-86090000D01*
%TO.C,U9*%
X175535000Y-126365000D02*
X176535000Y-127365000D01*
X158755000Y-126365000D02*
X175535000Y-126365000D01*
X176535000Y-127365000D02*
X176535000Y-132715000D01*
X158755000Y-132715000D02*
X158755000Y-126365000D01*
X176535000Y-132715000D02*
X158755000Y-132715000D01*
%TO.C,CIO3*%
X84719000Y-37100000D02*
X85969000Y-37100000D01*
X84719000Y-39100000D02*
X84719000Y-37100000D01*
X85969000Y-39100000D02*
X84719000Y-39100000D01*
X85969000Y-37100000D02*
X85969000Y-39100000D01*
%TO.C,RVE6*%
X31750000Y-34935000D02*
X33750000Y-34935000D01*
X33750000Y-34935000D02*
X33750000Y-36185000D01*
X31750000Y-36185000D02*
X31750000Y-34935000D01*
X33750000Y-36185000D02*
X31750000Y-36185000D01*
%TO.C,RIO9*%
X130540000Y-33665000D02*
X130540000Y-34915000D01*
X128540000Y-34915000D02*
X128540000Y-33665000D01*
X128540000Y-33665000D02*
X130540000Y-33665000D01*
X130540000Y-34915000D02*
X128540000Y-34915000D01*
%TO.C,CPF43*%
X141275000Y-68110000D02*
X141275000Y-66510000D01*
X144475000Y-68110000D02*
X141275000Y-68110000D01*
X141275000Y-66510000D02*
X144475000Y-66510000D01*
X144475000Y-66510000D02*
X144475000Y-68110000D01*
%TO.C,U10*%
X107950000Y-114935000D02*
X127270000Y-114935000D01*
X127270000Y-114935000D02*
X128270000Y-115935000D01*
X107950000Y-121285000D02*
X107950000Y-114935000D01*
X128270000Y-121285000D02*
X107950000Y-121285000D01*
X128270000Y-115935000D02*
X128270000Y-121285000D01*
%TO.C,JIO1*%
X48260000Y-80010000D02*
X48260000Y-73025000D01*
X50800000Y-80010000D02*
X48260000Y-80010000D01*
X48895000Y-72390000D02*
X50800000Y-72390000D01*
X48260000Y-73025000D02*
X48895000Y-72390000D01*
X50800000Y-72390000D02*
X50800000Y-80010000D01*
%TO.C,U29*%
X141605000Y-74930000D02*
X141605000Y-99330000D01*
X141605000Y-99330000D02*
X140605000Y-100330000D01*
X135255000Y-74930000D02*
X141605000Y-74930000D01*
X135255000Y-100330000D02*
X135255000Y-74930000D01*
X140605000Y-100330000D02*
X135255000Y-100330000D01*
%TO.C,CPS3*%
X221224000Y-34560000D02*
X221224000Y-36560000D01*
X219974000Y-34560000D02*
X221224000Y-34560000D01*
X221224000Y-36560000D02*
X219974000Y-36560000D01*
X219974000Y-36560000D02*
X219974000Y-34560000D01*
%TO.C,CIO4*%
X82687000Y-37100000D02*
X83937000Y-37100000D01*
X82687000Y-39100000D02*
X82687000Y-37100000D01*
X83937000Y-37100000D02*
X83937000Y-39100000D01*
X83937000Y-39100000D02*
X82687000Y-39100000D01*
%TO.C,CPF7*%
X179865000Y-141900000D02*
X179865000Y-145100000D01*
X178265000Y-141900000D02*
X179865000Y-141900000D01*
X179865000Y-145100000D02*
X178265000Y-145100000D01*
X178265000Y-145100000D02*
X178265000Y-141900000D01*
%TO.C,U31*%
X142245000Y-102882500D02*
X159025000Y-102882500D01*
X160025000Y-103882500D02*
X160025000Y-109232500D01*
X142245000Y-109232500D02*
X142245000Y-102882500D01*
X159025000Y-102882500D02*
X160025000Y-103882500D01*
X160025000Y-109232500D02*
X142245000Y-109232500D01*
%TO.C,U32*%
X85090000Y-137795000D02*
X101870000Y-137795000D01*
X102870000Y-138795000D02*
X102870000Y-144145000D01*
X101870000Y-137795000D02*
X102870000Y-138795000D01*
X85090000Y-144145000D02*
X85090000Y-137795000D01*
X102870000Y-144145000D02*
X85090000Y-144145000D01*
%TO.C,RG7*%
X183150000Y-103495000D02*
X183150000Y-102245000D01*
X185150000Y-103495000D02*
X183150000Y-103495000D01*
X185150000Y-102245000D02*
X185150000Y-103495000D01*
X183150000Y-102245000D02*
X185150000Y-102245000D01*
%TO.C,CIO1*%
X75362000Y-32550000D02*
X78562000Y-32550000D01*
X78562000Y-30950000D02*
X75762000Y-30950000D01*
X75762000Y-30950000D02*
X75362000Y-31350000D01*
X75362000Y-31350000D02*
X75362000Y-32550000D01*
X78562000Y-32550000D02*
X78562000Y-30950000D01*
%TO.C,U27*%
X200920000Y-97785000D02*
X200920000Y-46985000D01*
X215650000Y-46985000D02*
X215650000Y-96785000D01*
X200920000Y-46985000D02*
X215650000Y-46985000D01*
X214650000Y-97785000D02*
X200920000Y-97785000D01*
X215650000Y-96785000D02*
X214650000Y-97785000D01*
%TO.C,U4*%
X203205000Y-127365000D02*
X203205000Y-132715000D01*
X185425000Y-132715000D02*
X185425000Y-126365000D01*
X185425000Y-126365000D02*
X202205000Y-126365000D01*
X202205000Y-126365000D02*
X203205000Y-127365000D01*
X203205000Y-132715000D02*
X185425000Y-132715000D01*
%TO.C,RSCPU2*%
X171480000Y-44450000D02*
X171480000Y-67350000D01*
X173980000Y-67350000D02*
X173980000Y-44450000D01*
X171480000Y-67350000D02*
X173980000Y-67350000D01*
X171480000Y-64790000D02*
X173980000Y-64790000D01*
X173980000Y-44450000D02*
X171480000Y-44450000D01*
%TO.C,U37*%
X25385000Y-114935000D02*
X44705000Y-114935000D01*
X25385000Y-121285000D02*
X25385000Y-114935000D01*
X44705000Y-114935000D02*
X45705000Y-115935000D01*
X45705000Y-115935000D02*
X45705000Y-121285000D01*
X45705000Y-121285000D02*
X25385000Y-121285000D01*
%TO.C,U34*%
X78740000Y-144145000D02*
X60960000Y-144145000D01*
X78740000Y-138795000D02*
X78740000Y-144145000D01*
X77740000Y-137795000D02*
X78740000Y-138795000D01*
X60960000Y-144145000D02*
X60960000Y-137795000D01*
X60960000Y-137795000D02*
X77740000Y-137795000D01*
%TO.C,JIO4*%
X108040000Y-21035000D02*
X108340000Y-21035000D01*
X102040000Y-17035000D02*
X108040000Y-17035000D01*
X100140000Y-35035000D02*
X100140000Y-21035000D01*
X108040000Y-17035000D02*
X108040000Y-21035000D01*
X108340000Y-21035000D02*
X108340000Y-35035000D01*
X102040000Y-21035000D02*
X102040000Y-17035000D01*
X108340000Y-35035000D02*
X100140000Y-35035000D01*
X100140000Y-21035000D02*
X102040000Y-21035000D01*
%TO.C,RVE1*%
X27442000Y-42910000D02*
X27442000Y-40910000D01*
X28692000Y-40910000D02*
X28692000Y-42910000D01*
X28692000Y-42910000D02*
X27442000Y-42910000D01*
X27442000Y-40910000D02*
X28692000Y-40910000D01*
%TO.C,U39*%
X53610000Y-137795000D02*
X54610000Y-138795000D01*
X54610000Y-138795000D02*
X54610000Y-144145000D01*
X29210000Y-137795000D02*
X53610000Y-137795000D01*
X54610000Y-144145000D02*
X29210000Y-144145000D01*
X29210000Y-144145000D02*
X29210000Y-137795000D01*
%TO.C,U12*%
X151405000Y-137805000D02*
X152405000Y-138805000D01*
X152405000Y-144155000D02*
X134625000Y-144155000D01*
X134625000Y-144155000D02*
X134625000Y-137805000D01*
X134625000Y-137805000D02*
X151405000Y-137805000D01*
X152405000Y-138805000D02*
X152405000Y-144155000D01*
%TO.C,U45*%
X142880000Y-39375000D02*
X149230000Y-39375000D01*
X149230000Y-39375000D02*
X149230000Y-63775000D01*
X148230000Y-64775000D02*
X142880000Y-64775000D01*
X142880000Y-64775000D02*
X142880000Y-39375000D01*
X149230000Y-63775000D02*
X148230000Y-64775000D01*
%TO.C,LIO1*%
X79215000Y-29685000D02*
X76965000Y-29685000D01*
X71915000Y-29685000D02*
X74165000Y-29685000D01*
X71915000Y-22385000D02*
X74165000Y-22385000D01*
X79215000Y-22385000D02*
X79215000Y-29685000D01*
X79215000Y-22385000D02*
X76965000Y-22385000D01*
X71915000Y-29685000D02*
X71915000Y-22385000D01*
X77855000Y-28325000D02*
G75*
G03*
X77855000Y-23745000I-2290000J2290000D01*
G01*
X73275000Y-23745000D02*
G75*
G03*
X73275000Y-28325000I2290000J-2290000D01*
G01*
%TO.C,RPS3*%
X65770000Y-42535000D02*
X63770000Y-42535000D01*
X63770000Y-42535000D02*
X63770000Y-41285000D01*
X63770000Y-41285000D02*
X65770000Y-41285000D01*
X65770000Y-41285000D02*
X65770000Y-42535000D01*
%TO.C,DPS3*%
X221210000Y-59930000D02*
X221210000Y-64530000D01*
X219711020Y-62879440D02*
X218910920Y-61728820D01*
X220460320Y-61728820D02*
X218910920Y-61728820D01*
X218210000Y-59930000D02*
X218210000Y-64530000D01*
X219711020Y-62879440D02*
X220460320Y-61728820D01*
X219711020Y-62879440D02*
X219711020Y-63781140D01*
X218210000Y-59930000D02*
X221210000Y-59930000D01*
X219711020Y-61728820D02*
X219711020Y-60730600D01*
X221210000Y-64530000D02*
X218210000Y-64530000D01*
X218910920Y-62879440D02*
X220511120Y-62879440D01*
%TO.C,JIOKB1*%
X187500000Y-109470000D02*
X187500000Y-106930000D01*
X207820000Y-109470000D02*
X187500000Y-109470000D01*
X207820000Y-107565000D02*
X207820000Y-109470000D01*
X207185000Y-106930000D02*
X207820000Y-107565000D01*
X187500000Y-106930000D02*
X207185000Y-106930000D01*
%TO.C,DIO4*%
X204170000Y-111760000D02*
X204670000Y-111410000D01*
X204670000Y-112110000D02*
X204170000Y-111760000D01*
X205370000Y-111060000D02*
X205370000Y-112460000D01*
X203570000Y-112460000D02*
X203570000Y-111060000D01*
X204170000Y-111410000D02*
X204170000Y-112110000D01*
X204670000Y-111760000D02*
X204920000Y-111760000D01*
X204670000Y-111410000D02*
X204670000Y-112110000D01*
X203570000Y-111060000D02*
X205370000Y-111060000D01*
X205370000Y-112460000D02*
X203570000Y-112460000D01*
X204170000Y-111760000D02*
X203970000Y-111760000D01*
%TO.C,CPF4*%
X206540000Y-130480000D02*
X206540000Y-133680000D01*
X204940000Y-130480000D02*
X206540000Y-130480000D01*
X204940000Y-133680000D02*
X204940000Y-130480000D01*
X206540000Y-133680000D02*
X204940000Y-133680000D01*
%TO.C,U2*%
X207015000Y-144155000D02*
X207015000Y-137805000D01*
X224795000Y-144155000D02*
X207015000Y-144155000D01*
X223795000Y-137805000D02*
X224795000Y-138805000D01*
X224795000Y-138805000D02*
X224795000Y-144155000D01*
X207015000Y-137805000D02*
X223795000Y-137805000D01*
%TO.C,RVE25*%
X43545000Y-65415000D02*
X43545000Y-66665000D01*
X43545000Y-66665000D02*
X41545000Y-66665000D01*
X41545000Y-65415000D02*
X43545000Y-65415000D01*
X41545000Y-66665000D02*
X41545000Y-65415000D01*
%TO.C,SWVF1*%
X91480000Y-15440000D02*
X96480000Y-14940000D01*
X90930000Y-14940000D02*
X96980000Y-14940000D01*
X96480000Y-19940000D02*
X91480000Y-19440000D01*
X91480000Y-17440000D02*
X96480000Y-16940000D01*
X96480000Y-16940000D02*
X91480000Y-16440000D01*
X91480000Y-20440000D02*
X96480000Y-19940000D01*
X91480000Y-18440000D02*
X96480000Y-17940000D01*
X96480000Y-18940000D02*
X91480000Y-18440000D01*
X96480000Y-15940000D02*
X91480000Y-15440000D01*
D16*
X98080000Y-33020000D02*
X98080000Y-21340000D01*
D11*
X91480000Y-16440000D02*
X96480000Y-15940000D01*
X96480000Y-21140000D02*
X91480000Y-20440000D01*
D16*
X89880000Y-22860000D02*
X89880000Y-34540000D01*
X89880000Y-34540000D02*
X96520000Y-34540000D01*
D11*
X96480000Y-17940000D02*
X91480000Y-17440000D01*
D16*
X98080000Y-21340000D02*
X91440000Y-21340000D01*
D11*
X91480000Y-19440000D02*
X96480000Y-18940000D01*
X91980000Y-21140000D02*
X95980000Y-21140000D01*
X95980000Y-21140000D02*
X95980000Y-9540000D01*
X95980000Y-9540000D02*
X91980000Y-9540000D01*
X91980000Y-9540000D02*
X91980000Y-21140000D01*
X89680000Y-21082000D02*
X98298000Y-21082000D01*
X98298000Y-21082000D02*
X98298000Y-34798000D01*
X98298000Y-34798000D02*
X89680000Y-34798000D01*
X89680000Y-34798000D02*
X89680000Y-21082000D01*
%TO.C,DIO3*%
X77686000Y-35942000D02*
X79286000Y-35942000D01*
X78486000Y-37842000D02*
X78486000Y-38342000D01*
X79286000Y-39242000D02*
X77686000Y-39242000D01*
X79286000Y-35942000D02*
X79286000Y-39242000D01*
X78486000Y-36842000D02*
X78486000Y-37242000D01*
X78486000Y-37242000D02*
X77936000Y-37242000D01*
X78486000Y-37242000D02*
X79036000Y-37242000D01*
X77686000Y-39242000D02*
X77686000Y-35942000D01*
X78086000Y-37842000D02*
X78486000Y-37242000D01*
X78886000Y-37842000D02*
X78086000Y-37842000D01*
X78486000Y-37242000D02*
X78886000Y-37842000D01*
%TO.C,CPF26*%
X192090000Y-73185000D02*
X188890000Y-73185000D01*
X192090000Y-71585000D02*
X192090000Y-73185000D01*
X188890000Y-73185000D02*
X188890000Y-71585000D01*
X188890000Y-71585000D02*
X192090000Y-71585000D01*
%TO.C,CPF8*%
X130340000Y-141900000D02*
X130340000Y-145100000D01*
X128740000Y-145100000D02*
X128740000Y-141900000D01*
X128740000Y-141900000D02*
X130340000Y-141900000D01*
X130340000Y-145100000D02*
X128740000Y-145100000D01*
%TO.C,RVE16*%
X23505000Y-98060000D02*
X24755000Y-98060000D01*
X23505000Y-100060000D02*
X23505000Y-98060000D01*
X24755000Y-100060000D02*
X23505000Y-100060000D01*
X24755000Y-98060000D02*
X24755000Y-100060000D01*
%TO.C,CPF28*%
X179400000Y-73195000D02*
X176200000Y-73195000D01*
X176200000Y-73195000D02*
X176200000Y-71595000D01*
X176200000Y-71595000D02*
X179400000Y-71595000D01*
X179400000Y-71595000D02*
X179400000Y-73195000D01*
%TO.C,U16*%
X83820000Y-109855000D02*
X83820000Y-103505000D01*
X83820000Y-103505000D02*
X108220000Y-103505000D01*
X109220000Y-104505000D02*
X109220000Y-109855000D01*
X109220000Y-109855000D02*
X83820000Y-109855000D01*
X108220000Y-103505000D02*
X109220000Y-104505000D01*
%TO.C,RPI3*%
X60315000Y-24495000D02*
X59065000Y-24495000D01*
X59065000Y-24495000D02*
X59065000Y-22495000D01*
X60315000Y-22495000D02*
X60315000Y-24495000D01*
X59065000Y-22495000D02*
X60315000Y-22495000D01*
%TO.C,JPVE3*%
X22250000Y-88646000D02*
X22250000Y-81661000D01*
X24790000Y-88646000D02*
X22250000Y-88646000D01*
X22250000Y-81661000D02*
X22885000Y-81026000D01*
X22885000Y-81026000D02*
X24790000Y-81026000D01*
X24790000Y-81026000D02*
X24790000Y-88646000D01*
%TO.C,CPF16*%
X110960000Y-107620000D02*
X112560000Y-107620000D01*
X112560000Y-107620000D02*
X112560000Y-110820000D01*
X110960000Y-110820000D02*
X110960000Y-107620000D01*
X112560000Y-110820000D02*
X110960000Y-110820000D01*
%TO.C,DIO2*%
X73214000Y-38858000D02*
X73214000Y-37058000D01*
X73914000Y-38158000D02*
X73914000Y-38408000D01*
X74614000Y-37058000D02*
X74614000Y-38858000D01*
X73914000Y-37658000D02*
X74264000Y-38158000D01*
X73914000Y-37658000D02*
X73914000Y-37458000D01*
X74264000Y-38158000D02*
X73564000Y-38158000D01*
X74614000Y-38858000D02*
X73214000Y-38858000D01*
X73564000Y-38158000D02*
X73914000Y-37658000D01*
X73214000Y-37058000D02*
X74614000Y-37058000D01*
X74264000Y-37658000D02*
X73564000Y-37658000D01*
%TO.C,CPF47*%
X117780000Y-85890000D02*
X117780000Y-84290000D01*
X120980000Y-85890000D02*
X117780000Y-85890000D01*
X117780000Y-84290000D02*
X120980000Y-84290000D01*
X120980000Y-84290000D02*
X120980000Y-85890000D01*
%TO.C,RCPU1*%
X221345000Y-83830000D02*
X221345000Y-85080000D01*
X219345000Y-83830000D02*
X221345000Y-83830000D01*
X219345000Y-85080000D02*
X219345000Y-83830000D01*
X221345000Y-85080000D02*
X219345000Y-85080000D01*
%TO.C,U36*%
X52070000Y-121285000D02*
X52070000Y-114935000D01*
X76470000Y-114935000D02*
X77470000Y-115935000D01*
X77470000Y-121285000D02*
X52070000Y-121285000D01*
X77470000Y-115935000D02*
X77470000Y-121285000D01*
X52070000Y-114935000D02*
X76470000Y-114935000D01*
%TO.C,CPF9*%
X179870000Y-130480000D02*
X179870000Y-133680000D01*
X179870000Y-133680000D02*
X178270000Y-133680000D01*
X178270000Y-133680000D02*
X178270000Y-130480000D01*
X178270000Y-130480000D02*
X179870000Y-130480000D01*
%TO.C,U26*%
X183515000Y-74930000D02*
X183515000Y-99330000D01*
X177165000Y-74930000D02*
X183515000Y-74930000D01*
X182515000Y-100330000D02*
X177165000Y-100330000D01*
X177165000Y-100330000D02*
X177165000Y-74930000D01*
X183515000Y-99330000D02*
X182515000Y-100330000D01*
%TO.C,CG3*%
X117780000Y-28410000D02*
X117780000Y-30010000D01*
X120980000Y-28410000D02*
X117780000Y-28410000D01*
X120980000Y-29610000D02*
X120980000Y-28410000D01*
X120580000Y-30010000D02*
X120980000Y-29610000D01*
X117780000Y-30010000D02*
X120580000Y-30010000D01*
%TO.C,CIO2*%
X75432500Y-33284000D02*
X77432500Y-33284000D01*
X77432500Y-33284000D02*
X77432500Y-34534000D01*
X77432500Y-34534000D02*
X75432500Y-34534000D01*
X75432500Y-34534000D02*
X75432500Y-33284000D01*
%TO.C,RVE8*%
X34915000Y-100060000D02*
X33665000Y-100060000D01*
X33665000Y-98060000D02*
X34915000Y-98060000D01*
X33665000Y-100060000D02*
X33665000Y-98060000D01*
X34915000Y-98060000D02*
X34915000Y-100060000D01*
%TO.C,RVE21*%
X34915000Y-94250000D02*
X34915000Y-96250000D01*
X34915000Y-96250000D02*
X33665000Y-96250000D01*
X33665000Y-96250000D02*
X33665000Y-94250000D01*
X33665000Y-94250000D02*
X34915000Y-94250000D01*
%TO.C,CG4*%
X181245000Y-133975000D02*
X181245000Y-132725000D01*
X183245000Y-133975000D02*
X181245000Y-133975000D01*
X183245000Y-132725000D02*
X183245000Y-133975000D01*
X181245000Y-132725000D02*
X183245000Y-132725000D01*
%TO.C,CPF19*%
X102400000Y-36500000D02*
X102400000Y-39700000D01*
X100800000Y-36500000D02*
X102400000Y-36500000D01*
X100800000Y-39700000D02*
X100800000Y-36500000D01*
X102400000Y-39700000D02*
X100800000Y-39700000D01*
%TO.C,U41*%
X25405000Y-132715000D02*
X25405000Y-126365000D01*
X25405000Y-126365000D02*
X44725000Y-126365000D01*
X45725000Y-132715000D02*
X25405000Y-132715000D01*
X44725000Y-126365000D02*
X45725000Y-127365000D01*
X45725000Y-127365000D02*
X45725000Y-132715000D01*
%TO.C,RG6*%
X181245000Y-131435000D02*
X181245000Y-130185000D01*
X181245000Y-130185000D02*
X183245000Y-130185000D01*
X183245000Y-131435000D02*
X181245000Y-131435000D01*
X183245000Y-130185000D02*
X183245000Y-131435000D01*
%TO.C,CPF30*%
X145885000Y-88570000D02*
X147485000Y-88570000D01*
X147485000Y-88570000D02*
X147485000Y-91770000D01*
X147485000Y-91770000D02*
X145885000Y-91770000D01*
X145885000Y-91770000D02*
X145885000Y-88570000D01*
%TO.C,QG1*%
X180355000Y-126185000D02*
X180355000Y-129085000D01*
X179380000Y-126185000D02*
X180355000Y-126185000D01*
X179055000Y-129085000D02*
X179055000Y-126510000D01*
X180355000Y-129085000D02*
X179055000Y-129085000D01*
X179055000Y-126510000D02*
X179380000Y-126185000D01*
%TO.C,RG2*%
X207655000Y-114570000D02*
X208905000Y-114570000D01*
X208905000Y-114570000D02*
X208905000Y-116570000D01*
X207655000Y-116570000D02*
X207655000Y-114570000D01*
X208905000Y-116570000D02*
X207655000Y-116570000D01*
%TO.C,RPS2*%
X59960000Y-42535000D02*
X59960000Y-41285000D01*
X59960000Y-41285000D02*
X61960000Y-41285000D01*
X61960000Y-42535000D02*
X59960000Y-42535000D01*
X61960000Y-41285000D02*
X61960000Y-42535000D01*
%TO.C,DIO7*%
X194010000Y-111760000D02*
X194510000Y-111410000D01*
X195210000Y-112460000D02*
X193410000Y-112460000D01*
X193410000Y-111060000D02*
X195210000Y-111060000D01*
X193410000Y-112460000D02*
X193410000Y-111060000D01*
X194510000Y-112110000D02*
X194010000Y-111760000D01*
X194510000Y-111760000D02*
X194760000Y-111760000D01*
X194010000Y-111760000D02*
X193810000Y-111760000D01*
X194010000Y-111410000D02*
X194010000Y-112110000D01*
X194510000Y-111410000D02*
X194510000Y-112110000D01*
X195210000Y-111060000D02*
X195210000Y-112460000D01*
%TO.C,U14*%
X101605000Y-121285000D02*
X83825000Y-121285000D01*
X83825000Y-114935000D02*
X100605000Y-114935000D01*
X101605000Y-115935000D02*
X101605000Y-121285000D01*
X100605000Y-114935000D02*
X101605000Y-115935000D01*
X83825000Y-121285000D02*
X83825000Y-114935000D01*
%TO.C,U43*%
X132705000Y-64765000D02*
X132705000Y-39365000D01*
X139055000Y-39365000D02*
X139055000Y-63765000D01*
X138055000Y-64765000D02*
X132705000Y-64765000D01*
X139055000Y-63765000D02*
X138055000Y-64765000D01*
X132705000Y-39365000D02*
X139055000Y-39365000D01*
%TO.C,U24*%
X189855000Y-100325000D02*
X189855000Y-74925000D01*
X196205000Y-99325000D02*
X195205000Y-100325000D01*
X195205000Y-100325000D02*
X189855000Y-100325000D01*
X189855000Y-74925000D02*
X196205000Y-74925000D01*
X196205000Y-74925000D02*
X196205000Y-99325000D01*
%TO.C,U40*%
X77475000Y-132715000D02*
X52075000Y-132715000D01*
X52075000Y-126365000D02*
X76475000Y-126365000D01*
X76475000Y-126365000D02*
X77475000Y-127365000D01*
X52075000Y-132715000D02*
X52075000Y-126365000D01*
X77475000Y-127365000D02*
X77475000Y-132715000D01*
%TO.C,CPF33*%
X104610000Y-133387500D02*
X104610000Y-130187500D01*
X106210000Y-130187500D02*
X106210000Y-133387500D01*
X104610000Y-130187500D02*
X106210000Y-130187500D01*
X106210000Y-133387500D02*
X104610000Y-133387500D01*
%TO.C,JIO2*%
X88555000Y-35035000D02*
X80355000Y-35035000D01*
X88555000Y-21035000D02*
X88555000Y-35035000D01*
X80355000Y-21035000D02*
X82255000Y-21035000D01*
X80355000Y-35035000D02*
X80355000Y-21035000D01*
X82255000Y-17035000D02*
X88255000Y-17035000D01*
X88255000Y-21035000D02*
X88555000Y-21035000D01*
X82255000Y-21035000D02*
X82255000Y-17035000D01*
X88255000Y-17035000D02*
X88255000Y-21035000D01*
%TO.C,RVE7*%
X36205000Y-98060000D02*
X37455000Y-98060000D01*
X37455000Y-98060000D02*
X37455000Y-100060000D01*
X37455000Y-100060000D02*
X36205000Y-100060000D01*
X36205000Y-100060000D02*
X36205000Y-98060000D01*
%TO.C,RIO11*%
X126730000Y-31125000D02*
X126730000Y-32375000D01*
X126730000Y-32375000D02*
X124730000Y-32375000D01*
X124730000Y-32375000D02*
X124730000Y-31125000D01*
X124730000Y-31125000D02*
X126730000Y-31125000D01*
%TO.C,CVE9*%
X43825000Y-83550000D02*
X43825000Y-81550000D01*
X45075000Y-81550000D02*
X45075000Y-83550000D01*
X43825000Y-81550000D02*
X45075000Y-81550000D01*
X45075000Y-83550000D02*
X43825000Y-83550000D01*
%TO.C,RVE5*%
X27295000Y-98060000D02*
X27295000Y-100060000D01*
X27295000Y-100060000D02*
X26045000Y-100060000D01*
X26045000Y-98060000D02*
X27295000Y-98060000D01*
X26045000Y-100060000D02*
X26045000Y-98060000D01*
%TD*%
M02*
