%TF.GenerationSoftware,KiCad,Pcbnew,6.0.11-2627ca5db0~126~ubuntu22.04.1*%
%TF.CreationDate,2023-12-06T09:32:18+02:00*%
%TF.ProjectId,ZX-Spectrum-Pentagon,5a582d53-7065-4637-9472-756d2d50656e,pcb_v0.4*%
%TF.SameCoordinates,Original*%
%TF.FileFunction,Soldermask,Bot*%
%TF.FilePolarity,Negative*%
%FSLAX46Y46*%
G04 Gerber Fmt 4.6, Leading zero omitted, Abs format (unit mm)*
G04 Created by KiCad (PCBNEW 6.0.11-2627ca5db0~126~ubuntu22.04.1) date 2023-12-06 09:32:18*
%MOMM*%
%LPD*%
G01*
G04 APERTURE LIST*
G04 Aperture macros list*
%AMRoundRect*
0 Rectangle with rounded corners*
0 $1 Rounding radius*
0 $2 $3 $4 $5 $6 $7 $8 $9 X,Y pos of 4 corners*
0 Add a 4 corners polygon primitive as box body*
4,1,4,$2,$3,$4,$5,$6,$7,$8,$9,$2,$3,0*
0 Add four circle primitives for the rounded corners*
1,1,$1+$1,$2,$3*
1,1,$1+$1,$4,$5*
1,1,$1+$1,$6,$7*
1,1,$1+$1,$8,$9*
0 Add four rect primitives between the rounded corners*
20,1,$1+$1,$2,$3,$4,$5,0*
20,1,$1+$1,$4,$5,$6,$7,0*
20,1,$1+$1,$6,$7,$8,$9,0*
20,1,$1+$1,$8,$9,$2,$3,0*%
G04 Aperture macros list end*
%TA.AperFunction,Profile*%
%ADD10C,0.200000*%
%TD*%
%ADD11R,1.422400X1.422400*%
%ADD12C,1.422400*%
%ADD13R,1.408000X1.408000*%
%ADD14C,1.408000*%
%ADD15O,1.500000X3.000000*%
%ADD16O,3.000000X1.500000*%
%ADD17C,1.500000*%
%ADD18R,1.600000X1.600000*%
%ADD19O,1.600000X1.600000*%
%ADD20RoundRect,0.460000X-0.540000X-2.890000X0.540000X-2.890000X0.540000X2.890000X-0.540000X2.890000X0*%
%ADD21RoundRect,0.280000X-0.720000X-3.070000X0.720000X-3.070000X0.720000X3.070000X-0.720000X3.070000X0*%
%ADD22R,1.700000X1.700000*%
%ADD23O,1.700000X1.700000*%
%ADD24C,2.100000*%
%ADD25C,1.750000*%
%ADD26C,0.800000*%
%ADD27C,6.400000*%
%ADD28R,4.400000X1.800000*%
%ADD29O,4.000000X1.800000*%
%ADD30O,1.800000X4.000000*%
%ADD31RoundRect,0.250000X0.600000X-0.600000X0.600000X0.600000X-0.600000X0.600000X-0.600000X-0.600000X0*%
%ADD32C,1.700000*%
%ADD33O,2.800000X1.800000*%
%ADD34O,1.500000X2.300000*%
%ADD35O,2.300000X1.500000*%
G04 APERTURE END LIST*
D10*
X20320000Y-149320000D02*
X20320000Y-20320000D01*
X233420000Y-149320000D02*
X20320000Y-149320000D01*
X211630000Y-20320000D02*
X233420000Y-20320000D01*
X20320000Y-20320000D02*
X133250000Y-20320000D01*
X233420000Y-20320000D02*
X233420000Y-149320000D01*
%TO.C,XMCPU1*%
X211630000Y-28720000D02*
X211630000Y-20320000D01*
X133250000Y-20320000D02*
X133250000Y-28720000D01*
X209330000Y-28720000D02*
X211630000Y-28720000D01*
X149310000Y-20320000D02*
X209330000Y-20320000D01*
X147310000Y-20320000D02*
X147310000Y-28720000D01*
X135550000Y-20320000D02*
X147310000Y-20320000D01*
X135550000Y-28720000D02*
X135550000Y-20320000D01*
X147310000Y-28720000D02*
X149310000Y-28720000D01*
X209330000Y-20320000D02*
X209330000Y-28720000D01*
X149310000Y-28720000D02*
X149310000Y-20320000D01*
X133250000Y-28720000D02*
X135550000Y-28720000D01*
%TD*%
D11*
%TO.C,U30*%
X154305000Y-88900000D03*
D12*
X151765000Y-91440000D03*
X154305000Y-91440000D03*
X151765000Y-93980000D03*
X154305000Y-96520000D03*
X154305000Y-93980000D03*
X156845000Y-96520000D03*
X156845000Y-93980000D03*
X159385000Y-96520000D03*
X159385000Y-93980000D03*
X161925000Y-96520000D03*
X161925000Y-93980000D03*
X164465000Y-96520000D03*
X167005000Y-93980000D03*
X164465000Y-93980000D03*
X167005000Y-91440000D03*
X164465000Y-91440000D03*
X167005000Y-88900000D03*
X164465000Y-88900000D03*
X167005000Y-86360000D03*
X164465000Y-83820000D03*
X164465000Y-86360000D03*
X161925000Y-83820000D03*
X161925000Y-86360000D03*
X159385000Y-83820000D03*
X159385000Y-86360000D03*
X156845000Y-83820000D03*
X156845000Y-86360000D03*
X154305000Y-83820000D03*
X151765000Y-86360000D03*
X154305000Y-86360000D03*
X151765000Y-88900000D03*
%TD*%
D13*
%TO.C,JVE2*%
X26670000Y-29210000D03*
D14*
X29270000Y-29210000D03*
X24570000Y-29210000D03*
X26670000Y-31710000D03*
X31370000Y-29210000D03*
X24570000Y-31710000D03*
X28870000Y-31710000D03*
X31370000Y-31710000D03*
D15*
X21220000Y-26210000D03*
X34720000Y-26210000D03*
D16*
X27970000Y-25410000D03*
%TD*%
D17*
%TO.C,YG1*%
X212090000Y-114390000D03*
X212090000Y-119270000D03*
%TD*%
D18*
%TO.C,U15*%
X151135000Y-125730000D03*
D19*
X148595000Y-125730000D03*
X146055000Y-125730000D03*
X143515000Y-125730000D03*
X140975000Y-125730000D03*
X138435000Y-125730000D03*
X135895000Y-125730000D03*
X135895000Y-133350000D03*
X138435000Y-133350000D03*
X140975000Y-133350000D03*
X143515000Y-133350000D03*
X146055000Y-133350000D03*
X148595000Y-133350000D03*
X151135000Y-133350000D03*
%TD*%
D18*
%TO.C,U48*%
X95250000Y-81280000D03*
D19*
X95250000Y-78740000D03*
X95250000Y-76200000D03*
X95250000Y-73660000D03*
X95250000Y-71120000D03*
X95250000Y-68580000D03*
X95250000Y-66040000D03*
X95250000Y-63500000D03*
X87630000Y-63500000D03*
X87630000Y-66040000D03*
X87630000Y-68580000D03*
X87630000Y-71120000D03*
X87630000Y-73660000D03*
X87630000Y-76200000D03*
X87630000Y-78740000D03*
X87630000Y-81280000D03*
%TD*%
D18*
%TO.C,U18*%
X76200000Y-69215000D03*
D19*
X73660000Y-69215000D03*
X71120000Y-69215000D03*
X68580000Y-69215000D03*
X66040000Y-69215000D03*
X63500000Y-69215000D03*
X60960000Y-69215000D03*
X58420000Y-69215000D03*
X55880000Y-69215000D03*
X53340000Y-69215000D03*
X53340000Y-76835000D03*
X55880000Y-76835000D03*
X58420000Y-76835000D03*
X60960000Y-76835000D03*
X63500000Y-76835000D03*
X66040000Y-76835000D03*
X68580000Y-76835000D03*
X71120000Y-76835000D03*
X73660000Y-76835000D03*
X76200000Y-76835000D03*
%TD*%
D20*
%TO.C,XMCPU1*%
X138150000Y-24130000D03*
D21*
X140690000Y-24130000D03*
X143230000Y-24130000D03*
X145770000Y-24130000D03*
X150850000Y-24130000D03*
X153390000Y-24130000D03*
X155930000Y-24130000D03*
X158470000Y-24130000D03*
X161010000Y-24130000D03*
X163550000Y-24130000D03*
X166090000Y-24130000D03*
X168630000Y-24130000D03*
X171170000Y-24130000D03*
X173710000Y-24130000D03*
X176250000Y-24130000D03*
X178790000Y-24130000D03*
X181330000Y-24130000D03*
X183870000Y-24130000D03*
X186410000Y-24130000D03*
X188950000Y-24130000D03*
X191490000Y-24130000D03*
X194030000Y-24130000D03*
X196570000Y-24130000D03*
X199110000Y-24130000D03*
X201650000Y-24130000D03*
X204190000Y-24130000D03*
X206730000Y-24130000D03*
%TD*%
D18*
%TO.C,U19*%
X81280000Y-45710000D03*
D19*
X78740000Y-45710000D03*
X76200000Y-45710000D03*
X73660000Y-45710000D03*
X71120000Y-45710000D03*
X68580000Y-45710000D03*
X66040000Y-45710000D03*
X63500000Y-45710000D03*
X60960000Y-45710000D03*
X58420000Y-45710000D03*
X55880000Y-45710000D03*
X53340000Y-45710000D03*
X50800000Y-45710000D03*
X48260000Y-45710000D03*
X45720000Y-45710000D03*
X43180000Y-45710000D03*
X40640000Y-45710000D03*
X38100000Y-45710000D03*
X35560000Y-45710000D03*
X33020000Y-45710000D03*
X33020000Y-60950000D03*
X35560000Y-60950000D03*
X38100000Y-60950000D03*
X40640000Y-60950000D03*
X43180000Y-60950000D03*
X45720000Y-60950000D03*
X48260000Y-60950000D03*
X50800000Y-60950000D03*
X53340000Y-60950000D03*
X55880000Y-60950000D03*
X58420000Y-60950000D03*
X60960000Y-60950000D03*
X63500000Y-60950000D03*
X66040000Y-60950000D03*
X68580000Y-60950000D03*
X71120000Y-60950000D03*
X73660000Y-60950000D03*
X76200000Y-60950000D03*
X78740000Y-60950000D03*
X81280000Y-60950000D03*
%TD*%
D22*
%TO.C,TP1*%
X228600000Y-95250000D03*
D23*
X231140000Y-95250000D03*
%TD*%
D18*
%TO.C,SWCPU1*%
X151130000Y-78740000D03*
D19*
X153670000Y-78740000D03*
X156210000Y-78740000D03*
X156210000Y-71120000D03*
X153670000Y-71120000D03*
X151130000Y-71120000D03*
%TD*%
D22*
%TO.C,JPVE1*%
X22835000Y-41895000D03*
D23*
X22835000Y-39355000D03*
X22835000Y-36815000D03*
%TD*%
D18*
%TO.C,U25*%
X196840000Y-68575000D03*
D19*
X196840000Y-66035000D03*
X196840000Y-63495000D03*
X196840000Y-60955000D03*
X196840000Y-58415000D03*
X196840000Y-55875000D03*
X196840000Y-53335000D03*
X196840000Y-50795000D03*
X196840000Y-48255000D03*
X196840000Y-45715000D03*
X189220000Y-45715000D03*
X189220000Y-48255000D03*
X189220000Y-50795000D03*
X189220000Y-53335000D03*
X189220000Y-55875000D03*
X189220000Y-58415000D03*
X189220000Y-60955000D03*
X189220000Y-63495000D03*
X189220000Y-66035000D03*
X189220000Y-68575000D03*
%TD*%
D22*
%TO.C,JIO5*%
X49530000Y-87625000D03*
D23*
X49530000Y-90165000D03*
%TD*%
D24*
%TO.C,SWG1*%
X120960000Y-25697500D03*
X113950000Y-25697500D03*
D25*
X115200000Y-23207500D03*
X119700000Y-23207500D03*
%TD*%
D18*
%TO.C,U47*%
X125730000Y-81280000D03*
D19*
X125730000Y-78740000D03*
X125730000Y-76200000D03*
X125730000Y-73660000D03*
X125730000Y-71120000D03*
X125730000Y-68580000D03*
X125730000Y-66040000D03*
X125730000Y-63500000D03*
X118110000Y-63500000D03*
X118110000Y-66040000D03*
X118110000Y-68580000D03*
X118110000Y-71120000D03*
X118110000Y-73660000D03*
X118110000Y-76200000D03*
X118110000Y-78740000D03*
X118110000Y-81280000D03*
%TD*%
D26*
%TO.C,H5*%
X25827056Y-146477056D03*
X24130000Y-147180000D03*
X22432944Y-146477056D03*
D27*
X24130000Y-144780000D03*
D26*
X22432944Y-143082944D03*
X26530000Y-144780000D03*
X24130000Y-142380000D03*
X25827056Y-143082944D03*
X21730000Y-144780000D03*
%TD*%
D18*
%TO.C,U20*%
X73655000Y-48250000D03*
D19*
X71115000Y-48250000D03*
X68575000Y-48250000D03*
X66035000Y-48250000D03*
X63495000Y-48250000D03*
X60955000Y-48250000D03*
X58415000Y-48250000D03*
X55875000Y-48250000D03*
X53335000Y-48250000D03*
X50795000Y-48250000D03*
X48255000Y-48250000D03*
X45715000Y-48250000D03*
X43175000Y-48250000D03*
X40635000Y-48250000D03*
X40635000Y-63490000D03*
X43175000Y-63490000D03*
X45715000Y-63490000D03*
X48255000Y-63490000D03*
X50795000Y-63490000D03*
X53335000Y-63490000D03*
X55875000Y-63490000D03*
X58415000Y-63490000D03*
X60955000Y-63490000D03*
X63495000Y-63490000D03*
X66035000Y-63490000D03*
X68575000Y-63490000D03*
X71115000Y-63490000D03*
X73655000Y-63490000D03*
%TD*%
D22*
%TO.C,JIOKB2*%
X58420000Y-98425000D03*
D23*
X60960000Y-98425000D03*
X63500000Y-98425000D03*
X66040000Y-98425000D03*
X68580000Y-98425000D03*
X71120000Y-98425000D03*
X73660000Y-98425000D03*
X76200000Y-98425000D03*
%TD*%
D18*
%TO.C,U7*%
X175260000Y-137160000D03*
D19*
X172720000Y-137160000D03*
X170180000Y-137160000D03*
X167640000Y-137160000D03*
X165100000Y-137160000D03*
X162560000Y-137160000D03*
X160020000Y-137160000D03*
X160020000Y-144780000D03*
X162560000Y-144780000D03*
X165100000Y-144780000D03*
X167640000Y-144780000D03*
X170180000Y-144780000D03*
X172720000Y-144780000D03*
X175260000Y-144780000D03*
%TD*%
D18*
%TO.C,U23*%
X76200000Y-80010000D03*
D19*
X73660000Y-80010000D03*
X71120000Y-80010000D03*
X68580000Y-80010000D03*
X66040000Y-80010000D03*
X63500000Y-80010000D03*
X60960000Y-80010000D03*
X58420000Y-80010000D03*
X55880000Y-80010000D03*
X53340000Y-80010000D03*
X53340000Y-87630000D03*
X55880000Y-87630000D03*
X58420000Y-87630000D03*
X60960000Y-87630000D03*
X63500000Y-87630000D03*
X66040000Y-87630000D03*
X68580000Y-87630000D03*
X71120000Y-87630000D03*
X73660000Y-87630000D03*
X76200000Y-87630000D03*
%TD*%
D18*
%TO.C,U42*%
X115570000Y-81280000D03*
D19*
X115570000Y-78740000D03*
X115570000Y-76200000D03*
X115570000Y-73660000D03*
X115570000Y-71120000D03*
X115570000Y-68580000D03*
X115570000Y-66040000D03*
X115570000Y-63500000D03*
X107950000Y-63500000D03*
X107950000Y-66040000D03*
X107950000Y-68580000D03*
X107950000Y-71120000D03*
X107950000Y-73660000D03*
X107950000Y-76200000D03*
X107950000Y-78740000D03*
X107950000Y-81280000D03*
%TD*%
D17*
%TO.C,YVE1*%
X40005000Y-84545000D03*
X40005000Y-89425000D03*
%TD*%
D18*
%TO.C,U38*%
X44450000Y-102870000D03*
D19*
X41910000Y-102870000D03*
X39370000Y-102870000D03*
X36830000Y-102870000D03*
X34290000Y-102870000D03*
X31750000Y-102870000D03*
X29210000Y-102870000D03*
X26670000Y-102870000D03*
X26670000Y-110490000D03*
X29210000Y-110490000D03*
X31750000Y-110490000D03*
X34290000Y-110490000D03*
X36830000Y-110490000D03*
X39370000Y-110490000D03*
X41910000Y-110490000D03*
X44450000Y-110490000D03*
%TD*%
D18*
%TO.C,U44*%
X87615000Y-57155000D03*
D19*
X90155000Y-57155000D03*
X92695000Y-57155000D03*
X95235000Y-57155000D03*
X97775000Y-57155000D03*
X100315000Y-57155000D03*
X102855000Y-57155000D03*
X105395000Y-57155000D03*
X107935000Y-57155000D03*
X110475000Y-57155000D03*
X113015000Y-57155000D03*
X115555000Y-57155000D03*
X118095000Y-57155000D03*
X120635000Y-57155000D03*
X123175000Y-57155000D03*
X125715000Y-57155000D03*
X125715000Y-41915000D03*
X123175000Y-41915000D03*
X120635000Y-41915000D03*
X118095000Y-41915000D03*
X115555000Y-41915000D03*
X113015000Y-41915000D03*
X110475000Y-41915000D03*
X107935000Y-41915000D03*
X105395000Y-41915000D03*
X102855000Y-41915000D03*
X100315000Y-41915000D03*
X97775000Y-41915000D03*
X95235000Y-41915000D03*
X92695000Y-41915000D03*
X90155000Y-41915000D03*
X87615000Y-41915000D03*
%TD*%
D27*
%TO.C,H2*%
X215900000Y-39370000D03*
D26*
X218300000Y-39370000D03*
X217597056Y-37672944D03*
X214202944Y-37672944D03*
X215900000Y-36970000D03*
X217597056Y-41067056D03*
X213500000Y-39370000D03*
X215900000Y-41770000D03*
X214202944Y-41067056D03*
%TD*%
D18*
%TO.C,U1*%
X201930000Y-114300000D03*
D19*
X199390000Y-114300000D03*
X196850000Y-114300000D03*
X194310000Y-114300000D03*
X191770000Y-114300000D03*
X189230000Y-114300000D03*
X186690000Y-114300000D03*
X186690000Y-121920000D03*
X189230000Y-121920000D03*
X191770000Y-121920000D03*
X194310000Y-121920000D03*
X196850000Y-121920000D03*
X199390000Y-121920000D03*
X201930000Y-121920000D03*
%TD*%
D18*
%TO.C,U11*%
X199395000Y-137170000D03*
D19*
X196855000Y-137170000D03*
X194315000Y-137170000D03*
X191775000Y-137170000D03*
X189235000Y-137170000D03*
X186695000Y-137170000D03*
X184155000Y-137170000D03*
X184155000Y-144790000D03*
X186695000Y-144790000D03*
X189235000Y-144790000D03*
X191775000Y-144790000D03*
X194315000Y-144790000D03*
X196855000Y-144790000D03*
X199395000Y-144790000D03*
%TD*%
D18*
%TO.C,U5*%
X127000000Y-125730000D03*
D19*
X124460000Y-125730000D03*
X121920000Y-125730000D03*
X119380000Y-125730000D03*
X116840000Y-125730000D03*
X114300000Y-125730000D03*
X111760000Y-125730000D03*
X109220000Y-125730000D03*
X109220000Y-133350000D03*
X111760000Y-133350000D03*
X114300000Y-133350000D03*
X116840000Y-133350000D03*
X119380000Y-133350000D03*
X121920000Y-133350000D03*
X124460000Y-133350000D03*
X127000000Y-133350000D03*
%TD*%
D18*
%TO.C,RSIO1*%
X73660000Y-92710000D03*
D19*
X71120000Y-92710000D03*
X68580000Y-92710000D03*
X66040000Y-92710000D03*
X63500000Y-92710000D03*
X60960000Y-92710000D03*
X58420000Y-92710000D03*
X55880000Y-92710000D03*
X53340000Y-92710000D03*
%TD*%
D18*
%TO.C,U21*%
X48260000Y-66040000D03*
D19*
X50800000Y-66040000D03*
X53340000Y-66040000D03*
X55880000Y-66040000D03*
X58420000Y-66040000D03*
X60960000Y-66040000D03*
X63500000Y-66040000D03*
X66040000Y-66040000D03*
X68580000Y-66040000D03*
X71120000Y-66040000D03*
X73660000Y-66040000D03*
X76200000Y-66040000D03*
X76200000Y-50800000D03*
X73660000Y-50800000D03*
X71120000Y-50800000D03*
X68580000Y-50800000D03*
X66040000Y-50800000D03*
X63500000Y-50800000D03*
X60960000Y-50800000D03*
X58420000Y-50800000D03*
X55880000Y-50800000D03*
X53340000Y-50800000D03*
X50800000Y-50800000D03*
X48260000Y-50800000D03*
%TD*%
D18*
%TO.C,RSCPU1*%
X172720000Y-96520000D03*
D19*
X172720000Y-93980000D03*
X172720000Y-91440000D03*
X172720000Y-88900000D03*
X172720000Y-86360000D03*
X172720000Y-83820000D03*
X172720000Y-81280000D03*
X172720000Y-78740000D03*
X172720000Y-76200000D03*
%TD*%
D18*
%TO.C,U13*%
X226065000Y-125730000D03*
D19*
X223525000Y-125730000D03*
X220985000Y-125730000D03*
X218445000Y-125730000D03*
X215905000Y-125730000D03*
X213365000Y-125730000D03*
X210825000Y-125730000D03*
X210825000Y-133350000D03*
X213365000Y-133350000D03*
X215905000Y-133350000D03*
X218445000Y-133350000D03*
X220985000Y-133350000D03*
X223525000Y-133350000D03*
X226065000Y-133350000D03*
%TD*%
D18*
%TO.C,U46*%
X105410000Y-81280000D03*
D19*
X105410000Y-78740000D03*
X105410000Y-76200000D03*
X105410000Y-73660000D03*
X105410000Y-71120000D03*
X105410000Y-68580000D03*
X105410000Y-66040000D03*
X105410000Y-63500000D03*
X97790000Y-63500000D03*
X97790000Y-66040000D03*
X97790000Y-68580000D03*
X97790000Y-71120000D03*
X97790000Y-73660000D03*
X97790000Y-76200000D03*
X97790000Y-78740000D03*
X97790000Y-81280000D03*
%TD*%
D18*
%TO.C,U35*%
X76200000Y-102870000D03*
D19*
X73660000Y-102870000D03*
X71120000Y-102870000D03*
X68580000Y-102870000D03*
X66040000Y-102870000D03*
X63500000Y-102870000D03*
X60960000Y-102870000D03*
X58420000Y-102870000D03*
X55880000Y-102870000D03*
X53340000Y-102870000D03*
X53340000Y-110490000D03*
X55880000Y-110490000D03*
X58420000Y-110490000D03*
X60960000Y-110490000D03*
X63500000Y-110490000D03*
X66040000Y-110490000D03*
X68580000Y-110490000D03*
X71120000Y-110490000D03*
X73660000Y-110490000D03*
X76200000Y-110490000D03*
%TD*%
D28*
%TO.C,JPS1*%
X227930000Y-34290000D03*
D29*
X227930000Y-28490000D03*
D30*
X223130000Y-31290000D03*
%TD*%
D17*
%TO.C,YVE2*%
X34290000Y-84545000D03*
X34290000Y-89425000D03*
%TD*%
D22*
%TO.C,TP2*%
X22860000Y-138430000D03*
D23*
X25400000Y-138430000D03*
%TD*%
D22*
%TO.C,JIO3*%
X50800000Y-41910000D03*
D23*
X50800000Y-39370000D03*
X48260000Y-41910000D03*
X48260000Y-39370000D03*
X45720000Y-41910000D03*
X45720000Y-39370000D03*
X43180000Y-41910000D03*
X43180000Y-39370000D03*
X40640000Y-41910000D03*
X40640000Y-39370000D03*
X38100000Y-41910000D03*
X38100000Y-39370000D03*
X35560000Y-41910000D03*
X35560000Y-39370000D03*
X33020000Y-41910000D03*
X33020000Y-39370000D03*
%TD*%
D31*
%TO.C,JVE3*%
X41910000Y-34290000D03*
D32*
X41910000Y-31750000D03*
X44450000Y-34290000D03*
X44450000Y-31750000D03*
X46990000Y-34290000D03*
X46990000Y-31750000D03*
X49530000Y-34290000D03*
X49530000Y-31750000D03*
X52070000Y-34290000D03*
X52070000Y-31750000D03*
%TD*%
D22*
%TO.C,JCPU1*%
X137160000Y-31750000D03*
D23*
X137160000Y-34290000D03*
X139700000Y-31750000D03*
X139700000Y-34290000D03*
X142240000Y-31750000D03*
X142240000Y-34290000D03*
X144780000Y-31750000D03*
X144780000Y-34290000D03*
X149860000Y-31750000D03*
X149860000Y-34290000D03*
X152400000Y-31750000D03*
X152400000Y-34290000D03*
X154940000Y-31750000D03*
X154940000Y-34290000D03*
X157480000Y-31750000D03*
X157480000Y-34290000D03*
X160020000Y-31750000D03*
X160020000Y-34290000D03*
X162560000Y-31750000D03*
X162560000Y-34290000D03*
X165100000Y-31750000D03*
X165100000Y-34290000D03*
X167640000Y-31750000D03*
X167640000Y-34290000D03*
X170180000Y-31750000D03*
X170180000Y-34290000D03*
X172720000Y-31750000D03*
X172720000Y-34290000D03*
X175260000Y-31750000D03*
X175260000Y-34290000D03*
X177800000Y-31750000D03*
X177800000Y-34290000D03*
X180340000Y-31750000D03*
X180340000Y-34290000D03*
X182880000Y-31750000D03*
X182880000Y-34290000D03*
X185420000Y-31750000D03*
X185420000Y-34290000D03*
X187960000Y-31750000D03*
X187960000Y-34290000D03*
X190500000Y-31750000D03*
X190500000Y-34290000D03*
X193040000Y-31750000D03*
X193040000Y-34290000D03*
X195580000Y-31750000D03*
X195580000Y-34290000D03*
X198120000Y-31750000D03*
X198120000Y-34290000D03*
X200660000Y-31750000D03*
X200660000Y-34290000D03*
X203200000Y-31750000D03*
X203200000Y-34290000D03*
X205740000Y-31750000D03*
X205740000Y-34290000D03*
X208280000Y-31750000D03*
X208280000Y-34290000D03*
X210820000Y-31750000D03*
X210820000Y-34290000D03*
%TD*%
D18*
%TO.C,U6*%
X153655000Y-114300000D03*
D19*
X151115000Y-114300000D03*
X148575000Y-114300000D03*
X146035000Y-114300000D03*
X143495000Y-114300000D03*
X140955000Y-114300000D03*
X138415000Y-114300000D03*
X135875000Y-114300000D03*
X135875000Y-121920000D03*
X138415000Y-121920000D03*
X140955000Y-121920000D03*
X143495000Y-121920000D03*
X146035000Y-121920000D03*
X148575000Y-121920000D03*
X151115000Y-121920000D03*
X153655000Y-121920000D03*
%TD*%
D26*
%TO.C,H6*%
X22432944Y-63072944D03*
X21730000Y-64770000D03*
X25827056Y-63072944D03*
X26530000Y-64770000D03*
D27*
X24130000Y-64770000D03*
D26*
X22432944Y-66467056D03*
X24130000Y-67170000D03*
X24130000Y-62370000D03*
X25827056Y-66467056D03*
%TD*%
D18*
%TO.C,U33*%
X101605000Y-125730000D03*
D19*
X99065000Y-125730000D03*
X96525000Y-125730000D03*
X93985000Y-125730000D03*
X91445000Y-125730000D03*
X88905000Y-125730000D03*
X86365000Y-125730000D03*
X86365000Y-133350000D03*
X88905000Y-133350000D03*
X91445000Y-133350000D03*
X93985000Y-133350000D03*
X96525000Y-133350000D03*
X99065000Y-133350000D03*
X101605000Y-133350000D03*
%TD*%
D18*
%TO.C,U17*%
X107935000Y-88900000D03*
D19*
X105395000Y-88900000D03*
X102855000Y-88900000D03*
X100315000Y-88900000D03*
X97775000Y-88900000D03*
X95235000Y-88900000D03*
X92695000Y-88900000D03*
X90155000Y-88900000D03*
X90155000Y-96520000D03*
X92695000Y-96520000D03*
X95235000Y-96520000D03*
X97775000Y-96520000D03*
X100315000Y-96520000D03*
X102855000Y-96520000D03*
X105395000Y-96520000D03*
X107935000Y-96520000D03*
%TD*%
D18*
%TO.C,U28*%
X184150000Y-68580000D03*
D19*
X184150000Y-66040000D03*
X184150000Y-63500000D03*
X184150000Y-60960000D03*
X184150000Y-58420000D03*
X184150000Y-55880000D03*
X184150000Y-53340000D03*
X184150000Y-50800000D03*
X184150000Y-48260000D03*
X184150000Y-45720000D03*
X176530000Y-45720000D03*
X176530000Y-48260000D03*
X176530000Y-50800000D03*
X176530000Y-53340000D03*
X176530000Y-55880000D03*
X176530000Y-58420000D03*
X176530000Y-60960000D03*
X176530000Y-63500000D03*
X176530000Y-66040000D03*
X176530000Y-68580000D03*
%TD*%
D18*
%TO.C,U3*%
X177800000Y-114300000D03*
D19*
X175260000Y-114300000D03*
X172720000Y-114300000D03*
X170180000Y-114300000D03*
X167640000Y-114300000D03*
X165100000Y-114300000D03*
X162560000Y-114300000D03*
X162560000Y-121920000D03*
X165100000Y-121920000D03*
X167640000Y-121920000D03*
X170180000Y-121920000D03*
X172720000Y-121920000D03*
X175260000Y-121920000D03*
X177800000Y-121920000D03*
%TD*%
D18*
%TO.C,U8*%
X125735000Y-137160000D03*
D19*
X123195000Y-137160000D03*
X120655000Y-137160000D03*
X118115000Y-137160000D03*
X115575000Y-137160000D03*
X113035000Y-137160000D03*
X110495000Y-137160000D03*
X110495000Y-144780000D03*
X113035000Y-144780000D03*
X115575000Y-144780000D03*
X118115000Y-144780000D03*
X120655000Y-144780000D03*
X123195000Y-144780000D03*
X125735000Y-144780000D03*
%TD*%
D26*
%TO.C,H4*%
X226917344Y-143082944D03*
X228614400Y-142380000D03*
X226214400Y-144780000D03*
X226917344Y-146477056D03*
X228614400Y-147180000D03*
X230311456Y-146477056D03*
D27*
X228614400Y-144780000D03*
D26*
X231014400Y-144780000D03*
X230311456Y-143082944D03*
%TD*%
D18*
%TO.C,U9*%
X175265000Y-125730000D03*
D19*
X172725000Y-125730000D03*
X170185000Y-125730000D03*
X167645000Y-125730000D03*
X165105000Y-125730000D03*
X162565000Y-125730000D03*
X160025000Y-125730000D03*
X160025000Y-133350000D03*
X162565000Y-133350000D03*
X165105000Y-133350000D03*
X167645000Y-133350000D03*
X170185000Y-133350000D03*
X172725000Y-133350000D03*
X175265000Y-133350000D03*
%TD*%
D18*
%TO.C,U10*%
X127000000Y-114300000D03*
D19*
X124460000Y-114300000D03*
X121920000Y-114300000D03*
X119380000Y-114300000D03*
X116840000Y-114300000D03*
X114300000Y-114300000D03*
X111760000Y-114300000D03*
X109220000Y-114300000D03*
X109220000Y-121920000D03*
X111760000Y-121920000D03*
X114300000Y-121920000D03*
X116840000Y-121920000D03*
X119380000Y-121920000D03*
X121920000Y-121920000D03*
X124460000Y-121920000D03*
X127000000Y-121920000D03*
%TD*%
D22*
%TO.C,JIO1*%
X49530000Y-73660000D03*
D23*
X49530000Y-76200000D03*
X49530000Y-78740000D03*
%TD*%
D18*
%TO.C,U29*%
X142240000Y-99060000D03*
D19*
X142240000Y-96520000D03*
X142240000Y-93980000D03*
X142240000Y-91440000D03*
X142240000Y-88900000D03*
X142240000Y-86360000D03*
X142240000Y-83820000D03*
X142240000Y-81280000D03*
X142240000Y-78740000D03*
X142240000Y-76200000D03*
X134620000Y-76200000D03*
X134620000Y-78740000D03*
X134620000Y-81280000D03*
X134620000Y-83820000D03*
X134620000Y-86360000D03*
X134620000Y-88900000D03*
X134620000Y-91440000D03*
X134620000Y-93980000D03*
X134620000Y-96520000D03*
X134620000Y-99060000D03*
%TD*%
D18*
%TO.C,U31*%
X158755000Y-102247500D03*
D19*
X156215000Y-102247500D03*
X153675000Y-102247500D03*
X151135000Y-102247500D03*
X148595000Y-102247500D03*
X146055000Y-102247500D03*
X143515000Y-102247500D03*
X143515000Y-109867500D03*
X146055000Y-109867500D03*
X148595000Y-109867500D03*
X151135000Y-109867500D03*
X153675000Y-109867500D03*
X156215000Y-109867500D03*
X158755000Y-109867500D03*
%TD*%
D18*
%TO.C,U32*%
X101600000Y-137160000D03*
D19*
X99060000Y-137160000D03*
X96520000Y-137160000D03*
X93980000Y-137160000D03*
X91440000Y-137160000D03*
X88900000Y-137160000D03*
X86360000Y-137160000D03*
X86360000Y-144780000D03*
X88900000Y-144780000D03*
X91440000Y-144780000D03*
X93980000Y-144780000D03*
X96520000Y-144780000D03*
X99060000Y-144780000D03*
X101600000Y-144780000D03*
%TD*%
D18*
%TO.C,U27*%
X215905000Y-96515000D03*
D19*
X215905000Y-93975000D03*
X215905000Y-91435000D03*
X215905000Y-88895000D03*
X215905000Y-86355000D03*
X215905000Y-83815000D03*
X215905000Y-81275000D03*
X215905000Y-78735000D03*
X215905000Y-76195000D03*
X215905000Y-73655000D03*
X215905000Y-71115000D03*
X215905000Y-68575000D03*
X215905000Y-66035000D03*
X215905000Y-63495000D03*
X215905000Y-60955000D03*
X215905000Y-58415000D03*
X215905000Y-55875000D03*
X215905000Y-53335000D03*
X215905000Y-50795000D03*
X215905000Y-48255000D03*
X200665000Y-48255000D03*
X200665000Y-50795000D03*
X200665000Y-53335000D03*
X200665000Y-55875000D03*
X200665000Y-58415000D03*
X200665000Y-60955000D03*
X200665000Y-63495000D03*
X200665000Y-66035000D03*
X200665000Y-68575000D03*
X200665000Y-71115000D03*
X200665000Y-73655000D03*
X200665000Y-76195000D03*
X200665000Y-78735000D03*
X200665000Y-81275000D03*
X200665000Y-83815000D03*
X200665000Y-86355000D03*
X200665000Y-88895000D03*
X200665000Y-91435000D03*
X200665000Y-93975000D03*
X200665000Y-96515000D03*
%TD*%
D18*
%TO.C,U4*%
X201935000Y-125730000D03*
D19*
X199395000Y-125730000D03*
X196855000Y-125730000D03*
X194315000Y-125730000D03*
X191775000Y-125730000D03*
X189235000Y-125730000D03*
X186695000Y-125730000D03*
X186695000Y-133350000D03*
X189235000Y-133350000D03*
X191775000Y-133350000D03*
X194315000Y-133350000D03*
X196855000Y-133350000D03*
X199395000Y-133350000D03*
X201935000Y-133350000D03*
%TD*%
D18*
%TO.C,RSCPU2*%
X172730000Y-66060000D03*
D19*
X172730000Y-63520000D03*
X172730000Y-60980000D03*
X172730000Y-58440000D03*
X172730000Y-55900000D03*
X172730000Y-53360000D03*
X172730000Y-50820000D03*
X172730000Y-48280000D03*
X172730000Y-45740000D03*
%TD*%
D18*
%TO.C,U37*%
X44435000Y-114300000D03*
D19*
X41895000Y-114300000D03*
X39355000Y-114300000D03*
X36815000Y-114300000D03*
X34275000Y-114300000D03*
X31735000Y-114300000D03*
X29195000Y-114300000D03*
X26655000Y-114300000D03*
X26655000Y-121920000D03*
X29195000Y-121920000D03*
X31735000Y-121920000D03*
X34275000Y-121920000D03*
X36815000Y-121920000D03*
X39355000Y-121920000D03*
X41895000Y-121920000D03*
X44435000Y-121920000D03*
%TD*%
D18*
%TO.C,U34*%
X77470000Y-137160000D03*
D19*
X74930000Y-137160000D03*
X72390000Y-137160000D03*
X69850000Y-137160000D03*
X67310000Y-137160000D03*
X64770000Y-137160000D03*
X62230000Y-137160000D03*
X62230000Y-144780000D03*
X64770000Y-144780000D03*
X67310000Y-144780000D03*
X69850000Y-144780000D03*
X72390000Y-144780000D03*
X74930000Y-144780000D03*
X77470000Y-144780000D03*
%TD*%
D33*
%TO.C,JIO4*%
X106140000Y-30135000D03*
X104140000Y-28335000D03*
X104140000Y-22235000D03*
X106140000Y-24635000D03*
X104140000Y-33835000D03*
%TD*%
D18*
%TO.C,U39*%
X53340000Y-137160000D03*
D19*
X50800000Y-137160000D03*
X48260000Y-137160000D03*
X45720000Y-137160000D03*
X43180000Y-137160000D03*
X40640000Y-137160000D03*
X38100000Y-137160000D03*
X35560000Y-137160000D03*
X33020000Y-137160000D03*
X30480000Y-137160000D03*
X30480000Y-144780000D03*
X33020000Y-144780000D03*
X35560000Y-144780000D03*
X38100000Y-144780000D03*
X40640000Y-144780000D03*
X43180000Y-144780000D03*
X45720000Y-144780000D03*
X48260000Y-144780000D03*
X50800000Y-144780000D03*
X53340000Y-144780000D03*
%TD*%
D18*
%TO.C,U12*%
X151135000Y-137170000D03*
D19*
X148595000Y-137170000D03*
X146055000Y-137170000D03*
X143515000Y-137170000D03*
X140975000Y-137170000D03*
X138435000Y-137170000D03*
X135895000Y-137170000D03*
X135895000Y-144790000D03*
X138435000Y-144790000D03*
X140975000Y-144790000D03*
X143515000Y-144790000D03*
X146055000Y-144790000D03*
X148595000Y-144790000D03*
X151135000Y-144790000D03*
%TD*%
D18*
%TO.C,U45*%
X149865000Y-63505000D03*
D19*
X149865000Y-60965000D03*
X149865000Y-58425000D03*
X149865000Y-55885000D03*
X149865000Y-53345000D03*
X149865000Y-50805000D03*
X149865000Y-48265000D03*
X149865000Y-45725000D03*
X149865000Y-43185000D03*
X149865000Y-40645000D03*
X142245000Y-40645000D03*
X142245000Y-43185000D03*
X142245000Y-45725000D03*
X142245000Y-48265000D03*
X142245000Y-50805000D03*
X142245000Y-53345000D03*
X142245000Y-55885000D03*
X142245000Y-58425000D03*
X142245000Y-60965000D03*
X142245000Y-63505000D03*
%TD*%
D22*
%TO.C,JIOKB1*%
X206550000Y-108200000D03*
D23*
X204010000Y-108200000D03*
X201470000Y-108200000D03*
X198930000Y-108200000D03*
X196390000Y-108200000D03*
X193850000Y-108200000D03*
X191310000Y-108200000D03*
X188770000Y-108200000D03*
%TD*%
D18*
%TO.C,U2*%
X223525000Y-137170000D03*
D19*
X220985000Y-137170000D03*
X218445000Y-137170000D03*
X215905000Y-137170000D03*
X213365000Y-137170000D03*
X210825000Y-137170000D03*
X208285000Y-137170000D03*
X208285000Y-144790000D03*
X210825000Y-144790000D03*
X213365000Y-144790000D03*
X215905000Y-144790000D03*
X218445000Y-144790000D03*
X220985000Y-144790000D03*
X223525000Y-144790000D03*
%TD*%
D34*
%TO.C,SWVF1*%
X92480000Y-24740000D03*
X92480000Y-27940000D03*
X92480000Y-31140000D03*
X95480000Y-24740000D03*
X95480000Y-27940000D03*
X95480000Y-31140000D03*
D35*
X90580000Y-22040000D03*
X97380000Y-33840000D03*
%TD*%
D18*
%TO.C,U16*%
X107950000Y-102870000D03*
D19*
X105410000Y-102870000D03*
X102870000Y-102870000D03*
X100330000Y-102870000D03*
X97790000Y-102870000D03*
X95250000Y-102870000D03*
X92710000Y-102870000D03*
X90170000Y-102870000D03*
X87630000Y-102870000D03*
X85090000Y-102870000D03*
X85090000Y-110490000D03*
X87630000Y-110490000D03*
X90170000Y-110490000D03*
X92710000Y-110490000D03*
X95250000Y-110490000D03*
X97790000Y-110490000D03*
X100330000Y-110490000D03*
X102870000Y-110490000D03*
X105410000Y-110490000D03*
X107950000Y-110490000D03*
%TD*%
D22*
%TO.C,JPVE3*%
X23520000Y-82296000D03*
D23*
X23520000Y-84836000D03*
X23520000Y-87376000D03*
%TD*%
D18*
%TO.C,U36*%
X76200000Y-114300000D03*
D19*
X73660000Y-114300000D03*
X71120000Y-114300000D03*
X68580000Y-114300000D03*
X66040000Y-114300000D03*
X63500000Y-114300000D03*
X60960000Y-114300000D03*
X58420000Y-114300000D03*
X55880000Y-114300000D03*
X53340000Y-114300000D03*
X53340000Y-121920000D03*
X55880000Y-121920000D03*
X58420000Y-121920000D03*
X60960000Y-121920000D03*
X63500000Y-121920000D03*
X66040000Y-121920000D03*
X68580000Y-121920000D03*
X71120000Y-121920000D03*
X73660000Y-121920000D03*
X76200000Y-121920000D03*
%TD*%
D26*
%TO.C,H3*%
X228600000Y-67170000D03*
D27*
X228600000Y-64770000D03*
D26*
X226902944Y-63072944D03*
X231000000Y-64770000D03*
X230297056Y-66467056D03*
X228600000Y-62370000D03*
X226902944Y-66467056D03*
X226200000Y-64770000D03*
X230297056Y-63072944D03*
%TD*%
D18*
%TO.C,U26*%
X184150000Y-99060000D03*
D19*
X184150000Y-96520000D03*
X184150000Y-93980000D03*
X184150000Y-91440000D03*
X184150000Y-88900000D03*
X184150000Y-86360000D03*
X184150000Y-83820000D03*
X184150000Y-81280000D03*
X184150000Y-78740000D03*
X184150000Y-76200000D03*
X176530000Y-76200000D03*
X176530000Y-78740000D03*
X176530000Y-81280000D03*
X176530000Y-83820000D03*
X176530000Y-86360000D03*
X176530000Y-88900000D03*
X176530000Y-91440000D03*
X176530000Y-93980000D03*
X176530000Y-96520000D03*
X176530000Y-99060000D03*
%TD*%
D26*
%TO.C,H1*%
X124600000Y-24130000D03*
X129400000Y-24130000D03*
X127000000Y-26530000D03*
X127000000Y-21730000D03*
D27*
X127000000Y-24130000D03*
D26*
X125302944Y-22432944D03*
X128697056Y-25827056D03*
X128697056Y-22432944D03*
X125302944Y-25827056D03*
%TD*%
D18*
%TO.C,U41*%
X44455000Y-125730000D03*
D19*
X41915000Y-125730000D03*
X39375000Y-125730000D03*
X36835000Y-125730000D03*
X34295000Y-125730000D03*
X31755000Y-125730000D03*
X29215000Y-125730000D03*
X26675000Y-125730000D03*
X26675000Y-133350000D03*
X29215000Y-133350000D03*
X31755000Y-133350000D03*
X34295000Y-133350000D03*
X36835000Y-133350000D03*
X39375000Y-133350000D03*
X41915000Y-133350000D03*
X44455000Y-133350000D03*
%TD*%
D18*
%TO.C,U14*%
X100335000Y-114300000D03*
D19*
X97795000Y-114300000D03*
X95255000Y-114300000D03*
X92715000Y-114300000D03*
X90175000Y-114300000D03*
X87635000Y-114300000D03*
X85095000Y-114300000D03*
X85095000Y-121920000D03*
X87635000Y-121920000D03*
X90175000Y-121920000D03*
X92715000Y-121920000D03*
X95255000Y-121920000D03*
X97795000Y-121920000D03*
X100335000Y-121920000D03*
%TD*%
D18*
%TO.C,U43*%
X139690000Y-63495000D03*
D19*
X139690000Y-60955000D03*
X139690000Y-58415000D03*
X139690000Y-55875000D03*
X139690000Y-53335000D03*
X139690000Y-50795000D03*
X139690000Y-48255000D03*
X139690000Y-45715000D03*
X139690000Y-43175000D03*
X139690000Y-40635000D03*
X132070000Y-40635000D03*
X132070000Y-43175000D03*
X132070000Y-45715000D03*
X132070000Y-48255000D03*
X132070000Y-50795000D03*
X132070000Y-53335000D03*
X132070000Y-55875000D03*
X132070000Y-58415000D03*
X132070000Y-60955000D03*
X132070000Y-63495000D03*
%TD*%
D18*
%TO.C,U24*%
X196840000Y-99055000D03*
D19*
X196840000Y-96515000D03*
X196840000Y-93975000D03*
X196840000Y-91435000D03*
X196840000Y-88895000D03*
X196840000Y-86355000D03*
X196840000Y-83815000D03*
X196840000Y-81275000D03*
X196840000Y-78735000D03*
X196840000Y-76195000D03*
X189220000Y-76195000D03*
X189220000Y-78735000D03*
X189220000Y-81275000D03*
X189220000Y-83815000D03*
X189220000Y-86355000D03*
X189220000Y-88895000D03*
X189220000Y-91435000D03*
X189220000Y-93975000D03*
X189220000Y-96515000D03*
X189220000Y-99055000D03*
%TD*%
D18*
%TO.C,U40*%
X76205000Y-125730000D03*
D19*
X73665000Y-125730000D03*
X71125000Y-125730000D03*
X68585000Y-125730000D03*
X66045000Y-125730000D03*
X63505000Y-125730000D03*
X60965000Y-125730000D03*
X58425000Y-125730000D03*
X55885000Y-125730000D03*
X53345000Y-125730000D03*
X53345000Y-133350000D03*
X55885000Y-133350000D03*
X58425000Y-133350000D03*
X60965000Y-133350000D03*
X63505000Y-133350000D03*
X66045000Y-133350000D03*
X68585000Y-133350000D03*
X71125000Y-133350000D03*
X73665000Y-133350000D03*
X76205000Y-133350000D03*
%TD*%
D33*
%TO.C,JIO2*%
X86355000Y-30135000D03*
X84355000Y-28335000D03*
X84355000Y-22235000D03*
X86355000Y-24635000D03*
X84355000Y-33835000D03*
%TD*%
M02*
