%TF.GenerationSoftware,KiCad,Pcbnew,6.0.11-2627ca5db0~126~ubuntu22.04.1*%
%TF.CreationDate,2023-12-06T09:32:17+02:00*%
%TF.ProjectId,ZX-Spectrum-Pentagon,5a582d53-7065-4637-9472-756d2d50656e,pcb_v0.4*%
%TF.SameCoordinates,Original*%
%TF.FileFunction,Soldermask,Top*%
%TF.FilePolarity,Negative*%
%FSLAX46Y46*%
G04 Gerber Fmt 4.6, Leading zero omitted, Abs format (unit mm)*
G04 Created by KiCad (PCBNEW 6.0.11-2627ca5db0~126~ubuntu22.04.1) date 2023-12-06 09:32:17*
%MOMM*%
%LPD*%
G01*
G04 APERTURE LIST*
G04 Aperture macros list*
%AMRoundRect*
0 Rectangle with rounded corners*
0 $1 Rounding radius*
0 $2 $3 $4 $5 $6 $7 $8 $9 X,Y pos of 4 corners*
0 Add a 4 corners polygon primitive as box body*
4,1,4,$2,$3,$4,$5,$6,$7,$8,$9,$2,$3,0*
0 Add four circle primitives for the rounded corners*
1,1,$1+$1,$2,$3*
1,1,$1+$1,$4,$5*
1,1,$1+$1,$6,$7*
1,1,$1+$1,$8,$9*
0 Add four rect primitives between the rounded corners*
20,1,$1+$1,$2,$3,$4,$5,0*
20,1,$1+$1,$4,$5,$6,$7,0*
20,1,$1+$1,$6,$7,$8,$9,0*
20,1,$1+$1,$8,$9,$2,$3,0*%
%AMFreePoly0*
4,1,22,0.550000,-0.750000,0.000000,-0.750000,0.000000,-0.745033,-0.079941,-0.743568,-0.215256,-0.701293,-0.333266,-0.622738,-0.424486,-0.514219,-0.481581,-0.384460,-0.499164,-0.250000,-0.500000,-0.250000,-0.500000,0.250000,-0.499164,0.250000,-0.499963,0.256109,-0.478152,0.396186,-0.417904,0.524511,-0.324060,0.630769,-0.204165,0.706417,-0.067858,0.745374,0.000000,0.744959,0.000000,0.750000,
0.550000,0.750000,0.550000,-0.750000,0.550000,-0.750000,$1*%
%AMFreePoly1*
4,1,20,0.000000,0.744959,0.073905,0.744508,0.209726,0.703889,0.328688,0.626782,0.421226,0.519385,0.479903,0.390333,0.500000,0.250000,0.500000,-0.250000,0.499851,-0.262216,0.476331,-0.402017,0.414519,-0.529596,0.319384,-0.634700,0.198574,-0.708877,0.061801,-0.746166,0.000000,-0.745033,0.000000,-0.750000,-0.550000,-0.750000,-0.550000,0.750000,0.000000,0.750000,0.000000,0.744959,
0.000000,0.744959,$1*%
G04 Aperture macros list end*
%TA.AperFunction,Profile*%
%ADD10C,0.200000*%
%TD*%
%ADD11R,1.000000X1.000000*%
%ADD12RoundRect,0.250000X0.350000X0.450000X-0.350000X0.450000X-0.350000X-0.450000X0.350000X-0.450000X0*%
%ADD13RoundRect,0.250000X-0.450000X0.350000X-0.450000X-0.350000X0.450000X-0.350000X0.450000X0.350000X0*%
%ADD14R,1.422400X1.422400*%
%ADD15C,1.422400*%
%ADD16R,1.408000X1.408000*%
%ADD17C,1.408000*%
%ADD18O,1.500000X3.000000*%
%ADD19O,3.000000X1.500000*%
%ADD20RoundRect,0.250000X0.650000X-0.412500X0.650000X0.412500X-0.650000X0.412500X-0.650000X-0.412500X0*%
%ADD21RoundRect,0.150000X0.587500X0.150000X-0.587500X0.150000X-0.587500X-0.150000X0.587500X-0.150000X0*%
%ADD22C,1.500000*%
%ADD23RoundRect,0.250000X0.450000X-0.350000X0.450000X0.350000X-0.450000X0.350000X-0.450000X-0.350000X0*%
%ADD24R,1.600000X1.600000*%
%ADD25O,1.600000X1.600000*%
%ADD26RoundRect,0.460000X-0.540000X-2.890000X0.540000X-2.890000X0.540000X2.890000X-0.540000X2.890000X0*%
%ADD27RoundRect,0.280000X-0.720000X-3.070000X0.720000X-3.070000X0.720000X3.070000X-0.720000X3.070000X0*%
%ADD28RoundRect,0.150000X0.150000X-0.875000X0.150000X0.875000X-0.150000X0.875000X-0.150000X-0.875000X0*%
%ADD29RoundRect,0.250001X0.499999X0.924999X-0.499999X0.924999X-0.499999X-0.924999X0.499999X-0.924999X0*%
%ADD30RoundRect,0.250000X-0.325000X-0.450000X0.325000X-0.450000X0.325000X0.450000X-0.325000X0.450000X0*%
%ADD31R,1.700000X1.700000*%
%ADD32O,1.700000X1.700000*%
%ADD33RoundRect,0.250000X0.475000X-0.337500X0.475000X0.337500X-0.475000X0.337500X-0.475000X-0.337500X0*%
%ADD34RoundRect,0.250000X0.450000X-0.325000X0.450000X0.325000X-0.450000X0.325000X-0.450000X-0.325000X0*%
%ADD35RoundRect,0.250000X-0.450000X0.325000X-0.450000X-0.325000X0.450000X-0.325000X0.450000X0.325000X0*%
%ADD36RoundRect,0.250000X-0.337500X-0.475000X0.337500X-0.475000X0.337500X0.475000X-0.337500X0.475000X0*%
%ADD37RoundRect,0.250000X0.425000X-0.537500X0.425000X0.537500X-0.425000X0.537500X-0.425000X-0.537500X0*%
%ADD38RoundRect,0.150000X-0.150000X0.725000X-0.150000X-0.725000X0.150000X-0.725000X0.150000X0.725000X0*%
%ADD39RoundRect,0.250000X-0.475000X0.337500X-0.475000X-0.337500X0.475000X-0.337500X0.475000X0.337500X0*%
%ADD40RoundRect,0.250000X-0.412500X-0.650000X0.412500X-0.650000X0.412500X0.650000X-0.412500X0.650000X0*%
%ADD41C,2.100000*%
%ADD42C,1.750000*%
%ADD43RoundRect,0.250000X-0.425000X0.537500X-0.425000X-0.537500X0.425000X-0.537500X0.425000X0.537500X0*%
%ADD44RoundRect,0.250000X-0.350000X-0.450000X0.350000X-0.450000X0.350000X0.450000X-0.350000X0.450000X0*%
%ADD45RoundRect,0.250000X-0.875000X-1.025000X0.875000X-1.025000X0.875000X1.025000X-0.875000X1.025000X0*%
%ADD46R,1.500000X2.000000*%
%ADD47RoundRect,0.250000X0.337500X0.475000X-0.337500X0.475000X-0.337500X-0.475000X0.337500X-0.475000X0*%
%ADD48C,0.800000*%
%ADD49C,6.400000*%
%ADD50R,2.200000X1.500000*%
%ADD51R,1.700000X1.300000*%
%ADD52R,1.100000X4.600000*%
%ADD53R,10.800000X9.400000*%
%ADD54R,4.400000X1.800000*%
%ADD55O,4.000000X1.800000*%
%ADD56O,1.800000X4.000000*%
%ADD57R,5.400000X2.900000*%
%ADD58RoundRect,0.250000X0.600000X-0.600000X0.600000X0.600000X-0.600000X0.600000X-0.600000X-0.600000X0*%
%ADD59C,1.700000*%
%ADD60RoundRect,0.250000X-0.537500X-0.425000X0.537500X-0.425000X0.537500X0.425000X-0.537500X0.425000X0*%
%ADD61RoundRect,0.250000X0.412500X0.650000X-0.412500X0.650000X-0.412500X-0.650000X0.412500X-0.650000X0*%
%ADD62RoundRect,0.180000X-2.070000X-0.720000X2.070000X-0.720000X2.070000X0.720000X-2.070000X0.720000X0*%
%ADD63O,2.800000X1.800000*%
%ADD64FreePoly0,0.000000*%
%ADD65R,1.000000X1.500000*%
%ADD66FreePoly1,0.000000*%
%ADD67R,1.800000X2.500000*%
%ADD68O,1.500000X2.300000*%
%ADD69O,2.300000X1.500000*%
%ADD70RoundRect,0.250000X0.537500X0.425000X-0.537500X0.425000X-0.537500X-0.425000X0.537500X-0.425000X0*%
%ADD71RoundRect,0.250000X-0.650000X0.412500X-0.650000X-0.412500X0.650000X-0.412500X0.650000X0.412500X0*%
%ADD72RoundRect,0.150000X-0.587500X-0.150000X0.587500X-0.150000X0.587500X0.150000X-0.587500X0.150000X0*%
G04 APERTURE END LIST*
D10*
X20320000Y-149320000D02*
X20320000Y-20320000D01*
X233420000Y-149320000D02*
X20320000Y-149320000D01*
X211630000Y-20320000D02*
X233420000Y-20320000D01*
X20320000Y-20320000D02*
X133250000Y-20320000D01*
X233420000Y-20320000D02*
X233420000Y-149320000D01*
%TO.C,XMCPU1*%
X211630000Y-28720000D02*
X211630000Y-20320000D01*
X133250000Y-20320000D02*
X133250000Y-28720000D01*
X209330000Y-28720000D02*
X211630000Y-28720000D01*
X149310000Y-20320000D02*
X209330000Y-20320000D01*
X147310000Y-20320000D02*
X147310000Y-28720000D01*
X135550000Y-20320000D02*
X147310000Y-20320000D01*
X135550000Y-28720000D02*
X135550000Y-20320000D01*
X147310000Y-28720000D02*
X149310000Y-28720000D01*
X209330000Y-20320000D02*
X209330000Y-28720000D01*
X149310000Y-28720000D02*
X149310000Y-20320000D01*
X133250000Y-28720000D02*
X135550000Y-28720000D01*
%TD*%
D11*
%TO.C,DIO5*%
X198140000Y-111760000D03*
X200640000Y-111760000D03*
%TD*%
D12*
%TO.C,RPS1*%
X69580000Y-36830000D03*
X67580000Y-36830000D03*
%TD*%
D13*
%TO.C,RIO3*%
X118745000Y-34560000D03*
X118745000Y-36560000D03*
%TD*%
D11*
%TO.C,DG1*%
X113050000Y-31750000D03*
X115550000Y-31750000D03*
%TD*%
D14*
%TO.C,U30*%
X154305000Y-88900000D03*
D15*
X151765000Y-91440000D03*
X154305000Y-91440000D03*
X151765000Y-93980000D03*
X154305000Y-96520000D03*
X154305000Y-93980000D03*
X156845000Y-96520000D03*
X156845000Y-93980000D03*
X159385000Y-96520000D03*
X159385000Y-93980000D03*
X161925000Y-96520000D03*
X161925000Y-93980000D03*
X164465000Y-96520000D03*
X167005000Y-93980000D03*
X164465000Y-93980000D03*
X167005000Y-91440000D03*
X164465000Y-91440000D03*
X167005000Y-88900000D03*
X164465000Y-88900000D03*
X167005000Y-86360000D03*
X164465000Y-83820000D03*
X164465000Y-86360000D03*
X161925000Y-83820000D03*
X161925000Y-86360000D03*
X159385000Y-83820000D03*
X159385000Y-86360000D03*
X156845000Y-83820000D03*
X156845000Y-86360000D03*
X154305000Y-83820000D03*
X151765000Y-86360000D03*
X154305000Y-86360000D03*
X151765000Y-88900000D03*
%TD*%
D16*
%TO.C,JVE2*%
X26670000Y-29210000D03*
D17*
X29270000Y-29210000D03*
X24570000Y-29210000D03*
X26670000Y-31710000D03*
X31370000Y-29210000D03*
X24570000Y-31710000D03*
X28870000Y-31710000D03*
X31370000Y-31710000D03*
D18*
X21220000Y-26210000D03*
X34720000Y-26210000D03*
D19*
X27970000Y-25410000D03*
%TD*%
D20*
%TO.C,CPF36*%
X80015000Y-122202500D03*
X80015000Y-119077500D03*
%TD*%
D11*
%TO.C,DIO6*%
X199370000Y-105410000D03*
X196870000Y-105410000D03*
%TD*%
D20*
%TO.C,CPF13*%
X229870000Y-133642500D03*
X229870000Y-130517500D03*
%TD*%
D21*
%TO.C,QVF3*%
X26337500Y-54290000D03*
X26337500Y-52390000D03*
X24462500Y-53340000D03*
%TD*%
D22*
%TO.C,YG1*%
X212090000Y-114390000D03*
X212090000Y-119270000D03*
%TD*%
D11*
%TO.C,DIO8*%
X187980000Y-111760000D03*
X190480000Y-111760000D03*
%TD*%
D23*
%TO.C,RVE27*%
X25400000Y-92059000D03*
X25400000Y-90059000D03*
%TD*%
D24*
%TO.C,U15*%
X151135000Y-125730000D03*
D25*
X148595000Y-125730000D03*
X146055000Y-125730000D03*
X143515000Y-125730000D03*
X140975000Y-125730000D03*
X138435000Y-125730000D03*
X135895000Y-125730000D03*
X135895000Y-133350000D03*
X138435000Y-133350000D03*
X140975000Y-133350000D03*
X143515000Y-133350000D03*
X146055000Y-133350000D03*
X148595000Y-133350000D03*
X151135000Y-133350000D03*
%TD*%
D20*
%TO.C,CPF20*%
X99060000Y-39662500D03*
X99060000Y-36537500D03*
%TD*%
D24*
%TO.C,U48*%
X95250000Y-81280000D03*
D25*
X95250000Y-78740000D03*
X95250000Y-76200000D03*
X95250000Y-73660000D03*
X95250000Y-71120000D03*
X95250000Y-68580000D03*
X95250000Y-66040000D03*
X95250000Y-63500000D03*
X87630000Y-63500000D03*
X87630000Y-66040000D03*
X87630000Y-68580000D03*
X87630000Y-71120000D03*
X87630000Y-73660000D03*
X87630000Y-76200000D03*
X87630000Y-78740000D03*
X87630000Y-81280000D03*
%TD*%
D24*
%TO.C,U18*%
X76200000Y-69215000D03*
D25*
X73660000Y-69215000D03*
X71120000Y-69215000D03*
X68580000Y-69215000D03*
X66040000Y-69215000D03*
X63500000Y-69215000D03*
X60960000Y-69215000D03*
X58420000Y-69215000D03*
X55880000Y-69215000D03*
X53340000Y-69215000D03*
X53340000Y-76835000D03*
X55880000Y-76835000D03*
X58420000Y-76835000D03*
X60960000Y-76835000D03*
X63500000Y-76835000D03*
X66040000Y-76835000D03*
X68580000Y-76835000D03*
X71120000Y-76835000D03*
X73660000Y-76835000D03*
X76200000Y-76835000D03*
%TD*%
D26*
%TO.C,XMCPU1*%
X138150000Y-24130000D03*
D27*
X140690000Y-24130000D03*
X143230000Y-24130000D03*
X145770000Y-24130000D03*
X150850000Y-24130000D03*
X153390000Y-24130000D03*
X155930000Y-24130000D03*
X158470000Y-24130000D03*
X161010000Y-24130000D03*
X163550000Y-24130000D03*
X166090000Y-24130000D03*
X168630000Y-24130000D03*
X171170000Y-24130000D03*
X173710000Y-24130000D03*
X176250000Y-24130000D03*
X178790000Y-24130000D03*
X181330000Y-24130000D03*
X183870000Y-24130000D03*
X186410000Y-24130000D03*
X188950000Y-24130000D03*
X191490000Y-24130000D03*
X194030000Y-24130000D03*
X196570000Y-24130000D03*
X199110000Y-24130000D03*
X201650000Y-24130000D03*
X204190000Y-24130000D03*
X206730000Y-24130000D03*
%TD*%
D28*
%TO.C,U49*%
X36195000Y-78310000D03*
X37465000Y-78310000D03*
X38735000Y-78310000D03*
X40005000Y-78310000D03*
X41275000Y-78310000D03*
X42545000Y-78310000D03*
X43815000Y-78310000D03*
X45085000Y-78310000D03*
X45085000Y-69010000D03*
X43815000Y-69010000D03*
X42545000Y-69010000D03*
X41275000Y-69010000D03*
X40005000Y-69010000D03*
X38735000Y-69010000D03*
X37465000Y-69010000D03*
X36195000Y-69010000D03*
%TD*%
D29*
%TO.C,CVE5*%
X33375000Y-64135000D03*
X30125000Y-64135000D03*
%TD*%
D24*
%TO.C,U19*%
X81280000Y-45710000D03*
D25*
X78740000Y-45710000D03*
X76200000Y-45710000D03*
X73660000Y-45710000D03*
X71120000Y-45710000D03*
X68580000Y-45710000D03*
X66040000Y-45710000D03*
X63500000Y-45710000D03*
X60960000Y-45710000D03*
X58420000Y-45710000D03*
X55880000Y-45710000D03*
X53340000Y-45710000D03*
X50800000Y-45710000D03*
X48260000Y-45710000D03*
X45720000Y-45710000D03*
X43180000Y-45710000D03*
X40640000Y-45710000D03*
X38100000Y-45710000D03*
X35560000Y-45710000D03*
X33020000Y-45710000D03*
X33020000Y-60950000D03*
X35560000Y-60950000D03*
X38100000Y-60950000D03*
X40640000Y-60950000D03*
X43180000Y-60950000D03*
X45720000Y-60950000D03*
X48260000Y-60950000D03*
X50800000Y-60950000D03*
X53340000Y-60950000D03*
X55880000Y-60950000D03*
X58420000Y-60950000D03*
X60960000Y-60950000D03*
X63500000Y-60950000D03*
X66040000Y-60950000D03*
X68580000Y-60950000D03*
X71120000Y-60950000D03*
X73660000Y-60950000D03*
X76200000Y-60950000D03*
X78740000Y-60950000D03*
X81280000Y-60950000D03*
%TD*%
D30*
%TO.C,DPI2*%
X127880000Y-29210000D03*
X129930000Y-29210000D03*
%TD*%
D31*
%TO.C,TP1*%
X228600000Y-95250000D03*
D32*
X231140000Y-95250000D03*
%TD*%
D21*
%TO.C,QVF2*%
X26337500Y-58100000D03*
X26337500Y-56200000D03*
X24462500Y-57150000D03*
%TD*%
D33*
%TO.C,CVE6*%
X31750000Y-96287500D03*
X31750000Y-94212500D03*
%TD*%
D34*
%TO.C,DPI1*%
X109855000Y-30235000D03*
X109855000Y-28185000D03*
%TD*%
D23*
%TO.C,RVE12*%
X29210000Y-96250000D03*
X29210000Y-94250000D03*
%TD*%
D35*
%TO.C,DPI3*%
X59690000Y-26915000D03*
X59690000Y-28965000D03*
%TD*%
D23*
%TO.C,RIO10*%
X69850000Y-25130000D03*
X69850000Y-23130000D03*
%TD*%
D13*
%TO.C,RVE23*%
X29210000Y-59055000D03*
X29210000Y-61055000D03*
%TD*%
D24*
%TO.C,SWCPU1*%
X151130000Y-78740000D03*
D25*
X153670000Y-78740000D03*
X156210000Y-78740000D03*
X156210000Y-71120000D03*
X153670000Y-71120000D03*
X151130000Y-71120000D03*
%TD*%
D36*
%TO.C,CIO9*%
X64240500Y-31496000D03*
X66315500Y-31496000D03*
%TD*%
%TO.C,CG1*%
X216132500Y-114300000D03*
X218207500Y-114300000D03*
%TD*%
D11*
%TO.C,DG2*%
X178455000Y-139700000D03*
X180955000Y-139700000D03*
%TD*%
D37*
%TO.C,CIO10*%
X121285000Y-36997500D03*
X121285000Y-34122500D03*
%TD*%
%TO.C,CIO6*%
X116205000Y-36997500D03*
X116205000Y-34122500D03*
%TD*%
D23*
%TO.C,RIO2*%
X69850000Y-28940000D03*
X69850000Y-26940000D03*
%TD*%
D31*
%TO.C,JPVE1*%
X22835000Y-41895000D03*
D32*
X22835000Y-39355000D03*
X22835000Y-36815000D03*
%TD*%
D23*
%TO.C,RVE18*%
X39370000Y-100060000D03*
X39370000Y-98060000D03*
%TD*%
D38*
%TO.C,UPS2*%
X65405000Y-34255000D03*
X64135000Y-34255000D03*
X62865000Y-34255000D03*
X61595000Y-34255000D03*
X61595000Y-39405000D03*
X62865000Y-39405000D03*
X64135000Y-39405000D03*
X65405000Y-39405000D03*
%TD*%
D39*
%TO.C,CM1*%
X80010000Y-103737500D03*
X80010000Y-105812500D03*
%TD*%
D40*
%TO.C,CPF46*%
X97497500Y-85090000D03*
X100622500Y-85090000D03*
%TD*%
D29*
%TO.C,CVE4*%
X33375000Y-67945000D03*
X30125000Y-67945000D03*
%TD*%
D24*
%TO.C,U25*%
X196840000Y-68575000D03*
D25*
X196840000Y-66035000D03*
X196840000Y-63495000D03*
X196840000Y-60955000D03*
X196840000Y-58415000D03*
X196840000Y-55875000D03*
X196840000Y-53335000D03*
X196840000Y-50795000D03*
X196840000Y-48255000D03*
X196840000Y-45715000D03*
X189220000Y-45715000D03*
X189220000Y-48255000D03*
X189220000Y-50795000D03*
X189220000Y-53335000D03*
X189220000Y-55875000D03*
X189220000Y-58415000D03*
X189220000Y-60955000D03*
X189220000Y-63495000D03*
X189220000Y-66035000D03*
X189220000Y-68575000D03*
%TD*%
D29*
%TO.C,CVE2*%
X33375000Y-75565000D03*
X30125000Y-75565000D03*
%TD*%
D40*
%TO.C,CPF27*%
X218782500Y-67310000D03*
X221907500Y-67310000D03*
%TD*%
D29*
%TO.C,CVE7*%
X33375000Y-71755000D03*
X30125000Y-71755000D03*
%TD*%
D31*
%TO.C,JIO5*%
X49530000Y-87625000D03*
D32*
X49530000Y-90165000D03*
%TD*%
D40*
%TO.C,CPF50*%
X21932500Y-70485000D03*
X25057500Y-70485000D03*
%TD*%
D13*
%TO.C,RVE3*%
X46990000Y-98060000D03*
X46990000Y-100060000D03*
%TD*%
D41*
%TO.C,SWG1*%
X120960000Y-25697500D03*
X113950000Y-25697500D03*
D42*
X115200000Y-23207500D03*
X119700000Y-23207500D03*
%TD*%
D43*
%TO.C,CIO8*%
X72390000Y-31852500D03*
X72390000Y-34727500D03*
%TD*%
D44*
%TO.C,RIO8*%
X128540000Y-36830000D03*
X130540000Y-36830000D03*
%TD*%
D40*
%TO.C,CPF29*%
X134327500Y-102870000D03*
X137452500Y-102870000D03*
%TD*%
D13*
%TO.C,RPI1*%
X109855000Y-32020000D03*
X109855000Y-34020000D03*
%TD*%
D39*
%TO.C,CIO7*%
X62230000Y-26902500D03*
X62230000Y-28977500D03*
%TD*%
D20*
%TO.C,CPF11*%
X203200000Y-145072500D03*
X203200000Y-141947500D03*
%TD*%
D33*
%TO.C,CIO5*%
X78994000Y-43201500D03*
X78994000Y-41126500D03*
%TD*%
D23*
%TO.C,RVE13*%
X36830000Y-96250000D03*
X36830000Y-94250000D03*
%TD*%
D45*
%TO.C,CPS4*%
X225400000Y-85725000D03*
X231800000Y-85725000D03*
%TD*%
D46*
%TO.C,DPS2*%
X214620000Y-32310000D03*
X219720000Y-32310000D03*
X219720000Y-23570000D03*
X214620000Y-23570000D03*
%TD*%
D20*
%TO.C,CPF18*%
X80010000Y-77762500D03*
X80010000Y-74637500D03*
%TD*%
D33*
%TO.C,CVE8*%
X24130000Y-96287500D03*
X24130000Y-94212500D03*
%TD*%
D12*
%TO.C,RG8*%
X180705000Y-137795000D03*
X178705000Y-137795000D03*
%TD*%
D24*
%TO.C,U47*%
X125730000Y-81280000D03*
D25*
X125730000Y-78740000D03*
X125730000Y-76200000D03*
X125730000Y-73660000D03*
X125730000Y-71120000D03*
X125730000Y-68580000D03*
X125730000Y-66040000D03*
X125730000Y-63500000D03*
X118110000Y-63500000D03*
X118110000Y-66040000D03*
X118110000Y-68580000D03*
X118110000Y-71120000D03*
X118110000Y-73660000D03*
X118110000Y-76200000D03*
X118110000Y-78740000D03*
X118110000Y-81280000D03*
%TD*%
D33*
%TO.C,CVE3*%
X39370000Y-96287500D03*
X39370000Y-94212500D03*
%TD*%
D45*
%TO.C,CPS2*%
X224232000Y-38354000D03*
X230632000Y-38354000D03*
%TD*%
D37*
%TO.C,CPS1*%
X59690000Y-34457500D03*
X59690000Y-31582500D03*
%TD*%
D47*
%TO.C,CG2*%
X218207500Y-116840000D03*
X216132500Y-116840000D03*
%TD*%
D23*
%TO.C,RVE20*%
X26670000Y-96250000D03*
X26670000Y-94250000D03*
%TD*%
D40*
%TO.C,CPF45*%
X131152500Y-67315000D03*
X134277500Y-67315000D03*
%TD*%
D44*
%TO.C,RPS4*%
X67580000Y-38862000D03*
X69580000Y-38862000D03*
%TD*%
D36*
%TO.C,CPS5*%
X229467500Y-59055000D03*
X231542500Y-59055000D03*
%TD*%
D48*
%TO.C,H5*%
X25827056Y-146477056D03*
X24130000Y-147180000D03*
X22432944Y-146477056D03*
D49*
X24130000Y-144780000D03*
D48*
X22432944Y-143082944D03*
X26530000Y-144780000D03*
X24130000Y-142380000D03*
X25827056Y-143082944D03*
X21730000Y-144780000D03*
%TD*%
D40*
%TO.C,CPF24*%
X176237500Y-102870000D03*
X179362500Y-102870000D03*
%TD*%
D24*
%TO.C,U20*%
X73655000Y-48250000D03*
D25*
X71115000Y-48250000D03*
X68575000Y-48250000D03*
X66035000Y-48250000D03*
X63495000Y-48250000D03*
X60955000Y-48250000D03*
X58415000Y-48250000D03*
X55875000Y-48250000D03*
X53335000Y-48250000D03*
X50795000Y-48250000D03*
X48255000Y-48250000D03*
X45715000Y-48250000D03*
X43175000Y-48250000D03*
X40635000Y-48250000D03*
X40635000Y-63490000D03*
X43175000Y-63490000D03*
X45715000Y-63490000D03*
X48255000Y-63490000D03*
X50795000Y-63490000D03*
X53335000Y-63490000D03*
X55875000Y-63490000D03*
X58415000Y-63490000D03*
X60955000Y-63490000D03*
X63495000Y-63490000D03*
X66035000Y-63490000D03*
X68575000Y-63490000D03*
X71115000Y-63490000D03*
X73655000Y-63490000D03*
%TD*%
D11*
%TO.C,DVE1*%
X44450000Y-85745000D03*
X44450000Y-88245000D03*
%TD*%
%TO.C,DIO9*%
X194925000Y-105410000D03*
X192425000Y-105410000D03*
%TD*%
D20*
%TO.C,CPF21*%
X96520000Y-39662500D03*
X96520000Y-36537500D03*
%TD*%
D36*
%TO.C,CPS7*%
X67542500Y-34290000D03*
X69617500Y-34290000D03*
%TD*%
D13*
%TO.C,RIO5*%
X62230000Y-23130000D03*
X62230000Y-25130000D03*
%TD*%
D31*
%TO.C,JIOKB2*%
X58420000Y-98425000D03*
D32*
X60960000Y-98425000D03*
X63500000Y-98425000D03*
X66040000Y-98425000D03*
X68580000Y-98425000D03*
X71120000Y-98425000D03*
X73660000Y-98425000D03*
X76200000Y-98425000D03*
%TD*%
D44*
%TO.C,RIO14*%
X128540000Y-31750000D03*
X130540000Y-31750000D03*
%TD*%
D13*
%TO.C,RG1*%
X206375000Y-114570000D03*
X206375000Y-116570000D03*
%TD*%
D20*
%TO.C,CPF2*%
X181605000Y-122202500D03*
X181605000Y-119077500D03*
%TD*%
D23*
%TO.C,RVE28*%
X22860000Y-92059000D03*
X22860000Y-90059000D03*
%TD*%
D20*
%TO.C,CPF14*%
X104140000Y-122202500D03*
X104140000Y-119077500D03*
%TD*%
D23*
%TO.C,RVE9*%
X28448000Y-37830000D03*
X28448000Y-35830000D03*
%TD*%
D11*
%TO.C,DIO10*%
X190480000Y-105410000D03*
X187980000Y-105410000D03*
%TD*%
D20*
%TO.C,CPF37*%
X48260000Y-122202500D03*
X48260000Y-119077500D03*
%TD*%
%TO.C,CPF6*%
X157465000Y-122222500D03*
X157465000Y-119097500D03*
%TD*%
D24*
%TO.C,U7*%
X175260000Y-137160000D03*
D25*
X172720000Y-137160000D03*
X170180000Y-137160000D03*
X167640000Y-137160000D03*
X165100000Y-137160000D03*
X162560000Y-137160000D03*
X160020000Y-137160000D03*
X160020000Y-144780000D03*
X162560000Y-144780000D03*
X165100000Y-144780000D03*
X167640000Y-144780000D03*
X170180000Y-144780000D03*
X172720000Y-144780000D03*
X175260000Y-144780000D03*
%TD*%
D40*
%TO.C,CPF3*%
X227037500Y-137160000D03*
X230162500Y-137160000D03*
%TD*%
D44*
%TO.C,RG4*%
X113300000Y-29210000D03*
X115300000Y-29210000D03*
%TD*%
D20*
%TO.C,CPF23*%
X80010000Y-88215000D03*
X80010000Y-85090000D03*
%TD*%
D40*
%TO.C,CPF48*%
X86702500Y-85090000D03*
X89827500Y-85090000D03*
%TD*%
D50*
%TO.C,LVE1*%
X24765000Y-73000000D03*
X24765000Y-79400000D03*
%TD*%
D23*
%TO.C,RVE17*%
X31750000Y-100060000D03*
X31750000Y-98060000D03*
%TD*%
%TO.C,RVF1*%
X92710000Y-39100000D03*
X92710000Y-37100000D03*
%TD*%
D36*
%TO.C,CG5*%
X178667500Y-135763000D03*
X180742500Y-135763000D03*
%TD*%
D24*
%TO.C,U23*%
X76200000Y-80010000D03*
D25*
X73660000Y-80010000D03*
X71120000Y-80010000D03*
X68580000Y-80010000D03*
X66040000Y-80010000D03*
X63500000Y-80010000D03*
X60960000Y-80010000D03*
X58420000Y-80010000D03*
X55880000Y-80010000D03*
X53340000Y-80010000D03*
X53340000Y-87630000D03*
X55880000Y-87630000D03*
X58420000Y-87630000D03*
X60960000Y-87630000D03*
X63500000Y-87630000D03*
X66040000Y-87630000D03*
X68580000Y-87630000D03*
X71120000Y-87630000D03*
X73660000Y-87630000D03*
X76200000Y-87630000D03*
%TD*%
D12*
%TO.C,RG5*%
X120380000Y-31750000D03*
X118380000Y-31750000D03*
%TD*%
D13*
%TO.C,RCPU3*%
X200025000Y-99330000D03*
X200025000Y-101330000D03*
%TD*%
D40*
%TO.C,CPF42*%
X107657500Y-85090000D03*
X110782500Y-85090000D03*
%TD*%
D13*
%TO.C,RIO6*%
X81026000Y-41164000D03*
X81026000Y-43164000D03*
%TD*%
D20*
%TO.C,CPF35*%
X80015000Y-110772500D03*
X80015000Y-107647500D03*
%TD*%
D24*
%TO.C,U42*%
X115570000Y-81280000D03*
D25*
X115570000Y-78740000D03*
X115570000Y-76200000D03*
X115570000Y-73660000D03*
X115570000Y-71120000D03*
X115570000Y-68580000D03*
X115570000Y-66040000D03*
X115570000Y-63500000D03*
X107950000Y-63500000D03*
X107950000Y-66040000D03*
X107950000Y-68580000D03*
X107950000Y-71120000D03*
X107950000Y-73660000D03*
X107950000Y-76200000D03*
X107950000Y-78740000D03*
X107950000Y-81280000D03*
%TD*%
D22*
%TO.C,YVE1*%
X40005000Y-84545000D03*
X40005000Y-89425000D03*
%TD*%
D20*
%TO.C,CPF17*%
X111745000Y-96812500D03*
X111745000Y-93687500D03*
%TD*%
D13*
%TO.C,RVE2*%
X26035000Y-40910000D03*
X26035000Y-42910000D03*
%TD*%
D20*
%TO.C,CPF34*%
X81275000Y-145072500D03*
X81275000Y-141947500D03*
%TD*%
D24*
%TO.C,U38*%
X44450000Y-102870000D03*
D25*
X41910000Y-102870000D03*
X39370000Y-102870000D03*
X36830000Y-102870000D03*
X34290000Y-102870000D03*
X31750000Y-102870000D03*
X29210000Y-102870000D03*
X26670000Y-102870000D03*
X26670000Y-110490000D03*
X29210000Y-110490000D03*
X31750000Y-110490000D03*
X34290000Y-110490000D03*
X36830000Y-110490000D03*
X39370000Y-110490000D03*
X41910000Y-110490000D03*
X44450000Y-110490000D03*
%TD*%
D20*
%TO.C,CPF39*%
X57150000Y-145072500D03*
X57150000Y-141947500D03*
%TD*%
D11*
%TO.C,DIO11*%
X204450000Y-105410000D03*
X201950000Y-105410000D03*
%TD*%
D44*
%TO.C,RCPU2*%
X139970000Y-73533000D03*
X141970000Y-73533000D03*
%TD*%
D24*
%TO.C,U44*%
X87615000Y-57155000D03*
D25*
X90155000Y-57155000D03*
X92695000Y-57155000D03*
X95235000Y-57155000D03*
X97775000Y-57155000D03*
X100315000Y-57155000D03*
X102855000Y-57155000D03*
X105395000Y-57155000D03*
X107935000Y-57155000D03*
X110475000Y-57155000D03*
X113015000Y-57155000D03*
X115555000Y-57155000D03*
X118095000Y-57155000D03*
X120635000Y-57155000D03*
X123175000Y-57155000D03*
X125715000Y-57155000D03*
X125715000Y-41915000D03*
X123175000Y-41915000D03*
X120635000Y-41915000D03*
X118095000Y-41915000D03*
X115555000Y-41915000D03*
X113015000Y-41915000D03*
X110475000Y-41915000D03*
X107935000Y-41915000D03*
X105395000Y-41915000D03*
X102855000Y-41915000D03*
X100315000Y-41915000D03*
X97775000Y-41915000D03*
X95235000Y-41915000D03*
X92695000Y-41915000D03*
X90155000Y-41915000D03*
X87615000Y-41915000D03*
%TD*%
D11*
%TO.C,DPS1*%
X59690000Y-36850000D03*
X59690000Y-39350000D03*
%TD*%
D23*
%TO.C,RVE22*%
X41910000Y-96250000D03*
X41910000Y-94250000D03*
%TD*%
D38*
%TO.C,U22*%
X67945000Y-24095000D03*
X66675000Y-24095000D03*
X65405000Y-24095000D03*
X64135000Y-24095000D03*
X64135000Y-29245000D03*
X65405000Y-29245000D03*
X66675000Y-29245000D03*
X67945000Y-29245000D03*
%TD*%
D11*
%TO.C,DVE2*%
X29845000Y-85745000D03*
X29845000Y-88245000D03*
%TD*%
D13*
%TO.C,RVE24*%
X29210000Y-49165000D03*
X29210000Y-51165000D03*
%TD*%
D49*
%TO.C,H2*%
X215900000Y-39370000D03*
D48*
X218300000Y-39370000D03*
X217597056Y-37672944D03*
X214202944Y-37672944D03*
X215900000Y-36970000D03*
X217597056Y-41067056D03*
X213500000Y-39370000D03*
X215900000Y-41770000D03*
X214202944Y-41067056D03*
%TD*%
D13*
%TO.C,RIO1*%
X81280000Y-37100000D03*
X81280000Y-39100000D03*
%TD*%
D24*
%TO.C,U1*%
X201930000Y-114300000D03*
D25*
X199390000Y-114300000D03*
X196850000Y-114300000D03*
X194310000Y-114300000D03*
X191770000Y-114300000D03*
X189230000Y-114300000D03*
X186690000Y-114300000D03*
X186690000Y-121920000D03*
X189230000Y-121920000D03*
X191770000Y-121920000D03*
X194310000Y-121920000D03*
X196850000Y-121920000D03*
X199390000Y-121920000D03*
X201930000Y-121920000D03*
%TD*%
D24*
%TO.C,U11*%
X199395000Y-137170000D03*
D25*
X196855000Y-137170000D03*
X194315000Y-137170000D03*
X191775000Y-137170000D03*
X189235000Y-137170000D03*
X186695000Y-137170000D03*
X184155000Y-137170000D03*
X184155000Y-144790000D03*
X186695000Y-144790000D03*
X189235000Y-144790000D03*
X191775000Y-144790000D03*
X194315000Y-144790000D03*
X196855000Y-144790000D03*
X199395000Y-144790000D03*
%TD*%
D21*
%TO.C,QVF1*%
X26337500Y-46670000D03*
X26337500Y-44770000D03*
X24462500Y-45720000D03*
%TD*%
D24*
%TO.C,U5*%
X127000000Y-125730000D03*
D25*
X124460000Y-125730000D03*
X121920000Y-125730000D03*
X119380000Y-125730000D03*
X116840000Y-125730000D03*
X114300000Y-125730000D03*
X111760000Y-125730000D03*
X109220000Y-125730000D03*
X109220000Y-133350000D03*
X111760000Y-133350000D03*
X114300000Y-133350000D03*
X116840000Y-133350000D03*
X119380000Y-133350000D03*
X121920000Y-133350000D03*
X124460000Y-133350000D03*
X127000000Y-133350000D03*
%TD*%
D40*
%TO.C,CPF22*%
X228307500Y-90805000D03*
X231432500Y-90805000D03*
%TD*%
D24*
%TO.C,RSIO1*%
X73660000Y-92710000D03*
D25*
X71120000Y-92710000D03*
X68580000Y-92710000D03*
X66040000Y-92710000D03*
X63500000Y-92710000D03*
X60960000Y-92710000D03*
X58420000Y-92710000D03*
X55880000Y-92710000D03*
X53340000Y-92710000D03*
%TD*%
D20*
%TO.C,CPF40*%
X80015000Y-133632500D03*
X80015000Y-130507500D03*
%TD*%
D24*
%TO.C,U21*%
X48260000Y-66040000D03*
D25*
X50800000Y-66040000D03*
X53340000Y-66040000D03*
X55880000Y-66040000D03*
X58420000Y-66040000D03*
X60960000Y-66040000D03*
X63500000Y-66040000D03*
X66040000Y-66040000D03*
X68580000Y-66040000D03*
X71120000Y-66040000D03*
X73660000Y-66040000D03*
X76200000Y-66040000D03*
X76200000Y-50800000D03*
X73660000Y-50800000D03*
X71120000Y-50800000D03*
X68580000Y-50800000D03*
X66040000Y-50800000D03*
X63500000Y-50800000D03*
X60960000Y-50800000D03*
X58420000Y-50800000D03*
X55880000Y-50800000D03*
X53340000Y-50800000D03*
X50800000Y-50800000D03*
X48260000Y-50800000D03*
%TD*%
D23*
%TO.C,RVE15*%
X26035000Y-37830000D03*
X26035000Y-35830000D03*
%TD*%
D24*
%TO.C,RSCPU1*%
X172720000Y-96520000D03*
D25*
X172720000Y-93980000D03*
X172720000Y-91440000D03*
X172720000Y-88900000D03*
X172720000Y-86360000D03*
X172720000Y-83820000D03*
X172720000Y-81280000D03*
X172720000Y-78740000D03*
X172720000Y-76200000D03*
%TD*%
D21*
%TO.C,QVF4*%
X26337500Y-50480000D03*
X26337500Y-48580000D03*
X24462500Y-49530000D03*
%TD*%
D12*
%TO.C,RPI2*%
X126095000Y-29210000D03*
X124095000Y-29210000D03*
%TD*%
D13*
%TO.C,RVE19*%
X29210000Y-54245000D03*
X29210000Y-56245000D03*
%TD*%
D12*
%TO.C,RIO13*%
X126730000Y-34290000D03*
X124730000Y-34290000D03*
%TD*%
D20*
%TO.C,CPF1*%
X205740000Y-122222500D03*
X205740000Y-119097500D03*
%TD*%
D24*
%TO.C,U13*%
X226065000Y-125730000D03*
D25*
X223525000Y-125730000D03*
X220985000Y-125730000D03*
X218445000Y-125730000D03*
X215905000Y-125730000D03*
X213365000Y-125730000D03*
X210825000Y-125730000D03*
X210825000Y-133350000D03*
X213365000Y-133350000D03*
X215905000Y-133350000D03*
X218445000Y-133350000D03*
X220985000Y-133350000D03*
X223525000Y-133350000D03*
X226065000Y-133350000D03*
%TD*%
D24*
%TO.C,U46*%
X105410000Y-81280000D03*
D25*
X105410000Y-78740000D03*
X105410000Y-76200000D03*
X105410000Y-73660000D03*
X105410000Y-71120000D03*
X105410000Y-68580000D03*
X105410000Y-66040000D03*
X105410000Y-63500000D03*
X97790000Y-63500000D03*
X97790000Y-66040000D03*
X97790000Y-68580000D03*
X97790000Y-71120000D03*
X97790000Y-73660000D03*
X97790000Y-76200000D03*
X97790000Y-78740000D03*
X97790000Y-81280000D03*
%TD*%
D51*
%TO.C,DIO1*%
X76200000Y-35842000D03*
X76200000Y-39342000D03*
%TD*%
D52*
%TO.C,UPS1*%
X222660000Y-55305000D03*
X224360000Y-55305000D03*
X226060000Y-55305000D03*
D53*
X226060000Y-46155000D03*
D52*
X227760000Y-55305000D03*
X229460000Y-55305000D03*
%TD*%
D13*
%TO.C,RIO4*%
X113665000Y-34560000D03*
X113665000Y-36560000D03*
%TD*%
D24*
%TO.C,U35*%
X76200000Y-102870000D03*
D25*
X73660000Y-102870000D03*
X71120000Y-102870000D03*
X68580000Y-102870000D03*
X66040000Y-102870000D03*
X63500000Y-102870000D03*
X60960000Y-102870000D03*
X58420000Y-102870000D03*
X55880000Y-102870000D03*
X53340000Y-102870000D03*
X53340000Y-110490000D03*
X55880000Y-110490000D03*
X58420000Y-110490000D03*
X60960000Y-110490000D03*
X63500000Y-110490000D03*
X66040000Y-110490000D03*
X68580000Y-110490000D03*
X71120000Y-110490000D03*
X73660000Y-110490000D03*
X76200000Y-110490000D03*
%TD*%
D13*
%TO.C,RVE10*%
X44450000Y-98060000D03*
X44450000Y-100060000D03*
%TD*%
D20*
%TO.C,CPF5*%
X130825000Y-133632500D03*
X130825000Y-130507500D03*
%TD*%
D54*
%TO.C,JPS1*%
X227930000Y-34290000D03*
D55*
X227930000Y-28490000D03*
D56*
X223130000Y-31290000D03*
%TD*%
D13*
%TO.C,RG3*%
X208280000Y-118380000D03*
X208280000Y-120380000D03*
%TD*%
D22*
%TO.C,YVE2*%
X34290000Y-84545000D03*
X34290000Y-89425000D03*
%TD*%
D57*
%TO.C,LPS1*%
X224790000Y-71250000D03*
X224790000Y-81150000D03*
%TD*%
D31*
%TO.C,TP2*%
X22860000Y-138430000D03*
D32*
X25400000Y-138430000D03*
%TD*%
D31*
%TO.C,JIO3*%
X50800000Y-41910000D03*
D32*
X50800000Y-39370000D03*
X48260000Y-41910000D03*
X48260000Y-39370000D03*
X45720000Y-41910000D03*
X45720000Y-39370000D03*
X43180000Y-41910000D03*
X43180000Y-39370000D03*
X40640000Y-41910000D03*
X40640000Y-39370000D03*
X38100000Y-41910000D03*
X38100000Y-39370000D03*
X35560000Y-41910000D03*
X35560000Y-39370000D03*
X33020000Y-41910000D03*
X33020000Y-39370000D03*
%TD*%
D58*
%TO.C,JVE3*%
X41910000Y-34290000D03*
D59*
X41910000Y-31750000D03*
X44450000Y-34290000D03*
X44450000Y-31750000D03*
X46990000Y-34290000D03*
X46990000Y-31750000D03*
X49530000Y-34290000D03*
X49530000Y-31750000D03*
X52070000Y-34290000D03*
X52070000Y-31750000D03*
%TD*%
D23*
%TO.C,RVE14*%
X44450000Y-96250000D03*
X44450000Y-94250000D03*
%TD*%
D31*
%TO.C,JCPU1*%
X137160000Y-31750000D03*
D32*
X137160000Y-34290000D03*
X139700000Y-31750000D03*
X139700000Y-34290000D03*
X142240000Y-31750000D03*
X142240000Y-34290000D03*
X144780000Y-31750000D03*
X144780000Y-34290000D03*
X149860000Y-31750000D03*
X149860000Y-34290000D03*
X152400000Y-31750000D03*
X152400000Y-34290000D03*
X154940000Y-31750000D03*
X154940000Y-34290000D03*
X157480000Y-31750000D03*
X157480000Y-34290000D03*
X160020000Y-31750000D03*
X160020000Y-34290000D03*
X162560000Y-31750000D03*
X162560000Y-34290000D03*
X165100000Y-31750000D03*
X165100000Y-34290000D03*
X167640000Y-31750000D03*
X167640000Y-34290000D03*
X170180000Y-31750000D03*
X170180000Y-34290000D03*
X172720000Y-31750000D03*
X172720000Y-34290000D03*
X175260000Y-31750000D03*
X175260000Y-34290000D03*
X177800000Y-31750000D03*
X177800000Y-34290000D03*
X180340000Y-31750000D03*
X180340000Y-34290000D03*
X182880000Y-31750000D03*
X182880000Y-34290000D03*
X185420000Y-31750000D03*
X185420000Y-34290000D03*
X187960000Y-31750000D03*
X187960000Y-34290000D03*
X190500000Y-31750000D03*
X190500000Y-34290000D03*
X193040000Y-31750000D03*
X193040000Y-34290000D03*
X195580000Y-31750000D03*
X195580000Y-34290000D03*
X198120000Y-31750000D03*
X198120000Y-34290000D03*
X200660000Y-31750000D03*
X200660000Y-34290000D03*
X203200000Y-31750000D03*
X203200000Y-34290000D03*
X205740000Y-31750000D03*
X205740000Y-34290000D03*
X208280000Y-31750000D03*
X208280000Y-34290000D03*
X210820000Y-31750000D03*
X210820000Y-34290000D03*
%TD*%
D40*
%TO.C,CPF44*%
X87337500Y-39116000D03*
X90462500Y-39116000D03*
%TD*%
D24*
%TO.C,U6*%
X153655000Y-114300000D03*
D25*
X151115000Y-114300000D03*
X148575000Y-114300000D03*
X146035000Y-114300000D03*
X143495000Y-114300000D03*
X140955000Y-114300000D03*
X138415000Y-114300000D03*
X135875000Y-114300000D03*
X135875000Y-121920000D03*
X138415000Y-121920000D03*
X140955000Y-121920000D03*
X143495000Y-121920000D03*
X146035000Y-121920000D03*
X148575000Y-121920000D03*
X151115000Y-121920000D03*
X153655000Y-121920000D03*
%TD*%
D20*
%TO.C,CPF38*%
X48260000Y-110772500D03*
X48260000Y-107647500D03*
%TD*%
D23*
%TO.C,RIO7*%
X71755000Y-38862000D03*
X71755000Y-36862000D03*
%TD*%
D20*
%TO.C,CPF15*%
X154945000Y-133652500D03*
X154945000Y-130527500D03*
%TD*%
D60*
%TO.C,CPS6*%
X68412500Y-41910000D03*
X71287500Y-41910000D03*
%TD*%
D20*
%TO.C,CPF32*%
X105410000Y-145072500D03*
X105410000Y-141947500D03*
%TD*%
%TO.C,CPF41*%
X48265000Y-133632500D03*
X48265000Y-130507500D03*
%TD*%
%TO.C,CPF31*%
X162560000Y-110150000D03*
X162560000Y-107025000D03*
%TD*%
%TO.C,CPF12*%
X154940000Y-145072500D03*
X154940000Y-141947500D03*
%TD*%
D13*
%TO.C,RVE4*%
X29210000Y-98060000D03*
X29210000Y-100060000D03*
%TD*%
D48*
%TO.C,H6*%
X22432944Y-63072944D03*
X21730000Y-64770000D03*
X25827056Y-63072944D03*
X26530000Y-64770000D03*
D49*
X24130000Y-64770000D03*
D48*
X22432944Y-66467056D03*
X24130000Y-67170000D03*
X24130000Y-62370000D03*
X25827056Y-66467056D03*
%TD*%
D24*
%TO.C,U33*%
X101605000Y-125730000D03*
D25*
X99065000Y-125730000D03*
X96525000Y-125730000D03*
X93985000Y-125730000D03*
X91445000Y-125730000D03*
X88905000Y-125730000D03*
X86365000Y-125730000D03*
X86365000Y-133350000D03*
X88905000Y-133350000D03*
X91445000Y-133350000D03*
X93985000Y-133350000D03*
X96525000Y-133350000D03*
X99065000Y-133350000D03*
X101605000Y-133350000D03*
%TD*%
D24*
%TO.C,U17*%
X107935000Y-88900000D03*
D25*
X105395000Y-88900000D03*
X102855000Y-88900000D03*
X100315000Y-88900000D03*
X97775000Y-88900000D03*
X95235000Y-88900000D03*
X92695000Y-88900000D03*
X90155000Y-88900000D03*
X90155000Y-96520000D03*
X92695000Y-96520000D03*
X95235000Y-96520000D03*
X97775000Y-96520000D03*
X100315000Y-96520000D03*
X102855000Y-96520000D03*
X105395000Y-96520000D03*
X107935000Y-96520000D03*
%TD*%
D61*
%TO.C,CPF49*%
X222542500Y-86995000D03*
X219417500Y-86995000D03*
%TD*%
D24*
%TO.C,U28*%
X184150000Y-68580000D03*
D25*
X184150000Y-66040000D03*
X184150000Y-63500000D03*
X184150000Y-60960000D03*
X184150000Y-58420000D03*
X184150000Y-55880000D03*
X184150000Y-53340000D03*
X184150000Y-50800000D03*
X184150000Y-48260000D03*
X184150000Y-45720000D03*
X176530000Y-45720000D03*
X176530000Y-48260000D03*
X176530000Y-50800000D03*
X176530000Y-53340000D03*
X176530000Y-55880000D03*
X176530000Y-58420000D03*
X176530000Y-60960000D03*
X176530000Y-63500000D03*
X176530000Y-66040000D03*
X176530000Y-68580000D03*
%TD*%
D40*
%TO.C,CPF25*%
X188937500Y-102870000D03*
X192062500Y-102870000D03*
%TD*%
D44*
%TO.C,RIO12*%
X124730000Y-36830000D03*
X126730000Y-36830000D03*
%TD*%
D24*
%TO.C,U3*%
X177800000Y-114300000D03*
D25*
X175260000Y-114300000D03*
X172720000Y-114300000D03*
X170180000Y-114300000D03*
X167640000Y-114300000D03*
X165100000Y-114300000D03*
X162560000Y-114300000D03*
X162560000Y-121920000D03*
X165100000Y-121920000D03*
X167640000Y-121920000D03*
X170180000Y-121920000D03*
X172720000Y-121920000D03*
X175260000Y-121920000D03*
X177800000Y-121920000D03*
%TD*%
D20*
%TO.C,CPF10*%
X130825000Y-122212500D03*
X130825000Y-119087500D03*
%TD*%
D47*
%TO.C,CVE1*%
X32152500Y-78740000D03*
X30077500Y-78740000D03*
%TD*%
%TO.C,CG6*%
X185187500Y-105410000D03*
X183112500Y-105410000D03*
%TD*%
D24*
%TO.C,U8*%
X125735000Y-137160000D03*
D25*
X123195000Y-137160000D03*
X120655000Y-137160000D03*
X118115000Y-137160000D03*
X115575000Y-137160000D03*
X113035000Y-137160000D03*
X110495000Y-137160000D03*
X110495000Y-144780000D03*
X113035000Y-144780000D03*
X115575000Y-144780000D03*
X118115000Y-144780000D03*
X120655000Y-144780000D03*
X123195000Y-144780000D03*
X125735000Y-144780000D03*
%TD*%
D48*
%TO.C,H4*%
X226917344Y-143082944D03*
X228614400Y-142380000D03*
X226214400Y-144780000D03*
X226917344Y-146477056D03*
X228614400Y-147180000D03*
X230311456Y-146477056D03*
D49*
X228614400Y-144780000D03*
D48*
X231014400Y-144780000D03*
X230311456Y-143082944D03*
%TD*%
D13*
%TO.C,RVE11*%
X41910000Y-98060000D03*
X41910000Y-100060000D03*
%TD*%
%TO.C,RVE26*%
X26670000Y-84090000D03*
X26670000Y-86090000D03*
%TD*%
D24*
%TO.C,U9*%
X175265000Y-125730000D03*
D25*
X172725000Y-125730000D03*
X170185000Y-125730000D03*
X167645000Y-125730000D03*
X165105000Y-125730000D03*
X162565000Y-125730000D03*
X160025000Y-125730000D03*
X160025000Y-133350000D03*
X162565000Y-133350000D03*
X165105000Y-133350000D03*
X167645000Y-133350000D03*
X170185000Y-133350000D03*
X172725000Y-133350000D03*
X175265000Y-133350000D03*
%TD*%
D33*
%TO.C,CIO3*%
X85344000Y-39137500D03*
X85344000Y-37062500D03*
%TD*%
D44*
%TO.C,RVE6*%
X31750000Y-35560000D03*
X33750000Y-35560000D03*
%TD*%
%TO.C,RIO9*%
X128540000Y-34290000D03*
X130540000Y-34290000D03*
%TD*%
D40*
%TO.C,CPF43*%
X141312500Y-67310000D03*
X144437500Y-67310000D03*
%TD*%
D24*
%TO.C,U10*%
X127000000Y-114300000D03*
D25*
X124460000Y-114300000D03*
X121920000Y-114300000D03*
X119380000Y-114300000D03*
X116840000Y-114300000D03*
X114300000Y-114300000D03*
X111760000Y-114300000D03*
X109220000Y-114300000D03*
X109220000Y-121920000D03*
X111760000Y-121920000D03*
X114300000Y-121920000D03*
X116840000Y-121920000D03*
X119380000Y-121920000D03*
X121920000Y-121920000D03*
X124460000Y-121920000D03*
X127000000Y-121920000D03*
%TD*%
D31*
%TO.C,JIO1*%
X49530000Y-73660000D03*
D32*
X49530000Y-76200000D03*
X49530000Y-78740000D03*
%TD*%
D24*
%TO.C,U29*%
X142240000Y-99060000D03*
D25*
X142240000Y-96520000D03*
X142240000Y-93980000D03*
X142240000Y-91440000D03*
X142240000Y-88900000D03*
X142240000Y-86360000D03*
X142240000Y-83820000D03*
X142240000Y-81280000D03*
X142240000Y-78740000D03*
X142240000Y-76200000D03*
X134620000Y-76200000D03*
X134620000Y-78740000D03*
X134620000Y-81280000D03*
X134620000Y-83820000D03*
X134620000Y-86360000D03*
X134620000Y-88900000D03*
X134620000Y-91440000D03*
X134620000Y-93980000D03*
X134620000Y-96520000D03*
X134620000Y-99060000D03*
%TD*%
D62*
%TO.C,LPS2*%
X55880000Y-38355000D03*
X55980000Y-41655000D03*
%TD*%
D33*
%TO.C,CPS3*%
X220599000Y-36597500D03*
X220599000Y-34522500D03*
%TD*%
%TO.C,CIO4*%
X83312000Y-39137500D03*
X83312000Y-37062500D03*
%TD*%
D20*
%TO.C,CPF7*%
X179065000Y-145062500D03*
X179065000Y-141937500D03*
%TD*%
D24*
%TO.C,U31*%
X158755000Y-102247500D03*
D25*
X156215000Y-102247500D03*
X153675000Y-102247500D03*
X151135000Y-102247500D03*
X148595000Y-102247500D03*
X146055000Y-102247500D03*
X143515000Y-102247500D03*
X143515000Y-109867500D03*
X146055000Y-109867500D03*
X148595000Y-109867500D03*
X151135000Y-109867500D03*
X153675000Y-109867500D03*
X156215000Y-109867500D03*
X158755000Y-109867500D03*
%TD*%
D24*
%TO.C,U32*%
X101600000Y-137160000D03*
D25*
X99060000Y-137160000D03*
X96520000Y-137160000D03*
X93980000Y-137160000D03*
X91440000Y-137160000D03*
X88900000Y-137160000D03*
X86360000Y-137160000D03*
X86360000Y-144780000D03*
X88900000Y-144780000D03*
X91440000Y-144780000D03*
X93980000Y-144780000D03*
X96520000Y-144780000D03*
X99060000Y-144780000D03*
X101600000Y-144780000D03*
%TD*%
D12*
%TO.C,RG7*%
X185150000Y-102870000D03*
X183150000Y-102870000D03*
%TD*%
D60*
%TO.C,CIO1*%
X75524500Y-31750000D03*
X78399500Y-31750000D03*
%TD*%
D24*
%TO.C,U27*%
X215905000Y-96515000D03*
D25*
X215905000Y-93975000D03*
X215905000Y-91435000D03*
X215905000Y-88895000D03*
X215905000Y-86355000D03*
X215905000Y-83815000D03*
X215905000Y-81275000D03*
X215905000Y-78735000D03*
X215905000Y-76195000D03*
X215905000Y-73655000D03*
X215905000Y-71115000D03*
X215905000Y-68575000D03*
X215905000Y-66035000D03*
X215905000Y-63495000D03*
X215905000Y-60955000D03*
X215905000Y-58415000D03*
X215905000Y-55875000D03*
X215905000Y-53335000D03*
X215905000Y-50795000D03*
X215905000Y-48255000D03*
X200665000Y-48255000D03*
X200665000Y-50795000D03*
X200665000Y-53335000D03*
X200665000Y-55875000D03*
X200665000Y-58415000D03*
X200665000Y-60955000D03*
X200665000Y-63495000D03*
X200665000Y-66035000D03*
X200665000Y-68575000D03*
X200665000Y-71115000D03*
X200665000Y-73655000D03*
X200665000Y-76195000D03*
X200665000Y-78735000D03*
X200665000Y-81275000D03*
X200665000Y-83815000D03*
X200665000Y-86355000D03*
X200665000Y-88895000D03*
X200665000Y-91435000D03*
X200665000Y-93975000D03*
X200665000Y-96515000D03*
%TD*%
D24*
%TO.C,U4*%
X201935000Y-125730000D03*
D25*
X199395000Y-125730000D03*
X196855000Y-125730000D03*
X194315000Y-125730000D03*
X191775000Y-125730000D03*
X189235000Y-125730000D03*
X186695000Y-125730000D03*
X186695000Y-133350000D03*
X189235000Y-133350000D03*
X191775000Y-133350000D03*
X194315000Y-133350000D03*
X196855000Y-133350000D03*
X199395000Y-133350000D03*
X201935000Y-133350000D03*
%TD*%
D24*
%TO.C,RSCPU2*%
X172730000Y-66060000D03*
D25*
X172730000Y-63520000D03*
X172730000Y-60980000D03*
X172730000Y-58440000D03*
X172730000Y-55900000D03*
X172730000Y-53360000D03*
X172730000Y-50820000D03*
X172730000Y-48280000D03*
X172730000Y-45740000D03*
%TD*%
D24*
%TO.C,U37*%
X44435000Y-114300000D03*
D25*
X41895000Y-114300000D03*
X39355000Y-114300000D03*
X36815000Y-114300000D03*
X34275000Y-114300000D03*
X31735000Y-114300000D03*
X29195000Y-114300000D03*
X26655000Y-114300000D03*
X26655000Y-121920000D03*
X29195000Y-121920000D03*
X31735000Y-121920000D03*
X34275000Y-121920000D03*
X36815000Y-121920000D03*
X39355000Y-121920000D03*
X41895000Y-121920000D03*
X44435000Y-121920000D03*
%TD*%
D24*
%TO.C,U34*%
X77470000Y-137160000D03*
D25*
X74930000Y-137160000D03*
X72390000Y-137160000D03*
X69850000Y-137160000D03*
X67310000Y-137160000D03*
X64770000Y-137160000D03*
X62230000Y-137160000D03*
X62230000Y-144780000D03*
X64770000Y-144780000D03*
X67310000Y-144780000D03*
X69850000Y-144780000D03*
X72390000Y-144780000D03*
X74930000Y-144780000D03*
X77470000Y-144780000D03*
%TD*%
D63*
%TO.C,JIO4*%
X106140000Y-30135000D03*
X104140000Y-28335000D03*
X104140000Y-22235000D03*
X106140000Y-24635000D03*
X104140000Y-33835000D03*
%TD*%
D13*
%TO.C,RVE1*%
X28067000Y-40910000D03*
X28067000Y-42910000D03*
%TD*%
D24*
%TO.C,U39*%
X53340000Y-137160000D03*
D25*
X50800000Y-137160000D03*
X48260000Y-137160000D03*
X45720000Y-137160000D03*
X43180000Y-137160000D03*
X40640000Y-137160000D03*
X38100000Y-137160000D03*
X35560000Y-137160000D03*
X33020000Y-137160000D03*
X30480000Y-137160000D03*
X30480000Y-144780000D03*
X33020000Y-144780000D03*
X35560000Y-144780000D03*
X38100000Y-144780000D03*
X40640000Y-144780000D03*
X43180000Y-144780000D03*
X45720000Y-144780000D03*
X48260000Y-144780000D03*
X50800000Y-144780000D03*
X53340000Y-144780000D03*
%TD*%
D24*
%TO.C,U12*%
X151135000Y-137170000D03*
D25*
X148595000Y-137170000D03*
X146055000Y-137170000D03*
X143515000Y-137170000D03*
X140975000Y-137170000D03*
X138435000Y-137170000D03*
X135895000Y-137170000D03*
X135895000Y-144790000D03*
X138435000Y-144790000D03*
X140975000Y-144790000D03*
X143515000Y-144790000D03*
X146055000Y-144790000D03*
X148595000Y-144790000D03*
X151135000Y-144790000D03*
%TD*%
D24*
%TO.C,U45*%
X149865000Y-63505000D03*
D25*
X149865000Y-60965000D03*
X149865000Y-58425000D03*
X149865000Y-55885000D03*
X149865000Y-53345000D03*
X149865000Y-50805000D03*
X149865000Y-48265000D03*
X149865000Y-45725000D03*
X149865000Y-43185000D03*
X149865000Y-40645000D03*
X142245000Y-40645000D03*
X142245000Y-43185000D03*
X142245000Y-45725000D03*
X142245000Y-48265000D03*
X142245000Y-50805000D03*
X142245000Y-53345000D03*
X142245000Y-55885000D03*
X142245000Y-58425000D03*
X142245000Y-60965000D03*
X142245000Y-63505000D03*
%TD*%
D50*
%TO.C,LIO1*%
X75565000Y-22835000D03*
X75565000Y-29235000D03*
%TD*%
D44*
%TO.C,RPS3*%
X63770000Y-41910000D03*
X65770000Y-41910000D03*
%TD*%
D64*
%TO.C,JPVE2*%
X36800000Y-66040000D03*
D65*
X38100000Y-66040000D03*
D66*
X39400000Y-66040000D03*
%TD*%
D67*
%TO.C,DPS3*%
X219710000Y-64230000D03*
X219710000Y-60230000D03*
%TD*%
D31*
%TO.C,JIOKB1*%
X206550000Y-108200000D03*
D32*
X204010000Y-108200000D03*
X201470000Y-108200000D03*
X198930000Y-108200000D03*
X196390000Y-108200000D03*
X193850000Y-108200000D03*
X191310000Y-108200000D03*
X188770000Y-108200000D03*
%TD*%
D11*
%TO.C,DIO4*%
X203220000Y-111760000D03*
X205720000Y-111760000D03*
%TD*%
D20*
%TO.C,CPF4*%
X205740000Y-133642500D03*
X205740000Y-130517500D03*
%TD*%
D24*
%TO.C,U2*%
X223525000Y-137170000D03*
D25*
X220985000Y-137170000D03*
X218445000Y-137170000D03*
X215905000Y-137170000D03*
X213365000Y-137170000D03*
X210825000Y-137170000D03*
X208285000Y-137170000D03*
X208285000Y-144790000D03*
X210825000Y-144790000D03*
X213365000Y-144790000D03*
X215905000Y-144790000D03*
X218445000Y-144790000D03*
X220985000Y-144790000D03*
X223525000Y-144790000D03*
%TD*%
D12*
%TO.C,RVE25*%
X43545000Y-66040000D03*
X41545000Y-66040000D03*
%TD*%
D68*
%TO.C,SWVF1*%
X92480000Y-24740000D03*
X92480000Y-27940000D03*
X92480000Y-31140000D03*
X95480000Y-24740000D03*
X95480000Y-27940000D03*
X95480000Y-31140000D03*
D69*
X90580000Y-22040000D03*
X97380000Y-33840000D03*
%TD*%
D51*
%TO.C,DIO3*%
X78486000Y-35842000D03*
X78486000Y-39342000D03*
%TD*%
D40*
%TO.C,CPF26*%
X188927500Y-72385000D03*
X192052500Y-72385000D03*
%TD*%
D20*
%TO.C,CPF8*%
X129540000Y-145062500D03*
X129540000Y-141937500D03*
%TD*%
D23*
%TO.C,RVE16*%
X24130000Y-100060000D03*
X24130000Y-98060000D03*
%TD*%
D40*
%TO.C,CPF28*%
X176237500Y-72395000D03*
X179362500Y-72395000D03*
%TD*%
D24*
%TO.C,U16*%
X107950000Y-102870000D03*
D25*
X105410000Y-102870000D03*
X102870000Y-102870000D03*
X100330000Y-102870000D03*
X97790000Y-102870000D03*
X95250000Y-102870000D03*
X92710000Y-102870000D03*
X90170000Y-102870000D03*
X87630000Y-102870000D03*
X85090000Y-102870000D03*
X85090000Y-110490000D03*
X87630000Y-110490000D03*
X90170000Y-110490000D03*
X92710000Y-110490000D03*
X95250000Y-110490000D03*
X97790000Y-110490000D03*
X100330000Y-110490000D03*
X102870000Y-110490000D03*
X105410000Y-110490000D03*
X107950000Y-110490000D03*
%TD*%
D23*
%TO.C,RPI3*%
X59690000Y-24495000D03*
X59690000Y-22495000D03*
%TD*%
D31*
%TO.C,JPVE3*%
X23520000Y-82296000D03*
D32*
X23520000Y-84836000D03*
X23520000Y-87376000D03*
%TD*%
D20*
%TO.C,CPF16*%
X111760000Y-110782500D03*
X111760000Y-107657500D03*
%TD*%
D11*
%TO.C,DIO2*%
X73914000Y-36708000D03*
X73914000Y-39208000D03*
%TD*%
D40*
%TO.C,CPF47*%
X117817500Y-85090000D03*
X120942500Y-85090000D03*
%TD*%
D44*
%TO.C,RCPU1*%
X219345000Y-84455000D03*
X221345000Y-84455000D03*
%TD*%
D24*
%TO.C,U36*%
X76200000Y-114300000D03*
D25*
X73660000Y-114300000D03*
X71120000Y-114300000D03*
X68580000Y-114300000D03*
X66040000Y-114300000D03*
X63500000Y-114300000D03*
X60960000Y-114300000D03*
X58420000Y-114300000D03*
X55880000Y-114300000D03*
X53340000Y-114300000D03*
X53340000Y-121920000D03*
X55880000Y-121920000D03*
X58420000Y-121920000D03*
X60960000Y-121920000D03*
X63500000Y-121920000D03*
X66040000Y-121920000D03*
X68580000Y-121920000D03*
X71120000Y-121920000D03*
X73660000Y-121920000D03*
X76200000Y-121920000D03*
%TD*%
D48*
%TO.C,H3*%
X228600000Y-67170000D03*
D49*
X228600000Y-64770000D03*
D48*
X226902944Y-63072944D03*
X231000000Y-64770000D03*
X230297056Y-66467056D03*
X228600000Y-62370000D03*
X226902944Y-66467056D03*
X226200000Y-64770000D03*
X230297056Y-63072944D03*
%TD*%
D20*
%TO.C,CPF9*%
X179070000Y-133642500D03*
X179070000Y-130517500D03*
%TD*%
D24*
%TO.C,U26*%
X184150000Y-99060000D03*
D25*
X184150000Y-96520000D03*
X184150000Y-93980000D03*
X184150000Y-91440000D03*
X184150000Y-88900000D03*
X184150000Y-86360000D03*
X184150000Y-83820000D03*
X184150000Y-81280000D03*
X184150000Y-78740000D03*
X184150000Y-76200000D03*
X176530000Y-76200000D03*
X176530000Y-78740000D03*
X176530000Y-81280000D03*
X176530000Y-83820000D03*
X176530000Y-86360000D03*
X176530000Y-88900000D03*
X176530000Y-91440000D03*
X176530000Y-93980000D03*
X176530000Y-96520000D03*
X176530000Y-99060000D03*
%TD*%
D70*
%TO.C,CG3*%
X120817500Y-29210000D03*
X117942500Y-29210000D03*
%TD*%
D36*
%TO.C,CIO2*%
X75395000Y-33909000D03*
X77470000Y-33909000D03*
%TD*%
D13*
%TO.C,RVE8*%
X34290000Y-98060000D03*
X34290000Y-100060000D03*
%TD*%
D23*
%TO.C,RVE21*%
X34290000Y-96250000D03*
X34290000Y-94250000D03*
%TD*%
D47*
%TO.C,CG4*%
X183282500Y-133350000D03*
X181207500Y-133350000D03*
%TD*%
D20*
%TO.C,CPF19*%
X101600000Y-39662500D03*
X101600000Y-36537500D03*
%TD*%
D48*
%TO.C,H1*%
X124600000Y-24130000D03*
X129400000Y-24130000D03*
X127000000Y-26530000D03*
X127000000Y-21730000D03*
D49*
X127000000Y-24130000D03*
D48*
X125302944Y-22432944D03*
X128697056Y-25827056D03*
X128697056Y-22432944D03*
X125302944Y-25827056D03*
%TD*%
D24*
%TO.C,U41*%
X44455000Y-125730000D03*
D25*
X41915000Y-125730000D03*
X39375000Y-125730000D03*
X36835000Y-125730000D03*
X34295000Y-125730000D03*
X31755000Y-125730000D03*
X29215000Y-125730000D03*
X26675000Y-125730000D03*
X26675000Y-133350000D03*
X29215000Y-133350000D03*
X31755000Y-133350000D03*
X34295000Y-133350000D03*
X36835000Y-133350000D03*
X39375000Y-133350000D03*
X41915000Y-133350000D03*
X44455000Y-133350000D03*
%TD*%
D44*
%TO.C,RG6*%
X181245000Y-130810000D03*
X183245000Y-130810000D03*
%TD*%
D71*
%TO.C,CPF30*%
X146685000Y-88607500D03*
X146685000Y-91732500D03*
%TD*%
D72*
%TO.C,QG1*%
X178767500Y-126685000D03*
X178767500Y-128585000D03*
X180642500Y-127635000D03*
%TD*%
D23*
%TO.C,RG2*%
X208280000Y-116570000D03*
X208280000Y-114570000D03*
%TD*%
D44*
%TO.C,RPS2*%
X59960000Y-41910000D03*
X61960000Y-41910000D03*
%TD*%
D11*
%TO.C,DIO7*%
X193060000Y-111760000D03*
X195560000Y-111760000D03*
%TD*%
D24*
%TO.C,U14*%
X100335000Y-114300000D03*
D25*
X97795000Y-114300000D03*
X95255000Y-114300000D03*
X92715000Y-114300000D03*
X90175000Y-114300000D03*
X87635000Y-114300000D03*
X85095000Y-114300000D03*
X85095000Y-121920000D03*
X87635000Y-121920000D03*
X90175000Y-121920000D03*
X92715000Y-121920000D03*
X95255000Y-121920000D03*
X97795000Y-121920000D03*
X100335000Y-121920000D03*
%TD*%
D24*
%TO.C,U43*%
X139690000Y-63495000D03*
D25*
X139690000Y-60955000D03*
X139690000Y-58415000D03*
X139690000Y-55875000D03*
X139690000Y-53335000D03*
X139690000Y-50795000D03*
X139690000Y-48255000D03*
X139690000Y-45715000D03*
X139690000Y-43175000D03*
X139690000Y-40635000D03*
X132070000Y-40635000D03*
X132070000Y-43175000D03*
X132070000Y-45715000D03*
X132070000Y-48255000D03*
X132070000Y-50795000D03*
X132070000Y-53335000D03*
X132070000Y-55875000D03*
X132070000Y-58415000D03*
X132070000Y-60955000D03*
X132070000Y-63495000D03*
%TD*%
D24*
%TO.C,U24*%
X196840000Y-99055000D03*
D25*
X196840000Y-96515000D03*
X196840000Y-93975000D03*
X196840000Y-91435000D03*
X196840000Y-88895000D03*
X196840000Y-86355000D03*
X196840000Y-83815000D03*
X196840000Y-81275000D03*
X196840000Y-78735000D03*
X196840000Y-76195000D03*
X189220000Y-76195000D03*
X189220000Y-78735000D03*
X189220000Y-81275000D03*
X189220000Y-83815000D03*
X189220000Y-86355000D03*
X189220000Y-88895000D03*
X189220000Y-91435000D03*
X189220000Y-93975000D03*
X189220000Y-96515000D03*
X189220000Y-99055000D03*
%TD*%
D24*
%TO.C,U40*%
X76205000Y-125730000D03*
D25*
X73665000Y-125730000D03*
X71125000Y-125730000D03*
X68585000Y-125730000D03*
X66045000Y-125730000D03*
X63505000Y-125730000D03*
X60965000Y-125730000D03*
X58425000Y-125730000D03*
X55885000Y-125730000D03*
X53345000Y-125730000D03*
X53345000Y-133350000D03*
X55885000Y-133350000D03*
X58425000Y-133350000D03*
X60965000Y-133350000D03*
X63505000Y-133350000D03*
X66045000Y-133350000D03*
X68585000Y-133350000D03*
X71125000Y-133350000D03*
X73665000Y-133350000D03*
X76205000Y-133350000D03*
%TD*%
D20*
%TO.C,CPF33*%
X105410000Y-133350000D03*
X105410000Y-130225000D03*
%TD*%
D63*
%TO.C,JIO2*%
X86355000Y-30135000D03*
X84355000Y-28335000D03*
X84355000Y-22235000D03*
X86355000Y-24635000D03*
X84355000Y-33835000D03*
%TD*%
D13*
%TO.C,RVE7*%
X36830000Y-98060000D03*
X36830000Y-100060000D03*
%TD*%
D12*
%TO.C,RIO11*%
X126730000Y-31750000D03*
X124730000Y-31750000D03*
%TD*%
D33*
%TO.C,CVE9*%
X44450000Y-83587500D03*
X44450000Y-81512500D03*
%TD*%
D13*
%TO.C,RVE5*%
X26670000Y-98060000D03*
X26670000Y-100060000D03*
%TD*%
M02*
